<?xml version="1.0" encoding="UTF-8"?>
<svg id="a" xmlns="http://www.w3.org/2000/svg" width="677.33mm" height="381mm"
  xmlns:xlink="http://www.w3.org/1999/xlink" viewBox="0 0 1920 1080">
  <defs>
    <radialGradient id="b" cx="801.83" cy="737" fx="801.83" fy="737" r="254"
      gradientTransform="translate(-4399.91 -2954.93) rotate(90) scale(4.02 -6.61)" gradientUnits="userSpaceOnUse">
      <stop offset="0" stop-color="#2f2f2f" />
      <stop offset="1" stop-color="#111" />
    </radialGradient>
    <radialGradient id="f" cx="651" cy="751.22" fx="651" fy="751.22" r="551.18"
      gradientTransform="translate(0 1079.13) scale(1 -1)" gradientUnits="userSpaceOnUse">
      <stop offset="0" stop-color="#9f42c6" />
      <stop offset=".27" stop-color="#a041c3" />
      <stop offset=".42" stop-color="#a43ebb" />
      <stop offset=".53" stop-color="#aa39ad" />
      <stop offset=".64" stop-color="#b4339a" />
      <stop offset=".73" stop-color="#c02b81" />
      <stop offset=".82" stop-color="#cf2061" />
      <stop offset=".9" stop-color="#e1143c" />
      <stop offset=".97" stop-color="#f50613" />
      <stop offset="1" stop-color="red" />
    </radialGradient>
  </defs>
  <path d="M0,0h1920v1080H0V0Z" fill="url(#b)" isolation="isolate" opacity=".98" />
  <g id="c">
    <g id="d">
      <g id="e">
        <path id="g"
          d="M647.09,431.7v216.51c0,52.87-42.93,95.8-95.8,95.8h-216.51c-52.87,0-95.72-42.93-95.72-95.8v-216.51c0-52.87,42.84-95.72,95.72-95.72h216.51c28.22,0,53.55,12.16,71.15,31.62,4,4.42,7.57,9.18,10.63,14.28,1.53,2.47,2.89,5.02,4.25,7.57,2.81,5.78,5.1,11.82,6.72,18.19.85,3.15,1.53,6.46,1.96,9.78.77,4.59,1.11,9.44,1.11,14.28Z"
          fill="url(#f)" />
        <g id="h">
          <path
            d="M348.89,494.69l-12.41,12.41,122.41,122.41,12.41-12.5-36.72-36.64,198.49-198.49c-3.06-5.1-6.63-9.86-10.63-14.28l-200.27,200.27s-73.28-73.19-73.28-73.19ZM354.84,488.74l67.32,67.32,12.5-12.5-67.32-67.32-12.5,12.5ZM645.99,417.42l-162.96,162.96,12.5,12.41,151.57-151.57v-9.52c0-4.85-.34-9.69-1.11-14.28ZM477.16,611.15l12.5-12.41-18.36-18.36,172.73-172.73c-1.62-6.38-3.91-12.41-6.72-18.19l-190.92,190.92s30.77,30.77,30.77,30.77ZM452.94,525.29l-67.32-67.32-12.5,12.5,67.32,67.32s12.5-12.5,12.5-12.5ZM590.31,634.53c0,29.07-23.63,52.7-52.7,52.7h-189.05c-29.07,0-52.7-23.63-52.7-52.7v-189.05c0-29.07,23.63-52.79,52.7-52.79h176.64v-17.6h-176.64c-38.76,0-70.39,31.54-70.39,70.39v189.05c0,38.76,31.54,70.39,70.39,70.39h189.05c38.76,0,70.39-31.54,70.39-70.39v-29.84h-17.6v29.84h-.08Z"
            fill="#fff" />
        </g>
      </g>
      <g id="i">
        <path
          d="M881.45,336.83h-42.5l-12.24,74.3h-34.51v48.71h47.01c-4.08,1.11-7.31,3.74-9.61,7.91-2.3,4.17-3.49,8.84-3.49,13.86l.26,131.25c0,19.64,5.7,34.68,17.09,45.22,11.39,10.54,27.37,15.81,47.94,15.81,8.67,0,17.94-.08,27.63-.34,9.78-.26,18.79-1.19,27.2-2.72v-47.69c-4.93.17-10.37.26-16.41.34-6.04.09-12.58.08-19.72.08-11.05,0-18.62-1.79-22.7-5.44-4-3.66-6.04-10.03-6.04-19.21v-139.16h65.28v-48.71h-65.28v-74.21h.09ZM1093.03,405.61c-13.01,0-24.06,2.72-33.24,8.16-9.18,5.44-16.58,12.67-22.27,21.76-5.7,9.01-10.12,18.87-13.26,29.67-1.36,4.59-2.38,9.18-3.4,13.69l-4.17-67.84h-47.94v259.01h56.02v-173.75c2.72-7.31,7.06-13.35,13.09-18.28s12.58-8.59,19.72-11.05,13.77-3.66,19.98-3.66c5.19,0,10.88.26,16.83.68s11.73,1.7,17.09,3.57v-59.84c-2.72-.77-5.61-1.36-8.67-1.7-3.06-.34-6.29-.51-9.61-.51l-.17.09ZM1295.26,425.5c-9.01-7.06-19.38-11.99-31.11-14.96-11.73-2.98-24.06-4.42-37.06-4.42-22.19,0-41.31,3.4-57.55,10.2-16.24,6.8-28.39,17.34-36.55,31.71-8.16,14.37-11.39,32.64-9.61,54.91h51c.34-13.6,2.3-24.06,6.04-31.2,3.74-7.23,9.18-12.16,16.49-14.88s16.32-4,27.03-4c16.75,0,28.65,4.42,35.7,13.18,7.06,8.76,10.54,22.02,10.54,39.78v10.71c-5.19.34-12.67.94-22.44,1.79s-20.23,1.96-31.45,3.32-21.85,3.15-31.79,5.36c-14.54,2.98-27.03,7.57-37.49,13.69-10.46,6.12-18.45,14.11-23.97,23.97s-8.33,22.44-8.33,37.66c0,13.94,3.49,26.27,10.29,36.89,6.89,10.71,16.49,18.96,28.73,24.91,12.24,5.95,26.18,8.93,41.65,8.93,22.27,0,39.61-5.78,51.85-17.34,12.24-11.56,19.89-26.01,22.87-43.44l-.68,57.89h54.83v-169.5c0-18.7-2.64-34.09-7.82-46.33s-12.33-21.76-21.34-28.82h.17ZM1270.36,595.08c-1.62,7.31-5.61,13.6-11.99,18.96-6.38,5.36-13.86,9.44-22.44,12.24-8.59,2.81-16.92,4.17-25.16,4.17-6.21.17-11.99-1.11-17.34-3.91-5.36-2.81-9.78-6.72-13.09-11.73-3.32-5.1-5.02-11.05-5.02-18.02,0-12.33,4-21.51,11.9-27.46,7.91-5.95,20.74-10.63,38.42-14.11,6.21-1.45,13.6-2.89,22.19-4.42,8.59-1.53,16.07-2.55,22.44-3.23v47.52h.09ZM1680.94,459.75v-48.71h-65.28v-74.21h-42.5l-12.24,74.3h-82.71l-64.01,90.19-19.81,34.43v-124.62h-56.7v259.1h56.7v-72.26l28.82-36.13,62.48,108.38h67.5l-90.36-147.57,63.41-86.62v23.89h47.01c-4.08,1.11-7.31,3.74-9.61,7.91-2.3,4.17-3.49,8.84-3.49,13.86l.26,131.25c0,19.64,5.7,34.68,17.09,45.22,11.39,10.54,27.37,15.81,47.94,15.81,8.67,0,17.94-.08,27.63-.34,9.78-.26,18.79-1.19,27.2-2.72v-47.69c-4.93.17-10.37.26-16.41.34s-12.58.08-19.72.08c-11.05,0-18.62-1.79-22.7-5.44-4-3.66-6.04-10.03-6.04-19.21v-139.24h65.54Z"
          fill="#fff" />
      </g>
    </g>
  </g>
</svg>
