<svg xmlns="http://www.w3.org/2000/svg" xmlns:xlink="http://www.w3.org/1999/xlink" width="1920" height="1080" viewBox="0 0 508 285.75">
    <defs>
        <radialGradient xlink:href="#a" id="b" cx="125.255" cy="16.735" fx="125.255" fy="16.735" r="254" gradientTransform="matrix(0 1.06475 -1.74952 0 154.532 -61.444)" gradientUnits="userSpaceOnUse"/>
        <linearGradient id="a">
            <stop style="stop-color:#38546e;stop-opacity:1" offset="0"/>
            <stop style="stop-color:#394956;stop-opacity:1" offset="1"/>
        </linearGradient>
        <style/>
    </defs>
    <path style="opacity:.98;fill:url(#b);stroke-width:2.64583;fill-opacity:1" d="M0 0h508v285.75H0z"/>
    <path d="m274.61 145.66-17.825 17.825c-1.67 1.67-3.899 1.67-5.013 0l-17.824-17.825c-1.672-1.67-1.672-3.899 0-5.013l17.824-17.824c1.671-1.672 3.9-1.672 5.013 0l17.825 17.824c1.67 1.114 1.67 3.342 0 5.013z" fill="#fa7e00"/>
    <path d="m198.855 128.393-5.013 5.013-1.114 1.114-2.785 2.785a7.06 7.06 0 0 0 0 10.026l2.785 2.785 1.114 1.114 30.636 30.636h1.671v-25.622l-11.697-11.698c-1.671-1.67-1.671-3.899 0-5.013l11.697-11.14zm40.663 69.627 5.013 5.013 1.114 1.114 2.785 2.785a7.06 7.06 0 0 0 10.026 0l2.785-2.785 1.114-1.114 30.636-30.636v-1.67H267.37l-11.698 11.696c-1.67 1.671-3.899 1.671-5.013 0l-11.14-11.697zm69.627-40.662 5.013-5.014 1.114-1.114 2.785-2.785a7.06 7.06 0 0 0 0-10.026l-2.785-2.785-1.114-1.114-30.636-30.636h-1.67v25.623l11.696 11.697c1.671 1.671 1.671 3.9 0 5.013l-11.697 11.14v.558h27.294zM268.483 87.73l-5.014-5.013-1.114-1.114-2.785-2.785a7.06 7.06 0 0 0-10.026 0l-2.785 2.785-1.114 1.114-31.75 30.636v1.671h25.623l11.697-11.697c1.671-1.671 3.9-1.671 5.013 0l12.255 11.697h.557V87.73z" fill="#00bcfb"/>
</svg>
