<?xml version="1.0" encoding="UTF-8" standalone="no"?>
<svg
   xmlns:dc="http://purl.org/dc/elements/1.1/"
   xmlns:cc="http://creativecommons.org/ns#"
   xmlns:rdf="http://www.w3.org/1999/02/22-rdf-syntax-ns#"
   xmlns:svg="http://www.w3.org/2000/svg"
   xmlns="http://www.w3.org/2000/svg"
   xmlns:xlink="http://www.w3.org/1999/xlink"
   width="1920"
   height="1080"
   viewBox="0 0 507.99999 285.75001"
   version="1.1"
   id="svg8">
  <defs
     id="defs2">
    <rect
       x="50.759791"
       y="387.58649"
       width="2.7020626"
       height="357.88762"
       id="rect1018" />
    <linearGradient
       id="linearGradient851">
      <stop
         style="stop-color:#6bbf7d;stop-opacity:1"
         offset="0"
         id="stop847" />
      <stop
         style="stop-color:#42ab68;stop-opacity:1"
         offset="1"
         id="stop849" />
    </linearGradient>
    <radialGradient
       xlink:href="#linearGradient851"
       id="radialGradient853"
       cx="125.25463"
       cy="16.734682"
       fx="125.25463"
       fy="16.734682"
       r="254"
       gradientTransform="matrix(0,1.0647542,-1.7495183,0,154.53226,-61.444333)"
       gradientUnits="userSpaceOnUse" />
    <style
       id="style914">.cls-1{fill:url(#linear-gradient);}</style>
  </defs>
  <metadata
     id="metadata5">
    <rdf:RDF>
      <cc:Work
         rdf:about="">
        <dc:format>image/svg+xml</dc:format>
        <dc:type
           rdf:resource="http://purl.org/dc/dcmitype/StillImage" />
        <dc:title></dc:title>
      </cc:Work>
    </rdf:RDF>
  </metadata>
  <g
     id="layer1">
    <rect
       style="opacity:0.98;fill:url(#radialGradient853);stroke-width:0;fill-opacity:1;stroke-miterlimit:4;stroke-dasharray:none"
       id="rect845"
       width="508"
       height="285.75"
       x="0"
       y="2.1874998e-06" />
    <text
       xml:space="preserve"
       id="text1016"
       style="font-family:'Noto Sans';font-size:10.58333341px;line-height:1.25;letter-spacing:0px;word-spacing:0px;-inkscape-font-specification:'Noto Sans';white-space:pre;shape-inside:url(#rect1018);" />
    <g
       id="surface1"
       transform="matrix(0.35277778,0,0,0.35277778,-137.6892,397.91957)"
       style="stroke-width:0;stroke-miterlimit:4;stroke-dasharray:none;stroke:none">
      <path
         style="fill:#ffffff;fill-opacity:1;fill-rule:evenodd;stroke:none;stroke-width:0;stroke-miterlimit:4;stroke-dasharray:none"
         d="m 738.74541,-808.22704 c 8.67828,-0.60136 17.45567,-0.15339 25.94934,1.80272 16.09278,3.58914 31.04528,12.01766 42.51317,23.85613 9.08552,9.34209 16.00454,20.7774 20.01042,33.17786 4.78236,14.73124 5.4353,30.76157 1.93575,45.84711 -2.87376,12.4887 -8.65929,24.29052 -16.71314,34.25704 -8.13802,10.11721 -18.62445,18.32853 -30.38555,23.82627 -14.15431,6.67602 -30.16971,9.20498 -45.70728,7.49593 -12.79277,-1.36561 -25.22989,-5.75159 -36.10999,-12.60137 -12.10046,-7.66561 -22.30047,-18.36517 -29.21949,-30.92174 -10.82851,-19.23803 -13.54616,-42.76159 -7.72534,-64.02495 3.00272,-11.04707 8.26833,-21.47243 15.37467,-30.44257 9.1249,-11.55476 21.24029,-20.75296 34.90728,-26.25749 8.00634,-3.30815 16.54481,-5.28326 25.17016,-6.01494 z m -34.63307,24.71405 c -8.75702,6.05431 -16.20816,14.00906 -21.61495,23.18555 -9.3896,15.74933 -12.44798,35.09596 -8.50318,52.99281 2.96336,13.52445 9.76834,26.20183 19.55704,36.01225 9.45611,9.63666 21.63667,16.58418 34.76881,19.73893 14.71087,3.62444 30.5498,2.57784 44.62809,-3.04072 12.38011,-4.86924 23.32129,-13.24346 31.38736,-23.80727 7.75929,-10.17557 12.79821,-22.40092 14.41088,-35.09867 2.06742,-15.9611 -1.18778,-32.61859 -9.40997,-46.48376 -8.0077,-13.82445 -20.69187,-24.86745 -35.47333,-30.93261 -10.33304,-4.27331 -21.66518,-6.1086 -32.82356,-5.36335 -13.16744,0.79819 -26.0851,5.28869 -36.92719,12.79684 z m 180.61646,12.75341 c 0.99231,-1.33032 2.68643,-1.93032 4.30725,-1.88553 9.50906,-0.0244 19.01812,-0.004 28.52446,-0.0122 3.9353,0.0353 7.91946,-0.21176 11.79775,0.63666 6.31494,1.21493 12.30272,4.37512 16.61133,9.18462 4.33167,4.74164 6.881,10.92897 7.71313,17.26156 0.91357,7.19322 0.11674,14.74074 -3.06924,21.31631 -2.43393,5.17738 -6.42896,9.59051 -11.29684,12.57965 -5.25883,3.16968 -11.45974,4.66697 -17.57513,4.51765 -6.66109,0 -13.32083,-0.007 -19.97513,0.003 -0.038,9.55386 -0.0149,19.10635 -0.0149,28.65614 -0.0339,1.81357 -0.44389,3.96516 -2.11086,4.99005 -2.09186,1.43213 -4.74027,0.76832 -7.09955,0.91493 -2.32534,-0.14253 -5.00498,0.51041 -6.99232,-1.02625 -1.50543,-1.10769 -1.96697,-3.06108 -1.94253,-4.83665 -0.004,-29.31587 0.003,-58.63309 -0.004,-87.9476 0.007,-1.50271 0.12625,-3.14118 1.1267,-4.35204 z m 17.00771,13.76879 c 0.0149,11.31857 0.0258,22.63713 -0.008,33.95569 5.6267,0.15611 11.25883,0.0624 16.88553,0.0475 3.7534,-0.009 7.6344,-0.85792 10.69277,-3.13032 3.31087,-2.38371 5.26291,-6.28914 5.87105,-10.26516 0.60407,-3.9068 0.32444,-8.024 -1.2,-11.6973 -1.57059,-3.77104 -4.86788,-6.77376 -8.77603,-7.96834 -2.9009,-1.01131 -6.01086,-0.95565 -9.03665,-0.99773 -4.81087,0.0421 -9.62445,-0.0679 -14.42853,0.0556 z m 212.53729,-14.57784 c 1.9846,-1.5258 4.6113,-1.0181 6.9367,-1.08462 2.324,0.10181 4.9235,-0.45475 6.9733,0.95566 1.5638,1.0914 2.1407,3.09231 2.0443,4.92489 0.01,10.08463 -0.01,20.17061 0.01,30.25388 -0.018,1.64661 -0.2362,3.28778 -0.2362,4.93846 2.3484,-4.68462 6.3733,-8.40272 10.8842,-10.97784 6.8457,-3.87828 15.1887,-4.47285 22.7552,-2.67285 4.9059,1.12534 9.4521,4.03575 12.2009,8.29548 3.4507,5.33757 4.4172,11.88056 4.3439,18.12898 -0.01,13.67784 0,27.35704 0,41.03488 -0.027,1.74027 -0.8334,3.562 -2.4013,4.43485 -1.9941,1.13891 -4.3711,0.6353 -6.5498,0.74253 -2.3213,-0.10317 -4.9358,0.44525 -6.9611,-0.99773 -1.6683,-1.15657 -2.0606,-3.33937 -2.0335,-5.23576 -0.014,-11.70815 0,-23.41631 0,-35.12718 0.042,-3.74254 -0.038,-7.69277 -1.8244,-11.08236 -1.2163,-2.38372 -3.6489,-3.98281 -6.2484,-4.462 -6.0367,-1.04253 -12.577,0.79684 -16.9616,5.13666 -4.7891,4.67783 -6.8783,11.49503 -6.9367,18.06382 -0.073,8.5724 -0.01,17.14209 -0.028,25.71586 -0.041,1.85158 0.2471,3.84299 -0.6909,5.53575 -0.8199,1.66154 -2.7489,2.42172 -4.5109,2.44616 -2.1991,0.0285 -4.3996,-0.0204 -6.5959,0.0285 -1.7511,0.0516 -3.7114,-0.33122 -4.8896,-1.74163 -1.1186,-1.35882 -1.3032,-3.20091 -1.272,-4.89638 0,-28.9575 0,-57.91635 0,-86.87384 -0.034,-1.97512 0.2824,-4.23666 2.0023,-5.48417 z m 85.1227,-0.42082 c 1.5883,-0.89321 3.4616,-0.63665 5.2059,-0.66787 1.9846,0.0421 3.9788,-0.10996 5.9593,0.11538 1.5951,0.20905 3.0231,1.30181 3.6312,2.79095 0.6326,1.36154 0.5362,2.91177 0.5743,4.37784 -0.01,5.79639 0,11.59684 0,17.3973 -0.018,4.53123 0.1072,9.0801 -0.4005,13.59368 3.3611,-5.62942 9.224,-9.63259 15.5864,-11.08508 6.9951,-1.52172 14.5819,-0.71267 20.9444,2.63077 4.4104,2.29684 8.1353,5.80996 10.8706,9.95296 3.7629,5.60905 5.681,12.28779 6.3353,18.96381 0.7398,8.34028 -0.1955,17.00636 -3.8403,24.62446 -2.3973,5.09729 -6.0461,9.64345 -10.6859,12.85794 -6.6761,4.74298 -15.2634,6.40724 -23.2833,5.119 -6.9992,-1.14706 -13.439,-5.46652 -16.948,-11.6525 0.038,2.28598 0.3611,4.61539 -0.062,6.88372 -0.4941,2.17195 -2.7462,3.43439 -4.8516,3.47512 -2.2032,0.0353 -4.4063,0.0326 -6.6095,-0.0136 -1.8285,-0.0244 -3.7426,-1.03168 -4.4756,-2.76245 -0.7683,-1.62217 -0.5294,-3.45475 -0.5525,-5.19231 0,-28.85297 0,-57.71001 0,-86.56841 0.01,-1.88688 0.8064,-3.99096 2.6064,-4.84073 z m 29.3403,41.59009 c -4.785,0.9 -8.9905,4.08598 -11.3633,8.30227 -3.1385,5.53983 -3.7181,12.21585 -2.829,18.42491 0.824,5.4733 3.2077,11.00634 7.6942,14.44616 4.2284,3.22128 10.0642,3.96245 15.0719,2.32534 4.6697,-1.48778 8.4407,-5.18552 10.4416,-9.60543 2.4435,-5.41087 2.8114,-11.58327 1.8801,-17.39052 -0.9271,-5.48281 -3.5199,-11.02942 -8.2873,-14.1706 -3.6312,-2.4991 -8.3199,-3.22127 -12.6082,-2.33213 z m 140.6839,-42.10728 c 1.9181,-0.30272 3.8742,-0.091 5.8127,-0.15068 1.7769,0.0394 3.6841,-0.25113 5.3348,0.55249 1.8937,0.84434 2.7557,3.03801 2.7598,5.00226 0,23.74075 -0.011,47.48693 0.01,71.22904 0.049,2.43258 0.4316,5.21946 2.4475,6.84978 1.0873,1.00724 2.6443,1.03846 4.0208,1.33439 1.8516,0.33258 3.3733,2.05249 3.4357,3.9543 0.1154,1.86652 0.018,3.73846 0.071,5.60498 0.023,1.66833 -0.2375,3.52127 -1.4918,4.73349 -0.862,0.91086 -2.0878,1.4172 -3.3285,1.44978 -3.5973,0.19004 -7.253,-0.091 -10.6928,-1.18643 -3.4194,-1.10091 -6.6,-3.25249 -8.5385,-6.32037 -1.7728,-2.56154 -2.6864,-5.59141 -3.2592,-8.61856 -0.6543,-3.49276 -0.4521,-7.05883 -0.4765,-10.5896 -0.011,-22.93034 -0.018,-45.86339 0,-68.79917 -0.091,-2.32127 1.5217,-4.68054 3.8959,-5.0457 z m 38.9797,0.0855 c 1.8841,-0.46833 3.843,-0.15475 5.7651,-0.23213 2.043,0.0733 4.2991,-0.34751 6.1507,0.7724 1.7281,1.04118 2.3987,3.17919 2.3525,5.10408 0,22.48102 0,44.96068 0,67.44169 0.024,2.51946 -0.2009,5.11494 0.6163,7.54752 0.5484,1.80136 2.0077,3.44797 3.9407,3.73304 1.553,0.28507 3.3774,0.45475 4.4132,1.82443 1.2502,1.59503 1.0208,3.74933 1.0384,5.65793 -0.058,2.02262 0.2607,4.18643 -0.7018,6.05973 -0.7683,1.5991 -2.5195,2.5439 -4.257,2.58191 -4.3371,0.17375 -8.8412,-0.19412 -12.8132,-2.10272 -4.1796,-1.89638 -7.2203,-5.80589 -8.6009,-10.13621 -1.9072,-5.78553 -1.466,-11.95793 -1.5176,-17.95658 0.01,-21.54165 -0.024,-43.08737 0.024,-64.63174 -0.1466,-2.39186 1.0833,-5.06471 3.5891,-5.66335 z m 118.9222,9.34887 c 1.8421,-1.33439 4.2326,-0.95158 6.3666,-1.00723 2.0429,0.0869 4.219,-0.32037 6.1507,0.54841 1.9669,0.81855 2.9782,3.06924 2.8981,5.11223 0,4.98733 -0.01,9.97331 0,14.95657 3.353,0 6.7059,0.0108 10.0698,-0.007 1.6751,-0.0557 3.5416,0.19547 4.7511,1.49457 1.481,1.37647 1.5774,3.5647 1.6194,5.45566 -0.049,1.8733 -0.014,3.97195 -1.2583,5.50453 -0.9448,1.24344 -2.5643,1.76471 -4.0792,1.76471 -3.7018,0.0244 -7.4023,-0.003 -11.1028,0.008 -0.011,9.1534 0,18.3068 0,27.46292 0.018,3.31901 0.5145,6.87829 2.6552,9.54707 1.9847,2.50588 5.1435,3.76968 8.2467,4.12398 1.8244,0.27557 3.9339,0.34751 5.324,1.75249 1.2543,1.21901 1.2719,3.10589 1.3303,4.74299 -0.069,2.11629 0.2185,4.30589 -0.4303,6.35974 -0.581,1.85159 -2.4856,2.96742 -4.3195,3.20091 -2.2738,0.26335 -4.5842,0.17375 -6.8566,-0.038 -6.8497,-0.79955 -13.7552,-3.64888 -18.2593,-9.03259 -3.8878,-4.56923 -5.6077,-10.66155 -5.6253,-16.58961 -0.08,-10.52037 -0.018,-21.0421 -0.035,-31.56519 -2.2901,-0.0801 -4.6982,0.41403 -6.8729,-0.5009 -1.7973,-0.79141 -2.6104,-2.81811 -2.662,-4.66969 -0.071,-2.06742 -0.2538,-4.24344 0.5484,-6.20634 0.6747,-1.62353 2.3593,-2.60769 4.0697,-2.75702 1.7715,-0.13167 3.5443,-0.005 5.3308,-0.0231 0.034,-4.88281 -0.024,-9.76834 0.018,-14.65114 0,-1.84616 0.5213,-3.88236 2.1231,-4.98735 z m -819.33197,6.45341 c 0.60542,-1.34525 1.90452,-2.51267 3.45475,-2.47059 4.0724,-0.0312 8.15159,-0.0244 12.22807,0 2.30769,-0.0312 3.91357,2.11629 4.50407,4.14163 0.14661,1.61946 0.0584,3.24978 0.0774,4.87602 0.009,18.76563 -0.0217,37.53126 0.003,56.29689 -0.0366,1.40091 0.20226,3.00679 -0.7819,4.15928 -0.94616,1.3276 -2.61313,1.87331 -4.1905,1.8353 -3.70046,0.004 -7.40227,-0.0204 -11.10273,0.0108 -1.40769,0.0271 -3.0095,-0.22941 -3.89322,-1.45385 -1.12126,-1.24615 -0.88235,-3.00815 -0.89592,-4.5448 -0.007,-10.26517 0.0421,-20.52762 -0.0204,-30.79007 0.1181,-8.74345 0.0204,-17.48962 0.0448,-26.23306 0.0557,-1.94254 -0.28914,-4.00724 0.57285,-5.82761 z m 31.16202,-1.93982 c 0.71538,-0.5905 1.69547,-0.52127 2.56833,-0.55521 7.29367,0.0177 14.58734,0.009 21.88237,0.003 4.2353,-0.005 8.43394,1.18915 12.1344,3.22535 5.57783,3.01765 10.06833,7.85702 12.99096,13.45657 7.19051,13.22173 6.23349,30.64618 -2.82624,42.76022 -5.49639,7.47829 -14.63622,12.6421 -24.07198,11.93486 -7.05339,-0.14661 -14.11222,0.0312 -21.16291,-0.0842 -2.04299,0.0177 -3.66245,-1.89774 -3.62851,-3.87149 -0.0136,-18.12355 -0.003,-36.24574 -0.007,-54.36522 0.0244,-2.62398 -0.0108,-5.24389 0.004,-7.8638 0,-1.74842 0.7086,-3.55521 2.11629,-4.63982 z m 330.43065,12.53892 c 7.5557,-0.73032 15.3435,0.46969 22.1607,3.86335 1.7416,0.91494 3.8294,1.68598 4.7402,3.57965 1.0086,2.17195 0.2227,4.68869 -0.9733,6.61765 -0.9583,1.59095 -1.7158,3.6 -3.6027,4.29503 -2.1516,0.77511 -4.3968,-0.12896 -6.3421,-1.03846 -3.9556,-1.85973 -8.2751,-3.03802 -12.6597,-3.05566 -2.4882,0.0882 -5.157,0.37873 -7.1946,1.95611 -2.6199,1.86651 -3.2525,6.06109 -1.0833,8.50453 1.4905,1.62896 3.4643,2.72851 5.4978,3.55521 5.1977,2.16516 10.6819,3.6 15.7724,6.03258 3.6909,1.75792 7.2394,4.07919 9.7059,7.40227 3.4032,4.60453 4.1321,10.77558 2.8466,16.25975 -1.2299,5.22353 -4.7118,9.79684 -9.2647,12.59051 -6.5227,4.13891 -14.567,5.06335 -22.1227,4.35068 -7.3629,-0.72218 -14.4977,-3.47919 -20.4855,-7.81494 -1.9602,-1.34525 -2.1407,-4.14978 -1.1498,-6.14119 0.6706,-1.27873 1.5014,-2.46787 2.3213,-3.65294 0.9448,-1.30996 2.2371,-2.61584 3.9475,-2.72308 2.4842,-0.14661 4.5842,1.37919 6.7073,2.43123 3.8321,2.02941 8.062,3.42624 12.4235,3.61493 2.4529,0.10045 5.0077,-0.0801 7.2516,-1.17828 2.0932,-1.01131 3.8063,-3.06788 3.9176,-5.45973 0.1453,-1.51901 -0.3515,-3.09232 -1.4226,-4.19051 -2.0918,-2.21403 -5.0308,-3.27692 -7.7864,-4.39276 -5.734,-2.10543 -11.6905,-3.84028 -16.9032,-7.11041 -3.6557,-2.28327 -6.8783,-5.5534 -8.3579,-9.67196 -2.381,-6.69639 -1.3589,-14.79639 3.4574,-20.18554 4.6399,-5.32399 11.7394,-7.7715 18.5987,-8.43802 z m 387.5379,4.76064 c 5.6756,-3.35701 12.3299,-4.93846 18.9014,-4.93439 5.905,-0.10046 11.9267,1.0914 17.0729,4.07104 6.9339,3.86878 11.7285,10.88553 13.7308,18.47513 1.0289,3.84435 1.5257,7.82987 1.481,11.8059 0.045,2.31312 -1.4919,4.48643 -3.562,5.43394 -1.4634,0.7819 -3.163,0.53891 -4.7512,0.56335 -13.8964,-0.003 -27.7806,-0.003 -41.677,0 0.334,6.39096 3.6381,12.68417 9.0801,16.15657 7.0304,4.54752 16.3087,4.37105 23.7842,1.01403 2.4218,-0.88642 4.4064,-2.87104 7.0616,-3.09231 1.3439,-0.19819 2.7733,0.22534 3.7249,1.21629 1.1647,1.21901 1.8977,2.75838 2.7868,4.181 1.0494,1.74027 1.5679,4.04118 0.5987,5.93078 -0.8213,1.59502 -2.51,2.40814 -3.9652,3.30136 -10.5407,6.2457 -23.6484,7.90317 -35.4054,4.48643 -8.6186,-2.49774 -16.3114,-8.23847 -20.8507,-16.01269 -5.8765,-9.85249 -6.6856,-22.2231 -3.3462,-33.07333 2.4923,-8.09322 7.9724,-15.27015 15.3353,-19.5231 z m 7.7607,12.73033 c -3.4168,3.00272 -5.3905,7.34526 -6.2037,11.75838 4.7227,0.14661 9.4589,0.0285 14.1896,0.0665 5.8616,-0.0339 11.7313,0.0733 17.601,-0.0584 -0.091,-2.12308 -0.4236,-4.24752 -1.1186,-6.25929 -1.2203,-3.71131 -3.9828,-6.95023 -7.6249,-8.45159 -5.571,-2.2629 -12.357,-1.04253 -16.8434,2.94435 z M 966.19857,-743.1324 c 1.08733,-1.09141 2.70136,-1.39005 4.18642,-1.3724 2.31991,0 4.6412,-0.0177 6.96244,0.0136 1.58416,0.0177 3.24166,0.67059 4.14571,2.03485 1.11857,1.50272 1.03169,3.47104 1.04528,5.24933 0.004,12.27421 -0.0205,24.55251 0.0149,36.82673 0.16969,3.88371 0.73575,8.33621 3.94346,10.96698 2.68234,2.1543 6.39095,2.33891 9.67465,1.95339 4.70907,-0.51855 9.09777,-3.05158 12.03127,-6.75204 3.7982,-4.75521 5.4597,-10.93033 5.5181,-16.94527 0.013,-9.15068 -0.01,-18.30001 0.011,-27.4507 -0.031,-1.83122 0.4832,-3.87693 2.1054,-4.94118 1.9331,-1.39684 4.4349,-0.84027 6.6557,-0.95566 2.2832,0.1181 4.7946,-0.43032 6.8565,0.83213 1.7159,1.04118 2.3838,3.15747 2.3729,5.0715 -0.011,19.92083 0.01,39.83895 -0.01,59.75571 0.018,1.87602 -0.3679,4.00589 -1.9738,5.19096 -1.8665,1.42941 -4.3412,0.97737 -6.5226,1.06018 -2.0199,-0.0977 -4.1769,0.30678 -6.0787,-0.5457 -1.796,-0.76697 -2.6403,-2.80725 -2.6797,-4.65204 -0.038,-2.69051 -0.062,-5.37965 0.1113,-8.06336 -4.2977,8.34842 -13.0873,14.01585 -22.39685,14.83847 -5.38643,0.32037 -11.01177,-0.13167 -15.89866,-2.59819 -3.59728,-1.73756 -6.54706,-4.70905 -8.37828,-8.25069 -2.47466,-4.71855 -3.24706,-10.12942 -3.34073,-15.39775 0.005,-13.78644 0.007,-27.57152 0,-41.35388 -0.0163,-1.62625 0.40181,-3.37874 1.64118,-4.51494 z m 315.77003,0.56063 c 0.9774,-1.33167 2.6755,-1.92896 4.2882,-1.91946 2.4366,-0.0204 4.876,-0.034 7.3263,0.0108 1.3411,0.0109 2.7583,0.43032 3.7072,1.43213 1.1023,1.05204 1.481,2.63213 1.4905,4.11177 -0.016,10.76064 -0.01,21.52672 -0.01,32.29008 0,3.24163 -0.084,6.49819 0.3475,9.71946 0.4303,2.61041 1.2503,5.36879 3.2946,7.18372 2.4149,2.33484 6.057,2.60634 9.243,2.37693 5.6444,-0.40317 10.929,-3.66245 13.9697,-8.42037 2.3077,-3.43304 3.5932,-7.4715 4.1185,-11.55477 0.3408,-2.41222 0.1983,-4.85158 0.2254,-7.27738 0,-7.88417 0,-15.76698 0,-23.65115 0,-1.85566 0.3556,-3.95159 1.9425,-5.13259 1.929,-1.55701 4.5394,-0.99774 6.8186,-1.10226 2.2832,0.12353 4.7851,-0.43439 6.8498,0.78869 1.7552,1.0181 2.4434,3.16969 2.3945,5.10136 0,19.47151 0,38.93895 0,58.41046 0,1.70634 0.1073,3.50634 -0.7018,5.07015 -0.8199,1.75792 -2.8507,2.52624 -4.6887,2.53303 -2.4502,0.004 -4.9031,0.0489 -7.3425,-0.0516 -2.0892,-0.0909 -3.9923,-1.70633 -4.3195,-3.78869 -0.4941,-3.19276 -0.247,-6.44932 0.011,-9.65295 -2.7882,5.57377 -7.5828,10.05341 -13.2475,12.60409 -5.7448,2.74208 -12.3651,3.08959 -18.5606,2.02263 -5.2059,-0.90001 -10.2937,-3.49277 -13.386,-7.88146 -3.8444,-5.35928 -4.8557,-12.16019 -4.9181,-18.60681 -0.038,-13.20408 0,-26.40681 -0.02,-39.61089 -0.018,-1.71856 0.098,-3.581 1.1674,-5.00499 z m 0,0"
         id="path1150" />
    </g>
  </g>
</svg>
