<svg xmlns="http://www.w3.org/2000/svg" xml:space="preserve" width="1920" height="1080" viewBox="0 0 508 285.75"><defs><radialGradient id="a" cx="125.26" cy="16.735" r="254" gradientTransform="matrix(0 1.0648 -1.7495 0 154.53 -61.444)" gradientUnits="userSpaceOnUse"><stop offset="0" stop-color="#2f2f2f"/><stop offset="1" stop-color="#111"/></radialGradient></defs><path fill="url(#a)" d="M0 0h508v285.75H0z" opacity=".98"/><g fill="#fff"><path d="M285.766 110.067c-.13 0-.195 0-.325-.065.13.065.26.065.325.065m-162.42-20.985H105.61v88.811h20.855c10.914 0 18.516-3.248 22.868-9.68s6.497-18.191 6.497-35.148c0-16.696-2.144-28.196-6.497-34.498s-12.993-9.485-25.987-9.485m11.695 74.713c-1.56 2.989-4.353 4.418-8.381 4.418h-3.184V98.827h3.184c4.093 0 6.886 2.534 8.445 7.536s2.34 14.228 2.34 27.612c-.066 16.892-.845 26.832-2.404 29.82m24.233-74.648h16.761v15.527h-16.761zm0 20.725h16.761v68.021h-16.761zm44.892 29.625c-5.327-4.678-8.51-7.861-9.55-9.615s-1.56-3.508-1.56-5.392c0-1.56.456-2.73 1.365-3.574s2.014-1.234 3.379-1.234c1.624 0 2.858.65 3.768 1.884s1.364 2.924 1.364 4.938h13.383c0-5.588-1.624-9.94-4.807-12.994s-7.796-4.548-13.838-4.548c-5.653 0-10.2 1.494-13.644 4.418-3.443 2.989-5.197 6.952-5.197 11.954 0 4.808.715 8.836 2.079 12.084s4.613 7.082 9.745 11.564c4.028 3.444 6.952 6.172 8.706 8.057s2.664 3.638 2.664 5.262c0 1.754-.39 3.053-1.235 3.963s-2.079 1.3-3.768 1.3c-1.754 0-3.054-.585-3.963-1.69s-1.364-2.923-1.364-5.392h-13.579c0 5.977 1.624 10.525 4.873 13.513s8.056 4.483 14.488 4.483c5.977 0 10.655-1.624 14.098-4.808s5.132-7.666 5.132-13.448c0-3.703-.91-7.082-2.728-10.07s-5.068-6.497-9.81-10.655m195.49 10.72c-1.82-2.989-5.068-6.562-9.746-10.655-5.327-4.678-8.51-7.861-9.55-9.615s-1.56-3.508-1.56-5.392c0-1.56.455-2.73 1.365-3.574s2.014-1.234 3.378-1.234c1.624 0 2.859.65 3.768 1.884s1.365 2.924 1.365 4.938h13.383c0-5.588-1.624-9.94-4.808-12.994s-7.796-4.548-13.838-4.548c-5.652 0-10.2 1.494-13.643 4.418-3.443 2.989-5.198 6.952-5.198 11.954 0 4.808.715 8.836 2.08 12.084s4.612 7.082 9.745 11.564c4.028 3.444 6.951 6.172 8.705 8.056s2.664 3.639 2.664 5.263c0 1.754-.39 3.053-1.3 3.963-.844.91-2.078 1.3-3.767 1.3-1.755 0-3.054-.585-3.964-1.69s-1.364-2.923-1.364-5.392h-13.578c0 5.977 1.624 10.525 4.872 13.513s8.056 4.483 14.488 4.483c5.977 0 10.655-1.624 14.098-4.808s5.133-7.666 5.133-13.448c-.065-3.768-.975-7.082-2.729-10.07m-123.83-5.003a10.005 10.005 0 0 1 20.01 0 10.005 10.005 0 0 1-20.01 0m.455 0c0 5.263 4.288 9.55 9.55 9.55s9.55-4.287 9.55-9.55-4.287-9.55-9.55-9.55a9.524 9.524 0 0 0-9.55 9.55"/><path d="M287.39 145.214c0 .845-.714 1.56-1.559 1.56s-1.559-.715-1.559-1.56.715-1.559 1.56-1.559 1.558.715 1.558 1.56m-35.602 15.788h-6.302c-.26 2.923-.715 4.807-1.43 5.717s-1.818 1.3-3.313 1.3c-2.403 0-3.963-1.43-4.612-4.224-.715-2.793-1.04-9.485-1.04-20.075 0-9.16.325-15.462.91-18.97s2.144-5.263 4.548-5.263c1.429 0 2.468.585 3.053 1.82s.91 3.897.91 8.055h7.341c1.624-3.378 3.638-6.497 6.172-9.225-.78-2.404-2.014-4.483-3.573-6.107-3.249-3.379-7.926-5.068-13.968-5.068-7.602 0-13.319 2.924-17.087 8.77s-5.652 14.489-5.652 25.988c0 11.564 1.819 20.27 5.457 26.052 3.638 5.847 8.966 8.77 16.047 8.77q9.356 0 14.033-4.287c1.56-1.43 2.664-3.183 3.444-5.392-1.95-2.404-3.574-5.068-4.938-7.861m71.4-15.723c0 6.627-1.69 12.799-4.743 18.191 1.04 3.833 2.534 6.757 4.483 8.836q3.996 4.093 11.11 4.093c2.793 0 5.262-.39 7.34-1.104s3.51-1.69 4.224-2.86c.065.65.13 1.3.13 1.82.065.52.065 1.04.065 1.494 0 3.574-.78 6.237-2.404 8.056s-4.093 2.794-7.471 2.794c-2.21 0-4.678-.26-7.342-.78s-4.872-1.104-6.562-1.884l-2.079 9.29c2.534 1.17 5.328 2.015 8.446 2.6s6.172.844 9.16.844c7.277 0 12.994-1.82 17.282-5.457 4.223-3.639 6.367-8.771 6.367-15.398v-65.942h-16.697v1.624q-2.241-1.365-4.482-1.95c-2.241-.584-3.249-.584-5.263-.584-4.093 0-7.536 1.235-10.33 3.768-2.858 2.534-4.872 6.042-6.107 10.46-.195.78-.455 1.69-.65 2.794 3.509 5.652 5.458 12.214 5.523 19.295m21.44 20.01c-.715.585-1.43.975-2.145 1.235s-1.689.39-2.858.39c-1.56 0-2.729-.455-3.574-1.365s-1.364-2.403-1.559-4.482c-.195-2.144-.39-4.873-.52-8.121s-.194-6.692-.194-10.33a189 189 0 0 1 .78-16.372c.26-2.534.779-4.223 1.688-5.133s2.274-1.364 4.093-1.364c.65 0 1.43.13 2.274.26.845.195 1.56.455 2.014.714z"/><path d="M267.77 145.214c0 5.133 2.144 9.68 5.522 12.994l3.379-3.703.065.065c-2.47-2.34-3.963-5.652-3.963-9.356 0-7.211 5.847-13.058 13.058-13.058 2.404 0 4.613.65 6.497 1.754l2.404-4.418c-2.664-1.494-5.652-2.339-8.9-2.339-9.94 0-18.062 8.121-18.062 18.061m31.055 0c0 7.212-5.847 13.059-12.994 13.059-2.209 0-4.223-.52-6.042-1.494l-2.469 4.353a18 18 0 0 0 8.511 2.143c9.94 0 18.061-8.12 18.061-18.06 0-4.938-2.014-9.421-5.197-12.67l-3.443 3.704c2.209 2.339 3.573 5.457 3.573 8.965"/><path d="M262.053 145.214c0 6.757 2.859 12.864 7.406 17.217l3.444-3.703a18.5 18.5 0 0 1-5.783-13.449 18.71 18.71 0 0 1 18.711-18.71c3.379 0 6.497.91 9.226 2.468l2.468-4.418c-3.443-1.949-7.406-3.053-11.694-3.053a23.596 23.596 0 0 0-23.778 23.648m42.424 0a18.71 18.71 0 0 1-27.546 16.502l-2.47 4.418a23.79 23.79 0 0 0 35.084-20.92 23.56 23.56 0 0 0-7.017-16.826l-3.443 3.703c3.378 3.378 5.392 7.99 5.392 13.123"/><path d="M310.194 145.214a24.48 24.48 0 0 1-36.057 21.505l-2.534 4.483c4.223 2.273 9.03 3.638 14.163 3.638 16.307 0 29.496-13.254 29.496-29.496 0-8.25-3.379-15.722-8.836-21.05l-3.443 3.769c4.483 4.223 7.211 10.395 7.211 17.151m-53.923 0c0 8.446 3.573 16.047 9.225 21.44l3.444-3.768a24.27 24.27 0 0 1-7.602-17.672c0-13.448 10.98-24.428 24.428-24.428 4.353 0 8.446 1.17 11.954 3.184l2.47-4.483a29.46 29.46 0 0 0-14.424-3.768c-16.242-.065-29.495 13.188-29.495 29.495"/><path d="m310.324 120.007-3.378 3.638c5.587 5.457 9.095 13.124 9.095 21.504 0 16.632-13.513 30.146-30.145 30.146-5.262 0-10.135-1.365-14.423-3.704l-2.533 4.483c5.002 2.729 10.784 4.353 16.891 4.353 19.426 0 35.213-15.787 35.213-35.213-.065-9.875-4.158-18.775-10.72-25.207m-54.703 25.207c0-16.631 13.513-30.145 30.145-30.145 5.328 0 10.395 1.43 14.748 3.898l2.404-4.353a34.4 34.4 0 0 0-16.632-4.482h-.585c-19.36 0-35.017 15.592-35.212 34.887v.325c0 10.07 4.288 19.166 11.11 25.598l3.507-3.768c-5.847-5.588-9.485-13.319-9.485-21.96"/></g></svg>