<svg xmlns="http://www.w3.org/2000/svg" xmlns:xlink="http://www.w3.org/1999/xlink" width="1920" height="1080" viewBox="0 0 508 285.75">
    <defs>
        <radialGradient xlink:href="#a" id="b" cx="125.255" cy="16.735" fx="125.255" fy="16.735" r="254" gradientTransform="matrix(0 1.06475 -1.74952 0 154.532 -61.444)" gradientUnits="userSpaceOnUse"/>
        <linearGradient id="a">
            <stop style="stop-color:#5b3358;stop-opacity:1" offset="0"/>
            <stop style="stop-color:#402f3f;stop-opacity:1" offset="1"/>
        </linearGradient>
        <style/>
    </defs>
    <path style="opacity:.98;fill:url(#b);stroke-width:2.64583;fill-opacity:1" d="M0 0h508v285.75H0z"/>
    <g fill="none" fill-rule="evenodd">
        <path d="M407.027 115.794c-3.572 0-5.716 2.54-5.716 5.716v32.942c0 4.525-2.738 8.176-8.176 8.176-5.398 0-8.176-3.651-8.176-8.176V121.51c0-3.136-2.143-5.716-5.715-5.716s-5.716 2.54-5.716 5.716v32.982h.04c.397 10.24 7.025 18.376 19.567 18.376s19.13-8.136 19.567-18.376h.04V121.51c0-3.136-2.143-5.716-5.715-5.716zm-51.32 29.53c-4.048-4.088-13.216-8.018-15.598-10.875a4.833 4.833 0 0 1-.357-5.994c.794-1.111 1.985-1.786 3.215-2.024a11.718 11.718 0 0 1 6.271.635c2.342.913 4.048 2.263 5.874 2.382a4.993 4.993 0 0 0 4.445-2.104c1.35-1.945 1.112-4.564-.436-6.231-4.406-5.28-13.455-5.795-17.9-5.08-4.366.714-8.573 2.857-11.193 6.588-4.326 6.152-3.493 14.407 1.39 19.726 3.69 4.207 9.287 6.35 13.573 9.089.913.595 2.064 1.429 2.66 2.064a5.52 5.52 0 0 1 .595 6.985 5.54 5.54 0 0 1-3.096 2.143c-1.111.318-2.5.397-3.334.358-3.691-.08-7.58-2.62-8.692-3.096a4.826 4.826 0 0 0-5.914 1.667c-1.151 1.627-1.111 3.651-.198 5.279.555.992 1.587 2.183 2.937 3.056 6.668 4.445 14.487 3.69 18.892 2.54 3.533-.953 6.866-2.858 9.129-6.231 4.564-6.589 3.493-15.52-2.263-20.877zm-42.11-28.736h-29.57c-2.857 0-5.2 1.667-5.2 5.2 0 3.532 2.343 5.199 5.2 5.199h9.129v40.166c0 3.136 1.826 5.715 5.715 5.715 3.85 0 5.716-2.54 5.716-5.715v-40.166h9.01c2.857 0 5.199-1.667 5.199-5.2 0-3.492-2.302-5.199-5.2-5.199zm-51.518-.794c-3.572 0-5.716 2.54-5.716 5.716v45.643c0 3.136 1.826 5.715 5.716 5.715 3.85 0 5.715-2.54 5.715-5.715V121.51c0-3.136-2.143-5.716-5.715-5.716zm-19.806 48.74-12.462-23.894c9.248-11.153 10.597-17.741 10.756-18.734.04-.277.08-.595.08-.912a5.15 5.15 0 0 0-5.16-5.16c-1.985 0-3.692 1.15-4.724 2.739-.992 1.587-2.818 5.953-8.255 13.534-3.294 4.564-6.906 8.295-8.216 9.605v-20.163c0-3.135-2.143-5.715-5.715-5.715s-5.716 2.54-5.716 5.715v45.644c0 3.135 1.826 5.715 5.716 5.715 3.85 0 5.715-2.54 5.715-5.715v-11.034c1.23-1.19 3.969-3.81 7.025-6.985l10.756 20.678c1.469 2.818 4.723 3.691 7.7 2.62 3.016-1.191 3.969-5.16 2.5-7.938z" fill="#edf0f1"/>
        <g fill="#e75e45">
            <path d="M155.829 117.66c-2.7-.993-5.597-1.628-8.653-1.747a27.96 27.96 0 0 0-14.05 3.017c-.238.119-.516.238-.794.397v14.447c0 .198 0 .952-.119 1.587a5.664 5.664 0 0 1-2.381 3.612c-1.032.715-2.223 1.032-3.493.992-.238 0-.516-.04-.754-.079a9.468 9.468 0 0 1-1.508-.437c-.556-.198-8.653-3.333-12.542-4.842a36.795 36.795 0 0 0-1.191-.476c-4.644 3.93-9.526 8.613-14.09 14.13-.04.04-.238.277-.278.317a2.567 2.567 0 0 0 0 2.937 2.628 2.628 0 0 0 1.985 1.112c.516.04 1.071-.12 1.548-.437.04-.04.079-.08.158-.12 4.842-3.492 10.16-6.31 15.797-8.572.397-.199.873-.318 1.31-.278a2.59 2.59 0 0 1 1.706.754c.913.913.953 2.382.199 3.374-.318.476-.596.952-.873 1.429-3.017 4.921-5.438 10.28-7.264 15.876-.04.158-.079.277-.119.436v.04a2.39 2.39 0 0 0 .397 1.984 2.638 2.638 0 0 0 2.024 1.112c.556.04 1.072-.12 1.548-.437.199-.159.397-.317.556-.516.04-.08.119-.159.159-.238a69.967 69.967 0 0 1 6.509-7.938 74.314 74.314 0 0 1 39.809-22.187c.119-.04.238-.04.357-.04.873.04 1.548.794 1.508 1.668-.04.754-.555 1.31-1.27 1.468-14.407 3.056-40.364 20.163-31.275 45.009.158.396.277.635.476.992a2.628 2.628 0 0 0 1.984 1.111c.437 0 1.667-.119 2.421-1.468 1.469-2.779 4.247-5.874 12.265-9.208 22.345-9.248 26.036-22.465 26.433-30.84v-.476c.357-12.463-7.382-23.338-18.495-27.465zm-22.425 65.488c-2.064-6.152-1.866-12.105.555-17.781 4.644 7.501 12.74 8.136 12.74 8.136-8.294 3.454-11.549 6.867-13.295 9.645z"/>
            <path d="M95.659 118.493c.04.08.119.159.158.199 2.104 2.857 4.485 5.358 7.065 7.58.04.04.08.04.08.08 1.667 1.429 4.842 3.492 7.144 4.326 0 0 14.328 5.517 15.082 5.834a5.4 5.4 0 0 0 .873.278c.635.12 1.31 0 1.905-.397s.953-.992 1.072-1.627c.04-.238.08-.635.08-.913V117.66c.039-2.461-.755-6.192-1.47-8.256 0-.04-.039-.08-.039-.119a43.935 43.935 0 0 0-4.525-9.327l-.119-.238-.04-.04c-.793-1.111-2.38-1.39-3.532-.595-.198.119-.317.278-.476.436-.12.16-.199.278-.318.437a17.49 17.49 0 0 0-2.897 12.582 29.988 29.988 0 0 0-2.858 1.706c-.158.12-1.548 1.072-2.62 2.064-3.85-2.183-8.453-2.857-12.78-1.826-.158.04-.357.08-.515.12-.199.079-.397.158-.556.277a2.59 2.59 0 0 0-.714 3.533zm25.203-15.916c1.35 2.263 2.5 4.604 3.413 7.065a31.384 31.384 0 0 0-5.358 1.43 14.467 14.467 0 0 1 1.945-8.495zm-13.138 16.194c-1.27 1.39-2.341 2.897-3.294 4.485-1.945-1.707-3.73-3.652-5.358-5.715a14.133 14.133 0 0 1 8.652 1.23z"/>
        </g>
    </g>
</svg>
