<svg xmlns="http://www.w3.org/2000/svg" xmlns:xlink="http://www.w3.org/1999/xlink" width="1920" height="1080" viewBox="0 0 508 285.75">
    <defs>
        <radialGradient xlink:href="#a" id="b" cx="125.255" cy="16.735" fx="125.255" fy="16.735" r="254" gradientTransform="matrix(0 1.06475 -1.74952 0 154.532 -61.444)" gradientUnits="userSpaceOnUse"/>
        <linearGradient id="a">
            <stop style="stop-color:#6bbf7d;stop-opacity:1" offset="0"/>
            <stop style="stop-color:#42ab68;stop-opacity:1" offset="1"/>
        </linearGradient>
        <style/>
    </defs>
    <path style="opacity:.98;fill:url(#b);stroke-width:0;fill-opacity:1;stroke-miterlimit:4;stroke-dasharray:none" d="M0 0h508v285.75H0z"/>
    <g style="stroke-width:0;stroke-miterlimit:4;stroke-dasharray:none;stroke:none">
        <path style="fill:#fff;fill-opacity:1;fill-rule:evenodd;stroke:none;stroke-width:0;stroke-miterlimit:4;stroke-dasharray:none" d="M738.745-808.227c8.679-.601 17.456-.153 25.95 1.803 16.093 3.589 31.045 12.017 42.513 23.856 9.085 9.342 16.004 20.777 20.01 33.178 4.783 14.73 5.436 30.761 1.936 45.847-2.874 12.488-8.66 24.29-16.713 34.257-8.138 10.117-18.624 18.328-30.386 23.826-14.154 6.676-30.17 9.205-45.707 7.496-12.793-1.366-25.23-5.752-36.11-12.601-12.1-7.666-22.3-18.366-29.22-30.922-10.828-19.238-13.546-42.762-7.725-64.025a85.16 85.16 0 0 1 15.375-30.443c9.125-11.554 21.24-20.753 34.907-26.257 8.007-3.308 16.545-5.283 25.17-6.015zm-34.633 24.714c-8.757 6.054-16.208 14.01-21.615 23.186-9.39 15.749-12.448 35.096-8.503 52.992 2.964 13.525 9.769 26.202 19.557 36.013 9.456 9.636 21.637 16.584 34.77 19.739 14.71 3.624 30.549 2.577 44.627-3.041 12.38-4.87 23.321-13.244 31.388-23.807 7.759-10.176 12.798-22.401 14.41-35.1 2.068-15.96-1.187-32.618-9.41-46.483-8.007-13.824-20.691-24.867-35.473-30.932-10.333-4.274-21.665-6.11-32.823-5.364-13.168.798-26.086 5.289-36.928 12.797zM884.73-770.76c.992-1.33 2.686-1.93 4.307-1.885 9.51-.025 19.018-.004 28.525-.012 3.935.035 7.919-.212 11.797.636 6.315 1.215 12.303 4.375 16.612 9.185 4.331 4.742 6.88 10.929 7.713 17.262.913 7.193.116 14.74-3.07 21.316-2.433 5.177-6.428 9.59-11.296 12.58-5.26 3.17-11.46 4.666-17.575 4.517-6.662 0-13.321-.007-19.976.003-.038 9.554-.015 19.106-.015 28.656-.033 1.814-.443 3.965-2.11 4.99-2.092 1.432-4.74.769-7.1.915-2.325-.142-5.005.51-6.992-1.026-1.506-1.108-1.967-3.061-1.943-4.837-.004-29.316.003-58.633-.004-87.947.007-1.503.126-3.141 1.127-4.352zm17.008 13.77c.014 11.318.025 22.636-.008 33.955 5.626.156 11.258.062 16.885.047 3.753-.009 7.634-.858 10.693-3.13 3.31-2.384 5.263-6.29 5.87-10.265.605-3.907.325-8.024-1.2-11.697-1.57-3.771-4.867-6.774-8.775-7.969-2.901-1.011-6.011-.955-9.037-.997-4.81.042-9.624-.068-14.428.055zm212.537-14.579c1.984-1.525 4.611-1.018 6.937-1.084 2.323.102 4.923-.455 6.973.955 1.564 1.092 2.14 3.093 2.044 4.925.01 10.085-.01 20.17.01 30.254-.018 1.647-.236 3.288-.236 4.939 2.348-4.685 6.373-8.403 10.884-10.978 6.846-3.878 15.189-4.473 22.755-2.673 4.906 1.125 9.452 4.036 12.201 8.295 3.45 5.338 4.417 11.881 4.344 18.13-.01 13.677 0 27.356 0 41.034-.027 1.74-.833 3.562-2.401 4.435-1.994 1.139-4.371.635-6.55.743-2.321-.104-4.936.445-6.961-.998-1.668-1.157-2.06-3.34-2.034-5.236-.014-11.708 0-23.416 0-35.127.042-3.743-.038-7.693-1.824-11.082-1.216-2.384-3.649-3.983-6.248-4.462-6.037-1.043-12.577.796-16.962 5.136-4.79 4.678-6.878 11.495-6.937 18.064-.073 8.573-.01 17.142-.028 25.716-.04 1.852.247 3.843-.69 5.536-.82 1.661-2.75 2.421-4.511 2.446-2.2.028-4.4-.02-6.596.028-1.751.052-3.712-.33-4.89-1.741-1.119-1.36-1.303-3.201-1.272-4.897v-86.873c-.034-1.976.282-4.237 2.002-5.485zm85.123-.42c1.588-.894 3.461-.637 5.205-.668 1.985.042 3.98-.11 5.96.115 1.595.21 3.023 1.302 3.63 2.791.633 1.362.537 2.912.575 4.378-.01 5.796 0 11.597 0 17.397-.018 4.531.107 9.08-.4 13.594 3.36-5.63 9.224-9.633 15.586-11.085 6.995-1.522 14.582-.713 20.944 2.63 4.41 2.297 8.136 5.81 10.871 9.953 3.763 5.61 5.681 12.288 6.335 18.964.74 8.34-.195 17.007-3.84 24.625-2.397 5.097-6.046 9.643-10.686 12.858-6.676 4.743-15.263 6.407-23.283 5.119-7-1.147-13.44-5.467-16.948-11.653.038 2.286.361 4.616-.062 6.884-.494 2.172-2.746 3.434-4.852 3.475a178.69 178.69 0 0 1-6.61-.014c-1.828-.024-3.742-1.031-4.475-2.762-.768-1.622-.53-3.455-.552-5.192v-86.569c.01-1.887.806-3.99 2.606-4.84zm29.34 41.59c-4.785.9-8.99 4.086-11.364 8.302-3.138 5.54-3.718 12.216-2.829 18.425.824 5.473 3.208 11.006 7.695 14.446 4.228 3.221 10.064 3.962 15.072 2.325 4.67-1.487 8.44-5.185 10.441-9.605 2.444-5.411 2.812-11.583 1.88-17.39-.927-5.483-3.52-11.03-8.287-14.171-3.631-2.5-8.32-3.222-12.608-2.332zm140.684-42.108c1.918-.302 3.874-.09 5.812-.15 1.777.04 3.684-.251 5.335.552 1.894.845 2.756 3.038 2.76 5.002 0 23.741-.011 47.487.01 71.23.049 2.432.432 5.219 2.447 6.85 1.088 1.006 2.645 1.038 4.021 1.334 1.852.332 3.374 2.052 3.436 3.954.115 1.866.018 3.738.071 5.605.023 1.668-.238 3.521-1.492 4.733-.862.911-2.088 1.418-3.328 1.45-3.598.19-7.253-.09-10.693-1.186-3.42-1.101-6.6-3.253-8.539-6.32-1.772-2.562-2.686-5.592-3.259-8.62-.654-3.492-.452-7.058-.476-10.589-.011-22.93-.018-45.863 0-68.799-.091-2.321 1.521-4.68 3.896-5.046zm38.98.086c1.883-.468 3.842-.155 5.764-.232 2.044.073 4.3-.348 6.151.772 1.728 1.041 2.399 3.18 2.353 5.104v67.442c.024 2.52-.201 5.115.616 7.547.548 1.802 2.008 3.448 3.94 3.733 1.554.286 3.378.455 4.414 1.825 1.25 1.595 1.02 3.75 1.038 5.658-.058 2.022.261 4.186-.702 6.06-.768 1.599-2.519 2.543-4.257 2.581-4.337.174-8.84-.194-12.813-2.102-4.18-1.897-7.22-5.806-8.6-10.136-1.908-5.786-1.467-11.958-1.518-17.957.01-21.542-.024-43.087.024-64.632-.147-2.392 1.083-5.065 3.589-5.663zm118.922 9.349c1.842-1.335 4.232-.952 6.366-1.008 2.043.087 4.22-.32 6.15.549 1.968.818 2.98 3.07 2.899 5.112 0 4.987-.01 9.973 0 14.957 3.353 0 6.706.01 10.07-.007 1.675-.056 3.541.195 4.75 1.494 1.482 1.377 1.578 3.565 1.62 5.456-.049 1.873-.014 3.972-1.258 5.504-.945 1.244-2.564 1.765-4.08 1.765-3.701.025-7.401-.003-11.102.008-.011 9.154 0 18.307 0 27.463.018 3.32.515 6.878 2.655 9.547 1.985 2.506 5.144 3.77 8.247 4.124 1.824.276 3.934.348 5.324 1.753 1.254 1.219 1.272 3.106 1.33 4.743-.069 2.116.219 4.306-.43 6.36-.581 1.851-2.486 2.967-4.32 3.2-2.273.264-4.584.174-6.856-.038-6.85-.8-13.755-3.649-18.26-9.032-3.887-4.57-5.607-10.662-5.625-16.59-.08-10.52-.018-21.042-.035-31.565-2.29-.08-4.698.414-6.873-.501-1.797-.791-2.61-2.818-2.662-4.67-.07-2.067-.253-4.243.549-6.206.674-1.624 2.359-2.608 4.07-2.757 1.77-.132 3.544-.005 5.33-.023.034-4.883-.024-9.769.018-14.651 0-1.846.521-3.883 2.123-4.988zM707.99-756.62c.605-1.345 1.904-2.513 3.454-2.47a874.42 874.42 0 0 1 12.228 0c2.308-.032 3.914 2.116 4.505 4.141.146 1.62.058 3.25.077 4.876.009 18.766-.022 37.531.003 56.297-.037 1.401.202 3.007-.782 4.16-.946 1.327-2.613 1.873-4.19 1.835-3.7.004-7.403-.02-11.103.01-1.408.028-3.01-.229-3.893-1.453-1.122-1.247-.883-3.009-.896-4.545-.007-10.265.042-20.528-.02-30.79.117-8.744.02-17.49.044-26.233.056-1.943-.29-4.008.573-5.828zm31.162-1.94c.715-.59 1.695-.521 2.568-.555 7.294.018 14.587.01 21.882.003 4.236-.005 8.434 1.19 12.135 3.225 5.578 3.018 10.068 7.857 12.99 13.457 7.191 13.222 6.234 30.646-2.826 42.76-5.496 7.479-14.636 12.642-24.072 11.935-7.053-.146-14.112.031-21.162-.084-2.043.018-3.663-1.898-3.629-3.872-.014-18.123-.003-36.245-.007-54.365.024-2.624-.01-5.244.004-7.864 0-1.748.709-3.555 2.116-4.64zm330.43 12.54c7.556-.731 15.344.469 22.161 3.863 1.742.915 3.83 1.686 4.74 3.58 1.009 2.171.223 4.688-.973 6.617-.958 1.59-1.716 3.6-3.603 4.295-2.151.775-4.397-.129-6.342-1.039-3.956-1.86-8.275-3.038-12.66-3.055-2.488.088-5.157.379-7.194 1.956-2.62 1.866-3.253 6.061-1.084 8.504 1.491 1.63 3.465 2.729 5.498 3.556 5.198 2.165 10.682 3.6 15.773 6.032 3.69 1.758 7.24 4.08 9.706 7.402 3.403 4.605 4.132 10.776 2.846 16.26-1.23 5.224-4.712 9.797-9.265 12.59-6.522 4.14-14.566 5.064-22.122 4.351-7.363-.722-14.498-3.479-20.486-7.814-1.96-1.346-2.14-4.15-1.15-6.142.671-1.278 1.502-2.468 2.322-3.653.945-1.31 2.237-2.615 3.947-2.723 2.485-.146 4.585 1.38 6.708 2.432 3.832 2.029 8.062 3.426 12.423 3.614 2.453.1 5.008-.08 7.252-1.178 2.093-1.011 3.806-3.068 3.917-5.46.146-1.519-.351-3.092-1.422-4.19-2.092-2.214-5.031-3.277-7.787-4.393-5.734-2.105-11.69-3.84-16.903-7.11-3.656-2.284-6.878-5.554-8.358-9.672-2.38-6.697-1.359-14.797 3.458-20.186 4.64-5.324 11.739-7.771 18.598-8.438zm387.538 4.76c5.676-3.357 12.33-4.939 18.902-4.935 5.905-.1 11.926 1.092 17.073 4.072 6.933 3.868 11.728 10.885 13.73 18.475a43.832 43.832 0 0 1 1.481 11.806c.045 2.313-1.492 4.486-3.562 5.433-1.463.782-3.163.54-4.75.564-13.897-.003-27.781-.003-41.678 0 .334 6.39 3.638 12.684 9.08 16.156 7.03 4.548 16.309 4.371 23.784 1.014 2.422-.886 4.407-2.87 7.062-3.092 1.344-.198 2.773.225 3.725 1.216 1.165 1.22 1.898 2.759 2.787 4.181 1.05 1.74 1.568 4.042.598 5.931-.82 1.595-2.51 2.408-3.965 3.302-10.54 6.245-23.648 7.903-35.405 4.486-8.619-2.498-16.312-8.238-20.85-16.013-5.877-9.852-6.687-22.223-3.347-33.073 2.492-8.093 7.972-15.27 15.335-19.523zm7.76 12.73c-3.416 3.003-5.39 7.345-6.203 11.759 4.723.146 9.46.028 14.19.066 5.861-.034 11.731.073 17.6-.058-.09-2.123-.423-4.248-1.118-6.26-1.22-3.71-3.983-6.95-7.625-8.451-5.57-2.263-12.357-1.043-16.843 2.944zM966.2-743.132c1.087-1.092 2.7-1.39 4.186-1.373 2.32 0 4.641-.017 6.962.014 1.585.018 3.242.67 4.146 2.035 1.119 1.502 1.032 3.47 1.045 5.249.004 12.274-.02 24.552.015 36.827.17 3.883.736 8.336 3.944 10.967 2.682 2.154 6.39 2.339 9.674 1.953 4.71-.518 9.098-3.051 12.032-6.752 3.798-4.755 5.46-10.93 5.518-16.945.013-9.15-.01-18.3.01-27.45-.03-1.832.484-3.878 2.106-4.942 1.933-1.397 4.435-.84 6.656-.956 2.283.118 4.795-.43 6.856.832 1.716 1.042 2.384 3.158 2.373 5.072-.01 19.92.01 39.839-.01 59.756.018 1.876-.368 4.005-1.973 5.19-1.867 1.43-4.342.978-6.523 1.06-2.02-.097-4.177.307-6.079-.545-1.796-.767-2.64-2.807-2.68-4.652-.037-2.69-.061-5.38.112-8.063-4.298 8.348-13.087 14.015-22.397 14.838-5.386.32-11.012-.132-15.899-2.598-3.597-1.738-6.547-4.71-8.378-8.25-2.475-4.72-3.247-10.13-3.34-15.399.004-13.786.006-27.571 0-41.353-.017-1.627.401-3.38 1.64-4.515zm315.77.56c.977-1.331 2.675-1.929 4.288-1.92 2.436-.02 4.876-.033 7.326.012 1.341.01 2.758.43 3.707 1.432 1.103 1.052 1.481 2.632 1.49 4.111-.015 10.761-.01 21.527-.01 32.29 0 3.242-.083 6.499.348 9.72.43 2.61 1.25 5.369 3.295 7.184 2.415 2.335 6.057 2.606 9.243 2.377 5.644-.404 10.929-3.663 13.97-8.42 2.307-3.434 3.593-7.472 4.118-11.555.34-2.413.198-4.852.226-7.278v-23.651c0-1.856.355-3.952 1.942-5.133 1.929-1.557 4.54-.997 6.819-1.102 2.283.124 4.785-.434 6.85.789 1.755 1.018 2.443 3.17 2.394 5.101v58.41c0 1.707.107 3.507-.702 5.07-.82 1.759-2.85 2.527-4.689 2.534-2.45.004-4.903.049-7.342-.052-2.09-.09-3.992-1.706-4.32-3.788-.494-3.193-.247-6.45.011-9.653-2.788 5.573-7.582 10.053-13.247 12.604-5.745 2.742-12.365 3.09-18.56 2.022-5.207-.9-10.294-3.492-13.387-7.881-3.844-5.36-4.855-12.16-4.918-18.607-.038-13.204 0-26.407-.02-39.61-.018-1.72.098-3.582 1.168-5.006zm0 0" transform="translate(-137.69 397.92) scale(.35278)"/>
    </g>
</svg>
