<svg xmlns="http://www.w3.org/2000/svg" xmlns:xlink="http://www.w3.org/1999/xlink" width="1920" height="1080" viewBox="0 0 508 285.75">
    <defs>
        <radialGradient xlink:href="#a" id="b" cx="125.255" cy="16.735" fx="125.255" fy="16.735" r="254" gradientTransform="matrix(0 1.06475 -1.74952 0 154.532 -61.444)" gradientUnits="userSpaceOnUse"/>
        <linearGradient id="a">
            <stop style="stop-color:#fff;stop-opacity:1" offset="0"/>
            <stop style="stop-color:#f4f4f4;stop-opacity:1" offset="1"/>
        </linearGradient>
        <style/>
    </defs>
    <path style="opacity:.98;fill:url(#b);stroke-width:2.64583;fill-opacity:1" d="M0 0h508v285.75H0z"/>
    <path d="M231.122 145.619c0 15.037-11.764 26.117-26.2 26.117s-26.199-11.08-26.199-26.117c0-15.143 11.763-26.117 26.2-26.117s26.199 10.974 26.199 26.117zm-11.47 0c0-9.396-6.817-15.826-14.73-15.826s-14.73 6.43-14.73 15.826c0 9.302 6.818 15.826 14.73 15.826s14.73-6.535 14.73-15.826z" fill="#ea4335"/>
    <path d="M287.642 145.619c0 15.037-11.764 26.117-26.2 26.117s-26.199-11.08-26.199-26.117c0-15.13 11.763-26.117 26.2-26.117s26.199 10.974 26.199 26.117zm-11.47 0c0-9.396-6.817-15.826-14.73-15.826s-14.73 6.43-14.73 15.826c0 9.302 6.818 15.826 14.73 15.826s14.73-6.535 14.73-15.826z" fill="#fbbc05"/>
    <path d="M341.807 121.08v46.888c0 19.287-11.375 27.165-24.822 27.165-12.658 0-20.277-8.466-23.15-15.39l9.986-4.157c1.778 4.251 6.134 9.267 13.152 9.267 8.608 0 13.942-5.31 13.942-15.307v-3.756h-.4c-2.567 3.167-7.513 5.934-13.754 5.934-13.058 0-25.022-11.374-25.022-26.01 0-14.743 11.964-26.212 25.022-26.212 6.23 0 11.175 2.767 13.753 5.84h.4v-4.25h10.893zm-10.08 24.633c0-9.196-6.134-15.92-13.941-15.92-7.913 0-14.542 6.724-14.542 15.92 0 9.102 6.629 15.732 14.542 15.732 7.807 0 13.941-6.63 13.941-15.732z" fill="#4285f4"/>
    <path d="M359.764 93.597v76.538h-11.187V93.597z" fill="#34a853"/>
    <path d="m403.355 154.215 8.902 5.934c-2.874 4.251-9.797 11.575-21.76 11.575-14.837 0-25.917-11.469-25.917-26.117 0-15.531 11.174-26.117 24.633-26.117 13.553 0 20.182 10.786 22.349 16.615l1.19 2.967-34.914 14.46c2.673 5.24 6.83 7.913 12.658 7.913 5.84 0 9.891-2.873 12.859-7.23zm-27.4-9.397 23.337-9.69c-1.283-3.262-5.145-5.535-9.69-5.535-5.83 0-13.942 5.146-13.648 15.225z" fill="#ea4335"/>
    <path d="M136.38 138.825v-11.08h37.339c.365 1.93.553 4.215.553 6.688 0 8.313-2.273 18.592-9.597 25.917-7.123 7.418-16.226 11.374-28.283 11.374-22.35 0-41.142-18.204-41.142-40.553 0-22.349 18.793-40.553 41.142-40.553 12.364 0 21.171 4.851 27.789 11.174l-7.819 7.82c-4.745-4.452-11.174-7.914-19.982-7.914-16.32 0-29.084 13.153-29.084 29.473s12.764 29.473 29.084 29.473c10.586 0 16.615-4.25 20.477-8.113 3.132-3.132 5.193-7.607 6.005-13.718z" fill="#4285f4"/>
    <path d="M350.508 193.734v-13.5h4.414q2.197 0 3.3.909 1.113.908 1.113 2.688 0 .946-.538 1.678-.537.724-1.465 1.122 1.095.306 1.725 1.168.64.854.64 2.041 0 1.817-1.178 2.855-1.178 1.039-3.329 1.039zm1.78-6.314v4.859h2.94q1.242 0 1.956-.64.723-.649.723-1.78 0-2.439-2.652-2.439zm0-1.428h2.69q1.167 0 1.863-.584.704-.584.704-1.585 0-1.113-.647-1.613-.65-.511-1.976-.511h-2.633zm9.324 2.633q0-1.474.575-2.652.584-1.177 1.613-1.817 1.039-.64 2.364-.64 2.05 0 3.31 1.419 1.271 1.418 1.271 3.773v.12q0 1.465-.565 2.633-.557 1.16-1.605 1.81-1.039.647-2.392.647-2.04 0-3.31-1.418-1.26-1.418-1.26-3.755zm1.725.204q0 1.67.77 2.68.779 1.01 2.076 1.01 1.307 0 2.077-1.02.77-1.029.77-2.873 0-1.652-.788-2.672-.779-1.029-2.078-1.029-1.27 0-2.048 1.012-.779 1.01-.779 2.892zm9.108-.204q0-1.474.575-2.652.584-1.177 1.613-1.817 1.039-.64 2.364-.64 2.05 0 3.31 1.419 1.271 1.418 1.271 3.773v.12q0 1.465-.565 2.633-.557 1.16-1.605 1.81-1.039.647-2.392.647-2.04 0-3.31-1.418-1.26-1.418-1.26-3.755zm1.725.204q0 1.67.77 2.68.779 1.01 2.076 1.01 1.307 0 2.077-1.02.77-1.029.77-2.873 0-1.652-.788-2.672-.779-1.029-2.078-1.029-1.27 0-2.048 1.012-.779 1.01-.779 2.892zm12.358.26-1.075 1.122v3.523h-1.716v-14.24h1.716v8.613l.919-1.104 3.123-3.3h2.086l-3.904 4.19 4.358 5.841h-2.012zm12.682 1.984q0-.695-.529-1.075-.518-.39-1.826-.668-1.298-.279-2.068-.667-.76-.39-1.13-.928-.363-.537-.363-1.28 0-1.232 1.039-2.086 1.048-.852 2.67-.852 1.706 0 2.763.88 1.066.881 1.066 2.253h-1.725q0-.704-.601-1.214-.594-.51-1.503-.51-.936 0-1.465.408-.528.407-.528 1.065 0 .622.49.938.493.314 1.772.603 1.289.287 2.086.685.797.399 1.178.965.388.556.388 1.363 0 1.343-1.075 2.16-1.075.806-2.79.806-1.205 0-2.132-.426-.928-.427-1.456-1.187-.52-.77-.52-1.66h1.716q.047.863.685 1.372.65.5 1.708.5.972 0 1.556-.388.594-.399.594-1.057z" fill="#4285f4" stroke-width=".34"/>
</svg>
