<?xml version="1.0" encoding="UTF-8" standalone="no"?>
<svg
   xmlns:dc="http://purl.org/dc/elements/1.1/"
   xmlns:cc="http://creativecommons.org/ns#"
   xmlns:rdf="http://www.w3.org/1999/02/22-rdf-syntax-ns#"
   xmlns:svg="http://www.w3.org/2000/svg"
   xmlns="http://www.w3.org/2000/svg"
   xmlns:xlink="http://www.w3.org/1999/xlink"
   width="1920"
   height="1080"
   viewBox="0 0 507.99999 285.75001"
   version="1.1"
   id="svg8">
  <defs
     id="defs2">
    <linearGradient
       id="linearGradient851">
      <stop
         style="stop-color:#fffedb;stop-opacity:1"
         offset="0"
         id="stop847" />
      <stop
         style="stop-color:#ffeec2;stop-opacity:1"
         offset="1"
         id="stop849" />
    </linearGradient>
    <radialGradient
       xlink:href="#linearGradient851"
       id="radialGradient853"
       cx="125.25463"
       cy="16.734682"
       fx="125.25463"
       fy="16.734682"
       r="254"
       gradientTransform="matrix(0,1.0647542,-1.7495183,0,154.53226,-61.444333)"
       gradientUnits="userSpaceOnUse" />
    <style
       id="style914">.cls-1{fill:url(#linear-gradient);}</style>
    <linearGradient
       id="linear-gradient"
       y1="40.76"
       x2="190.24"
       y2="40.76"
       gradientUnits="userSpaceOnUse"
       gradientTransform="matrix(1.6689444,0,0,1.6689444,95.249998,74.882274)">
      <stop
         offset="0"
         stop-color="#90cea1"
         id="stop916" />
      <stop
         offset="0.56"
         stop-color="#3cbec9"
         id="stop918" />
      <stop
         offset="1"
         stop-color="#00b3e5"
         id="stop920" />
    </linearGradient>
    <style
       id="style1359">.a{fill:#ba478f;}.b{fill:#eb743b;}</style>
  </defs>
  <metadata
     id="metadata5">
    <rdf:RDF>
      <cc:Work
         rdf:about="">
        <dc:format>image/svg+xml</dc:format>
        <dc:type
           rdf:resource="http://purl.org/dc/dcmitype/StillImage" />
        <dc:title></dc:title>
      </cc:Work>
    </rdf:RDF>
  </metadata>
  <g
     id="layer1">
    <rect
       style="opacity:0.98;fill:url(#radialGradient853);stroke-width:2.64583;fill-opacity:1"
       id="rect845"
       width="508"
       height="285.75"
       x="0"
       y="2.1874998e-06" />
    <g
       id="g1409"
       transform="matrix(1.6944178,0,0,1.6944178,95.249996,119.15315)">
      <polygon
         class="a"
         points="0,7 0,21 12,28 12,0 "
         id="polygon1363" />
      <polygon
         class="b"
         points="25,7 25,21 13,28 13,0 "
         id="polygon1365" />
      <path
         class="a"
         d="m 40.2,5.52 4.44,13.85 4.43,-13.85 h 6.32 V 25.43 H 50.57 V 20.78 L 51,11.27 46.23,25.43 h -3.18 l -4.82,-14.18 0.46,9.53 v 4.65 h -4.8 V 5.52 h 6.3 z"
         transform="translate(-2,-1)"
         id="path1367" />
      <path
         class="a"
         d="m 67,23.83 a 4.9,4.9 0 0 1 -1.68,1.38 5,5 0 0 1 -2.27,0.49 6.22,6.22 0 0 1 -2,-0.31 3.89,3.89 0 0 1 -1.56,-1 4.51,4.51 0 0 1 -1,-1.71 7.7,7.7 0 0 1 -0.36,-2.51 v -9.53 h 4.61 v 9.6 a 2,2 0 0 0 0.47,1.45 1.88,1.88 0 0 0 1.37,0.46 2.87,2.87 0 0 0 1.4,-0.3 A 2.24,2.24 0 0 0 66.86,21 V 10.64 h 4.63 v 14.79 h -4.32 z"
         transform="translate(-2,-1)"
         id="path1369" />
      <path
         class="a"
         d="M 81.76,21.27 A 1,1 0 0 0 81.63,20.76 1.3,1.3 0 0 0 81.17,20.34 4.21,4.21 0 0 0 80.28,20 q -0.56,-0.18 -1.42,-0.37 a 12.89,12.89 0 0 1 -2,-0.61 6.57,6.57 0 0 1 -1.65,-0.93 4.14,4.14 0 0 1 -1.11,-1.31 3.59,3.59 0 0 1 -0.4,-1.72 4.12,4.12 0 0 1 0.4,-1.79 4.34,4.34 0 0 1 1.18,-1.49 5.88,5.88 0 0 1 1.91,-1 8.2,8.2 0 0 1 2.58,-0.38 9.48,9.48 0 0 1 2.69,0.36 6.34,6.34 0 0 1 2,1 4.41,4.41 0 0 1 1.29,1.52 4.21,4.21 0 0 1 0.45,1.95 h -4.59 a 1.88,1.88 0 0 0 -0.42,-1.31 1.89,1.89 0 0 0 -1.45,-0.46 2.08,2.08 0 0 0 -0.66,0.1 1.75,1.75 0 0 0 -0.54,0.29 1.38,1.38 0 0 0 -0.37,0.44 1.22,1.22 0 0 0 -0.14,0.57 1.14,1.14 0 0 0 0.58,1 5.41,5.41 0 0 0 1.88,0.63 18.45,18.45 0 0 1 2.15,0.53 6.79,6.79 0 0 1 1.83,0.86 4.15,4.15 0 0 1 1.26,1.35 3.87,3.87 0 0 1 0.47,2 3.76,3.76 0 0 1 -0.45,1.77 4.31,4.31 0 0 1 -1.29,1.44 6.61,6.61 0 0 1 -2,1 9.52,9.52 0 0 1 -2.68,0.35 8.14,8.14 0 0 1 -2.82,-0.45 6.56,6.56 0 0 1 -2.05,-1.17 4.92,4.92 0 0 1 -1.25,-1.61 4.14,4.14 0 0 1 -0.42,-1.78 h 4.31 a 1.78,1.78 0 0 0 0.68,1.5 2.81,2.81 0 0 0 1.68,0.47 2.21,2.21 0 0 0 1.42,-0.38 1.22,1.22 0 0 0 0.43,-1.1 z"
         transform="translate(-2,-1)"
         id="path1371" />
      <path
         class="a"
         d="m 88.32,6.82 a 2.17,2.17 0 0 1 0.18,-0.9 2.07,2.07 0 0 1 0.5,-0.71 2.44,2.44 0 0 1 0.81,-0.46 3.37,3.37 0 0 1 2.08,0 2.44,2.44 0 0 1 0.81,0.46 2.07,2.07 0 0 1 0.53,0.71 2.3,2.3 0 0 1 0,1.8 2.07,2.07 0 0 1 -0.53,0.71 2.44,2.44 0 0 1 -0.81,0.46 3.37,3.37 0 0 1 -2.08,0 A 2.44,2.44 0 0 1 89,8.44 2.07,2.07 0 0 1 88.47,7.73 2.17,2.17 0 0 1 88.32,6.82 Z m 4.89,18.61 H 88.6 V 10.64 h 4.62 v 14.79 z"
         transform="translate(-2,-1)"
         id="path1373" />
      <path
         class="a"
         d="m 102.31,22.15 a 2.05,2.05 0 0 0 1.5,-0.53 1.93,1.93 0 0 0 0.52,-1.47 h 4.32 a 5.35,5.35 0 0 1 -0.47,2.28 5.22,5.22 0 0 1 -1.31,1.75 5.88,5.88 0 0 1 -2,1.13 8.13,8.13 0 0 1 -5.51,-0.18 6,6 0 0 1 -2.17,-1.58 6.7,6.7 0 0 1 -1.31,-2.38 9.74,9.74 0 0 1 -0.44,-3 v -0.29 a 9.81,9.81 0 0 1 0.44,-3 6.75,6.75 0 0 1 1.3,-2.39 6,6 0 0 1 2.15,-1.58 7.37,7.37 0 0 1 3,-0.57 7.81,7.81 0 0 1 2.55,0.4 5.57,5.57 0 0 1 2,1.16 5.18,5.18 0 0 1 1.29,1.87 6.53,6.53 0 0 1 0.46,2.52 h -4.32 a 3.62,3.62 0 0 0 -0.12,-0.93 2,2 0 0 0 -0.38,-0.76 1.83,1.83 0 0 0 -0.65,-0.51 2.14,2.14 0 0 0 -0.92,-0.18 1.87,1.87 0 0 0 -1.14,0.32 2.07,2.07 0 0 0 -0.66,0.86 4.3,4.3 0 0 0 -0.31,1.26 14.81,14.81 0 0 0 -0.08,1.52 v 0.33 a 14.89,14.89 0 0 0 0.08,1.54 4.3,4.3 0 0 0 0.31,1.26 1.93,1.93 0 0 0 0.68,0.85 2,2 0 0 0 1.19,0.3 z"
         transform="translate(-2,-1)"
         id="path1375" />
      <path
         class="b"
         d="M 110.81,25.43 V 5.52 H 118 a 14.77,14.77 0 0 1 3.3,0.33 7.29,7.29 0 0 1 2.47,1 4.6,4.6 0 0 1 1.54,1.72 5.22,5.22 0 0 1 0.53,2.43 5.69,5.69 0 0 1 -0.15,1.32 4.21,4.21 0 0 1 -0.49,1.2 3.92,3.92 0 0 1 -0.87,1 4.45,4.45 0 0 1 -1.3,0.73 4.56,4.56 0 0 1 1.5,0.67 3.89,3.89 0 0 1 1,1 4,4 0 0 1 0.55,1.24 5.36,5.36 0 0 1 0.17,1.35 5.26,5.26 0 0 1 -1.9,4.49 9,9 0 0 1 -5.59,1.47 h -7.94 z m 4.8,-11.61 h 2.5 a 3.56,3.56 0 0 0 2.24,-0.57 2,2 0 0 0 0.67,-1.65 A 2.14,2.14 0 0 0 120.3,9.79 3.89,3.89 0 0 0 118,9.23 h -2.35 v 4.59 z m 0,3.14 v 4.77 h 3.14 a 3.8,3.8 0 0 0 1.24,-0.18 2.25,2.25 0 0 0 0.83,-0.49 1.88,1.88 0 0 0 0.47,-0.72 2.55,2.55 0 0 0 0.15,-0.89 3.69,3.69 0 0 0 -0.14,-1 1.92,1.92 0 0 0 -0.44,-0.79 2,2 0 0 0 -0.78,-0.5 3.36,3.36 0 0 0 -1.16,-0.18 h -3.32 z"
         transform="translate(-2,-1)"
         id="path1377" />
      <path
         class="b"
         d="m 137.61,14.81 h -0.33 -0.41 -0.42 -0.36 a 4.09,4.09 0 0 0 -1.79,0.33 2.06,2.06 0 0 0 -1,1 v 9.37 h -4.6 V 10.64 h 4.3 l 0.15,1.9 a 4.51,4.51 0 0 1 1.36,-1.6 3.18,3.18 0 0 1 1.88,-0.57 5.57,5.57 0 0 1 0.68,0 3.68,3.68 0 0 1 0.61,0.12 z"
         transform="translate(-2,-1)"
         id="path1379" />
      <path
         class="b"
         d="m 147.19,25.43 a 3.19,3.19 0 0 1 -0.25,-0.61 q -0.1,-0.34 -0.18,-0.72 a 4.24,4.24 0 0 1 -3.55,1.6 5.66,5.66 0 0 1 -1.93,-0.33 5.11,5.11 0 0 1 -1.59,-0.91 4.31,4.31 0 0 1 -1.09,-1.4 4,4 0 0 1 -0.4,-1.8 4.83,4.83 0 0 1 0.42,-2.05 3.89,3.89 0 0 1 1.27,-1.52 6.3,6.3 0 0 1 2.16,-1 12.56,12.56 0 0 1 3.1,-0.33 h 1.42 v -0.75 a 2.43,2.43 0 0 0 -0.41,-1.49 1.58,1.58 0 0 0 -1.35,-0.55 1.71,1.71 0 0 0 -1.22,0.4 1.59,1.59 0 0 0 -0.42,1.22 h -4.61 a 4.11,4.11 0 0 1 0.46,-1.91 4.49,4.49 0 0 1 1.31,-1.53 6.54,6.54 0 0 1 2,-1 9,9 0 0 1 2.67,-0.37 8.76,8.76 0 0 1 2.45,0.33 5.5,5.5 0 0 1 1.95,1 4.61,4.61 0 0 1 1.29,1.65 5.38,5.38 0 0 1 0.46,2.3 v 6.04 q 0,0.73 0,1.26 a 7.71,7.71 0 0 0 0.12,0.94 5,5 0 0 0 0.2,0.72 4.26,4.26 0 0 0 0.27,0.59 v 0.23 h -4.61 z m -2.88,-3 a 2.57,2.57 0 0 0 1.43,-0.37 2.32,2.32 0 0 0 0.81,-0.83 V 18.85 H 145.1 A 2.94,2.94 0 0 0 144,19 a 1.85,1.85 0 0 0 -0.71,0.48 1.8,1.8 0 0 0 -0.38,0.69 2.84,2.84 0 0 0 -0.12,0.81 1.32,1.32 0 0 0 0.42,1 1.53,1.53 0 0 0 1.1,0.44 z"
         transform="translate(-2,-1)"
         id="path1381" />
      <path
         class="b"
         d="m 153.69,6.82 a 2.17,2.17 0 0 1 0.18,-0.9 2.07,2.07 0 0 1 0.53,-0.71 2.44,2.44 0 0 1 0.81,-0.46 3.37,3.37 0 0 1 2.08,0 2.44,2.44 0 0 1 0.81,0.46 2.07,2.07 0 0 1 0.53,0.71 2.3,2.3 0 0 1 0,1.8 2.07,2.07 0 0 1 -0.53,0.71 2.44,2.44 0 0 1 -0.81,0.46 3.37,3.37 0 0 1 -2.08,0 2.44,2.44 0 0 1 -0.81,-0.46 2.07,2.07 0 0 1 -0.53,-0.71 2.17,2.17 0 0 1 -0.18,-0.9 z m 4.89,18.61 H 154 V 10.64 h 4.62 v 14.79 z"
         transform="translate(-2,-1)"
         id="path1383" />
      <path
         class="b"
         d="m 165.65,10.64 0.15,1.74 a 5,5 0 0 1 1.83,-1.5 5.5,5.5 0 0 1 2.4,-0.51 5.74,5.74 0 0 1 1.88,0.29 3.5,3.5 0 0 1 1.47,1 4.59,4.59 0 0 1 1,1.78 9.43,9.43 0 0 1 0.33,2.71 v 9.31 H 170 V 16.11 A 3.48,3.48 0 0 0 169.9,15 1.58,1.58 0 0 0 169.49,14.33 1.41,1.41 0 0 0 168.83,14 a 4,4 0 0 0 -0.88,-0.09 2.37,2.37 0 0 0 -1.22,0.29 2.26,2.26 0 0 0 -0.79,0.78 v 10.45 h -4.61 V 10.64 Z"
         transform="translate(-2,-1)"
         id="path1385" />
      <path
         class="b"
         d="m 182.64,21.88 h 6.74 v 3.55 h -12.56 v -2.57 l 6.56,-8.67 h -6.28 v -3.55 h 12.13 v 2.49 z"
         transform="translate(-2,-1)"
         id="path1387" />
    </g>
  </g>
</svg>
