<svg xmlns="http://www.w3.org/2000/svg" xmlns:xlink="http://www.w3.org/1999/xlink" width="1920" height="1080" viewBox="0 0 508 285.75">
    <defs>
        <radialGradient xlink:href="#a" id="b" cx="125.255" cy="16.735" fx="125.255" fy="16.735" r="254" gradientTransform="matrix(0 1.06475 -1.74952 0 154.532 -61.444)" gradientUnits="userSpaceOnUse"/>
        <linearGradient id="a">
            <stop style="stop-color:#fd9fa5;stop-opacity:1" offset="0"/>
            <stop style="stop-color:#f6848b;stop-opacity:1" offset="1"/>
        </linearGradient>
        <style/>
    </defs>
    <path style="opacity:.98;fill:url(#b);stroke-width:2.64583;fill-opacity:1" d="M0 0h508v285.75H0z"/>
    <path style="fill:#fff;fill-opacity:1;stroke:none;stroke-width:.264583px;stroke-linecap:butt;stroke-linejoin:miter;stroke-opacity:1" d="M665.95 130.824s-14.343-11.081-33.01-1.966c-16.676 8.142-21.236 15.654-21.023 24.292.212 8.638 2.152 8.425 2.152 8.425s-11.964 15.09-.818 30.956c10.233 14.565 32.93 8.771 32.93 8.771s6.552 4.43 12.731 3.641c6.671-.85 11.828-5.342 11.828-5.342s10.037 4.1 15.627 1.542c5.343-2.445 10.286-7.31 10.286-7.31s3.128 2.924 10.198 2.552c7.07-.373 10.02-2.791 10.02-2.791s3.614 4.89 12.757 4.997c9.143.106 12.279-3.509 12.279-3.509s6.67 9.951 34.447-.48c20.667-7.76 21.715-12.624 21.715-12.624s5.11 9.22 19.382 10.39c14.273 1.17 23.389-6.485 23.389-6.485s3.547 3.346 13.38 2.894c12.958-.596 10.154-2.18 10.154-2.18s5.094 5.075 15.07 2.366c8.61-2.34 9.408-6.246 9.408-6.246s9.767 6.67 20.42 1.53c10.59-5.11 9.355-12.12 9.355-12.12s7.589 11.546 23.855 11.227c16.265-.319 22.033-6.591 22.033-6.591s4.488 4.689 13.55 3.706c9.064-.984 9.675-3.668 9.675-3.668s10.012 8.15 23.336-3.083c10.171-8.575 2.631-26.02 2.153-29.714-.479-3.695-.77-23.103-7.893-29.11-7.123-6.007-16.32-5.9-16.32-5.9s-2.524-22.512-19.56-22.22c-17.037.293-18.685 21.183-18.685 21.183s-7.123-1.249-13.794 1.914c-6.677 3.166-10.18 6.113-10.18 6.113s-5.242-2.844-11.195-3.004c-5.954-.159-10.738 3.27-10.738 3.27s-6.14-3.163-11.641-3.004c-5.502.16-11.8 5.29-11.8 5.29s-6.233-8.042-22.292-5.321c-11.296 1.913-20.014 10.95-20.014 10.95s-9.196-7.209-19.349-5.322C809.616 120.73 800.5 132.24 800.5 132.24s-5.076-4.625-7.521-5.9c-2.445-1.276-6.538-3.084-6.538-3.084s7.053-3.977 9.924-10.688c3.137-7.333-.643-18.226-9.061-22.44-16.83-8.427-37.581 10.923-37.581 10.923s-5.923-6.355-12.302-7.073c-6.378-.717-11.03 3.27-13.528 4.226-2.498.957-9.828 3.262-16.026 10.1-4.343 4.79-1.701 16.638-1.701 16.638s-5.236-.612-9.728.372c-4.492.983-8.319 4.97-8.319 4.97s-4.051-3.557-12.067-3.134c-6.538.346-10.101 3.675-10.101 3.675z" transform="translate(-378.434 29.296) scale(.77844)"/>
    <path style="fill:#d22e08;fill-opacity:1;stroke:none;stroke-width:.999999px;stroke-linecap:butt;stroke-linejoin:miter;stroke-opacity:1" d="M2447.186 519.379c-39.297.603-79.514 39.844-79.514 39.844s-13.516 16.208-4.568 28.867c8.947 12.659 26.015.717 26.015.717l19.96-15.323s20.673-17.576 35.69-17.074c15.018.502 15.47 15.772 15.47 15.772v19.738s-24.939-9.679-57.077 5.803c-34.347 16.545-64.867 56.255-51.36 87.78 23.751 55.434 109.352 16.503 109.352 16.503s-4.017 20.995 23.356 19.69c27.373-1.307 20.68-42.667 20.68-42.667s20.089-5.073 18.632-20.543c-1.456-15.47-18.865-18.257-18.865-18.257s5.43-68.132-9.994-96.49c-2.296-4.222-6.027-23.707-45.906-24.36-.623-.01-1.248-.01-1.871 0zm-10.264 108.81c.83.014 1.661.057 2.498.13 26.77 2.31 21.096 33.952 21.096 33.952s-22.815 12.004-35.309 12.807c-10.665.686-26.52 6.832-31.291-6.98-4.622-13.381 17.293-40.337 43.006-39.909z" transform="translate(-378.434 29.296) scale(.20596)"/>
    <path style="fill:#d22e08;fill-opacity:1;stroke:none;stroke-width:.264583px;stroke-linecap:butt;stroke-linejoin:miter;stroke-opacity:1" d="M684 150.614s10.125-12.83 19.188-13.083c9.063-.252 7.089 11.72 7.88 17.834l1.759 13.587s3.548 12.943-5.608 13.82c-9.156.877-7.389-16.16-7.389-16.16l.105-13.227s-.256-3.35-1.053-4.08c-.798-.732-2.084.39-2.8 1.09-2.643 2.58-10.552 12.505-10.552 12.505s.637 7.84 1.036 10.325c.398 2.485 2.083 8.969-.04 11.615-1.94 2.418-3.96 3.229-6.671 3.375-2.711.146-4.332-2.153-4.612-3.243-.279-1.09-.89-7.6-1.142-9.421-.253-1.821.095-12.867-.955-16.615-1.05-3.747-4.028-13.095-1.873-15.84 3.005-3.83 7.656-4.123 10.405-1.435 3.57 3.49 2.323 8.953 2.323 8.953zm44.528-27.87c-.45.188-5.275 3.679-9.218-.291-2.744-2.763-1.07-7.058.79-8.4 2.713-1.96 7-3.073 9.32-4.398 2.32-1.324 5.17-3.252 6.165-3.195.996.056 4.642.498 4.04 4.482-.6 3.984-11.097 11.802-11.097 11.802zm-5.096 21.373c-.025-3.002 2.019-7.922 7.442-7.47 6.06.504 3.994 8.907 4.031 11.633.106 7.732-.423 17.806.33 23.219.75 5.413 3.222 9.613-1.006 12.864-4.229 3.251-7.755.599-9.613-1.851-2.303-3.036-1.078-25.643-1.184-38.395z" transform="translate(-378.434 29.296) scale(.77844)"/>
    <path style="fill:#fc7b3a;fill-opacity:1;stroke:none;stroke-width:.264583px;stroke-linecap:butt;stroke-linejoin:miter;stroke-opacity:1" d="M784.533 103.883c-.503-6.063-6.022-3.885-9.34-3.57-8.441.799-11.234 3.48-21.632 13.38-9.04 8.608-4.071 16.71-2.725 17.967 3.293 3.075 11.906 7.245 23.718 12.591 9.133 4.135 10.887 10.463 11.221 13.28.319 2.68-2.292 10.863-14.546 14.979-13.966 4.691-20.701 3.601-21.72 7.207-.53 1.874-.057 4.467 3.777 4.454 11.351-.037 31.348-8.231 36.102-13.023 4.755-4.793 9.078-7.443 8.551-18.944-.351-7.689-5.438-13.554-14.327-18.422-8.89-4.867-21.203-7.008-21.312-11.858-.105-4.665 11.428-10.77 18.876-12.329 3.222-.675 3.517-3.786 3.357-5.712z" transform="translate(-378.434 29.296) scale(.77844)"/>
    <path style="fill:#fc7b3a;fill-opacity:1;stroke:none;stroke-width:.999999px;stroke-linecap:butt;stroke-linejoin:miter;stroke-opacity:1" d="M3273.684 476.893c-22.894.298-50.685 11.488-67.823 25.943-13.563 11.44-29.325 31.887-17.478 45.506 15.018 17.265 38.974-7.434 38.974-7.434s33.35-29.432 42.944-22.25c9.593 7.183 5.576 22.15 5.576 22.15s-27.726-2.878-45.203 6.981c-17.63 9.945-41.06 25.291-49.309 45.24-4.155 10.05-5.627 14.114-5.627 14.114s-1.304-3.265-9.441-2.663c-8.137.603-26.974 22.412-47.615 25.817-29.232 4.822-28.23-9.81-28.23-9.81s89.85-91.97 48.374-120.725c-41.405-28.706-84.832 33.15-84.832 33.15s-18.153 16.675-18.957 72.777c-.804 56.103 13.07 53.096 34.506 65.395 13.265 7.611 48.945 7.494 71.572-5.273 28.246-15.938 35.963-24.913 35.963-24.913s11.248 25.75 50.625 26.655c39.378.904 51.03-12.506 51.03-12.506s7.031 17.63 24.208 18.082c17.178.452 25.163-10.549 28.579-28.027 3.415-17.48-.1-15.973-.1-15.973s16.624-8.337 15.87-22.25c-.753-13.913-19.587-20.14-19.587-20.14s6.374-85.36-31.084-105.147c-5.851-3.09-12.974-4.552-20.737-4.694a70.623 70.623 0 0 0-2.199-.006zm-171.524 62.79c.349-.022.661.072.93.301 4.294 3.667-19.713 26.973-19.713 26.973s13.55-26.929 18.783-27.273zm160.258 45.747a20.737 20.737 0 0 1 1.773.006c18.559.879 12.832 23.658 12.832 23.658s-38.647 21.446-50.224 11.224c-11.216-9.901 16.974-34.18 35.619-34.888z" transform="translate(-378.434 29.296) scale(.20596)"/>
    <path style="fill:#fc7b3a;fill-opacity:1;stroke:none;stroke-width:.264583px;stroke-linecap:butt;stroke-linejoin:miter;stroke-opacity:1" d="M894.87 172.463c-1.332-1.717-2.798-13.12-3.858-19.36-1.06-6.242-2.544-18.065-2.544-18.065s-2.499-8.877 5.794-9.09c8.292-.212 7.92 9.834 7.92 9.834s6.153-10.365 12.997-10.046c6.042.281 9.09 10.525 5.767 13.927-3.322 3.402-5.239.652-8.97.465-3.176-.16-4.678 6.272-5.183 8.106-.505 1.834-1.415 5.75-.392 11.545 1.023 5.794 1.063 9.94-1.581 12.279-2.645 2.339-7.918 3.029-9.95.405zm40.977-20.718c-3.097-14.432 10.715-20.079 12.505-19.72 1.617.323 3.393 1.229 4.96 1.101 1.904-.154 3.457-1.626 3.478-4.862.03-4.453-4.862-8.817-9.873-8.426-5.622.439-20.873 6.216-23.947 25.462-2.499 15.641 9.393 23.59 13.873 24.585 15.788 3.508 27.35-7.283 26.977-11.35-.372-4.066-4.98-4.768-8.026-2.51-3.588 2.657-12.014 4.252-14.924 2.298-4.177-2.803-5.023-6.578-5.023-6.578zm51.896-14.94-6.91 9.196s2.81 15.547 1.64 18.324c-1.17 2.777-2.856 4.569-7.096 4.89-4.731.36-6.22-5.182-6.977-10.06-.385-2.482-1.096-14.288-2.568-25.558-1.42-10.873-3.48-20.102-3.356-21.218.252-2.273-.226-11.23 6.206-11.641 6.432-.412 7.083 5.754 7.561 11.375.479 5.621 2.592 19.19 2.592 19.19s6.764-9.954 12.637-9.343c5.874.612 6.924 5.36 8.598 15.659 1.674 10.299 1.48 15.096 3.11 19.355 1.448 3.788-.107 9.542-5.768 10.778-5.66 1.236-7.68-5.33-8.252-11.176-.572-5.848-1.417-19.77-1.417-19.77z" transform="translate(-378.434 29.296) scale(.77844)"/>
</svg>
