<svg xmlns="http://www.w3.org/2000/svg" xmlns:xlink="http://www.w3.org/1999/xlink" width="1920" height="1080" viewBox="0 0 508 285.75">
    <defs>
        <linearGradient id="a">
            <stop style="stop-color:#74c4b9;stop-opacity:1" offset="0"/>
            <stop style="stop-color:#269489;stop-opacity:1" offset="1"/>
        </linearGradient>
        <linearGradient id="b">
            <stop style="stop-color:#4b4b4b;stop-opacity:1" offset="0"/>
            <stop style="stop-color:#3f3f3f;stop-opacity:1" offset="1"/>
        </linearGradient>
        <linearGradient xlink:href="#a" id="d" x1="663.711" y1="81.324" x2="663.711" y2="186.943" gradientUnits="userSpaceOnUse"/>
        <linearGradient xlink:href="#a" id="e" gradientUnits="userSpaceOnUse" x1="663.711" y1="81.324" x2="663.711" y2="186.943"/>
        <linearGradient xlink:href="#a" id="f" x1="1061.783" y1="348.027" x2="1061.783" y2="730.362" gradientUnits="userSpaceOnUse"/>
        <radialGradient xlink:href="#b" id="c" cx="125.255" cy="16.735" fx="125.255" fy="16.735" r="254" gradientTransform="matrix(0 1.06475 -1.74952 0 154.532 -61.444)" gradientUnits="userSpaceOnUse"/>
        <style/>
    </defs>
    <path style="opacity:.98;fill:url(#c);fill-opacity:1;stroke-width:2.64583" d="M0 0h508v285.75H0z"/>
    <g style="fill:url(#d);fill-opacity:1">
        <g style="fill:url(#e)">
            <path style="opacity:.98;fill:url(#f);fill-opacity:1;stroke-width:0" d="M360 350.35v379.3h777.356v-37.91H388.494V388.012h659.397v40.11h37.736V350.35zm806.701 0v37.662h364.894V701.11H1260.68v-42.767h-37.235v71.306H1560v-379.3zm198.496 99.37c-2.218.055-7.05.57-10.199 3.823-4.2 4.336-3.605 10.812-3.605 10.812v152.288s-.272 6.913 3.892 10.566c4.165 3.653 11.102 3.453 11.102 3.453h84.217s11.494 1.197 11.494-14.02c0-15.216-11.494-15.216-11.494-15.216h-70.473v-47.233h63.724s6.748-.25 6.748-14.494-6.748-14.244-6.748-14.244h-63.724v-46.73h70.472s11.433.25 11.495-14.37c.06-14.619-11.494-14.619-11.494-14.619h-84.217s-.45-.033-1.19-.015zm-917.943.016s-10.334 0-10.334 14.62c0 14.619 10.334 14.369 10.334 14.369h45.24V621.07s-.75 9.592 14.244 9.592 14.994-9.592 14.994-9.592V478.725h42.391s12.529 0 13.258-14.51c.729-14.511-13.258-14.479-13.258-14.479zm372.572 0c-10.305 0-10.21 14.62-10.21 14.62V618.02s-.5 12.516 14.868 12.641c15.37.125 15.368-12.64 15.368-12.64V510.96s25.317 53.728 45.982 53.728 47.98-53.728 47.98-53.728v106.176s0 13.525 14.62 13.525c14.619 0 14.619-13.525 14.619-13.525V464.355s-.001-14.619-10.133-14.619-20.873 14.62-20.873 14.62l-46.213 61.1-45.982-61.1s-9.72-14.62-20.026-14.62zm244.936 0c-14.032 0-16.871 14.62-16.871 14.62l-52.631 142.21s-6.82 16.558 5.89 24.096c12.711 7.538 23.41-12.47 23.41-12.47l11.721-31.26h58.373l12.434 31.6s4.585 17.295 20.64 12.13c16.056-5.165 9.627-23.476 9.627-23.476l-54.609-142.83s-3.953-14.62-17.984-14.62zm114.672 0s-8.944.25-8.89 14.62c.056 14.369 8.89 14.369 8.89 14.369h85.408l-87.516 122.7s-8.898 8.556-6.781 18.897 13.58 10.34 13.58 10.34h115.307s9.44 1.197 9.728-14.02c.287-15.216-9.728-15.216-9.728-15.216h-84.233l89.944-122.701s8.273-9.237 4.017-18.887c-4.256-9.65-14.217-10.102-14.217-10.102zm-431.297 2.086c-8.759-.105-13.17 8.676-13.17 8.676l-50.301 116.938L635.271 460.3s-4.211-12.647-19.935-4.832c-15.724 7.814-5.967 23.256-5.967 23.256s30.078 78.331 53.32 122.507c9.123 17.34 11.227 29.43 21.977 29.43s12.883-11.964 22.092-29.201c23.578-44.134 54.316-122.736 54.316-122.736s9.76-16.06-4.56-24.336c-3.133-1.81-5.925-2.537-8.377-2.567zm316.625 59.139 18.584 47.232h-36.291z" transform="scale(.26458)"/>
        </g>
    </g>
</svg>
