<svg xmlns="http://www.w3.org/2000/svg" xml:space="preserve" width="1920" height="1080" viewBox="0 0 508 285.75"><defs><radialGradient id="a" cx="125.26" cy="16.735" r="254" gradientTransform="matrix(0 1.0648 -1.7495 0 154.53 -61.444)" gradientUnits="userSpaceOnUse"><stop offset="0" stop-color="#e8404a"/><stop offset="1" stop-color="#db1d29"/></radialGradient></defs><path fill="url(#a)" d="M0 0h508v285.75H0z" opacity=".98"/><path fill="#fff" d="M76.872 113.285v6.78l3.069.215 2.997.214.215 22.268.142 22.34h-6.423v13.56h33.545v-13.489l-2.998-.214-3.069-.214v-44.251l3.07-.214 2.997-.214v-13.49H76.872zm39.255.072v6.78h4.996v44.965h-4.996v13.56h27.907l-.214-6.637-.215-6.566-2.997-.214-3.07-.214.072-20.128c.071-19.699.143-19.984 1.142-14.774.785 3.997 9.136 34.902 12.776 47.32.357 1.142 1.356 1.214 11.205 1.071l10.778-.214 5.21-19.27c2.855-10.635 5.995-22.626 6.923-26.766l1.784-7.494v20.127l.072 20.199h-5.71v13.56h32.903l-.214-6.637-.214-6.566-2.641-.214-2.712-.214v-44.894h5.78l-.213-6.638-.214-6.566h-39.113L170.3 125.49c-2.64 10.206-4.853 18.7-4.925 18.914s-2.426-8.137-5.281-18.557l-5.14-18.914-19.413-.214-19.413-.143zm99.922 0v6.78h5.353l27.122 58.526 9.564-.143 9.564-.214 24.41-57.812 5.424-.428-.429-13.133-14.417-.214-14.489-.143v13.561h2.498c1.356 0 2.498.214 2.498.428s-2.212 5.71-4.924 12.276-5.496 13.847-6.138 16.202c-.714 2.355-1.428 4.782-1.57 5.353-.215.571-.928-1.213-1.642-3.925-.714-2.784-3.426-10.564-5.996-17.415-2.569-6.78-4.71-12.49-4.71-12.634s1.285-.285 2.855-.285h2.926l-.214-6.638-.214-6.566-18.7-.214-18.771-.143zm82.793-.143v6.852l3.069.214 2.997.214v44.251l-2.997.214-3.07.214v13.633l20.556-.357c15.417-.214 21.34-.571 24.053-1.356 12.276-3.712 19.485-10.207 23.196-20.913 2.141-5.995 2.712-17.13 1.213-22.982-2.498-9.635-8.207-16.987-16.558-21.412-7.994-4.14-10.92-4.639-32.618-4.996l-19.841-.357zm37.899 9.207c3.568 1.998 5.995 5.638 7.423 10.92 2.712 10.635-.143 24.41-5.996 28.763-2.284 1.713-6.566 2.998-9.85 2.998h-2.355v-45.18l4.069.5c2.212.286 5.21 1.142 6.709 1.999m36.329-9.85v6.067l1.998.214 1.927.214.214 23.34.143 23.338-1.927.214c-1.999.215-1.999.215-2.213 6.424l-.214 6.28h11.063c10.492 0 11.063-.07 11.491-1.498.286-.785.714-1.285.928-1.213 5.924 3.14 7.637 3.568 13.632 3.283 7.209-.357 10.563-1.856 14.632-6.352 3.426-3.783 5.281-7.851 6.066-13.561 1.713-12.562-3.568-23.625-13.275-27.907-4.782-2.07-11.92-1.927-16.987.428l-3.925 1.784v-27.05H373.07zm33.902 32.975c4.568 4.925 3.64 18.271-1.499 20.983-4.64 2.499-8.85-3.069-8.85-11.633 0-4.925 1.713-9.921 3.711-10.706 2.355-.928 4.996-.429 6.638 1.356" class="imvdb-header-logo-svg"/></svg>