<svg xmlns="http://www.w3.org/2000/svg" xmlns:xlink="http://www.w3.org/1999/xlink" width="1920" height="1080" viewBox="0 0 508 285.75">
    <defs>
        <radialGradient xlink:href="#a" id="b" cx="125.255" cy="16.735" fx="125.255" fy="16.735" r="254" gradientTransform="matrix(0 1.06475 -1.74952 0 154.532 -61.444)" gradientUnits="userSpaceOnUse"/>
        <linearGradient id="a">
            <stop style="stop-color:#26294b;stop-opacity:1" offset="0"/>
            <stop style="stop-color:#2b2d42;stop-opacity:1" offset="1"/>
        </linearGradient>
    </defs>
    <path style="opacity:.98;fill:url(#b);stroke-width:2.64583;fill-opacity:1" d="M0 0h508v285.75H0z"/>
    <path d="M111.322 111.157V41.029c0-4.019-2.217-6.237-6.236-6.237H91.365c-4.019 0-6.237 2.218-6.237 6.237v33.304c0 .938 9.037 5.293 9.273 6.214 6.885 26.902 1.496 48.433-5.031 49.438 10.672.528 11.846 5.659 3.897 2.153 1.216-14.354 5.961-14.326 19.602-.528.117.119 2.797 5.741 2.964 5.741h32.217c4.019 0 6.236-2.217 6.236-6.236v-13.721c0-4.019-2.217-6.237-6.236-6.237z" style="fill-rule:evenodd;fill:#02a9ff" transform="translate(153.803 42.953) scale(1.16092)"/>
    <path d="M54.365 34.792 18.331 137.351h27.996l6.098-17.74h30.49l5.96 17.74h27.857L80.836 34.792zm4.435 62.09 8.731-28.412 9.563 28.412z" style="fill:#fefefe;fill-rule:evenodd" transform="translate(153.803 42.953) scale(1.16092)"/>
</svg>
