<?xml version="1.0" encoding="UTF-8" standalone="no"?>
<svg
   xmlns:dc="http://purl.org/dc/elements/1.1/"
   xmlns:cc="http://creativecommons.org/ns#"
   xmlns:rdf="http://www.w3.org/1999/02/22-rdf-syntax-ns#"
   xmlns:svg="http://www.w3.org/2000/svg"
   xmlns="http://www.w3.org/2000/svg"
   xmlns:xlink="http://www.w3.org/1999/xlink"
   xmlns:sodipodi="http://sodipodi.sourceforge.net/DTD/sodipodi-0.dtd"
   xmlns:inkscape="http://www.inkscape.org/namespaces/inkscape"
   width="1920"
   height="1080"
   viewBox="0 0 507.99999 285.75001"
   version="1.1"
   id="svg8"
   sodipodi:docname="jellyfin-plugin-tvheadend.svg"
   inkscape:version="1.0.1 (3bc2e813f5, 2020-09-07, custom)"
   inkscape:export-filename="/home/mrtimscampi/Documents/jellyfin-ux/plugins/repository/jellyfin-plugin-fanart.png"
   inkscape:export-xdpi="96"
   inkscape:export-ydpi="96">
  <sodipodi:namedview
     pagecolor="#5b5b5b"
     bordercolor="#666666"
     borderopacity="1"
     objecttolerance="10"
     gridtolerance="10"
     guidetolerance="10"
     inkscape:pageopacity="0"
     inkscape:pageshadow="2"
     inkscape:window-width="1920"
     inkscape:window-height="1020"
     id="namedview2208"
     showgrid="false"
     showborder="false"
     inkscape:lockguides="true"
     inkscape:zoom="0.47877022"
     inkscape:cx="1170.1535"
     inkscape:cy="441.44126"
     inkscape:window-x="1920"
     inkscape:window-y="32"
     inkscape:window-maximized="1"
     inkscape:current-layer="svg8">
    <sodipodi:guide
       position="0,285.75"
       orientation="0,1920"
       id="guide2771"
       inkscape:locked="true" />
    <sodipodi:guide
       position="508,285.75"
       orientation="1080,0"
       id="guide2773"
       inkscape:locked="true" />
    <sodipodi:guide
       position="508,0"
       orientation="0,-1920"
       id="guide2775"
       inkscape:locked="true" />
    <sodipodi:guide
       position="0,0"
       orientation="-1080,0"
       id="guide2777"
       inkscape:locked="true" />
  </sodipodi:namedview>
  <defs
     id="defs2">
    <rect
       x="50.759791"
       y="387.58649"
       width="2.7020626"
       height="357.88762"
       id="rect1018" />
    <linearGradient
       id="linearGradient851">
      <stop
         style="stop-color:#38546e;stop-opacity:1"
         offset="0"
         id="stop847" />
      <stop
         style="stop-color:#394956;stop-opacity:1"
         offset="1"
         id="stop849" />
    </linearGradient>
    <radialGradient
       xlink:href="#linearGradient851"
       id="radialGradient853"
       cx="125.25463"
       cy="16.734682"
       fx="125.25463"
       fy="16.734682"
       r="254"
       gradientTransform="matrix(0,1.0647542,-1.7495183,0,154.53226,-61.444333)"
       gradientUnits="userSpaceOnUse" />
    <style
       id="style914">.cls-1{fill:url(#linear-gradient);}</style>
  </defs>
  <metadata
     id="metadata5">
    <rdf:RDF>
      <cc:Work
         rdf:about="">
        <dc:format>image/svg+xml</dc:format>
        <dc:type
           rdf:resource="http://purl.org/dc/dcmitype/StillImage" />
        <dc:title></dc:title>
      </cc:Work>
    </rdf:RDF>
  </metadata>
  <g
     id="layer1">
    <rect
       style="opacity:0.98;fill:url(#radialGradient853);stroke-width:2.64583;fill-opacity:1"
       id="rect845"
       width="508"
       height="285.75"
       x="0"
       y="2.1874998e-06" />
    <text
       xml:space="preserve"
       id="text1016"
       style="font-family:'Noto Sans';font-size:10.58333341px;line-height:1.25;letter-spacing:0px;word-spacing:0px;-inkscape-font-specification:'Noto Sans';white-space:pre;shape-inside:url(#rect1018);" />
  </g>
  <g
     id="g2841"
     transform="matrix(5.5701755,0,0,5.5701755,187.1579,76.032895)">
    <path
       d="m 15.7,12.5 -3.2,3.2 c -0.3,0.3 -0.7,0.3 -0.9,0 L 8.4,12.5 c -0.3,-0.3 -0.3,-0.7 0,-0.9 l 3.2,-3.2 c 0.3,-0.3 0.7,-0.3 0.9,0 l 3.2,3.2 c 0.3,0.2 0.3,0.6 0,0.9 z"
       fill="#fa7e00"
       id="path2827" />
    <path
       d="M 2.1,9.4 1.2,10.3 1,10.5 0.5,11 C 0,11.5 0,12.3 0.5,12.8 L 1,13.3 1.2,13.5 6.7,19 H 7 V 14.4 L 4.9,12.3 C 4.6,12 4.6,11.6 4.9,11.4 L 7,9.4 Z m 7.3,12.5 0.9,0.9 0.2,0.2 0.5,0.5 c 0.5,0.5 1.3,0.5 1.8,0 L 13.3,23 13.5,22.8 19,17.3 V 17 h -4.6 l -2.1,2.1 c -0.3,0.3 -0.7,0.3 -0.9,0 L 9.4,17 Z M 21.9,14.6 22.8,13.7 23,13.5 23.5,13 c 0.5,-0.5 0.5,-1.3 0,-1.8 L 23,10.7 22.8,10.5 17.3,5 H 17 v 4.6 l 2.1,2.1 c 0.3,0.3 0.3,0.7 0,0.9 l -2.1,2 v 0.1 h 4.9 z M 14.6,2.1 13.7,1.2 13.5,1 13,0.5 C 12.5,0 11.7,0 11.2,0.5 L 10.7,1 10.5,1.2 4.8,6.7 V 7 h 4.6 l 2.1,-2.1 c 0.3,-0.3 0.7,-0.3 0.9,0 L 14.6,7 h 0.1 V 2.1 Z"
       fill="#00bcfb"
       id="path2829" />
  </g>
</svg>
