<?xml version="1.0" encoding="UTF-8" standalone="no"?>
<svg
   xmlns:dc="http://purl.org/dc/elements/1.1/"
   xmlns:cc="http://creativecommons.org/ns#"
   xmlns:rdf="http://www.w3.org/1999/02/22-rdf-syntax-ns#"
   xmlns:svg="http://www.w3.org/2000/svg"
   xmlns="http://www.w3.org/2000/svg"
   xmlns:xlink="http://www.w3.org/1999/xlink"
   width="1920"
   height="1080"
   viewBox="0 0 507.99999 285.75001"
   version="1.1"
   id="svg8">
  <defs
     id="defs2">
    <linearGradient
       id="linearGradient851">
      <stop
         style="stop-color:#2f2f2f;stop-opacity:1"
         offset="0"
         id="stop847" />
      <stop
         style="stop-color:#111111;stop-opacity:1"
         offset="1"
         id="stop849" />
    </linearGradient>
    <radialGradient
       xlink:href="#linearGradient851"
       id="radialGradient853"
       cx="125.25463"
       cy="16.734682"
       fx="125.25463"
       fy="16.734682"
       r="254"
       gradientTransform="matrix(0,1.0647542,-1.7495183,0,154.53226,-61.444333)"
       gradientUnits="userSpaceOnUse" />
    <style
       id="style914">.cls-1{fill:url(#linear-gradient);}</style>
    <linearGradient
       id="linear-gradient"
       y1="40.76"
       x2="190.24"
       y2="40.76"
       gradientUnits="userSpaceOnUse"
       gradientTransform="matrix(1.6689444,0,0,1.6689444,95.249998,74.882274)">
      <stop
         offset="0"
         stop-color="#90cea1"
         id="stop916" />
      <stop
         offset="0.56"
         stop-color="#3cbec9"
         id="stop918" />
      <stop
         offset="1"
         stop-color="#00b3e5"
         id="stop920" />
    </linearGradient>
  </defs>
  <metadata
     id="metadata5">
    <rdf:RDF>
      <cc:Work
         rdf:about="">
        <dc:format>image/svg+xml</dc:format>
        <dc:type
           rdf:resource="http://purl.org/dc/dcmitype/StillImage" />
        <dc:title></dc:title>
      </cc:Work>
    </rdf:RDF>
  </metadata>
  <g
     id="layer1">
    <rect
       style="opacity:0.98;fill:url(#radialGradient853);stroke-width:2.64583;fill-opacity:1"
       id="rect845"
       width="508"
       height="285.75"
       x="0"
       y="2.1874998e-06" />
    <g
       id="g1084"
       transform="matrix(0.54046979,0,0,0.54046979,26.90105,-13.665285)">
      <g
         id="g1061">
        <path
           d="m 705.784,239.297 h -2.541 v 6.49 h -0.825 v -6.49 h -2.54 v -0.792 h 5.906 z"
           id="path1057" />
        <path
           d="m 713.914,238.505 v 7.282 h -0.825 v -6.028 l -2.695,3.465 -2.738,-3.465 v 6.028 h -0.825 v -7.282 h 0.957 l 2.606,3.454 2.563,-3.454 z"
           id="path1059" />
      </g>
      <g
         id="g3401"
         transform="matrix(2.0341132,0,0,2.0341132,126.46211,189.76248)">
        <circle
           fill="#ffffff"
           cx="49.099998"
           cy="49.099998"
           r="49.099998"
           id="circle3337" />
        <path
           fill="#ed2224"
           d="m 20,75.8 c 7.2,7.8 17.6,12.8 29.1,12.8 5.9,0 11.5,-1.3 16.5,-3.6 L 38.2,57.6 Z"
           id="path3339" />
        <path
           fill="#ed2224"
           d="M 38,41.1 17.3,61.8 14.5,59 36.3,37.2 v 0 L 61.8,11.7 C 57.8,10.3 53.5,9.6 49,9.6 27.3,9.6 9.6,27.2 9.6,49.1 c 0,8.9 2.9,17.1 7.9,23.7 L 38.2,52.1 39.6,53.5 69.2,83 c 0.6,-0.3 1.2,-0.7 1.7,-1.1 L 38.2,49.2 18.3,69.1 15.5,66.3 38.2,43.6 39.6,45 74.1,79.5 c 0.5,-0.4 1,-0.9 1.5,-1.3 L 38.4,41.1 Z"
           id="path3341" />
        <path
           fill="#ed1c24"
           d="M 78.4,75.5 C 84.7,68.5 88.6,59.2 88.6,49 88.6,33.2 79.3,19.5 65.8,13.2 L 41,38.1 Z M 50.5,45.3 47.7,42.5 67.3,23 70.1,25.8 Z M 69.1,18.4 46.5,41 43.7,38.2 66.3,15.6 Z"
           id="path3343" />
        <g
           id="g3355">
	<path
   fill="#ffffff"
   d="M 38.2,52.1 17.5,72.8 c 0.8,1.1 1.6,2.1 2.5,3 L 38.2,57.6 65.5,85 c 1.3,-0.6 2.5,-1.2 3.7,-1.9 L 39.6,53.4 Z"
   id="path3345" />

	<path
   fill="#ffffff"
   d="M 38.2,43.7 15.5,66.4 18.3,69.2 38.2,49.3 70.9,82 c 1.1,-0.7 2.2,-1.5 3.2,-2.4 L 39.6,45.1 Z"
   id="path3347" />

	<path
   fill="#ffffff"
   d="M 41,38.1 65.8,13.3 c -1.3,-0.6 -2.6,-1.1 -4,-1.6 L 36.3,37.1 v 0 L 14.5,59 17.3,61.8 38,41.1 h 0.4 l 37.2,37.2 c 1,-0.9 1.9,-1.8 2.8,-2.8 z"
   id="path3349" />

	
		<rect
   x="40.400002"
   y="26.299999"
   transform="matrix(-0.7071,0.7071,-0.7071,-0.7071,116.2221,8.4015)"
   fill="#ffffff"
   width="32"
   height="3.9000001"
   id="rect3351" />

	
		<rect
   x="56.900002"
   y="20.299999"
   transform="matrix(-0.7071,-0.7071,0.7071,-0.7071,76.3804,99.8893)"
   fill="#ffffff"
   width="3.9000001"
   height="27.700001"
   id="rect3353" />

</g>
        <g
           id="g3361">
	<g
   id="g3359">
		<path
   fill="#ed2224"
   d="M 49.1,98.1 C 22,98.1 0,76.1 0,49.1 0,22 22,0 49.1,0 c 27.1,0 49.1,22 49.1,49.1 -0.1,27 -22.1,49 -49.1,49 z m 0,-93.2 C 24.7,4.9 4.9,24.7 4.9,49.1 4.9,73.5 24.7,93.2 49,93.2 73.3,93.2 93.1,73.4 93.1,49.1 93.1,24.8 73.4,4.9 49.1,4.9 Z"
   id="path3357" />

	</g>

</g>
        <g
           id="g3373">
	<path
   fill="#ffffff"
   d="M 124.8,61.7 V 36.8 h -9 V 31 h 24.5 v 5.8 h -8.9 v 24.9 z"
   id="path3363" />

	<path
   fill="#ffffff"
   d="m 168.8,61.7 -6,-10.9 H 158 v 10.9 h -6.5 V 31 h 14.4 c 6.4,0 10.3,4.2 10.3,9.9 0,5.4 -3.4,8.3 -6.7,9.1 l 6.9,11.7 z m 0.7,-20.8 c 0,-2.6 -2,-4.1 -4.6,-4.1 H 158 V 45 h 6.9 c 2.6,0 4.6,-1.5 4.6,-4.1 z"
   id="path3365" />

	<path
   fill="#ffffff"
   d="m 210.7,61.7 -1.9,-5.2 h -13.2 l -1.9,5.2 h -7.5 L 198.1,31 h 8.2 l 11.8,30.7 z m -8.5,-24.2 -4.8,13.2 h 9.6 z"
   id="path3367" />

	<path
   fill="#ffffff"
   d="m 247,61.7 -9.3,-12.3 -2.4,2.9 v 9.4 h -6.5 V 31 h 6.5 V 44.7 L 246.1,31 h 8.1 L 242,45.4 255,61.7 Z"
   id="path3369" />

	<path
   fill="#ffffff"
   d="M 273.3,61.7 V 36.8 h -9 V 31 h 24.5 v 5.8 h -8.9 v 24.9 z"
   id="path3371" />

</g>
      </g>
    </g>
  </g>
</svg>
