<?xml version="1.0" encoding="UTF-8"?>
<svg width="1920" height="1080" version="1.1" viewBox="0 0 508 285.75" xmlns="http://www.w3.org/2000/svg" xmlns:xlink="http://www.w3.org/1999/xlink">
 <defs>
  <radialGradient id="b" cx="125.26" cy="16.735" r="254" gradientTransform="matrix(0 1.0648 -1.7495 0 154.53 -61.444)" gradientUnits="userSpaceOnUse">
   <stop stop-color="#2f2f2f" offset="0"/>
   <stop stop-color="#111" offset="1"/>
  </radialGradient>
  <style/>
 </defs>
 <path d="m0 0h508v285.75h-508z" fill="url(#b)" opacity=".98" stroke-width="2.6458"/>
 <g fill="#fff">
  <path transform="matrix(1.8619 0 0 1.8619 -1104.4 11.717)" d="m649.88 46.66c-3.064 0-5.5699 2.5069-5.5699 5.5699v38.991c0 3.064 2.5059 5.5699 5.5699 5.5699h38.991c3.064 0 5.5699-2.5059 5.5699-5.5699v-16.71h-5.5699v16.71h-38.991v-38.99h16.71v-5.571zm18.751 16.75c-3e-3 0.0043-4e-3 6e-3 -8e-3 0.01304-4e-3 0.0069-7e-3 0.01367-0.0105 0.02054 7e-3 -0.01102 0.0122-0.02258 0.0189-0.03358zm9.6733 12.794c-7e-3 -0.02093 0.0126 0.04255 0.0205 0.06328 4e-3 0.0098 6e-3 0.01109 9e-3 0.01943-9e-3 -0.02799-0.02-0.05595-0.0294-0.08271z" stroke-width="2.7851"/>
  <path d="m185.3 101.34-37.667 8.369 10.97 10.969-7.3308 7.3308 7.2962 7.2967 7.3308-7.3308 11.031 11.031 8.3706-37.666z" stroke-width="2.9594"/>
  <path transform="matrix(1.2397 0 0 1.2397 -63.241 -14.456)" d="m227.28 117.08q0 2.0461-1.0583 3.8806-1.0231 1.8344-3.2103 2.9986-2.152 1.1289-5.6092 1.1289-1.7286 0-3.0339-0.17639-1.27-0.14111-2.3989-0.49389t-2.3283-0.91722v-6.0678q2.0461 1.023 4.1275 1.5875 2.0814 0.52916 3.7747 0.52916 1.5169 0 2.2225-0.52916 0.70555-0.52917 0.70555-1.3406 0-0.98778-1.0583-1.5875-1.0231-0.635-3.4925-1.7286-1.8697-0.88195-3.2456-1.8344-1.3758-0.98778-2.1167-2.3989-0.74083-1.4111-0.74083-3.5631 0-2.4342 1.1994-4.0569 1.1994-1.6581 3.3161-2.4694 2.1519-0.84667 4.9742-0.84667 2.4694 0 4.445 0.56444 1.9756 0.52916 3.5278 1.2347l-2.0814 5.2564q-1.6228-0.74083-3.2103-1.1642-1.5522-0.45862-2.8928-0.45862-1.3053 0-1.9403 0.45862-0.59972 0.45861-0.59972 1.1642 0 0.59973 0.45861 1.0583t1.517 1.023q1.0936 0.52917 2.9633 1.3758 1.8344 0.81139 3.1044 1.7992 1.3053 0.9525 1.9756 2.293 0.70556 1.3053 0.70556 3.2808zm22.472-11.853v19.509h-5.08l-0.84666-2.4342h-0.38806q-0.91722 1.4817-2.5047 2.152-1.5875 0.635-3.3867 0.635-1.905 0-3.4572-0.74083-1.5522-0.74084-2.4694-2.3283-0.88195-1.5875-0.88195-4.0922v-12.7h6.7381v10.654q0 1.905 0.52917 2.8928 0.56445 0.98778 1.7992 0.98778 1.905 0 2.54-1.5522 0.67028-1.5522 0.67028-4.445v-8.5372zm11.395-1.2347q0 1.0231-0.0706 1.9756t-0.17639 1.7639h0.24694q0.74083-1.1994 1.9756-2.0108 1.2347-0.84667 3.2103-0.84667 3.0339 0 4.9742 2.5753t1.9403 7.4789q0 5.0094-1.9756 7.5847t-5.1506 2.5753q-2.0461 0-3.1397-0.70556-1.0936-0.74083-1.8344-1.5522h-0.42333l-1.0583 1.905h-5.2564v-26.811h6.7381zm2.7164 6.1736q-1.4111 0-2.0814 0.98778-0.635 0.98778-0.635 3.0692v0.9525q0 2.2578 0.59972 3.3867 0.635 1.0936 2.1872 1.0936 2.4694 0 2.4694-4.7978 0-4.692-2.54-4.692zm22.789 9.5956q0.91722 0 1.6581-0.17639 0.77611-0.21166 1.5875-0.49389v4.9036q-1.0936 0.45861-2.3283 0.77611-1.2347 0.3175-3.1397 0.3175t-3.3514-0.59972q-1.4111-0.59973-2.2225-2.0461-0.81139-1.4817-0.81139-4.1275v-8.0433h-2.3636v-2.7517l2.9986-2.1167 1.7286-4.0922h4.4097v3.9158h4.7978v5.0447h-4.7978v7.5847q0 1.905 1.8344 1.905zm10.089-22.401q1.4464 0 2.5047 0.59972 1.0936 0.59972 1.0936 2.3989 0 1.7286-1.0936 2.3636-1.0583 0.59973-2.5047 0.59973-1.4817 0-2.54-0.59973-1.023-0.635-1.023-2.3636 0-1.7992 1.023-2.3989 1.0583-0.59972 2.54-0.59972zm3.3514 7.867v19.509h-6.7381v-19.509zm14.252 14.534q0.91722 0 1.6581-0.17639 0.77611-0.21166 1.5875-0.49389v4.9036q-1.0936 0.45861-2.3283 0.77611-1.2347 0.3175-3.1397 0.3175t-3.3514-0.59972q-1.4111-0.59973-2.2225-2.0461-0.81139-1.4817-0.81139-4.1275v-8.0433h-2.3636v-2.7517l2.9986-2.1167 1.7286-4.0922h4.4097v3.9158h4.7978v5.0447h-4.7978v7.5847q0 1.905 1.8344 1.905zm13.406 4.9742h-6.7381v-26.811h6.7381zm13.441-19.861q4.2686 0 6.7381 2.2225 2.4694 2.2225 2.4694 6.7028v2.9986h-12.03q0.0706 1.5169 1.1289 2.5047 1.0936 0.98778 3.1397 0.98778 1.8344 0 3.3514-0.35278 1.517-0.35278 3.1397-1.1289v4.8331q-1.4111 0.74083-3.1044 1.0936-1.6581 0.35278-4.1981 0.35278-2.9633 0-5.2917-1.0231-2.2931-1.0583-3.6336-3.2808-1.3406-2.2225-1.3406-5.6797 0-3.5278 1.1994-5.7856 1.2347-2.2578 3.3867-3.3514 2.1872-1.0936 5.0447-1.0936zm0.24695 4.5861q-1.1994 0-2.0108 0.74084-0.77611 0.74083-0.91722 2.3636h5.7856q-0.0353-1.3053-0.77611-2.1872-0.70556-0.91723-2.0814-0.91723z" stroke-width=".26458"/>
  <path transform="matrix(1.2397 0 0 1.2397 -63.241 -14.456)" d="m225.76 158.25h-14.958v-25.188h14.958v5.4681h-8.1492v3.9511h7.5494v5.4681h-7.5494v4.7625h8.1492zm8.1492-9.9483-5.962-9.5603h7.6553l2.9633 5.4681 3.0339-5.4681h7.6553l-6.1031 9.5603 6.35 9.9483h-7.6553l-3.2808-5.9267-3.2808 5.9267h-7.6553zm27.658 4.9742q0.91722 0 1.658-0.17639 0.77611-0.21166 1.5875-0.49389v4.9036q-1.0936 0.45861-2.3283 0.77611t-3.1397 0.3175q-1.905 0-3.3514-0.59972-1.4111-0.59973-2.2225-2.0461-0.81139-1.4817-0.81139-4.1275v-8.0433h-2.3636v-2.7517l2.9986-2.1167 1.7286-4.0922h4.4097v3.9158h4.7978v5.0447h-4.7978v7.5847q0 1.905 1.8344 1.905zm18.45-14.887q0.56445 0 1.1642 0.0706t0.88195 0.14111l-0.59973 6.35q-0.35277-0.0705-0.88194-0.14111-0.49389-0.0706-1.4111-0.0706-0.84667 0-1.8344 0.24695-0.9525 0.24694-1.658 1.0936-0.70556 0.81139-0.70556 2.5753v9.5956h-6.7381v-19.509h5.0094l1.0583 3.1044h0.3175q0.81139-1.4464 2.2578-2.4342 1.4817-1.0231 3.1397-1.0231zm13.582 0q3.7042 0 5.7856 1.8344 2.0814 1.8344 2.0814 5.2211v12.806h-4.6567l-1.3053-2.5753h-0.14111q-0.81139 1.0231-1.6933 1.6933-0.84667 0.635-1.9756 0.91722-1.1289 0.3175-2.7517 0.3175-2.54 0-4.2333-1.5522-1.6933-1.5522-1.6933-4.7625 0-3.1397 2.1519-4.6567 2.1872-1.5169 6.3147-1.6933l3.2456-0.10583v-0.28223q0-1.3053-0.63501-1.8344-0.635-0.56445-1.7286-0.56445-1.1642 0-2.5753 0.42334-1.4111 0.38805-2.8575 1.023l-1.9403-4.445q1.6933-0.88195 3.81-1.3053 2.152-0.45861 4.7978-0.45861zm-0.38806 11.218q-1.8344 0.0706-2.6106 0.67028-0.74083 0.56444-0.74083 1.6228 0 0.98778 0.52917 1.4817 0.52916 0.45861 1.4111 0.45861 1.2347 0 2.0814-0.77611 0.88194-0.77612 0.88194-2.0108v-1.5169zm21.731 8.9958q-4.445 0-7.0908-2.3989-2.6458-2.3989-2.6458-7.62 0-3.563 1.3406-5.7856 1.3406-2.2578 3.6336-3.3161 2.3283-1.0936 5.2917-1.0936 1.7992 0 3.3867 0.38806 1.6228 0.38805 2.9986 1.0936l-1.9756 4.9742q-1.1994-0.52917-2.2578-0.84667-1.0231-0.3175-2.152-0.3175-1.5169 0-2.4694 1.1994-0.9525 1.1994-0.9525 3.6689 0 2.54 0.9525 3.6336 0.98778 1.0583 2.5047 1.0583 1.4464 0 2.8928-0.45861 1.4817-0.45861 2.787-1.27v5.3622q-1.1994 0.77611-2.7164 1.27-1.517 0.45861-3.5278 0.45861zm19.685-5.327q0.91722 0 1.6581-0.17639 0.77611-0.21166 1.5875-0.49389v4.9036q-1.0936 0.45861-2.3283 0.77611-1.2347 0.3175-3.1397 0.3175t-3.3514-0.59972q-1.4111-0.59973-2.2225-2.0461-0.81139-1.4817-0.81139-4.1275v-8.0433h-2.3636v-2.7517l2.9986-2.1167 1.7286-4.0922h4.4097v3.9158h4.7978v5.0447h-4.7978v7.5847q0 1.905 1.8344 1.905z" stroke-width=".26458"/>
  <path transform="rotate(-90)" d="m-119.23 116.29h-10.319v26.855h10.319v-26.855zm-20.803-0.16536h-10.319v39.484h10.319v-39.484zm-20.704 0.16536h-10.319v51.298h10.319v-51.298z" stroke-width=".39434" style="paint-order:stroke fill markers"/>
 </g>
</svg>
