<svg xmlns="http://www.w3.org/2000/svg" xml:space="preserve" width="1920" height="1080" viewBox="0 0 508 285.75"><defs><radialGradient id="a" cx="125.26" cy="16.735" r="254" gradientTransform="matrix(0 1.0648 -1.7495 0 154.53 -61.444)" gradientUnits="userSpaceOnUse"><stop offset="0" stop-color="#2f2f2f"/><stop offset="1" stop-color="#111"/></radialGradient></defs><path fill="url(#a)" d="M0 0h508v285.75H0z" opacity=".98"/><path fill="#fff" d="M220.456 135.84c-3.8 0-6.92 3.12-6.92 6.927v26.694c0 3.806 3.12 6.937 6.92 6.937h15.1c3.808 0 6.925-3.13 6.925-6.937v-26.694c0-3.805-3.115-6.927-6.926-6.927m8.795 48.291s-1.45-1.826-2.521-1.864c-.733-.02-1.462.095-2.75.627-1.265.525-12.401 3.75-17.348 3.75h-1.912c-10.198 0-17.058-5.966-17.058-15.67v-30.958c0-9.695 6.86-15.65 17.058-15.65h1.912c4.957 0 8.943.133 12.16 1.618 1.589.722 3.002 1.446 4.296 1.998 1.265.533 2.307.857 3.215.857.466 0 1.08-.543 1.08-1.599v-23.624c0-2.57 2.093-4.5 4.5-4.5h1.764c2.54 0 4.5 1.95 4.5 4.5v78.793c0 1.894-1.21 3.853-3.608 3.853h-1.907c-1.45 0-2.35-.95-3.381-2.13m23.757-2.369v-78.147c0-2.55 1.97-4.509 4.49-4.509h1.776c2.408 0 4.5 1.94 4.5 4.509v78.147c0 2.549-2.094 4.499-4.5 4.499h-1.775c-2.523 0-4.491-1.958-4.491-4.499m65.342 0v-40.225c0-3.796-3.116-6.927-6.918-6.927h-15.108c-3.811 0-6.917 3.131-6.917 6.927v40.225c0 2.549-2.107 4.499-4.491 4.499h-1.784c-2.537 0-4.493-1.959-4.493-4.499V128.6c0-2.236 1.539-3.852 3.603-3.852h1.773c2.127 0 3.078 1.245 3.53 2.14 0 0 .972 2.14 2.688 2.168.942.02 2.007-.314 3.293-.857 1.293-.541 2.725-1.265 4.333-1.987 3.225-1.475 7.34-1.846 12.296-1.846h1.908c10.213 0 17.05 5.955 17.05 15.65v41.747c0 2.549-2.094 4.499-4.5 4.499h-1.765c-2.54 0-4.498-1.968-4.498-4.499m36.734-23.593c-3.311 0-5.912 2.616-5.912 5.793v6.65c0 3.15 2.6 5.785 5.912 5.785h17.139c3.3 0 5.904-2.634 5.904-5.785v-6.65c0-3.176-2.603-5.794-5.904-5.794m7.774 26.933-1.257-2.14c-.36-.58-1.15-.942-1.707-.942-.913 0-1.955.304-3.22.838-1.29.515-2.712 1.208-4.292 1.903-3.222 1.409-7.197 1.884-12.16 1.884h-1.898c-11.287 0-17.05-7.03-17.05-15.67v-8.62c0-8.62 5.761-15.651 17.05-15.651h1.899c4.97 0 8.948.552 12.159 2.037 1.6.714 3.011 1.446 4.3 1.998 1.266.533 2.308.855 3.212.855.48 0 1.095-.54 1.095-1.598v-7.946c0-4.575-2.508-7.44-7.56-7.44h-22.466c-2.426 0-4.61-1.608-4.61-4.233v-1.389c0-2.616 2.173-4.233 4.482-4.233h25.897c8.238 0 15.021 7.021 15.021 14.641v43.011c0 1.941-1.384 3.853-3.743 3.853h-1.76c-1.476.002-2.809-.122-3.392-1.158"/><path fill="#0cb14b" d="M178.562 148.304h-39.563c-4.062 0-8.125 1.883-10.403 4.889v-.056c-2.279 3.149-5.961 5.213-10.17 5.213-6.935 0-12.55-5.623-12.55-12.558 0-6.945 5.615-12.568 12.55-12.568 4.21 0 7.891 2.073 10.17 5.233v-.056c2.278 3.005 6.34 4.92 10.404 4.92h39.153c.723-.02 3.372-.363 3.282-3.789-3.42-19.657-22.729-34.737-46.1-34.737-14.38 0-27.228 5.719-35.8 14.7-1.375 2.036.057 2.663 1.351 2.844h25.544c4.063 0 8.125-1.931 10.409-4.947v.076c2.287-3.159 5.979-5.243 10.17-5.243 6.935 0 12.558 5.632 12.558 12.568 0 6.937-5.623 12.567-12.559 12.567-4.19 0-7.882-2.073-10.17-5.222v.056c-2.283-3.005-6.345-4.889-10.408-4.889H98.532l.104.01s-4.129-.24-6.64 3.32c-1.922 3.102-3.326 9.754-3.326 15.09 0 5.375.77 10.247 3.363 15.175 2.173 3.502 6.602 3.283 6.602 3.283l-.161.02h27.956c4.063 0 8.125-1.894 10.409-4.9v.067c2.287-3.16 5.979-5.233 10.17-5.233 6.935 0 12.558 5.63 12.558 12.557 0 6.946-5.623 12.57-12.559 12.57-4.19 0-7.882-2.076-10.17-5.235v.068c-2.283-3.007-6.345-4.93-10.408-4.93h-25.52c-1.28.154-2.702.762-1.465 2.703 8.567 9.028 21.463 14.775 35.89 14.775 23.413 0 42.75-15.109 46.109-34.83-.018-2.742-1.897-3.387-2.882-3.511"/><path fill="#fff" d="M412.498 128.314h.72c.642 0 .827-.59.827-1.038 0-.666-.309-.933-.828-.933h-.72m0 5.92H410.9v-7.098h2.96c1.101 0 1.801.647 1.801 1.866 0 .903-.366 1.579-1.422 1.73v.039c.333.02 1.384.095 1.384 1.38 0 .465.038 1.788.186 2.083h-1.57c-.214-.428-.214-.904-.214-1.38 0-.827.139-1.56-1.117-1.56h-.41zm5.709-3.53a4.95 4.95 0 0 0-4.937-4.948 4.945 4.945 0 0 0-4.97 4.948c0 2.74 2.211 4.996 4.97 4.996 2.705-.001 4.937-2.256 4.937-4.996m1.137 0c0 3.407-2.707 6.145-6.074 6.145a6.114 6.114 0 0 1-6.123-6.145 6.09 6.09 0 0 1 6.123-6.109c3.367 0 6.074 2.713 6.074 6.11"/><path fill="#d8d8d8" d="M185.46 122.235h1.598v-6.584l1.683 6.584h1.523l1.704-6.526v6.526h1.617v-7.964h-2.808l-1.275 4.853-1.236-4.853h-2.807m-4.19 8.039c-2.065 0-2.445-1.198-2.345-2.587h1.656c0 .76.028 1.398.947 1.398.552 0 .837-.362.837-.894 0-1.427-3.354-1.533-3.354-3.891 0-1.237.594-2.235 2.62-2.235 1.628 0 2.427.731 2.323 2.387h-1.618c0-.59-.109-1.199-.77-1.199-.548 0-.857.305-.857.857 0 1.503 3.338 1.37 3.338 3.87 0 2.056-1.508 2.295-2.777 2.295"/></svg>