<?xml version="1.0" encoding="UTF-8" standalone="no"?>
<svg
   xmlns:dc="http://purl.org/dc/elements/1.1/"
   xmlns:cc="http://creativecommons.org/ns#"
   xmlns:rdf="http://www.w3.org/1999/02/22-rdf-syntax-ns#"
   xmlns:svg="http://www.w3.org/2000/svg"
   xmlns="http://www.w3.org/2000/svg"
   xmlns:xlink="http://www.w3.org/1999/xlink"
   xmlns:sodipodi="http://sodipodi.sourceforge.net/DTD/sodipodi-0.dtd"
   xmlns:inkscape="http://www.inkscape.org/namespaces/inkscape"
   width="1920"
   height="1080"
   viewBox="0 0 507.99999 285.75001"
   version="1.1"
   id="svg8"
   sodipodi:docname="jellyfin-plugin-kitsu.svg"
   inkscape:version="1.0.1 (3bc2e813f5, 2020-09-07, custom)"
   inkscape:export-filename="/home/mrtimscampi/Documents/jellyfin-ux/plugins/repository/jellyfin-plugin-nextpvr.png"
   inkscape:export-xdpi="96"
   inkscape:export-ydpi="96">
  <sodipodi:namedview
     pagecolor="#5b5b5b"
     bordercolor="#666666"
     borderopacity="1"
     objecttolerance="10"
     gridtolerance="10"
     guidetolerance="10"
     inkscape:pageopacity="0"
     inkscape:pageshadow="2"
     inkscape:window-width="1920"
     inkscape:window-height="1020"
     id="namedview2208"
     showgrid="false"
     showborder="false"
     inkscape:lockguides="true"
     inkscape:zoom="0.33854167"
     inkscape:cx="1235.4391"
     inkscape:cy="653.72701"
     inkscape:window-x="1920"
     inkscape:window-y="32"
     inkscape:window-maximized="1"
     inkscape:current-layer="svg8"
     showguides="true"
     inkscape:guide-bbox="true">
    <sodipodi:guide
       position="0,285.75"
       orientation="0,1920"
       id="guide2771"
       inkscape:locked="true" />
    <sodipodi:guide
       position="508,285.75"
       orientation="1080,0"
       id="guide2773"
       inkscape:locked="true" />
    <sodipodi:guide
       position="508,0"
       orientation="0,-1920"
       id="guide2775"
       inkscape:locked="true" />
    <sodipodi:guide
       position="0,0"
       orientation="-1080,0"
       id="guide2777"
       inkscape:locked="true" />
    <sodipodi:guide
       position="295.51923,-61.448464"
       orientation="1,0"
       id="guide2875" />
    <sodipodi:guide
       position="336.14694,-112.1435"
       orientation="1,0"
       id="guide2877" />
    <sodipodi:guide
       position="325.16884,-71.168849"
       orientation="0,-1"
       id="guide2884" />
    <sodipodi:guide
       position="316.1323,-60.569233"
       orientation="1,0"
       id="guide2886" />
    <sodipodi:guide
       position="356.82115,-41.714617"
       orientation="1,0"
       id="guide2888" />
    <sodipodi:guide
       position="366.05307,-31.750002"
       orientation="1,0"
       id="guide2890" />
    <sodipodi:guide
       position="324.92461,-64.03731"
       orientation="1,0"
       id="guide2892" />
    <sodipodi:guide
       position="285.3649,-112.5589"
       orientation="1,0"
       id="guide2906" />
    <sodipodi:guide
       position="275.69386,-110.2793"
       orientation="1,0"
       id="guide2908" />
    <sodipodi:guide
       position="279.76951,-83.062214"
       orientation="0,-1"
       id="guide2910" />
    <sodipodi:guide
       position="289.92411,-90.729972"
       orientation="0,-1"
       id="guide2912" />
    <sodipodi:guide
       position="289.37148,-118.56877"
       orientation="0,-1"
       id="guide2914" />
    <sodipodi:guide
       position="288.12806,-126.51284"
       orientation="0,-1"
       id="guide2916" />
    <sodipodi:guide
       position="326.67408,-93.424049"
       orientation="1,0"
       id="guide2918" />
    <sodipodi:guide
       position="365.35826,-93.769443"
       orientation="1,0"
       id="guide2920" />
    <sodipodi:guide
       position="359.1757,-104.78753"
       orientation="1,0"
       id="guide2922" />
    <sodipodi:guide
       position="360.55728,-104.78753"
       orientation="0,-1"
       id="guide2924" />
    <sodipodi:guide
       position="338.59019,-100.60825"
       orientation="0,-1"
       id="guide2926" />
    <sodipodi:guide
       position="338.72835,-108.62141"
       orientation="0,-1"
       id="guide2928" />
  </sodipodi:namedview>
  <defs
     id="defs2">
    <rect
       x="83.1181"
       y="334.90261"
       width="6.464948"
       height="26.461298"
       id="rect2990" />
    <rect
       x="50.759791"
       y="387.58649"
       width="2.7020626"
       height="357.88762"
       id="rect1018" />
    <linearGradient
       id="linearGradient851">
      <stop
         style="stop-color:#5b3358;stop-opacity:1"
         offset="0"
         id="stop847" />
      <stop
         style="stop-color:#402f3f;stop-opacity:1"
         offset="1"
         id="stop849" />
    </linearGradient>
    <radialGradient
       xlink:href="#linearGradient851"
       id="radialGradient853"
       cx="125.25463"
       cy="16.734682"
       fx="125.25463"
       fy="16.734682"
       r="254"
       gradientTransform="matrix(0,1.0647542,-1.7495183,0,154.53226,-61.444333)"
       gradientUnits="userSpaceOnUse" />
    <style
       id="style914">.cls-1{fill:url(#linear-gradient);}</style>
  </defs>
  <metadata
     id="metadata5">
    <rdf:RDF>
      <cc:Work
         rdf:about="">
        <dc:format>image/svg+xml</dc:format>
        <dc:type
           rdf:resource="http://purl.org/dc/dcmitype/StillImage" />
        <dc:title></dc:title>
      </cc:Work>
    </rdf:RDF>
  </metadata>
  <g
     id="layer1">
    <rect
       style="opacity:0.98;fill:url(#radialGradient853);stroke-width:2.64583;fill-opacity:1"
       id="rect845"
       width="508"
       height="285.75"
       x="0"
       y="2.1874998e-06" />
    <text
       xml:space="preserve"
       id="text1016"
       style="font-family:'Noto Sans';font-size:10.58333341px;line-height:1.25;letter-spacing:0px;word-spacing:0px;-inkscape-font-specification:'Noto Sans';white-space:pre;shape-inside:url(#rect1018);" />
  </g>
  <text
     xml:space="preserve"
     id="text2988"
     style="font-family:'Noto Sans';font-size:10.58333341px;line-height:1.25;letter-spacing:0px;word-spacing:0px;-inkscape-font-specification:'Noto Sans Heavy';font-weight:900;font-stretch:normal;font-style:normal;white-space:pre;shape-inside:url(#rect2990);font-variant:normal;" />
  <g
     fill="none"
     fill-rule="evenodd"
     id="g3096"
     transform="matrix(0.39690945,0,0,0.39690945,95.222445,98.409959)">
    <g
       fill="#edf0f1"
       id="g3088">
      <path
         d="m 785.6,43.8 c -9,0 -14.4,6.4 -14.4,14.4 v 83 c 0,11.4 -6.9,20.6 -20.6,20.6 -13.6,0 -20.6,-9.2 -20.6,-20.6 v -83 c 0,-7.9 -5.4,-14.4 -14.4,-14.4 -9,0 -14.4,6.4 -14.4,14.4 v 83.1 h 0.1 c 1,25.8 17.7,46.3 49.3,46.3 31.6,0 48.2,-20.5 49.3,-46.3 H 800 V 58.2 c 0,-7.9 -5.4,-14.4 -14.4,-14.4 z M 656.3,118.2 C 646.1,107.9 623,98 617,90.8 c -3.7,-4.1 -4.2,-10.4 -0.9,-15.1 2,-2.8 5,-4.5 8.1,-5.1 5.6,-1 11.3,-0.2 15.8,1.6 5.9,2.3 10.2,5.7 14.8,6 4.2,0.3 8.5,-1.5 11.2,-5.3 3.4,-4.9 2.8,-11.5 -1.1,-15.7 C 653.8,43.9 631,42.6 619.8,44.4 c -11,1.8 -21.6,7.2 -28.2,16.6 -10.9,15.5 -8.8,36.3 3.5,49.7 9.3,10.6 23.4,16 34.2,22.9 2.3,1.5 5.2,3.6 6.7,5.2 4.6,4.7 5.3,12.1 1.5,17.6 -2,2.8 -4.8,4.6 -7.8,5.4 -2.8,0.8 -6.3,1 -8.4,0.9 -9.3,-0.2 -19.1,-6.6 -21.9,-7.8 -5.2,-2.3 -11.5,-0.7 -14.9,4.2 -2.9,4.1 -2.8,9.2 -0.5,13.3 1.4,2.5 4,5.5 7.4,7.7 16.8,11.2 36.5,9.3 47.6,6.4 8.9,-2.4 17.3,-7.2 23,-15.7 11.5,-16.6 8.8,-39.1 -5.7,-52.6 z M 550.2,45.8 h -74.5 c -7.2,0 -13.1,4.2 -13.1,13.1 0,8.9 5.9,13.1 13.1,13.1 h 23 v 101.2 c 0,7.9 4.6,14.4 14.4,14.4 9.7,0 14.4,-6.4 14.4,-14.4 V 72 h 22.7 c 7.2,0 13.1,-4.2 13.1,-13.1 0,-8.8 -5.8,-13.1 -13.1,-13.1 z m -129.8,-2 c -9,0 -14.4,6.4 -14.4,14.4 v 115 c 0,7.9 4.6,14.4 14.4,14.4 9.7,0 14.4,-6.4 14.4,-14.4 v -115 c 0,-7.9 -5.4,-14.4 -14.4,-14.4 z m -49.9,122.8 -31.4,-60.2 c 23.3,-28.1 26.7,-44.7 27.1,-47.2 0.1,-0.7 0.2,-1.5 0.2,-2.3 0,-7.2 -5.8,-13 -13,-13 -5,0 -9.3,2.9 -11.9,6.9 -2.5,4 -7.1,15 -20.8,34.1 -8.3,11.5 -17.4,20.9 -20.7,24.2 V 58.3 c 0,-7.9 -5.4,-14.4 -14.4,-14.4 -9,0 -14.4,6.4 -14.4,14.4 v 115 c 0,7.9 4.6,14.4 14.4,14.4 9.7,0 14.4,-6.4 14.4,-14.4 v -27.8 c 3.1,-3 10,-9.6 17.7,-17.6 l 27.1,52.1 c 3.7,7.1 11.9,9.3 19.4,6.6 7.6,-3 10,-13 6.3,-20 z"
         id="path3086" />
    </g>
    <g
       fill="#e75e45"
       id="g3094">
      <path
         d="m 152.7,48.5 c -6.8,-2.5 -14.1,-4.1 -21.8,-4.4 -12.7,-0.6 -24.8,2.2 -35.4,7.6 -0.6,0.3 -1.3,0.6 -2,1 v 36.4 c 0,0.5 0,2.4 -0.3,4 -0.7,3.7 -2.9,7 -6,9.1 -2.6,1.8 -5.6,2.6 -8.8,2.5 -0.6,0 -1.3,-0.1 -1.9,-0.2 -1.6,-0.3 -3.3,-0.9 -3.8,-1.1 -1.4,-0.5 -21.8,-8.4 -31.6,-12.2 -1.2,-0.5 -2.2,-0.9 -3,-1.2 -11.7,9.9 -24,21.7 -35.5,35.6 -0.1,0.1 -0.6,0.7 -0.7,0.8 -1.5,2.1 -1.6,5.1 0,7.4 1.2,1.7 3.1,2.7 5,2.8 1.3,0.1 2.7,-0.3 3.9,-1.1 0.1,-0.1 0.2,-0.2 0.4,-0.3 12.2,-8.8 25.6,-15.9 39.8,-21.6 1,-0.5 2.2,-0.8 3.3,-0.7 1.6,0.1 3.1,0.7 4.3,1.9 2.3,2.3 2.4,6 0.5,8.5 -0.8,1.2 -1.5,2.4 -2.2,3.6 -7.6,12.4 -13.7,25.9 -18.3,40 -0.1,0.4 -0.2,0.7 -0.3,1.1 v 0.1 c -0.4,1.7 -0.1,3.5 1,5 1.2,1.7 3.1,2.7 5.1,2.8 1.4,0.1 2.7,-0.3 3.9,-1.1 0.5,-0.4 1,-0.8 1.4,-1.3 0.1,-0.2 0.3,-0.4 0.4,-0.6 5,-7.1 10.5,-13.8 16.4,-20 26.3,-28.2 61.2,-48.1 100.3,-55.9 0.3,-0.1 0.6,-0.1 0.9,-0.1 2.2,0.1 3.9,2 3.8,4.2 -0.1,1.9 -1.4,3.3 -3.2,3.7 -36.3,7.7 -101.7,50.8 -78.8,113.4 0.4,1 0.7,1.6 1.2,2.5 1.2,1.7 3.1,2.7 5,2.8 1.1,0 4.2,-0.3 6.1,-3.7 3.7,-7 10.7,-14.8 30.9,-23.2 56.3,-23.3 65.6,-56.6 66.6,-77.7 v -1.2 C 200.2,86.3 180.7,58.9 152.7,48.5 Z m -56.5,165 C 91,198 91.5,183 97.6,168.7 c 11.7,18.9 32.1,20.5 32.1,20.5 -20.9,8.7 -29.1,17.3 -33.5,24.3 z"
         id="path3090" />
      <path
         d="m 1.1,50.6 c 0.1,0.2 0.3,0.4 0.4,0.5 5.3,7.2 11.3,13.5 17.8,19.1 0.1,0.1 0.2,0.1 0.2,0.2 4.2,3.6 12.2,8.8 18,10.9 0,0 36.1,13.9 38,14.7 0.7,0.3 1.7,0.6 2.2,0.7 1.6,0.3 3.3,0 4.8,-1 1.5,-1 2.4,-2.5 2.7,-4.1 0.1,-0.6 0.2,-1.6 0.2,-2.3 V 48.5 C 85.5,42.3 83.5,32.9 81.7,27.7 81.7,27.6 81.6,27.5 81.6,27.4 78.8,19.3 75,11.4 70.2,3.9 L 69.9,3.3 69.8,3.2 c -2,-2.8 -6,-3.5 -8.9,-1.5 -0.5,0.3 -0.8,0.7 -1.2,1.1 -0.3,0.4 -0.5,0.7 -0.8,1.1 -6.4,9.3 -9,20.6 -7.3,31.7 -3.3,1.7 -6.8,4 -7.2,4.3 -0.4,0.3 -3.9,2.7 -6.6,5.2 C 28.1,39.6 16.5,37.9 5.6,40.5 5.2,40.6 4.7,40.7 4.3,40.8 3.8,41 3.3,41.2 2.9,41.5 0,43.5 -0.8,47.4 1.1,50.4 Z M 64.6,10.5 c 3.4,5.7 6.3,11.6 8.6,17.8 -4.6,0.8 -9.1,2 -13.5,3.6 C 59.1,24.4 60.8,17 64.6,10.5 Z M 31.5,51.3 c -3.2,3.5 -5.9,7.3 -8.3,11.3 -4.9,-4.3 -9.4,-9.2 -13.5,-14.4 7.5,-1.3 15,-0.2 21.8,3.1 z"
         id="path3092" />
    </g>
  </g>
</svg>
