<svg width="1920" height="1080" version="1.1" viewBox="0 0 508 285.75" xmlns="http://www.w3.org/2000/svg">
 <defs>
  <radialGradient id="b" cx="125.26" cy="16.735" r="254" gradientTransform="matrix(0,1.0648,-1.7495,0,154.53,-61.444)" gradientUnits="userSpaceOnUse">
   <stop stop-color="#2f2f2f" offset="0"/>
   <stop stop-color="#111" offset="1"/>
  </radialGradient>
  <style/>
 </defs>
 <text transform="scale(.26458)" fill="black" font-family="sans-serif" font-size="40px" style="line-height:1.25;shape-inside:url(#rect104739);white-space:pre" xml:space="preserve"/>
 <g>
  <path d="m0 0h508v285.75h-508z" fill="url(#b)" opacity=".98" stroke-width="2.6458"/>
  <g transform="translate(-1.3068 .15374)">
   <g transform="translate(31.019 -6.3964)">
    <text transform="matrix(1.2397,0,0,1.2397,-63.983,16.555)" x="208.09" y="124.734" font-family="'Noto Sans'" font-size="49.798px" font-stretch="extra-condensed" font-style="italic" font-weight="300" letter-spacing="0" stroke-width=".26458" word-spacing="0" style="line-height:0.95" xml:space="preserve"><tspan x="208.09" y="124.734" fill="#ffffff" font-family="'Noto Sans'" font-size="49.798px" font-stretch="normal" font-style="normal" font-weight="800" stroke-width=".26458">OPDS</tspan></text>
   </g>
   <g transform="matrix(.18314 0 0 .18314 118.49 96.752)" fill="#fff">
    <g fill="#fff">
     <g fill="#fff">
      <g fill="#fff">
       <path d="m371.5 52.138c-48.289 0-99.403 8.434-120.5 26.564-21.097-18.131-72.211-26.564-120.5-26.564-62.853 0-130.5 14.286-130.5 45.648v342.07c0 5.523 4.477 10 10 10 0.394 0 0.781-0.029 1.163-0.074h238.67c0.052 6e-3 0.103 0.017 0.155 0.023 0.333 0.033 0.67 0.051 1.012 0.051s0.679-0.018 1.012-0.051c0.053-5e-3 0.103-0.017 0.156-0.023h238.67c0.382 0.044 0.769 0.074 1.163 0.074 5.523 0 10-4.477 10-10v-0.035-0.039-342c1e-3 -31.362-67.646-45.648-130.5-45.648zm-338.43 377.65c3.882-1.808 8.834-3.706 15.136-5.566 21.855-6.454 51.08-10.008 82.291-10.008s60.436 3.554 82.291 10.008c6.302 1.86 11.253 3.758 15.136 5.566zm207.93-15.763c-24.733-13.481-68.702-19.811-110.5-19.811s-85.767 6.33-110.5 19.811v-316.24c0-1.448 5.006-8.777 28.13-15.618 21.864-6.468 51.117-10.03 82.37-10.03s60.506 3.562 82.37 10.03c23.124 6.842 28.13 14.17 28.13 15.618zm33.073 15.763c3.882-1.808 8.834-3.706 15.136-5.566 21.855-6.454 51.08-10.008 82.291-10.008s60.436 3.554 82.291 10.008c6.302 1.86 11.253 3.758 15.136 5.566zm207.93-15.763c-24.733-13.481-68.702-19.811-110.5-19.811s-85.767 6.33-110.5 19.811v-316.24c0-1.448 5.006-8.777 28.13-15.618 21.864-6.468 51.117-10.03 82.37-10.03s60.506 3.562 82.37 10.03c23.124 6.842 28.13 14.17 28.13 15.618z"/>
       <path d="m100.77 129.19c9.651-0.745 19.653-1.123 29.73-1.123 28.459 0 55.799 3.033 76.984 8.54 0.843 0.219 1.689 0.324 2.522 0.324 4.444 0 8.501-2.985 9.671-7.487 1.39-5.345-1.817-10.805-7.163-12.194-22.781-5.922-51.908-9.183-82.016-9.183-10.588 0-21.109 0.397-31.27 1.182-5.506 0.425-9.626 5.233-9.201 10.74 0.428 5.506 5.243 9.636 10.743 9.201z"/>
       <path d="m50.993 136.93c0.833 0 1.679-0.105 2.522-0.324 4.476-1.164 9.297-2.232 14.331-3.178 5.428-1.02 9.001-6.247 7.982-11.674-1.02-5.428-6.248-9.003-11.674-7.982-5.481 1.03-10.753 2.2-15.669 3.477-5.346 1.389-8.553 6.849-7.164 12.194 1.171 4.5 5.228 7.487 9.672 7.487z"/>
       <path d="m212.52 168.97c-22.779-5.922-51.906-9.183-82.016-9.183s-59.237 3.261-82.016 9.183c-5.345 1.39-8.552 6.849-7.162 12.194s6.85 8.551 12.194 7.162c21.183-5.507 48.523-8.54 76.984-8.54s55.801 3.033 76.984 8.54c0.844 0.219 1.69 0.324 2.523 0.324 4.444 0 8.501-2.985 9.671-7.486 1.39-5.345-1.817-10.804-7.162-12.194z"/>
       <path d="m212.52 220.66c-22.779-5.922-51.906-9.183-82.016-9.183s-59.237 3.261-82.016 9.183c-5.345 1.39-8.552 6.849-7.162 12.194s6.85 8.551 12.194 7.162c21.183-5.507 48.523-8.54 76.984-8.54s55.801 3.033 76.984 8.54c0.844 0.219 1.69 0.324 2.523 0.324 4.444 0 8.501-2.985 9.671-7.486 1.39-5.345-1.817-10.804-7.162-12.194z"/>
       <path d="m53.515 291.74c21.186-5.507 48.525-8.54 76.984-8.54s55.799 3.033 76.984 8.54c0.843 0.219 1.689 0.324 2.522 0.324 4.444 0 8.501-2.985 9.671-7.487 1.392-5.346-1.815-10.805-7.16-12.194-22.781-5.922-51.908-9.183-82.016-9.183s-59.235 3.261-82.016 9.183c-5.345 1.389-8.552 6.849-7.163 12.194s6.85 8.553 12.194 7.163z"/>
       <path d="m212.52 324.11c-22.779-5.922-51.906-9.183-82.016-9.183s-59.237 3.261-82.016 9.183c-5.345 1.39-8.552 6.849-7.162 12.194s6.85 8.552 12.194 7.162c21.183-5.507 48.523-8.54 76.984-8.54s55.801 3.033 76.984 8.54c0.844 0.219 1.69 0.324 2.523 0.324 4.444 0 8.501-2.985 9.671-7.486 1.39-5.345-1.817-10.806-7.162-12.194z"/>
       <path d="m294.52 136.6c21.186-5.507 48.525-8.54 76.984-8.54s55.799 3.033 76.984 8.54c0.843 0.219 1.689 0.324 2.522 0.324 4.444 0 8.501-2.985 9.671-7.487 1.39-5.345-1.817-10.805-7.163-12.194-22.781-5.922-51.908-9.183-82.016-9.183s-59.235 3.261-82.016 9.183c-5.345 1.389-8.552 6.849-7.163 12.194 1.392 5.345 6.852 8.553 12.197 7.163z"/>
       <path d="m453.52 168.97c-22.779-5.922-51.906-9.183-82.016-9.183s-59.237 3.261-82.016 9.183c-5.345 1.39-8.552 6.849-7.162 12.194s6.849 8.551 12.194 7.162c21.183-5.507 48.523-8.54 76.984-8.54s55.801 3.033 76.984 8.54c0.844 0.219 1.69 0.324 2.523 0.324 4.444 0 8.501-2.985 9.671-7.486 1.39-5.345-1.817-10.806-7.162-12.194z"/>
       <path d="m453.52 220.66c-22.779-5.922-51.906-9.183-82.016-9.183s-59.237 3.261-82.016 9.183c-5.345 1.39-8.552 6.849-7.162 12.194s6.849 8.552 12.194 7.162c21.183-5.507 48.523-8.54 76.984-8.54s55.801 3.033 76.984 8.54c0.844 0.219 1.69 0.324 2.523 0.324 4.444 0 8.501-2.985 9.671-7.486 1.39-5.345-1.817-10.804-7.162-12.194z"/>
       <path d="m294.52 291.74c21.186-5.507 48.525-8.54 76.984-8.54s55.799 3.033 76.984 8.54c0.843 0.219 1.689 0.324 2.522 0.324 4.444 0 8.501-2.985 9.671-7.487 1.392-5.346-1.815-10.805-7.16-12.194-22.781-5.922-51.908-9.183-82.016-9.183s-59.235 3.261-82.016 9.183c-5.345 1.389-8.552 6.849-7.163 12.194s6.849 8.553 12.194 7.163z"/>
       <path d="m453.52 324.11c-22.779-5.922-51.906-9.183-82.016-9.183s-59.237 3.261-82.016 9.183c-5.345 1.39-8.552 6.849-7.162 12.194s6.849 8.552 12.194 7.162c21.183-5.507 48.523-8.54 76.984-8.54s55.801 3.033 76.984 8.54c0.844 0.219 1.69 0.324 2.523 0.324 4.444 0 8.501-2.985 9.671-7.486 1.39-5.345-1.817-10.806-7.162-12.194z"/>
      </g>
     </g>
    </g>
   </g>
  </g>
 </g>
</svg>
