<?xml version="1.0" encoding="UTF-8" standalone="no"?>
<svg
   xmlns:dc="http://purl.org/dc/elements/1.1/"
   xmlns:cc="http://creativecommons.org/ns#"
   xmlns:rdf="http://www.w3.org/1999/02/22-rdf-syntax-ns#"
   xmlns:svg="http://www.w3.org/2000/svg"
   xmlns="http://www.w3.org/2000/svg"
   xmlns:xlink="http://www.w3.org/1999/xlink"
   width="1920"
   height="1080"
   viewBox="0 0 507.99999 285.75001"
   version="1.1"
   id="svg8">
  <defs
     id="defs2">
    <linearGradient
       id="linearGradient851">
      <stop
         style="stop-color:#ffffff;stop-opacity:1"
         offset="0"
         id="stop847" />
      <stop
         style="stop-color:#f4f4f4;stop-opacity:1"
         offset="1"
         id="stop849" />
    </linearGradient>
    <radialGradient
       xlink:href="#linearGradient851"
       id="radialGradient853"
       cx="125.25463"
       cy="16.734682"
       fx="125.25463"
       fy="16.734682"
       r="254"
       gradientTransform="matrix(0,1.0647542,-1.7495183,0,154.53226,-61.444333)"
       gradientUnits="userSpaceOnUse" />
    <style
       id="style914">.cls-1{fill:url(#linear-gradient);}</style>
    <linearGradient
       id="linear-gradient"
       y1="40.76"
       x2="190.24"
       y2="40.76"
       gradientUnits="userSpaceOnUse"
       gradientTransform="matrix(1.6689444,0,0,1.6689444,95.249998,74.882274)">
      <stop
         offset="0"
         stop-color="#90cea1"
         id="stop916" />
      <stop
         offset="0.56"
         stop-color="#3cbec9"
         id="stop918" />
      <stop
         offset="1"
         stop-color="#00b3e5"
         id="stop920" />
    </linearGradient>
  </defs>
  <metadata
     id="metadata5">
    <rdf:RDF>
      <cc:Work
         rdf:about="">
        <dc:format>image/svg+xml</dc:format>
        <dc:type
           rdf:resource="http://purl.org/dc/dcmitype/StillImage" />
        <dc:title></dc:title>
      </cc:Work>
    </rdf:RDF>
  </metadata>
  <g
     id="layer1">
    <rect
       style="opacity:0.98;fill:url(#radialGradient853);stroke-width:2.64583;fill-opacity:1"
       id="rect845"
       width="508"
       height="285.75"
       x="0"
       y="2.1874998e-06" />
  </g>
  <g
     id="g1051"
     transform="matrix(1.1774959,0,0,1.1774959,95.250005,90.617733)">
    <path
       d="m 115.39,46.71 c 0,12.77 -9.99,22.18 -22.25,22.18 -12.26,0 -22.25,-9.41 -22.25,-22.18 0,-12.86 9.99,-22.18 22.25,-22.18 12.26,0 22.25,9.32 22.25,22.18 z m -9.74,0 c 0,-7.98 -5.79,-13.44 -12.51,-13.44 -6.72,0 -12.51,5.46 -12.51,13.44 0,7.9 5.79,13.44 12.51,13.44 6.72,0 12.51,-5.55 12.51,-13.44 z"
       fill="#ea4335"
       id="path1007" />
    <path
       d="m 163.39,46.71 c 0,12.77 -9.99,22.18 -22.25,22.18 -12.26,0 -22.25,-9.41 -22.25,-22.18 0,-12.85 9.99,-22.18 22.25,-22.18 12.26,0 22.25,9.32 22.25,22.18 z m -9.74,0 c 0,-7.98 -5.79,-13.44 -12.51,-13.44 -6.72,0 -12.51,5.46 -12.51,13.44 0,7.9 5.79,13.44 12.51,13.44 6.72,0 12.51,-5.55 12.51,-13.44 z"
       fill="#fbbc05"
       id="path1009" />
    <path
       d="m 209.39,25.87 v 39.82 c 0,16.38 -9.66,23.07 -21.08,23.07 -10.75,0 -17.22,-7.19 -19.66,-13.07 l 8.48,-3.53 c 1.51,3.61 5.21,7.87 11.17,7.87 7.31,0 11.84,-4.51 11.84,-13 v -3.19 h -0.34 c -2.18,2.69 -6.38,5.04 -11.68,5.04 -11.09,0 -21.25,-9.66 -21.25,-22.09 0,-12.52 10.16,-22.26 21.25,-22.26 5.29,0 9.49,2.35 11.68,4.96 h 0.34 v -3.61 h 9.25 z m -8.56,20.92 c 0,-7.81 -5.21,-13.52 -11.84,-13.52 -6.72,0 -12.35,5.71 -12.35,13.52 0,7.73 5.63,13.36 12.35,13.36 6.63,0 11.84,-5.63 11.84,-13.36 z"
       fill="#4285f4"
       id="path1011" />
    <path
       d="m 224.64,2.53 v 65 h -9.5 v -65 z"
       fill="#34a853"
       id="path1013" />
    <path
       d="m 261.66,54.01 7.56,5.04 c -2.44,3.61 -8.32,9.83 -18.48,9.83 -12.6,0 -22.01,-9.74 -22.01,-22.18 0,-13.19 9.49,-22.18 20.92,-22.18 11.51,0 17.14,9.16 18.98,14.11 l 1.01,2.52 -29.65,12.28 c 2.27,4.45 5.8,6.72 10.75,6.72 4.96,0 8.4,-2.44 10.92,-6.14 z m -23.27,-7.98 19.82,-8.23 c -1.09,-2.77 -4.37,-4.7 -8.23,-4.7 -4.95,0 -11.84,4.37 -11.59,12.93 z"
       fill="#ea4335"
       id="path1015" />
    <path
       d="m 34.93,40.94 v -9.41 h 31.71 c 0.31,1.64 0.47,3.58 0.47,5.68 0,7.06 -1.93,15.79 -8.15,22.01 -6.05,6.3 -13.78,9.66 -24.02,9.66 C 15.96,68.88 0,53.42 0,34.44 0,15.46 15.96,0 34.94,0 45.44,0 52.92,4.12 58.54,9.49 L 51.9,16.13 C 47.87,12.35 42.41,9.41 34.93,9.41 c -13.86,0 -24.7,11.17 -24.7,25.03 0,13.86 10.84,25.03 24.7,25.03 8.99,0 14.11,-3.61 17.39,-6.89 2.66,-2.66 4.41,-6.46 5.1,-11.65 z"
       fill="#4285f4"
       id="path1017" />
    <g
       fill="#4285f4"
       stroke-width="0.34038"
       id="g1029">
      <path
         d="M 216.78,87.572 V 76.107 h 3.748 q 1.8661,0 2.8032,0.77165 0.94488,0.77166 0.94488,2.2835 0,0.80315 -0.45669,1.4252 -0.45669,0.61417 -1.2441,0.95276 0.92914,0.25984 1.4646,0.99213 0.54331,0.72441 0.54331,1.7323 0,1.5433 -1,2.4252 -1,0.88189 -2.8268,0.88189 z m 1.5118,-5.3622 v 4.126 h 2.4961 q 1.0551,0 1.6614,-0.54331 0.61417,-0.55118 0.61417,-1.5118 0,-2.0709 -2.252,-2.0709 z m 0,-1.2126 h 2.2835 q 0.99213,0 1.5827,-0.49606 0.59843,-0.49606 0.59843,-1.3465 0,-0.94488 -0.55119,-1.3701 -0.55118,-0.43307 -1.6772,-0.43307 h -2.2362 z"
         id="path1019" />
      <path
         d="m 226.21,83.233 q 0,-1.252 0.48819,-2.252 0.49606,-1 1.3701,-1.5433 0.88189,-0.54331 2.0079,-0.54331 1.7402,0 2.811,1.2047 1.0787,1.2047 1.0787,3.2047 v 0.10236 q 0,1.2441 -0.48031,2.2362 -0.47244,0.98425 -1.3622,1.5354 -0.88189,0.55118 -2.0315,0.55118 -1.7323,0 -2.811,-1.2047 -1.0709,-1.2047 -1.0709,-3.189 z m 1.4646,0.17323 q 0,1.4173 0.65354,2.2756 0.66142,0.85827 1.7638,0.85827 1.1102,0 1.7638,-0.86614 0.65354,-0.87402 0.65354,-2.4409 0,-1.4016 -0.66929,-2.2677 -0.66142,-0.87402 -1.7638,-0.87402 -1.0787,0 -1.7402,0.85827 -0.66142,0.85827 -0.66142,2.4567 z"
         id="path1021" />
      <path
         d="m 235.41,83.233 q 0,-1.252 0.48819,-2.252 0.49606,-1 1.3701,-1.5433 0.88189,-0.54331 2.0079,-0.54331 1.7402,0 2.811,1.2047 1.0787,1.2047 1.0787,3.2047 v 0.10236 q 0,1.2441 -0.48031,2.2362 -0.47244,0.98425 -1.3622,1.5354 -0.88189,0.55118 -2.0315,0.55118 -1.7323,0 -2.811,-1.2047 -1.0709,-1.2047 -1.0709,-3.189 z m 1.4646,0.17323 q 0,1.4173 0.65354,2.2756 0.66142,0.85827 1.7638,0.85827 1.1102,0 1.7638,-0.86614 0.65354,-0.87402 0.65354,-2.4409 0,-1.4016 -0.66929,-2.2677 -0.66142,-0.87402 -1.7638,-0.87402 -1.0787,0 -1.7402,0.85827 -0.66142,0.85827 -0.66142,2.4567 z"
         id="path1023" />
      <path
         d="m 247.37,83.627 -0.91339,0.95276 v 2.9921 h -1.4567 v -12.094 h 1.4567 v 7.315 l 0.77953,-0.93701 2.6536,-2.8032 h 1.7716 l -3.315,3.5591 3.7008,4.9606 h -1.7087 z"
         id="path1025" />
      <path
         d="m 258.14,85.312 q 0,-0.59055 -0.44882,-0.91339 -0.44095,-0.33071 -1.5512,-0.56693 -1.1024,-0.23622 -1.7559,-0.56693 -0.64567,-0.33071 -0.96063,-0.7874 -0.30709,-0.45669 -0.30709,-1.0866 0,-1.0472 0.88189,-1.7717 0.88976,-0.72441 2.2677,-0.72441 1.4488,0 2.3465,0.74803 0.90551,0.74803 0.90551,1.9134 h -1.4646 q 0,-0.59843 -0.51181,-1.0315 -0.50394,-0.43307 -1.2756,-0.43307 -0.79528,0 -1.2441,0.34646 -0.44882,0.34646 -0.44882,0.90551 0,0.52756 0.41733,0.79528 0.41732,0.26772 1.5039,0.51181 1.0945,0.2441 1.7717,0.58268 0.6772,0.33858 1,0.8189 0.33071,0.47244 0.33071,1.1575 0,1.1417 -0.91339,1.8346 -0.91338,0.68504 -2.3701,0.68504 -1.0236,0 -1.811,-0.3622 -0.78741,-0.3622 -1.2362,-1.0079 -0.44094,-0.65354 -0.44094,-1.4094 h 1.4567 q 0.0394,0.73228 0.58268,1.1654 0.55118,0.4252 1.4488,0.4252 0.82677,0 1.3228,-0.33071 0.50394,-0.33858 0.50394,-0.89764 z"
         id="path1027" />
    </g>
  </g>
</svg>
