<?xml version="1.0" encoding="UTF-8" standalone="no"?>
<svg
   xmlns:dc="http://purl.org/dc/elements/1.1/"
   xmlns:cc="http://creativecommons.org/ns#"
   xmlns:rdf="http://www.w3.org/1999/02/22-rdf-syntax-ns#"
   xmlns:svg="http://www.w3.org/2000/svg"
   xmlns="http://www.w3.org/2000/svg"
   xmlns:xlink="http://www.w3.org/1999/xlink"
   width="1920"
   height="1080"
   viewBox="0 0 507.99999 285.75001"
   version="1.1"
   id="svg8">
  <defs
     id="defs2">
    <linearGradient
       id="linearGradient851">
      <stop
         style="stop-color:#fffedb;stop-opacity:1"
         offset="0"
         id="stop847" />
      <stop
         style="stop-color:#ffeec2;stop-opacity:1"
         offset="1"
         id="stop849" />
    </linearGradient>
    <radialGradient
       xlink:href="#linearGradient851"
       id="radialGradient853"
       cx="125.25463"
       cy="16.734682"
       fx="125.25463"
       fy="16.734682"
       r="254"
       gradientTransform="matrix(0,1.0647542,-1.7495183,0,154.53226,-61.444333)"
       gradientUnits="userSpaceOnUse" />
    <style
       id="style914">.cls-1{fill:url(#linear-gradient);}</style>
    <linearGradient
       id="linear-gradient"
       y1="40.76"
       x2="190.24"
       y2="40.76"
       gradientUnits="userSpaceOnUse"
       gradientTransform="matrix(1.6689444,0,0,1.6689444,95.249998,74.882274)">
      <stop
         offset="0"
         stop-color="#90cea1"
         id="stop916" />
      <stop
         offset="0.56"
         stop-color="#3cbec9"
         id="stop918" />
      <stop
         offset="1"
         stop-color="#00b3e5"
         id="stop920" />
    </linearGradient>
  </defs>
  <metadata
     id="metadata5">
    <rdf:RDF>
      <cc:Work
         rdf:about="">
        <dc:format>image/svg+xml</dc:format>
        <dc:type
           rdf:resource="http://purl.org/dc/dcmitype/StillImage" />
        <dc:title></dc:title>
      </cc:Work>
    </rdf:RDF>
  </metadata>
  <g
     id="layer1">
    <rect
       style="opacity:0.98;fill:url(#radialGradient853);stroke-width:2.64583;fill-opacity:1"
       id="rect845"
       width="508"
       height="285.75"
       x="0"
       y="2.1874998e-06" />
    <g
       id="g1253"
       transform="matrix(1.2470996,0,0,1.2470996,95.249995,125.41561)">
      <polygon
         points="0,7 0,21 12,28 12,0 "
         style="fill:#20656c"
         id="polygon1194" />
      <polygon
         points="25,7 25,21 13,28 13,0 "
         style="fill:#eb743b"
         id="polygon1196" />
      <path
         d="m 49.8,18.26 a 7.46,7.46 0 0 1 -0.67,2.85 6.56,6.56 0 0 1 -1.67,2.21 7.67,7.67 0 0 1 -2.56,1.44 10.21,10.21 0 0 1 -3.34,0.51 9,9 0 0 1 -3.56,-0.67 7.22,7.22 0 0 1 -2.65,-1.92 8.46,8.46 0 0 1 -1.65,-3 13.4,13.4 0 0 1 -0.57,-4 v -1.17 a 12.82,12.82 0 0 1 0.59,-4 8.76,8.76 0 0 1 1.7,-3.06 7.43,7.43 0 0 1 2.65,-1.93 8.5,8.5 0 0 1 3.45,-0.68 10.1,10.1 0 0 1 3.48,0.51 7.4,7.4 0 0 1 2.54,1.5 6.86,6.86 0 0 1 1.63,2.27 8.84,8.84 0 0 1 0.67,2.88 H 45.06 A 5.68,5.68 0 0 0 44.83,10.52 2.53,2.53 0 0 0 44.21,9.45 2.71,2.71 0 0 0 43.13,8.81 5.16,5.16 0 0 0 41.52,8.59 3.41,3.41 0 0 0 40,8.89 a 2.71,2.71 0 0 0 -1.09,1 5.41,5.41 0 0 0 -0.65,1.84 14.91,14.91 0 0 0 -0.26,2.76 v 1.11 a 16.33,16.33 0 0 0 0.19,2.71 5.51,5.51 0 0 0 0.61,1.84 2.54,2.54 0 0 0 1.09,1 3.79,3.79 0 0 0 1.66,0.33 3.68,3.68 0 0 0 2.53,-0.78 3.31,3.31 0 0 0 0.92,-2.44 z"
         transform="translate(-2,-1)"
         style="fill:#20656c"
         id="path1198" />
      <path
         d="m 51.28,17.47 a 9.34,9.34 0 0 1 0.46,-3 6.81,6.81 0 0 1 1.37,-2.39 6.19,6.19 0 0 1 2.24,-1.58 8.59,8.59 0 0 1 6.14,0 6.19,6.19 0 0 1 2.24,1.58 6.81,6.81 0 0 1 1.37,2.39 9.34,9.34 0 0 1 0.46,3 v 0.29 a 9.43,9.43 0 0 1 -0.46,3 6.67,6.67 0 0 1 -1.36,2.38 6.24,6.24 0 0 1 -2.24,1.57 8.59,8.59 0 0 1 -6.14,0 6.31,6.31 0 0 1 -2.24,-1.57 6.69,6.69 0 0 1 -1.37,-2.38 9.32,9.32 0 0 1 -0.46,-3 z m 4.61,0.29 a 9.9,9.9 0 0 0 0.11,1.55 3.84,3.84 0 0 0 0.41,1.26 2.26,2.26 0 0 0 0.79,0.84 2.28,2.28 0 0 0 1.23,0.31 2.09,2.09 0 0 0 2,-1.15 4.08,4.08 0 0 0 0.41,-1.26 9.32,9.32 0 0 0 0.12,-1.56 v -0.29 a 9.71,9.71 0 0 0 -0.12,-1.53 3.91,3.91 0 0 0 -0.41,-1.26 2.35,2.35 0 0 0 -0.79,-0.86 2.21,2.21 0 0 0 -1.23,-0.32 2.15,2.15 0 0 0 -1.21,0.32 2.31,2.31 0 0 0 -0.77,0.86 4.17,4.17 0 0 0 -0.43,1.27 9.14,9.14 0 0 0 -0.12,1.53 z"
         transform="translate(-2,-1)"
         style="fill:#20656c"
         id="path1200" />
      <path
         d="m 73.27,19.52 2.34,-9.31 h 4.85 L 75.64,25 h -4.7 L 66.11,10.21 H 71 Z"
         transform="translate(-2,-1)"
         style="fill:#20656c"
         id="path1202" />
      <path
         d="M 88.82,25.27 A 8.56,8.56 0 0 1 85.59,24.7 7,7 0 0 1 83.2,23.14 6.74,6.74 0 0 1 81.72,20.86 7.45,7.45 0 0 1 81.21,18.1 v -0.52 a 9.93,9.93 0 0 1 0.44,-3 6.73,6.73 0 0 1 1.35,-2.45 6.26,6.26 0 0 1 2.23,-1.61 7.66,7.66 0 0 1 3.11,-0.59 7.48,7.48 0 0 1 2.82,0.51 5.78,5.78 0 0 1 2.12,1.45 6.36,6.36 0 0 1 1.33,2.28 9.25,9.25 0 0 1 0.46,3 v 1.87 H 85.89 A 3.32,3.32 0 0 0 87,21 3.22,3.22 0 0 0 89.16,21.71 5,5 0 0 0 91,21.36 3.73,3.73 0 0 0 92.57,20.18 l 2.11,2.49 a 5.37,5.37 0 0 1 -0.91,1 6.35,6.35 0 0 1 -1.29,0.83 8.24,8.24 0 0 1 -3.64,0.81 z M 88.3,13.49 a 2.3,2.3 0 0 0 -1,0.21 2,2 0 0 0 -0.7,0.56 2.78,2.78 0 0 0 -0.44,0.85 6.1,6.1 0 0 0 -0.25,1.07 h 4.65 V 15.82 A 2.28,2.28 0 0 0 90,14.1 2.23,2.23 0 0 0 88.3,13.49 Z"
         transform="translate(-2,-1)"
         style="fill:#20656c"
         id="path1204" />
      <path
         d="m 105.85,14.38 h -0.33 -0.41 -0.42 -0.36 a 4.09,4.09 0 0 0 -1.79,0.33 2.06,2.06 0 0 0 -1,1 V 25 h -4.6 V 10.21 h 4.32 l 0.15,1.9 a 4.51,4.51 0 0 1 1.36,-1.6 3.18,3.18 0 0 1 1.88,-0.57 5.57,5.57 0 0 1 0.68,0 3.68,3.68 0 0 1 0.61,0.12 z"
         transform="translate(-2,-1)"
         style="fill:#20656c"
         id="path1206" />
      <path
         d="m 126,21.28 h -6.58 L 118.28,25 h -5.13 l 7.3,-19.91 H 125 L 132.32,25 h -5.15 z m -5.43,-3.71 h 4.28 l -2.15,-6.9 z"
         transform="translate(-2,-1)"
         style="fill:#20656c"
         id="path1208" />
      <path
         d="m 142.51,14.38 h -0.33 -0.41 -0.42 -0.35 a 4.09,4.09 0 0 0 -1.79,0.33 2.06,2.06 0 0 0 -1,1 V 25 H 133.6 V 10.21 h 4.32 l 0.15,1.9 a 4.51,4.51 0 0 1 1.36,-1.6 3.18,3.18 0 0 1 1.88,-0.57 5.57,5.57 0 0 1 0.68,0 3.68,3.68 0 0 1 0.61,0.12 z"
         transform="translate(-2,-1)"
         style="fill:#20656c"
         id="path1210" />
      <path
         d="m 150.22,6.53 v 3.68 h 2.43 v 3.2 h -2.43 v 6.77 a 2.94,2.94 0 0 0 0.08,0.72 1,1 0 0 0 0.25,0.46 0.94,0.94 0 0 0 0.46,0.24 3.11,3.11 0 0 0 0.71,0.07 h 0.66 l 0.49,-0.06 v 3.29 a 8.61,8.61 0 0 1 -1.23,0.29 8.51,8.51 0 0 1 -1.37,0.1 7.06,7.06 0 0 1 -2,-0.25 3.62,3.62 0 0 1 -1.46,-0.8 3.45,3.45 0 0 1 -0.9,-1.41 6.16,6.16 0 0 1 -0.31,-2.06 v -7.36 h -1.89 v -3.2 h 1.89 V 6.53 Z"
         transform="translate(-2,-1)"
         style="fill:#20656c"
         id="path1212" />
      <path
         d="m 173,21.28 h -6.58 L 165.23,25 h -5.13 l 7.3,-19.91 h 4.51 L 179.27,25 h -5.15 z m -5.43,-3.71 h 4.28 l -2.15,-6.9 z"
         transform="translate(-2,-1)"
         style="fill:#eb743b"
         id="path1214" />
      <path
         d="m 189.46,14.38 h -0.33 -0.41 -0.42 -0.36 a 4.09,4.09 0 0 0 -1.79,0.33 2.06,2.06 0 0 0 -1,1 V 25 h -4.61 V 10.21 h 4.32 l 0.15,1.9 a 4.51,4.51 0 0 1 1.36,-1.6 3.18,3.18 0 0 1 1.88,-0.57 5.57,5.57 0 0 1 0.68,0 3.68,3.68 0 0 1 0.61,0.12 z"
         transform="translate(-2,-1)"
         style="fill:#eb743b"
         id="path1216" />
      <path
         d="m 197.11,21.72 a 2.05,2.05 0 0 0 1.5,-0.53 1.93,1.93 0 0 0 0.52,-1.47 h 4.32 A 5.35,5.35 0 0 1 203,22 a 5.22,5.22 0 0 1 -1.31,1.75 5.88,5.88 0 0 1 -2,1.13 8.13,8.13 0 0 1 -5.51,-0.18 6,6 0 0 1 -2.18,-1.58 6.7,6.7 0 0 1 -1.31,-2.38 9.74,9.74 0 0 1 -0.44,-3 v -0.31 a 9.81,9.81 0 0 1 0.44,-3 6.75,6.75 0 0 1 1.3,-2.39 6,6 0 0 1 2.15,-1.58 7.37,7.37 0 0 1 3,-0.57 7.81,7.81 0 0 1 2.55,0.4 5.57,5.57 0 0 1 2,1.16 5.18,5.18 0 0 1 1.31,1.9 6.53,6.53 0 0 1 0.46,2.52 h -4.32 a 3.62,3.62 0 0 0 -0.12,-0.93 2,2 0 0 0 -0.38,-0.76 1.83,1.83 0 0 0 -0.65,-0.51 2.14,2.14 0 0 0 -0.92,-0.18 1.87,1.87 0 0 0 -1.14,0.32 2.07,2.07 0 0 0 -0.66,0.86 4.3,4.3 0 0 0 -0.31,1.26 14.81,14.81 0 0 0 -0.08,1.52 v 0.31 a 14.89,14.89 0 0 0 0.08,1.54 4.3,4.3 0 0 0 0.31,1.26 1.93,1.93 0 0 0 0.68,0.85 2,2 0 0 0 1.16,0.31 z"
         transform="translate(-2,-1)"
         style="fill:#eb743b"
         id="path1218" />
      <path
         d="m 209.91,11.79 a 5.08,5.08 0 0 1 1.65,-1.37 4.55,4.55 0 0 1 2.13,-0.49 6.13,6.13 0 0 1 2,0.31 3.84,3.84 0 0 1 1.57,1 4.73,4.73 0 0 1 1,1.82 9,9 0 0 1 0.36,2.73 V 25 H 214 v -9.21 a 3.68,3.68 0 0 0 -0.14,-1.11 1.7,1.7 0 0 0 -0.42,-0.71 1.47,1.47 0 0 0 -0.66,-0.37 3.47,3.47 0 0 0 -0.88,-0.1 2.84,2.84 0 0 0 -1.25,0.24 1.86,1.86 0 0 0 -0.76,0.66 V 25 H 205.3 V 4 h 4.61 z"
         transform="translate(-2,-1)"
         style="fill:#eb743b"
         id="path1220" />
      <path
         d="m 221.18,6.39 a 2.17,2.17 0 0 1 0.18,-0.9 2.07,2.07 0 0 1 0.53,-0.71 2.44,2.44 0 0 1 0.81,-0.46 3.37,3.37 0 0 1 2.08,0 2.44,2.44 0 0 1 0.81,0.46 2.07,2.07 0 0 1 0.53,0.71 2.3,2.3 0 0 1 0,1.8 2.07,2.07 0 0 1 -0.53,0.71 2.44,2.44 0 0 1 -0.81,0.46 3.37,3.37 0 0 1 -2.08,0 A 2.44,2.44 0 0 1 221.89,8 2.07,2.07 0 0 1 221.36,7.29 2.17,2.17 0 0 1 221.18,6.39 Z M 226.07,25 h -4.62 V 10.21 h 4.62 z"
         transform="translate(-2,-1)"
         style="fill:#eb743b"
         id="path1222" />
      <path
         d="m 234.81,19.52 2.34,-9.31 H 242 L 237.17,25 h -4.7 l -4.83,-14.79 h 4.87 z"
         transform="translate(-2,-1)"
         style="fill:#eb743b"
         id="path1224" />
      <path
         d="m 250.35,25.27 a 8.56,8.56 0 0 1 -3.23,-0.57 7,7 0 0 1 -2.39,-1.56 6.74,6.74 0 0 1 -1.48,-2.28 7.45,7.45 0 0 1 -0.51,-2.76 v -0.52 a 9.93,9.93 0 0 1 0.44,-3 6.73,6.73 0 0 1 1.34,-2.43 6.26,6.26 0 0 1 2.23,-1.61 7.66,7.66 0 0 1 3.11,-0.59 7.48,7.48 0 0 1 2.82,0.51 5.78,5.78 0 0 1 2.12,1.45 6.36,6.36 0 0 1 1.33,2.28 9.25,9.25 0 0 1 0.46,3 v 1.87 h -9.16 a 3.32,3.32 0 0 0 1.08,2 3.22,3.22 0 0 0 2.16,0.71 5,5 0 0 0 1.85,-0.36 3.73,3.73 0 0 0 1.57,-1.18 l 2.11,2.49 a 5.37,5.37 0 0 1 -0.91,1 6.35,6.35 0 0 1 -1.29,0.83 8.24,8.24 0 0 1 -3.64,0.81 z m -0.52,-11.79 a 2.3,2.3 0 0 0 -1,0.21 2,2 0 0 0 -0.7,0.56 2.78,2.78 0 0 0 -0.44,0.85 6.1,6.1 0 0 0 -0.25,1.07 h 4.65 v -0.36 a 2.28,2.28 0 0 0 -0.56,-1.72 2.23,2.23 0 0 0 -1.7,-0.6 z"
         transform="translate(-2,-1)"
         style="fill:#eb743b"
         id="path1226" />
    </g>
  </g>
</svg>
