<svg xmlns="http://www.w3.org/2000/svg" xmlns:xlink="http://www.w3.org/1999/xlink" width="1920" height="1080" viewBox="0 0 508 285.75">
    <defs>
        <radialGradient xlink:href="#a" id="b" cx="125.255" cy="16.735" fx="125.255" fy="16.735" r="254" gradientTransform="matrix(0 1.06475 -1.74952 0 154.532 -61.444)" gradientUnits="userSpaceOnUse"/>
        <linearGradient id="a">
            <stop style="stop-color:#2f2f2f;stop-opacity:1" offset="0"/>
            <stop style="stop-color:#111;stop-opacity:1" offset="1"/>
        </linearGradient>
        <style/>
    </defs>
    <path style="opacity:.98;fill:url(#b);stroke-width:2.64583;fill-opacity:1" d="M0 0h508v285.75H0z"/>
    <path d="M408.356 115.668h-1.373v3.507h-.446v-3.507h-1.373v-.428h3.192zm4.394-.428v3.935h-.446v-3.257l-1.456 1.872-1.48-1.872v3.257h-.446v-3.935h.517l1.409 1.867 1.385-1.867z"/>
    <g transform="translate(95.25 88.896) scale(1.09938)">
        <circle fill="#fff" cx="49.1" cy="49.1" r="49.1"/>
        <path fill="#ed2224" d="M20 75.8c7.2 7.8 17.6 12.8 29.1 12.8 5.9 0 11.5-1.3 16.5-3.6L38.2 57.6z"/>
        <path fill="#ed2224" d="M38 41.1 17.3 61.8 14.5 59l21.8-21.8 25.5-25.5c-4-1.4-8.3-2.1-12.8-2.1-21.7 0-39.4 17.6-39.4 39.5 0 8.9 2.9 17.1 7.9 23.7l20.7-20.7 1.4 1.4L69.2 83c.6-.3 1.2-.7 1.7-1.1L38.2 49.2 18.3 69.1l-2.8-2.8 22.7-22.7 1.4 1.4 34.5 34.5c.5-.4 1-.9 1.5-1.3L38.4 41.1z"/>
        <path fill="#ed1c24" d="M78.4 75.5c6.3-7 10.2-16.3 10.2-26.5 0-15.8-9.3-29.5-22.8-35.8L41 38.1zM50.5 45.3l-2.8-2.8L67.3 23l2.8 2.8zm18.6-26.9L46.5 41l-2.8-2.8 22.6-22.6z"/>
        <g fill="#fff">
            <path d="M38.2 52.1 17.5 72.8c.8 1.1 1.6 2.1 2.5 3l18.2-18.2L65.5 85c1.3-.6 2.5-1.2 3.7-1.9L39.6 53.4z"/>
            <path d="M38.2 43.7 15.5 66.4l2.8 2.8 19.9-19.9L70.9 82c1.1-.7 2.2-1.5 3.2-2.4L39.6 45.1z"/>
            <path d="m41 38.1 24.8-24.8c-1.3-.6-2.6-1.1-4-1.6L36.3 37.1 14.5 59l2.8 2.8L38 41.1h.4l37.2 37.2c1-.9 1.9-1.8 2.8-2.8z"/>
            <path d="M69.058 18.371 46.43 41l-2.758-2.758L66.3 15.614zM50.5 45.301l-2.758-2.758L67.33 22.957l2.757 2.757z"/>
        </g>
        <path fill="#ed2224" d="M49.1 98.1C22 98.1 0 76.1 0 49.1 0 22 22 0 49.1 0s49.1 22 49.1 49.1c-.1 27-22.1 49-49.1 49zm0-93.2C24.7 4.9 4.9 24.7 4.9 49.1c0 24.4 19.8 44.1 44.1 44.1s44.1-19.8 44.1-44.1-19.7-44.2-44-44.2z"/>
        <path d="M124.8 61.7V36.8h-9V31h24.5v5.8h-8.9v24.9zm44 0-6-10.9H158v10.9h-6.5V31h14.4c6.4 0 10.3 4.2 10.3 9.9 0 5.4-3.4 8.3-6.7 9.1l6.9 11.7zm.7-20.8c0-2.6-2-4.1-4.6-4.1H158V45h6.9c2.6 0 4.6-1.5 4.6-4.1zm41.2 20.8-1.9-5.2h-13.2l-1.9 5.2h-7.5L198.1 31h8.2l11.8 30.7zm-8.5-24.2-4.8 13.2h9.6zM247 61.7l-9.3-12.3-2.4 2.9v9.4h-6.5V31h6.5v13.7L246.1 31h8.1L242 45.4l13 16.3zm26.3 0V36.8h-9V31h24.5v5.8h-8.9v24.9z" fill="#fff"/>
    </g>
</svg>
