<?xml version="1.0" encoding="UTF-8" standalone="no"?>
<svg
   xmlns:dc="http://purl.org/dc/elements/1.1/"
   xmlns:cc="http://creativecommons.org/ns#"
   xmlns:rdf="http://www.w3.org/1999/02/22-rdf-syntax-ns#"
   xmlns:svg="http://www.w3.org/2000/svg"
   xmlns="http://www.w3.org/2000/svg"
   xmlns:xlink="http://www.w3.org/1999/xlink"
   xmlns:sodipodi="http://sodipodi.sourceforge.net/DTD/sodipodi-0.dtd"
   xmlns:inkscape="http://www.inkscape.org/namespaces/inkscape"
   width="1920"
   height="1080"
   viewBox="0 0 507.99999 285.75001"
   version="1.1"
   id="svg8"
   sodipodi:docname="jellyfin-plugin-anisearch.svg"
   inkscape:version="1.0.1 (3bc2e813f5, 2020-09-07, custom)"
   inkscape:export-filename="/home/mrtimscampi/Documents/jellyfin-ux/plugins/repository/jellyfin-plugin-kitsu.png"
   inkscape:export-xdpi="96"
   inkscape:export-ydpi="96">
  <sodipodi:namedview
     pagecolor="#5b5b5b"
     bordercolor="#666666"
     borderopacity="1"
     objecttolerance="10"
     gridtolerance="10"
     guidetolerance="10"
     inkscape:pageopacity="0"
     inkscape:pageshadow="2"
     inkscape:window-width="1920"
     inkscape:window-height="1020"
     id="namedview2208"
     showgrid="false"
     showborder="false"
     inkscape:lockguides="true"
     inkscape:zoom="0.47877022"
     inkscape:cx="750.00168"
     inkscape:cy="572.80798"
     inkscape:window-x="1920"
     inkscape:window-y="32"
     inkscape:window-maximized="1"
     inkscape:current-layer="svg8"
     showguides="true"
     inkscape:guide-bbox="true">
    <sodipodi:guide
       position="0,285.75"
       orientation="0,1920"
       id="guide2771"
       inkscape:locked="true" />
    <sodipodi:guide
       position="508,285.75"
       orientation="1080,0"
       id="guide2773"
       inkscape:locked="true" />
    <sodipodi:guide
       position="508,0"
       orientation="0,-1920"
       id="guide2775"
       inkscape:locked="true" />
    <sodipodi:guide
       position="0,0"
       orientation="-1080,0"
       id="guide2777"
       inkscape:locked="true" />
    <sodipodi:guide
       position="295.51923,-61.448464"
       orientation="1,0"
       id="guide2875" />
    <sodipodi:guide
       position="336.14694,-112.1435"
       orientation="1,0"
       id="guide2877" />
    <sodipodi:guide
       position="325.16884,-71.168849"
       orientation="0,-1"
       id="guide2884" />
    <sodipodi:guide
       position="316.1323,-60.569233"
       orientation="1,0"
       id="guide2886" />
    <sodipodi:guide
       position="356.82115,-41.714617"
       orientation="1,0"
       id="guide2888" />
    <sodipodi:guide
       position="366.05307,-31.750002"
       orientation="1,0"
       id="guide2890" />
    <sodipodi:guide
       position="324.92461,-64.03731"
       orientation="1,0"
       id="guide2892" />
    <sodipodi:guide
       position="285.3649,-112.5589"
       orientation="1,0"
       id="guide2906" />
    <sodipodi:guide
       position="275.69386,-110.2793"
       orientation="1,0"
       id="guide2908" />
    <sodipodi:guide
       position="279.76951,-83.062214"
       orientation="0,-1"
       id="guide2910" />
    <sodipodi:guide
       position="289.92411,-90.729972"
       orientation="0,-1"
       id="guide2912" />
    <sodipodi:guide
       position="289.37148,-118.56877"
       orientation="0,-1"
       id="guide2914" />
    <sodipodi:guide
       position="288.12806,-126.51284"
       orientation="0,-1"
       id="guide2916" />
    <sodipodi:guide
       position="326.67408,-93.424049"
       orientation="1,0"
       id="guide2918" />
    <sodipodi:guide
       position="365.35826,-93.769443"
       orientation="1,0"
       id="guide2920" />
    <sodipodi:guide
       position="359.1757,-104.78753"
       orientation="1,0"
       id="guide2922" />
    <sodipodi:guide
       position="360.55728,-104.78753"
       orientation="0,-1"
       id="guide2924" />
    <sodipodi:guide
       position="338.59019,-100.60825"
       orientation="0,-1"
       id="guide2926" />
    <sodipodi:guide
       position="338.72835,-108.62141"
       orientation="0,-1"
       id="guide2928" />
  </sodipodi:namedview>
  <defs
     id="defs2">
    <rect
       x="83.1181"
       y="334.90261"
       width="6.464948"
       height="26.461298"
       id="rect2990" />
    <rect
       x="50.759791"
       y="387.58649"
       width="2.7020626"
       height="357.88762"
       id="rect1018" />
    <linearGradient
       id="linearGradient851">
      <stop
         style="stop-color:#fd9fa5;stop-opacity:1"
         offset="0"
         id="stop847" />
      <stop
         style="stop-color:#f6848b;stop-opacity:1"
         offset="1"
         id="stop849" />
    </linearGradient>
    <radialGradient
       xlink:href="#linearGradient851"
       id="radialGradient853"
       cx="125.25463"
       cy="16.734682"
       fx="125.25463"
       fy="16.734682"
       r="254"
       gradientTransform="matrix(0,1.0647542,-1.7495183,0,154.53226,-61.444333)"
       gradientUnits="userSpaceOnUse" />
    <style
       id="style914">.cls-1{fill:url(#linear-gradient);}</style>
  </defs>
  <metadata
     id="metadata5">
    <rdf:RDF>
      <cc:Work
         rdf:about="">
        <dc:format>image/svg+xml</dc:format>
        <dc:type
           rdf:resource="http://purl.org/dc/dcmitype/StillImage" />
        <dc:title></dc:title>
      </cc:Work>
    </rdf:RDF>
  </metadata>
  <g
     id="layer1">
    <rect
       style="opacity:0.98;fill:url(#radialGradient853);stroke-width:2.64583;fill-opacity:1"
       id="rect845"
       width="508"
       height="285.75"
       x="0"
       y="2.1874998e-06" />
    <text
       xml:space="preserve"
       id="text1016"
       style="font-family:'Noto Sans';font-size:10.58333341px;line-height:1.25;letter-spacing:0px;word-spacing:0px;-inkscape-font-specification:'Noto Sans';white-space:pre;shape-inside:url(#rect1018);" />
  </g>
  <text
     xml:space="preserve"
     id="text2988"
     style="font-family:'Noto Sans';font-size:10.58333341px;line-height:1.25;letter-spacing:0px;word-spacing:0px;-inkscape-font-specification:'Noto Sans Heavy';font-weight:900;font-stretch:normal;font-style:normal;white-space:pre;shape-inside:url(#rect2990);font-variant:normal;" />
  <g
     id="g3159" />
  <g
     id="g3205"
     transform="matrix(0.77844445,0,0,0.77844445,-378.43412,29.296475)">
    <path
       style="fill:#ffffff;fill-opacity:1;stroke:none;stroke-width:0.264583px;stroke-linecap:butt;stroke-linejoin:miter;stroke-opacity:1"
       d="m 665.94981,130.82437 c 0,0 -14.34318,-11.08156 -33.00995,-1.96677 -16.67621,8.14282 -21.23589,15.65447 -21.02327,24.29234 0.21265,8.63787 2.15285,8.42525 2.15285,8.42525 0,0 -11.96461,15.09066 -0.81817,30.95625 10.23254,14.56477 32.9302,8.77076 32.9302,8.77076 0,0 6.55113,4.42904 12.73087,3.64119 6.67112,-0.85049 11.82728,-5.34219 11.82728,-5.34219 0,0 10.03743,4.10032 15.62788,1.54152 5.3422,-2.44518 10.28573,-7.30896 10.28573,-7.30896 0,0 3.12756,2.92287 10.19733,2.55078 7.06977,-0.3721 10.01993,-2.7907 10.01993,-2.7907 0,0 3.6146,4.89036 12.75747,4.99667 9.14286,0.10632 12.27904,-3.5083 12.27904,-3.5083 0,0 6.66932,9.95082 34.44733,-0.47984 20.66638,-7.76024 21.71425,-12.62458 21.71425,-12.62458 0,0 5.1102,9.22114 19.38262,10.39058 14.27239,1.16944 23.38867,-6.48504 23.38867,-6.48504 0,0 3.54712,3.34524 13.38096,2.89342 12.9574,-0.59533 10.15285,-2.1794 10.15285,-2.1794 0,0 5.0941,5.07487 15.06973,2.36544 8.6113,-2.33886 9.40863,-6.24584 9.40863,-6.24584 0,0 9.76733,6.6693 20.41986,1.52932 10.58958,-5.10961 9.35547,-12.11959 9.35547,-12.11959 0,0 7.58839,11.54635 23.85418,11.22742 16.26576,-0.31893 22.0332,-6.59135 22.0332,-6.59135 0,0 4.48808,4.68923 13.55119,3.70584 9.06315,-0.98339 9.67444,-3.66777 9.67444,-3.66777 0,0 10.01153,8.14961 23.33542,-3.08305 10.1714,-8.57491 2.6313,-26.01992 2.1529,-29.71427 -0.4784,-3.69435 -0.77,-23.1028 -7.893,-29.10944 -7.12286,-6.00664 -16.31886,-5.90033 -16.31886,-5.90033 0,0 -2.52492,-22.51161 -19.56144,-22.21925 -17.03655,0.292356 -18.68438,21.18271 -18.68438,21.18271 0,0 -7.12291,-1.24916 -13.79399,1.91362 -6.6773,3.16573 -10.17943,6.11295 -10.17943,6.11295 0,0 -5.24232,-2.84385 -11.19581,-3.00332 -5.9535,-0.15946 -10.73754,3.2691 -10.73754,3.2691 0,0 -6.13955,-3.16279 -11.64122,-3.00332 -5.50164,0.15948 -11.80062,5.28903 -11.80062,5.28903 0,0 -6.23211,-8.04131 -22.29181,-5.32063 -11.29571,1.91361 -20.01327,10.95015 -20.01327,10.95015 0,0 -9.19602,-7.20839 -19.34885,-5.32135 -10.1528,1.88704 -19.26907,13.39534 -19.26907,13.39534 0,0 -5.07643,-4.62459 -7.5216,-5.90033 -2.44518,-1.27574 -6.53817,-3.08305 -6.53817,-3.08305 0,0 7.05385,-3.97737 9.92435,-10.68822 3.13669,-7.33317 -0.64294,-18.226157 -9.06094,-22.44097 -16.82933,-8.426287 -37.58136,10.92358 -37.58136,10.92358 0,0 -5.92258,-6.355031 -12.30134,-7.072639 -6.37874,-0.717606 -11.02993,3.269102 -13.52826,4.225915 -2.49833,0.95681 -9.82791,3.262344 -16.02654,10.099664 -4.34246,4.7899 -1.701,16.63786 -1.701,16.63786 0,0 -5.23587,-0.61129 -9.72757,0.3721 -4.4917,0.98338 -8.31892,4.97009 -8.31892,4.97009 0,0 -4.0514,-3.5569 -12.06717,-3.13334 -6.53818,0.34548 -10.10108,3.67495 -10.10108,3.67495 z"
       id="path3192"
       sodipodi:nodetypes="csscscscscscscscscscscscscscssscscscscscscscscsscssscscsc" />
    <g
       id="g3190">
      <path
         id="path3144"
         style="fill:#d22e08;fill-opacity:1;stroke:none;stroke-width:0.999999px;stroke-linecap:butt;stroke-linejoin:miter;stroke-opacity:1"
         d="m 2447.1855,519.37891 c -39.296,0.60348 -79.5136,39.84375 -79.5136,39.84375 0,0 -13.5159,16.20841 -4.5684,28.86718 8.9475,12.65874 26.0156,0.7168 26.0156,0.7168 l 19.959,-15.32226 c 0,0 20.6738,-17.57645 35.6914,-17.07422 15.0177,0.5023 15.4688,15.77148 15.4688,15.77148 v 19.73828 c 0,0 -24.9382,-9.67862 -57.0762,5.80274 -34.3476,16.54579 -64.8667,56.25488 -51.3594,87.78125 23.7503,55.43357 109.3516,16.50195 109.3516,16.50195 0,0 -4.0177,20.99532 23.3555,19.68945 27.3733,-1.30586 20.6797,-42.66601 20.6797,-42.66601 0,0 20.0894,-5.07329 18.6328,-20.54297 -1.4566,-15.46968 -18.8653,-18.25781 -18.8653,-18.25781 0,0 5.4291,-68.13154 -9.9941,-96.49024 -2.2959,-4.22147 -6.0265,-23.70642 -45.9063,-24.35937 -0.6231,-0.0102 -1.2473,-0.01 -1.8711,0 z m -10.2636,108.81054 c 0.8294,0.0138 1.6614,0.0567 2.498,0.12891 26.7707,2.31042 21.0957,33.95312 21.0957,33.95312 0,0 -22.8143,12.00308 -35.3086,12.80664 -10.6647,0.68591 -26.5196,6.83174 -31.291,-6.98046 -4.6223,-13.38062 17.2932,-40.33702 43.0059,-39.90821 z"
         transform="scale(0.26458334)" />
      <path
         style="fill:#d22e08;fill-opacity:1;stroke:none;stroke-width:0.264583px;stroke-linecap:butt;stroke-linejoin:miter;stroke-opacity:1"
         d="m 684.00061,150.61353 c 0,0 10.12444,-12.82966 19.18756,-13.08215 9.06312,-0.25249 7.0887,11.72056 7.8804,17.83388 0.5865,4.52876 1.75845,13.58641 1.75845,13.58641 0,0 3.54817,12.94351 -5.60795,13.82059 -9.15614,0.87707 -7.3887,-16.15946 -7.3887,-16.15946 l 0.10451,-13.22761 c 0,0 -0.25572,-3.34989 -1.05307,-4.08079 -0.79734,-0.7309 -2.08393,0.3908 -2.80075,1.09076 -2.64199,2.57982 -10.5515,12.50498 -10.5515,12.50498 0,0 0.63754,7.8398 1.03619,10.32485 0.39867,2.48505 2.08281,8.96856 -0.0399,11.61462 -1.94021,2.41859 -3.96014,3.22922 -6.67109,3.3754 -2.71097,0.14619 -4.33223,-2.15282 -4.61129,-3.24252 -0.27908,-1.0897 -0.89037,-7.60132 -1.14287,-9.42192 -0.25249,-1.8206 0.0956,-12.86665 -0.95429,-16.61416 -1.04984,-3.7475 -4.02827,-13.09522 -1.87376,-15.84052 3.00567,-3.82985 7.65596,-4.12267 10.40532,-1.43522 3.57063,3.49023 2.3227,8.95286 2.3227,8.95286 z"
         id="path3149"
         sodipodi:nodetypes="csscsccsscsssssssscc" />
      <path
         style="fill:#d22e08;fill-opacity:1;stroke:none;stroke-width:0.264583px;stroke-linecap:butt;stroke-linejoin:miter;stroke-opacity:1"
         d="m 728.52811,122.74431 c -0.45104,0.18794 -5.2756,3.67831 -9.21822,-0.29131 -2.74385,-2.76264 -1.0699,-7.05778 0.78934,-8.4007 2.71341,-1.95988 7.00061,-3.07274 9.32159,-4.39769 2.31856,-1.32356 5.16823,-3.25128 6.16428,-3.19489 0.99605,0.0564 4.64198,0.49803 4.04061,4.48226 -0.6014,3.98422 -11.0976,11.80233 -11.0976,11.80233 z"
         id="path3151"
         sodipodi:nodetypes="csssssc" />
      <path
         style="fill:#d22e08;fill-opacity:1;stroke:none;stroke-width:0.264583px;stroke-linecap:butt;stroke-linejoin:miter;stroke-opacity:1"
         d="m 723.43179,144.11686 c -0.0251,-3.00179 2.01911,-7.92161 7.44221,-7.47043 6.06078,0.50424 3.99408,8.9072 4.03123,11.63319 0.10538,7.73197 -0.42288,17.80686 0.32888,23.2194 0.75176,5.41254 3.22308,9.6129 -1.00546,12.86417 -4.22855,3.25128 -7.75513,0.59876 -9.61288,-1.85116 -2.30229,-3.03616 -1.07733,-25.64261 -1.18398,-38.39517 z"
         id="path3153"
         sodipodi:nodetypes="sssssss" />
      <path
         style="fill:#fc7b3a;fill-opacity:1;stroke:none;stroke-width:0.264583px;stroke-linecap:butt;stroke-linejoin:miter;stroke-opacity:1"
         d="m 784.53307,103.88297 c -0.5028,-6.062906 -6.022,-3.885005 -9.34037,-3.57077 -8.44075,0.7993 -11.23391,3.48071 -21.63135,13.38099 -9.03968,8.60744 -4.07134,16.7093 -2.72505,17.96661 3.293,3.07537 11.9058,7.24484 23.71741,12.59166 9.13366,4.13458 10.88717,10.46241 11.22177,13.27991 0.3183,2.68028 -2.2928,10.86266 -14.54619,14.97844 -13.96661,4.69123 -20.70158,3.60128 -21.72073,7.20757 -0.52942,1.87337 -0.0564,4.46675 3.77749,4.45406 11.3513,-0.0376 31.34759,-8.23156 36.10236,-13.02391 4.75475,-4.79235 9.07725,-7.44223 8.55105,-18.94387 -0.35175,-7.68863 -5.43843,-13.55369 -14.32777,-18.42121 -8.88934,-4.86752 -21.20274,-7.00827 -21.31187,-11.85871 -0.10495,-4.66454 11.42774,-10.76887 18.87582,-12.32855 3.22204,-0.67472 3.51718,-3.78589 3.35743,-5.71222 z"
         id="path3161"
         sodipodi:nodetypes="sssssssssssssss" />
      <path
         id="path3163"
         style="fill:#fc7b3a;fill-opacity:1;stroke:none;stroke-width:0.999999px;stroke-linecap:butt;stroke-linejoin:miter;stroke-opacity:1"
         d="m 3273.6836,476.89258 c -22.8931,0.29807 -50.6842,11.48876 -67.8223,25.94336 -13.5638,11.44006 -29.3255,31.88686 -17.4785,45.50586 15.0186,17.26495 38.9746,-7.4336 38.9746,-7.4336 0,0 33.3502,-29.43235 42.9434,-22.25 9.5932,7.18235 5.5762,22.15039 5.5762,22.15039 0,0 -27.726,-2.87843 -45.2032,6.98047 -17.6294,9.94477 -41.0604,25.29113 -49.3086,45.24024 -4.1555,10.05055 -5.6269,14.11328 -5.6269,14.11328 0,0 -1.3048,-3.26483 -9.4414,-2.66211 -8.1367,0.60272 -26.9735,22.41157 -47.6153,25.81641 -29.2316,4.82173 -28.2304,-9.81055 -28.2304,-9.81055 0,0 89.8512,-91.9694 48.375,-120.72461 -41.4047,-28.70559 -84.8321,33.15039 -84.8321,33.15039 0,0 -18.1534,16.6746 -18.957,72.77734 -0.8037,56.10271 13.0696,53.09535 34.5059,65.39453 13.2652,7.61103 48.9446,7.49438 71.5722,-5.27343 28.2461,-15.93801 35.9629,-24.91211 35.9629,-24.91211 0,0 11.2476,25.75019 50.625,26.65429 39.3774,0.90407 51.0293,-12.50586 51.0293,-12.50585 0,0 7.0316,17.62999 24.209,18.08203 17.1774,0.45203 25.1628,-10.54862 28.5781,-28.02735 3.4154,-17.47872 -0.1,-15.97265 -0.1,-15.97265 0,0 16.6245,-8.33734 15.8711,-22.25 -0.7534,-13.91267 -19.5879,-20.14063 -19.5879,-20.14063 0,0 6.3747,-85.36013 -31.084,-105.14648 -5.851,-3.09065 -12.9734,-4.5514 -20.7363,-4.69336 -0.7278,-0.0133 -1.4607,-0.0155 -2.1992,-0.006 z m -171.5234,62.79101 c 0.3488,-0.023 0.6612,0.0716 0.9296,0.30079 4.2943,3.66651 -19.7128,26.97265 -19.7128,26.97265 0,0 13.5507,-26.92856 18.7832,-27.27344 z m 160.2578,45.7461 c 0.6014,-0.0229 1.1935,-0.0216 1.7734,0.006 18.5586,0.87896 12.832,23.6582 12.832,23.6582 0,0 -38.6475,21.44566 -50.2246,11.22461 -11.2154,-9.90161 16.9738,-34.18003 35.6192,-34.88867 z"
         transform="scale(0.26458334)" />
      <path
         style="fill:#fc7b3a;fill-opacity:1;stroke:none;stroke-width:0.264583px;stroke-linecap:butt;stroke-linejoin:miter;stroke-opacity:1"
         d="m 894.86909,172.46284 c -1.33061,-1.71716 -2.79706,-13.11912 -3.85739,-19.36029 -1.06033,-6.24116 -2.54394,-18.06448 -2.54394,-18.06448 0,0 -2.49835,-8.87707 5.79401,-9.0897 8.29236,-0.21262 7.92024,9.83388 7.92024,9.83388 0,0 6.15282,-10.36544 12.99668,-10.0465 6.04204,0.28157 9.08968,10.52491 5.76744,13.9269 -3.32226,3.40199 -5.23868,0.65247 -8.97009,0.46512 -3.17609,-0.15947 -4.67773,6.27241 -5.18274,8.1063 -0.50499,1.83389 -1.41546,5.75056 -0.39221,11.54458 1.02327,5.79402 1.06315,9.94019 -1.58137,12.27906 -2.64453,2.33886 -7.9173,3.02915 -9.95063,0.40513 z"
         id="path3171"
         sodipodi:nodetypes="szcscsssssss" />
      <path
         style="fill:#fc7b3a;fill-opacity:1;stroke:none;stroke-width:0.264583px;stroke-linecap:butt;stroke-linejoin:miter;stroke-opacity:1"
         d="m 935.84675,151.74526 c -3.09635,-14.43189 10.71495,-20.07899 12.50493,-19.72093 1.617,0.32345 3.3929,1.2295 4.96032,1.10205 1.90431,-0.15483 3.45658,-1.62638 3.47823,-4.86283 0.0298,-4.45209 -4.86227,-8.81621 -9.87373,-8.42525 -5.62129,0.43853 -20.8728,6.21612 -23.94685,25.46177 -2.49831,15.64119 9.39305,23.589 13.87376,24.58471 15.78734,3.5083 27.34881,-7.28239 26.97673,-11.34884 -0.37211,-4.06644 -4.97937,-4.76879 -8.02657,-2.51162 -3.58806,2.65782 -12.01331,4.25248 -14.9236,2.29901 -4.17686,-2.80364 -5.02322,-6.57807 -5.02322,-6.57807 z"
         id="path3173"
         sodipodi:nodetypes="csssssssssc" />
      <path
         style="fill:#fc7b3a;fill-opacity:1;stroke:none;stroke-width:0.264583px;stroke-linecap:butt;stroke-linejoin:miter;stroke-opacity:1"
         d="m 987.74323,136.80516 -6.91029,9.196 c 0,0 2.80973,15.54637 1.6403,18.32378 -1.16944,2.77741 -2.85631,4.56879 -7.09634,4.89036 -4.73089,0.3588 -6.21925,-5.18273 -6.97673,-10.0598 -0.38552,-2.4822 -1.09612,-14.28843 -2.56827,-25.55822 -1.42036,-10.87331 -3.48012,-20.10257 -3.35613,-21.21844 0.25251,-2.27242 -0.22591,-11.22923 6.20598,-11.64119 6.43189,-0.41196 7.08306,5.75415 7.56148,11.37541 0.47839,5.62126 2.59133,19.18936 2.59133,19.18936 0,0 6.7641,-9.95349 12.63788,-9.34219 5.87375,0.61129 6.92324,5.35942 8.59756,15.65842 1.6745,10.299 1.4808,15.09651 3.1097,19.35565 1.4485,3.78738 -0.1063,9.54152 -5.76742,10.7774 -5.66113,1.23588 -7.68106,-5.3289 -8.25248,-11.17607 -0.57145,-5.84718 -1.41657,-19.77047 -1.41657,-19.77047 z"
         id="path3175"
         sodipodi:nodetypes="ccssssssscsssssc" />
    </g>
  </g>
</svg>
