<?xml version="1.0" encoding="UTF-8" standalone="no"?>
<svg
   xmlns:dc="http://purl.org/dc/elements/1.1/"
   xmlns:cc="http://creativecommons.org/ns#"
   xmlns:rdf="http://www.w3.org/1999/02/22-rdf-syntax-ns#"
   xmlns:svg="http://www.w3.org/2000/svg"
   xmlns="http://www.w3.org/2000/svg"
   xmlns:xlink="http://www.w3.org/1999/xlink"
   width="1920"
   height="1080"
   viewBox="0 0 507.99999 285.75001"
   version="1.1"
   id="svg8">
  <defs
     id="defs2">
    <linearGradient
       id="linearGradient851">
      <stop
         style="stop-color:#20464c;stop-opacity:1"
         offset="0"
         id="stop847" />
      <stop
         style="stop-color:#0d253f;stop-opacity:0.999722"
         offset="1"
         id="stop849" />
    </linearGradient>
    <radialGradient
       xlink:href="#linearGradient851"
       id="radialGradient853"
       cx="125.25463"
       cy="16.734682"
       fx="125.25463"
       fy="16.734682"
       r="254"
       gradientTransform="matrix(0,1.0647542,-1.7495183,0,154.53226,-61.444333)"
       gradientUnits="userSpaceOnUse" />
    <style
       id="style914">.cls-1{fill:url(#linear-gradient);}</style>
    <linearGradient
       id="linear-gradient"
       y1="40.76"
       x2="190.24"
       y2="40.76"
       gradientUnits="userSpaceOnUse"
       gradientTransform="matrix(1.6689444,0,0,1.6689444,95.249998,74.882274)">
      <stop
         offset="0"
         stop-color="#90cea1"
         id="stop916" />
      <stop
         offset="0.56"
         stop-color="#3cbec9"
         id="stop918" />
      <stop
         offset="1"
         stop-color="#00b3e5"
         id="stop920" />
    </linearGradient>
  </defs>
  <metadata
     id="metadata5">
    <rdf:RDF>
      <cc:Work
         rdf:about="">
        <dc:format>image/svg+xml</dc:format>
        <dc:type
           rdf:resource="http://purl.org/dc/dcmitype/StillImage" />
        <dc:title></dc:title>
      </cc:Work>
    </rdf:RDF>
  </metadata>
  <g
     id="layer1">
    <rect
       style="opacity:0.98;fill:url(#radialGradient853);stroke-width:2.64583;fill-opacity:1"
       id="rect845"
       width="508"
       height="285.75"
       x="0"
       y="2.1874998e-06" />
    <path
       class="cls-1"
       d="M 271.60737,135.0644 H 383.25975 A 29.490249,29.490249 0 0 0 412.75,105.59084 v 0 A 29.490249,29.490249 0 0 0 383.25975,76.100589 H 271.60737 a 29.490249,29.490249 0 0 0 -29.49026,29.490251 v 0 a 29.490249,29.490249 0 0 0 29.49026,29.47356 z m -146.86712,75.10251 h 128.34183 a 29.490249,29.490249 0 0 0 29.49026,-29.47355 v 0 A 29.490249,29.490249 0 0 0 253.08208,151.20309 H 124.74025 a 29.490249,29.490249 0 0 0 -29.490249,29.49027 v 0 a 29.490249,29.490249 0 0 0 29.490249,29.47355 z m -12.11653,-76.1706 h 13.01776 V 86.431344 h 16.85634 V 74.882289 H 95.767375 v 11.51568 h 16.856345 z m 46.89734,0 h 13.01776 V 88.651059 h 0.16691 l 15.0205,45.311871 h 10.01367 l 15.52117,-45.311871 h 0.16691 v 45.311871 h 13.01778 V 74.882289 H 206.66874 L 192.9834,113.43487 h -0.1669 L 179.2146,74.882289 h -19.69354 z m 190.12615,33.79609 a 25.150994,25.150994 0 0 0 -7.54362,-9.21256 30.9923,30.9923 0 0 0 -11.14856,-5.14031 55.976398,55.976398 0 0 0 -13.46837,-1.66898 H 297.96 v 59.08063 h 21.27904 a 41.022656,41.022656 0 0 0 12.60053,-1.91928 32.277386,32.277386 0 0 0 10.5978,-5.54093 27.153726,27.153726 0 0 0 7.2933,-9.17913 28.221851,28.221851 0 0 0 2.72037,-12.65065 30.875474,30.875474 0 0 0 -2.80383,-13.76879 z m -12.40026,21.57945 a 14.686711,14.686711 0 0 1 -4.40601,5.67444 17.857706,17.857706 0 0 1 -6.67578,3.03747 35.999132,35.999132 0 0 1 -8.34473,0.91793 h -6.7592 v -35.04785 h 7.67713 a 28.372056,28.372056 0 0 1 7.79397,1.05146 19.459893,19.459893 0 0 1 6.47551,3.12091 15.254152,15.254152 0 0 1 4.23911,5.22377 16.472482,16.472482 0 0 1 1.66896,7.54365 19.843749,19.843749 0 0 1 -1.66896,8.47822 z m 74.48497,-0.21699 a 13.351556,13.351556 0 0 0 -2.63692,-4.37258 13.985754,13.985754 0 0 0 -4.03882,-3.08756 17.206818,17.206818 0 0 0 -5.29056,-1.66892 v -0.16716 a 15.387667,15.387667 0 0 0 7.37674,-4.70646 12.400258,12.400258 0 0 0 2.80382,-8.34467 14.052513,14.052513 0 0 0 -1.91928,-7.76064 13.501761,13.501761 0 0 0 -5.00683,-4.53948 20.961942,20.961942 0 0 0 -6.9762,-2.16965 54.808138,54.808138 0 0 0 -7.71052,-0.55066 h -22.03007 v 59.08063 h 24.19968 a 37.401046,37.401046 0 0 0 7.87743,-0.83447 22.580819,22.580819 0 0 0 7.14307,-2.7538 15.721456,15.721456 0 0 0 5.17373,-5.00684 14.219406,14.219406 0 0 0 2.00273,-7.81066 15.671388,15.671388 0 0 0 -0.91791,-5.30721 z m -32.41087,-26.28583 h 8.84541 a 16.689444,16.689444 0 0 1 3.08754,0.30025 10.314077,10.314077 0 0 1 2.8372,0.95129 5.6577218,5.6577218 0 0 1 2.03612,1.88591 5.3740011,5.3740011 0 0 1 0.80109,3.03746 6.0582684,6.0582684 0 0 1 -0.71765,3.0041 5.6744112,5.6744112 0 0 1 -1.86922,2.00274 8.2112072,8.2112072 0 0 1 -2.63692,1.08482 12.533773,12.533773 0 0 1 -2.95403,0.33368 h -9.42954 z m 19.56002,33.37885 a 6.5088835,6.5088835 0 0 1 -2.03611,2.16964 7.743903,7.743903 0 0 1 -2.80382,1.16827 13.651966,13.651966 0 0 1 -3.03749,0.33367 h -11.6826 v -13.35157 h 9.84677 a 25.618298,25.618298 0 0 1 3.33789,0.25043 14.135959,14.135959 0 0 1 3.42133,0.91798 6.6757776,6.6757776 0 0 1 2.62027,1.96929 5.1904174,5.1904174 0 0 1 1.0514,3.33792 6.191784,6.191784 0 0 1 -0.71764,3.20437 z"
       id="path927"
       style="fill:url(#linear-gradient);stroke-width:1.66894" />
  </g>
</svg>
