<?xml version="1.0" encoding="UTF-8" standalone="no"?>
<svg
   xmlns:dc="http://purl.org/dc/elements/1.1/"
   xmlns:cc="http://creativecommons.org/ns#"
   xmlns:rdf="http://www.w3.org/1999/02/22-rdf-syntax-ns#"
   xmlns:svg="http://www.w3.org/2000/svg"
   xmlns="http://www.w3.org/2000/svg"
   xmlns:xlink="http://www.w3.org/1999/xlink"
   xmlns:sodipodi="http://sodipodi.sourceforge.net/DTD/sodipodi-0.dtd"
   xmlns:inkscape="http://www.inkscape.org/namespaces/inkscape"
   width="1920"
   height="1080"
   viewBox="0 0 507.99999 285.75001"
   version="1.1"
   id="svg8"
   sodipodi:docname="jellyfin-plugin-anidb.svg"
   inkscape:version="1.0.1 (3bc2e813f5, 2020-09-07, custom)"
   inkscape:export-filename="/home/mrtimscampi/Documents/jellyfin-ux/plugins/repository/jellyfin-plugin-tvheadend.png"
   inkscape:export-xdpi="96"
   inkscape:export-ydpi="96">
  <sodipodi:namedview
     pagecolor="#5b5b5b"
     bordercolor="#666666"
     borderopacity="1"
     objecttolerance="10"
     gridtolerance="10"
     guidetolerance="10"
     inkscape:pageopacity="0"
     inkscape:pageshadow="2"
     inkscape:window-width="1920"
     inkscape:window-height="1020"
     id="namedview2208"
     showgrid="false"
     showborder="false"
     inkscape:lockguides="true"
     inkscape:zoom="0.47877022"
     inkscape:cx="1111.0751"
     inkscape:cy="661.03483"
     inkscape:window-x="1920"
     inkscape:window-y="32"
     inkscape:window-maximized="1"
     inkscape:current-layer="svg8"
     showguides="true"
     inkscape:guide-bbox="true">
    <sodipodi:guide
       position="0,285.75"
       orientation="0,1920"
       id="guide2771"
       inkscape:locked="true" />
    <sodipodi:guide
       position="508,285.75"
       orientation="1080,0"
       id="guide2773"
       inkscape:locked="true" />
    <sodipodi:guide
       position="508,0"
       orientation="0,-1920"
       id="guide2775"
       inkscape:locked="true" />
    <sodipodi:guide
       position="0,0"
       orientation="-1080,0"
       id="guide2777"
       inkscape:locked="true" />
    <sodipodi:guide
       position="295.51923,-61.448464"
       orientation="1,0"
       id="guide2875" />
    <sodipodi:guide
       position="336.14694,-112.1435"
       orientation="1,0"
       id="guide2877" />
    <sodipodi:guide
       position="325.16884,-71.168849"
       orientation="0,-1"
       id="guide2884" />
    <sodipodi:guide
       position="316.1323,-60.569233"
       orientation="1,0"
       id="guide2886" />
    <sodipodi:guide
       position="356.82115,-41.714617"
       orientation="1,0"
       id="guide2888" />
    <sodipodi:guide
       position="366.05307,-31.750002"
       orientation="1,0"
       id="guide2890" />
    <sodipodi:guide
       position="324.92461,-64.03731"
       orientation="1,0"
       id="guide2892" />
    <sodipodi:guide
       position="285.3649,-112.5589"
       orientation="1,0"
       id="guide2906" />
    <sodipodi:guide
       position="275.69386,-110.2793"
       orientation="1,0"
       id="guide2908" />
    <sodipodi:guide
       position="279.76951,-83.062214"
       orientation="0,-1"
       id="guide2910" />
    <sodipodi:guide
       position="289.92411,-90.729972"
       orientation="0,-1"
       id="guide2912" />
    <sodipodi:guide
       position="289.37148,-118.56877"
       orientation="0,-1"
       id="guide2914" />
    <sodipodi:guide
       position="288.12806,-126.51284"
       orientation="0,-1"
       id="guide2916" />
    <sodipodi:guide
       position="326.67408,-93.424049"
       orientation="1,0"
       id="guide2918" />
    <sodipodi:guide
       position="365.35826,-93.769443"
       orientation="1,0"
       id="guide2920" />
    <sodipodi:guide
       position="359.1757,-104.78753"
       orientation="1,0"
       id="guide2922" />
    <sodipodi:guide
       position="360.55728,-104.78753"
       orientation="0,-1"
       id="guide2924" />
    <sodipodi:guide
       position="338.59019,-100.60825"
       orientation="0,-1"
       id="guide2926" />
    <sodipodi:guide
       position="338.72835,-108.62141"
       orientation="0,-1"
       id="guide2928" />
  </sodipodi:namedview>
  <defs
     id="defs2">
    <rect
       x="50.759791"
       y="387.58649"
       width="2.7020626"
       height="357.88762"
       id="rect1018" />
    <linearGradient
       id="linearGradient851">
      <stop
         style="stop-color:#33405e;stop-opacity:1"
         offset="0"
         id="stop847" />
      <stop
         style="stop-color:#292f45;stop-opacity:1"
         offset="1"
         id="stop849" />
    </linearGradient>
    <radialGradient
       xlink:href="#linearGradient851"
       id="radialGradient853"
       cx="125.25463"
       cy="16.734682"
       fx="125.25463"
       fy="16.734682"
       r="254"
       gradientTransform="matrix(0,1.0647542,-1.7495183,0,154.53226,-61.444333)"
       gradientUnits="userSpaceOnUse" />
    <style
       id="style914">.cls-1{fill:url(#linear-gradient);}</style>
  </defs>
  <metadata
     id="metadata5">
    <rdf:RDF>
      <cc:Work
         rdf:about="">
        <dc:format>image/svg+xml</dc:format>
        <dc:type
           rdf:resource="http://purl.org/dc/dcmitype/StillImage" />
        <dc:title></dc:title>
      </cc:Work>
    </rdf:RDF>
  </metadata>
  <g
     id="layer1">
    <rect
       style="opacity:0.98;fill:url(#radialGradient853);stroke-width:2.64583;fill-opacity:1"
       id="rect845"
       width="508"
       height="285.75"
       x="0"
       y="2.1874998e-06" />
    <text
       xml:space="preserve"
       id="text1016"
       style="font-family:'Noto Sans';font-size:10.58333341px;line-height:1.25;letter-spacing:0px;word-spacing:0px;-inkscape-font-specification:'Noto Sans';white-space:pre;shape-inside:url(#rect1018);" />
  </g>
  <g
     id="g2968"
     transform="matrix(1.6295454,0,0,1.6295454,-561.4414,-403.17596)">
    <g
       id="g2904"
       transform="translate(131.2956)">
      <path
         id="path2879"
         style="fill:#ffffff;fill-opacity:1;stroke:none;stroke-width:0.999999px;stroke-linecap:butt;stroke-linejoin:miter;stroke-opacity:1"
         d="m 1108.834,1226.7715 -73.7266,0.1816 v 25.9258 h 55.3867 c 0,0 15.4891,0.6742 20.959,5.7871 5.4699,5.1129 5.4707,16 5.4707,16 H 1070.25 c 0,0 -43.2232,-2.4237 -43.3711,37.4649 -0.1478,39.8885 43.3711,36.5586 43.3711,36.5586 h 80.998 v -79.504 c 0,0 -0.6367,-18.7224 -11.5585,-29.541 -10.9219,-10.8185 -30.8555,-12.873 -30.8555,-12.873 z m -33.4141,73.0234 c 0.3749,0 0.5899,0.021 0.5899,0.021 l 40.914,0.2774 v 23.6816 h -40.914 c 0,0 -14.0261,1.2425 -13.8633,-11.9024 0.1425,-11.5017 10.649,-12.1068 13.2734,-12.0781 z"
         transform="scale(0.26458334)" />
      <path
         style="fill:#ffffff;fill-opacity:1;stroke:none;stroke-width:0.264583px;stroke-linecap:butt;stroke-linejoin:miter;stroke-opacity:1"
         d="m 316.1323,356.91885 v -32.47083 h 17.27864 c 0,0 6.5671,0.16432 9.66533,3.42613 3.09822,3.26181 2.8197,9.0589 2.8197,9.0589 v 19.9858 h -9.08305 V 336.9264 c 0,0 -0.0469,-3.00959 -1.00404,-3.94756 -0.95712,-0.93797 -3.80658,-0.86306 -3.80658,-0.86306 h -7.07769 v 24.80307 z"
         id="path2894"
         sodipodi:nodetypes="ccczcccczcccc" />
      <path
         style="fill:#ffffff;fill-opacity:1;stroke:none;stroke-width:0.264583px;stroke-linecap:butt;stroke-linejoin:miter;stroke-opacity:1"
         d="m 356.82117,356.91885 h 9.23192 v -32.20649 h -9.23192 z"
         id="path2896" />
      <path
         style="fill:#ffffff;fill-opacity:1;stroke:none;stroke-width:0.264583px;stroke-linecap:butt;stroke-linejoin:miter;stroke-opacity:1"
         d="m 356.82117,321.42727 h 9.23192 v -8.24584 h -9.23192 z"
         id="path2898" />
    </g>
    <g
       id="g2958"
       transform="translate(232.30622,-55.34385)">
      <path
         id="path2930"
         style="fill:#f8a359;fill-opacity:1;stroke:none;stroke-width:0.999999px;stroke-linecap:butt;stroke-linejoin:miter;stroke-opacity:1"
         d="m 1124.1855,1393.6055 c -4.4954,-0.027 -7.2617,0.33 -7.2617,0.33 h -74.9316 v 164.2227 h 74.9316 c 0,0 78.6875,10.1722 78.6875,-82.1113 0,-74.9804 -51.9456,-82.3236 -71.4258,-82.4414 z m -1.1308,28.9648 c 11.0311,0.363 33.0702,6.0203 32.8828,45.4766 -0.026,5.5763 0.4128,11.0811 0.5215,15.7558 1.0547,45.3787 -39.5352,44.3321 -39.5352,44.3321 h -38.3789 V 1422.916 c 15.5279,-0.1709 31.5788,-0.7017 44.5098,-0.3457 z"
         transform="scale(0.26458334)"
         sodipodi:nodetypes="sccccssccscccc" />
      <path
         id="path2935"
         style="fill:#f8a359;fill-opacity:1;stroke:none;stroke-width:0.999999px;stroke-linecap:butt;stroke-linejoin:miter;stroke-opacity:1"
         d="m 1234.6738,1393.9355 v 164.2227 h 101.6504 c 0,0 45.1836,-2.4102 45.1836,-39.7402 0,-37.3301 -23.9941,-42.3711 -23.9941,-42.3711 0,0 23.3672,-6.3331 23.3672,-43.0039 0,-36.6708 -44.5567,-39.1075 -44.5567,-39.1075 z m 35.8028,28.7207 h 59.1504 c 0,2e-4 13.4238,3.0077 13.4238,18.7735 0,15.7658 -13.4238,18.8223 -13.4238,18.8223 h -59.1504 z m 0,67.8809 h 59.1504 c 0,0 13.4238,3.0096 13.4238,18.7754 0,15.7658 -13.4238,18.8223 -13.4238,18.8223 h -59.1504 z"
         transform="scale(0.26458334)"
         sodipodi:nodetypes="cccscsccccscccccsccc" />
    </g>
  </g>
</svg>
