<svg xmlns="http://www.w3.org/2000/svg" xmlns:xlink="http://www.w3.org/1999/xlink" width="1920" height="1080" viewBox="0 0 508 285.75">
    <defs>
        <radialGradient xlink:href="#a" id="b" cx="125.255" cy="16.735" fx="125.255" fy="16.735" r="254" gradientTransform="matrix(0 1.06475 -1.74952 0 154.532 -61.444)" gradientUnits="userSpaceOnUse"/>
        <linearGradient id="a">
            <stop style="stop-color:#505050;stop-opacity:1" offset="0"/>
            <stop style="stop-color:#3c3c3c;stop-opacity:1" offset="1"/>
        </linearGradient>
        <style/>
    </defs>
    <path style="opacity:.98;fill:url(#b);stroke-width:2.64583;fill-opacity:1" d="M0 0h508v285.75H0z"/>
    <path d="M113.5 85.04c-31.18 0-56.691 25.512-56.691 56.691 0 31.182 25.512 56.693 56.691 56.693 31.182 0 56.693-25.512 56.693-56.693 0-31.179-25.511-56.691-56.693-56.691zm43.99 73.189c-.613 7.221-6.633 13.535-12.809 13.887a610.134 610.134 0 0 1-62.361 0c-6.176-.352-12.195-6.666-12.809-13.887a207.706 207.706 0 0 1 0-32.996c.613-7.221 6.633-13.535 12.809-13.885a609.562 609.562 0 0 1 62.361 0c6.176.352 12.195 6.664 12.809 13.885.875 11 .875 21.998 0 32.996z" style="fill:#fefefe;fill-opacity:1;stroke-width:0;stroke-miterlimit:4;stroke-dasharray:none" transform="translate(55.46 43.606) scale(.7004)"/>
    <path d="M146.099 153.524H80.902c-.78 0-1.418.639-1.418 1.418v1.418c0 .779.638 1.416 1.418 1.416h65.196a1.42 1.42 0 0 0 1.417-1.416v-1.418a1.421 1.421 0 0 0-1.416-1.418zm-11.337 8.504H92.241c-.78 0-1.418.639-1.418 1.418v1.418c0 .779.638 1.416 1.418 1.416h42.521a1.42 1.42 0 0 0 1.417-1.416v-1.418c0-.779-.638-1.418-1.417-1.418zm72.965-38.181c-8.16 0-13.825 6.289-13.825 17.186 0 11.041 5.617 16.994 13.825 16.994 8.257 0 13.825-6.145 13.825-17.043 0-11.137-5.616-17.137-13.825-17.137zm0 30.722c-5.568 0-9.408-3.936-9.408-13.537 0-9.697 3.744-13.729 9.408-13.729 5.809 0 9.409 4.031 9.409 13.68 0 9.651-3.649 13.586-9.409 13.586zm32.591-22.945c-2.977 0-5.665 1.488-7.489 4.08l-.336-3.504h-3.456v35.379l4.032-.48V155.05c1.584 1.967 3.889 2.977 6.721 2.977 6.48 0 9.841-5.521 9.841-13.25 0-8.018-2.689-13.153-9.313-13.153zm-1.44 23.09c-2.448 0-4.464-1.201-5.809-3.217v-12.625c1.393-2.113 3.505-4.033 6.289-4.033 3.936 0 5.952 3.217 5.952 9.938.001 6.769-2.255 9.937-6.432 9.937zm27.023-23.09c-6.433 0-10.369 5.52-10.369 13.439 0 8.018 4.081 12.963 11.041 12.963 3.457 0 6.24-1.201 8.689-3.17l-1.777-2.398c-2.207 1.535-4.08 2.256-6.624 2.256-3.84 0-6.624-2.4-7.057-8.498h16.273c.048-.527.097-1.344.097-2.207.001-7.633-3.504-12.385-10.273-12.385zm6.289 11.617h-12.386c.336-5.906 2.688-8.402 6.192-8.402 4.177 0 6.193 2.93 6.193 8.018v.384zm23.184-11.617c-3.408 0-6.049 1.775-7.922 4.367l-.336-3.791h-3.455v25.25h4.031v-18.002c1.729-2.785 3.744-4.656 6.721-4.656 2.593 0 4.177 1.248 4.177 5.137v17.521h4.032v-18.098c0-4.8-2.641-7.728-7.248-7.728zm38.83 6.721c-5.953-1.824-7.345-3.217-7.345-6.145 0-3.217 2.641-4.896 6.145-4.896 2.784 0 5.089.863 7.489 2.975l2.352-2.639c-2.688-2.449-5.521-3.793-10.033-3.793-6 0-10.225 3.553-10.225 8.496 0 5.041 3.217 7.488 9.697 9.457 5.664 1.729 7.297 3.217 7.297 6.625 0 4.08-3.265 6.145-7.297 6.145-3.648 0-6.337-1.297-8.593-3.457l-2.448 2.689c2.736 2.639 6.385 4.225 11.089 4.225 7.249 0 11.569-3.984 11.569-9.746 0-6.192-4.273-8.305-9.697-9.936zm31.008 11.951c-1.584 2.641-3.695 4.514-6.576 4.514s-4.129-1.344-4.129-4.945V132.2h-4.031v18.096c0 4.945 2.592 7.73 7.057 7.73 3.648 0 6.048-1.586 7.92-4.658l.336 4.082h3.457V132.2h-4.033v18.096zm24.672-18.672c-3.12 0-5.521 1.439-7.248 3.791v-13.873l-4.033.48v35.428h3.504l.433-2.832c1.729 2.063 3.937 3.408 6.817 3.408 6.145 0 9.84-5.281 9.84-13.25-.001-8.4-3.6-13.152-9.313-13.152zm-1.44 23.186c-2.4 0-4.465-1.441-5.809-3.504v-12.434c1.344-2.113 3.264-4.033 6.145-4.033 3.695 0 6.096 2.689 6.096 9.938 0 7.007-2.592 10.033-6.432 10.033zm25.918-.145c-2.256 0-3.168-1.248-3.168-3.889v-15.457h5.664l.433-3.119h-6.097v-6.242l-4.032.434v5.809h-4.368v3.119h4.368v15.65c0 4.607 2.496 7.057 6.673 7.057 2.111 0 3.936-.576 5.568-1.682l-1.536-2.783c-1.249.767-2.304 1.103-3.505 1.103zm11.663-34.371c-1.68 0-2.832 1.201-2.832 2.785s1.152 2.783 2.832 2.783c1.729 0 2.881-1.199 2.881-2.783 0-1.584-1.152-2.785-2.881-2.785zm-1.967 11.906h4.032v25.25h-4.032zm20.784 22.465c-2.256 0-3.168-1.248-3.168-3.889v-15.457h5.665l.432-3.119h-6.097v-6.242l-4.032.434v5.809h-4.368v3.119h4.368v15.65c0 4.607 2.496 7.057 6.673 7.057 2.112 0 3.936-.576 5.568-1.682l-1.536-2.783c-1.248.767-2.305 1.103-3.505 1.103zm15.167 0c-1.248 0-1.68-.721-1.68-2.111v-31.012l-4.032.48V152.6c0 3.602 1.775 5.426 4.848 5.426a8.22 8.22 0 0 0 3.553-.816l-1.057-2.832c-.48.191-1.008.287-1.632.287zm16.512-23.041c-6.433 0-10.369 5.52-10.369 13.439 0 8.018 4.08 12.963 11.041 12.963 3.456 0 6.24-1.201 8.688-3.17l-1.775-2.398c-2.209 1.535-4.081 2.256-6.625 2.256-3.84 0-6.624-2.4-7.057-8.498h16.273c.048-.527.096-1.344.096-2.207 0-7.633-3.504-12.385-10.272-12.385zm6.288 11.617h-12.385c.336-5.906 2.688-8.402 6.192-8.402 4.177 0 6.192 2.93 6.192 8.018v.384zm19.007-.625c-4.177-1.104-5.616-2.064-5.616-4.225 0-2.161 1.92-3.553 4.896-3.553 2.399 0 4.32.721 6.528 2.354l1.776-2.689c-2.4-1.824-4.993-2.879-8.449-2.879-5.137 0-8.929 2.879-8.929 6.816 0 3.6 2.16 5.855 7.585 7.297 4.992 1.344 6.288 2.303 6.288 5.088 0 2.352-2.256 3.936-5.616 3.936-2.832 0-5.137-.959-7.104-2.592l-2.257 2.545c2.209 1.92 5.185 3.313 9.457 3.313 5.089 0 9.745-2.449 9.745-7.586.001-4.417-2.975-6.432-8.304-7.825z" style="fill:#fff;fill-opacity:1;stroke-width:0;stroke-miterlimit:4;stroke-dasharray:none" transform="translate(55.46 43.606) scale(.7004)"/>
</svg>
