<?xml version="1.0" encoding="UTF-8" standalone="no"?>
<svg
   xmlns:dc="http://purl.org/dc/elements/1.1/"
   xmlns:cc="http://creativecommons.org/ns#"
   xmlns:rdf="http://www.w3.org/1999/02/22-rdf-syntax-ns#"
   xmlns:svg="http://www.w3.org/2000/svg"
   xmlns="http://www.w3.org/2000/svg"
   xmlns:xlink="http://www.w3.org/1999/xlink"
   xmlns:sodipodi="http://sodipodi.sourceforge.net/DTD/sodipodi-0.dtd"
   xmlns:inkscape="http://www.inkscape.org/namespaces/inkscape"
   width="1920"
   height="1080"
   viewBox="0 0 507.99999 285.75001"
   version="1.1"
   id="svg8"
   sodipodi:docname="jellyfin-plugin-tvmazesvg.svg"
   inkscape:version="1.0.1 (3bc2e813f5, 2020-09-07, custom)"
   inkscape:export-filename="/home/mrtimscampi/Documents/jellyfin-ux/plugins/repository/jellyfin-plugin-reports.png"
   inkscape:export-xdpi="96"
   inkscape:export-ydpi="96">
  <sodipodi:namedview
     pagecolor="#606060"
     bordercolor="#666666"
     borderopacity="1"
     objecttolerance="10"
     gridtolerance="10"
     guidetolerance="10"
     inkscape:pageopacity="0"
     inkscape:pageshadow="2"
     inkscape:window-width="1920"
     inkscape:window-height="1020"
     id="namedview3388"
     showgrid="false"
     showborder="false"
     inkscape:lockguides="true"
     inkscape:zoom="0.47877022"
     inkscape:cx="1385.5655"
     inkscape:cy="888.18793"
     inkscape:window-x="1920"
     inkscape:window-y="32"
     inkscape:window-maximized="1"
     inkscape:current-layer="layer1"
     showguides="true"
     inkscape:guide-bbox="true">
    <sodipodi:guide
       position="0,285.75"
       orientation="0,1920"
       id="guide3951"
       inkscape:locked="true" />
    <sodipodi:guide
       position="508,285.75"
       orientation="1080,0"
       id="guide3953"
       inkscape:locked="true" />
    <sodipodi:guide
       position="508,0"
       orientation="0,-1920"
       id="guide3955"
       inkscape:locked="true" />
    <sodipodi:guide
       position="0,0"
       orientation="-1080,0"
       id="guide3957"
       inkscape:locked="true" />
    <sodipodi:guide
       position="580.09691,204.07924"
       orientation="0,-1"
       id="guide4187" />
    <sodipodi:guide
       position="566.98488,99.229076"
       orientation="0,-1"
       id="guide4189" />
    <sodipodi:guide
       position="567.26259,99.426349"
       orientation="1,0"
       id="guide4191" />
    <sodipodi:guide
       position="898.97681,98.644811"
       orientation="1,0"
       id="guide4193" />
    <sodipodi:guide
       position="782.14575,105.17778"
       orientation="1,0"
       id="guide4195" />
    <sodipodi:guide
       position="805.94343,107.45738"
       orientation="1,0"
       id="guide4197" />
    <sodipodi:guide
       position="817.38669,165.83717"
       orientation="1,0"
       id="guide4199" />
    <sodipodi:guide
       position="891.12479,110.61212"
       orientation="1,0"
       id="guide4201" />
    <sodipodi:guide
       position="890.16765,107.11872"
       orientation="0,-1"
       id="guide4203" />
    <sodipodi:guide
       position="881.72298,193.66784"
       orientation="0,-1"
       id="guide4205" />
    <sodipodi:guide
       position="762.8382,182.58068"
       orientation="0,-1"
       id="guide4207" />
    <sodipodi:guide
       position="757.41551,185.79285"
       orientation="1,0"
       id="guide4209" />
    <sodipodi:guide
       position="767.05019,174.43033"
       orientation="1,0"
       id="guide4211" />
    <sodipodi:guide
       position="791.32006,141.53714"
       orientation="1,0"
       id="guide4213" />
    <sodipodi:guide
       position="575.13903,145.5127"
       orientation="1,0"
       id="guide4215" />
    <sodipodi:guide
       position="739.53076,109.70847"
       orientation="0,-1"
       id="guide4217" />
    <sodipodi:guide
       position="810.23556,118.94039"
       orientation="0,-1"
       id="guide4219" />
    <sodipodi:guide
       position="633.03897,176.60535"
       orientation="0,-1"
       id="guide4244" />
    <sodipodi:guide
       position="626.33831,168.5922"
       orientation="0,-1"
       id="guide4246" />
    <sodipodi:guide
       position="849.2559,158.23037"
       orientation="1,0"
       id="guide4248" />
    <sodipodi:guide
       position="853.95326,155.67445"
       orientation="0,-1"
       id="guide4250" />
    <sodipodi:guide
       position="857.95984,147.73038"
       orientation="0,-1"
       id="guide4252" />
    <sodipodi:guide
       position="855.473,134.67447"
       orientation="0,-1"
       id="guide4254" />
    <sodipodi:guide
       position="855.61116,126.59223"
       orientation="0,-1"
       id="guide4256" />
    <sodipodi:guide
       position="841.31183,140.47709"
       orientation="1,0"
       id="guide4258" />
    <sodipodi:guide
       position="829.63749,161.75339"
       orientation="1,0"
       id="guide4260" />
    <sodipodi:guide
       position="803.66383,146.48696"
       orientation="1,0"
       id="guide4262" />
    <sodipodi:guide
       position="737.62441,159.68103"
       orientation="0,-1"
       id="guide4264" />
    <sodipodi:guide
       position="751.02571,146.62511"
       orientation="0,-1"
       id="guide4266" />
    <sodipodi:guide
       position="750.7494,138.68104"
       orientation="0,-1"
       id="guide4268" />
    <sodipodi:guide
       position="716.48627,144.82906"
       orientation="0,-1"
       id="guide4270" />
    <sodipodi:guide
       position="691.54879,151.52972"
       orientation="1,0"
       id="guide4272" />
    <sodipodi:guide
       position="699.90733,152.2205"
       orientation="1,0"
       id="guide4274" />
    <sodipodi:guide
       position="712.61785,147.73038"
       orientation="1,0"
       id="guide4276" />
    <sodipodi:guide
       position="725.881,146.62511"
       orientation="1,0"
       id="guide4278" />
    <sodipodi:guide
       position="733.96323,147.73038"
       orientation="1,0"
       id="guide4280" />
    <sodipodi:guide
       position="657.00934,137.09223"
       orientation="1,0"
       id="guide4282" />
    <sodipodi:guide
       position="603.88767,156.77971"
       orientation="1,0"
       id="guide4284" />
    <sodipodi:guide
       position="611.9699,159.68103"
       orientation="1,0"
       id="guide4286" />
    <sodipodi:guide
       position="646.9929,141.30604"
       orientation="0,-1"
       id="guide4290" />
    <sodipodi:guide
       position="623.22976,172.56424"
       orientation="0,-1"
       id="guide4294" />
    <sodipodi:guide
       position="607.82517,125.33154"
       orientation="1,0"
       id="guide4296" />
    <sodipodi:guide
       position="695.65898,125.97052"
       orientation="1,0"
       id="guide4300" />
    <sodipodi:guide
       position="729.92211,124.41625"
       orientation="1,0"
       id="guide4302" />
    <sodipodi:guide
       position="762.07834,146.62511"
       orientation="1,0"
       id="guide4304" />
    <sodipodi:guide
       position="831.11729,130.46808"
       orientation="0,-1"
       id="guide4314" />
    <sodipodi:guide
       position="845.45656,163.20405"
       orientation="1,0"
       id="guide4316" />
    <sodipodi:guide
       position="868.73615,161.20076"
       orientation="1,0"
       id="guide4318" />
    <sodipodi:guide
       position="866.87102,144.82906"
       orientation="1,0"
       id="guide4320" />
    <sodipodi:guide
       position="873.29535,151.73695"
       orientation="0,-1"
       id="guide4322" />
    <sodipodi:guide
       position="871.91377,128.31921"
       orientation="1,0"
       id="guide4324" />
  </sodipodi:namedview>
  <defs
     id="defs2">
    <linearGradient
       id="linearGradient4374">
      <stop
         style="stop-color:#74c4b9;stop-opacity:1"
         offset="0"
         id="stop4370" />
      <stop
         style="stop-color:#269489;stop-opacity:1"
         offset="1"
         id="stop4372" />
    </linearGradient>
    <rect
       x="50.759791"
       y="387.58649"
       width="2.7020626"
       height="357.88762"
       id="rect1018" />
    <linearGradient
       id="linearGradient851">
      <stop
         style="stop-color:#4b4b4b;stop-opacity:1"
         offset="0"
         id="stop847" />
      <stop
         style="stop-color:#3f3f3f;stop-opacity:1"
         offset="1"
         id="stop849" />
    </linearGradient>
    <radialGradient
       xlink:href="#linearGradient851"
       id="radialGradient853"
       cx="125.25463"
       cy="16.734682"
       fx="125.25463"
       fy="16.734682"
       r="254"
       gradientTransform="matrix(0,1.0647542,-1.7495183,0,154.53226,-61.444333)"
       gradientUnits="userSpaceOnUse" />
    <style
       id="style914">.cls-1{fill:url(#linear-gradient);}</style>
    <linearGradient
       inkscape:collect="always"
       xlink:href="#linearGradient4374"
       id="linearGradient4368"
       x1="663.71094"
       y1="81.323738"
       x2="663.71094"
       y2="186.94334"
       gradientUnits="userSpaceOnUse" />
    <linearGradient
       inkscape:collect="always"
       xlink:href="#linearGradient4374"
       id="linearGradient4404"
       gradientUnits="userSpaceOnUse"
       x1="663.71094"
       y1="81.323738"
       x2="663.71094"
       y2="186.94334" />
    <filter
       inkscape:collect="always"
       style="color-interpolation-filters:sRGB"
       id="filter4406"
       x="-0.00078965114"
       width="1.0015793"
       y="-0.0024982221"
       height="1.0049964">
      <feGaussianBlur
         inkscape:collect="always"
         stdDeviation="0.10914101"
         id="feGaussianBlur4408" />
    </filter>
    <linearGradient
       inkscape:collect="always"
       xlink:href="#linearGradient4374"
       id="linearGradient4435"
       x1="1061.7827"
       y1="348.02707"
       x2="1061.7827"
       y2="730.36212"
       gradientUnits="userSpaceOnUse" />
  </defs>
  <metadata
     id="metadata5">
    <rdf:RDF>
      <cc:Work
         rdf:about="">
        <dc:format>image/svg+xml</dc:format>
        <dc:type
           rdf:resource="http://purl.org/dc/dcmitype/StillImage" />
        <dc:title></dc:title>
      </cc:Work>
    </rdf:RDF>
  </metadata>
  <g
     id="layer1">
    <rect
       style="opacity:0.98;fill:url(#radialGradient853);fill-opacity:1;stroke-width:2.64583"
       id="rect845"
       width="508"
       height="285.75"
       x="0"
       y="2.1874998e-06"
       inkscape:export-filename="/home/mrtimscampi/Documents/jellyfin-ux/plugins/repository/jellyfin-plugin-tvmaze.png"
       inkscape:export-xdpi="96"
       inkscape:export-ydpi="96" />
    <text
       xml:space="preserve"
       id="text1016"
       style="font-size:10.5833px;line-height:1.25;font-family:'Noto Sans';-inkscape-font-specification:'Noto Sans';letter-spacing:0px;word-spacing:0px;white-space:pre;shape-inside:url(#rect1018);" />
    <g
       id="g4344"
       transform="matrix(0.95714952,0,0,0.95714952,-447.70508,14.525126)"
       style="fill:url(#linearGradient4368);fill-opacity:1;filter:url(#filter4406)">
      <g
         id="g4402"
         style="fill:url(#linearGradient4404)">
        <path
           id="rect4221"
           style="opacity:0.98;fill:url(#linearGradient4435);fill-opacity:1;stroke-width:0"
           d="m 360,350.34961 v 379.30078 h 777.3555 V 691.74023 H 1085.627 1047.8906 388.49414 V 388.01172 h 659.39646 v 40.10937 h 37.7364 v -77.77148 z m 806.7012,0 v 37.66211 h 56.7441 308.1504 v 270.33203 42.76758 h -270.916 v -42.76758 h -37.2344 v 71.30664 H 1560 V 350.34961 Z m 198.4961,99.37109 c -2.2188,0.0539 -7.0495,0.57012 -10.1993,3.82227 -4.1997,4.3362 -3.6054,10.8125 -3.6054,10.8125 v 152.28711 c 0,0 -0.2719,6.91342 3.8926,10.5664 4.1644,3.65307 11.1015,3.45313 11.1015,3.45313 h 84.2168 c 0,0 11.4942,1.19739 11.4942,-14.01953 0,-15.21692 -11.4942,-15.2168 -11.4942,-15.2168 h -70.4726 v -47.23242 h 63.7246 c 0,0 6.748,-0.24995 6.748,-14.49414 0,-14.24419 -6.748,-14.24414 -6.748,-14.24414 h -63.7246 v -46.73047 h 70.4726 c 0,0 11.4327,0.24987 11.4942,-14.36914 0.061,-14.61901 -11.4942,-14.61914 -11.4942,-14.61914 h -84.2168 c 0,0 -0.4498,-0.0336 -1.1894,-0.0156 z m -917.94339,0.0156 c 0,0 -10.33399,1.3e-4 -10.33399,14.61914 0,14.61912 10.33399,14.36914 10.33399,14.36914 h 45.24023 v 142.3457 c 0,0 -0.74972,9.5918 14.24414,9.5918 14.99386,0 14.99414,-9.5918 14.99414,-9.5918 v -142.3457 h 42.39063 c 0,0 12.5288,-8e-5 13.25781,-14.50977 0.72901,-14.51102 -13.25781,-14.47851 -13.25781,-14.47851 z m 372.57226,0 c -10.30505,0 -10.21094,14.61914 -10.21094,14.61914 v 153.66601 c 0,0 -0.49957,12.51539 14.86915,12.64063 15.36871,0.12517 15.36718,-12.64063 15.36718,-12.64063 V 510.96094 c 0,0 25.31718,53.72851 45.98242,53.72851 20.66525,0 47.98047,-53.72851 47.98047,-53.72851 v 106.17578 c 0,0 1e-4,13.52539 14.61914,13.52539 14.61905,0 14.61914,-13.52539 14.61914,-13.52539 V 464.35547 c 0,0 -9.3e-4,-14.61914 -10.13281,-14.61914 -10.13188,0 -20.87304,14.61914 -20.87304,14.61914 l -46.2129,61.09961 -45.98242,-61.09961 c 0,0 -9.72037,-14.61914 -20.02539,-14.61914 z m 244.93553,0 c -14.0319,0 -16.8711,14.61914 -16.8711,14.61914 l -52.63083,142.21094 c 0,0 -6.82042,16.55805 5.89063,24.0957 12.7109,7.53764 23.4101,-12.4707 23.4101,-12.4707 l 11.7207,-31.25977 h 58.3731 l 12.4336,31.59961 c 0,0 4.5848,17.29606 20.6406,12.13086 16.0557,-5.16521 9.627,-23.47656 9.627,-23.47656 l -54.6094,-142.83008 c 0,0 -3.9526,-14.61913 -17.9844,-14.61914 z m 114.6719,0 c 0,0 -8.944,0.24999 -8.8887,14.61914 0.055,14.36914 8.8887,14.36914 8.8887,14.36914 h 85.4082 l -87.5156,122.70117 c 0,0 -8.8986,8.55544 -6.7813,18.89649 2.1174,10.34108 13.5801,10.33984 13.5801,10.33984 h 115.3066 c 0,0 9.4413,1.19739 9.7286,-14.01953 0.2872,-15.21692 -9.7286,-15.2168 -9.7286,-15.2168 h -84.2324 l 89.9434,-122.70117 c 0,0 8.2738,-9.23608 4.0176,-18.88672 -4.2563,-9.65063 -14.2168,-10.10156 -14.2168,-10.10156 z m -431.29688,2.08594 c -8.75833,-0.10475 -13.16992,8.67578 -13.16992,8.67578 l -50.30078,116.9375 -49.39454,-117.13477 c 0,0 -4.21151,-12.64635 -19.93554,-4.83203 -15.72404,7.81428 -5.9668,23.25586 -5.9668,23.25586 0,0 30.07813,78.3316 53.32031,122.50781 9.12244,17.33892 11.22637,29.42969 21.97657,29.42969 10.75019,0 12.88293,-11.96398 22.09179,-29.20117 23.57837,-44.13421 54.31641,-122.73633 54.31641,-122.73633 0,0 9.75961,-16.05947 -4.56055,-24.33594 -3.13253,-1.81047 -5.92462,-2.53707 -8.37695,-2.5664 z m 316.62498,59.13867 18.584,47.23242 h -36.291 z"
           transform="matrix(0.27642843,0,0,0.27642843,467.74832,-15.175399)" />
        <g
           id="g4334"
           style="fill:#74c4b9;fill-opacity:1;stroke:none" />
      </g>
    </g>
  </g>
</svg>
