<svg xmlns="http://www.w3.org/2000/svg" xmlns:xlink="http://www.w3.org/1999/xlink" width="1920" height="1080" viewBox="0 0 508 285.75">
    <defs>
        <radialGradient xlink:href="#a" id="b" cx="125.255" cy="16.735" fx="125.255" fy="16.735" r="254" gradientTransform="matrix(0 1.06475 -1.74952 0 154.532 -61.444)" gradientUnits="userSpaceOnUse"/>
        <linearGradient id="a">
            <stop style="stop-color:#282627;stop-opacity:1" offset="0"/>
            <stop style="stop-color:#1a1a1a;stop-opacity:1" offset="1"/>
        </linearGradient>
        <style/>
    </defs>
    <path style="opacity:.98;fill:url(#b);stroke-width:2.64583;fill-opacity:1" d="M0 0h508v285.75H0z"/>
    <g transform="translate(48.486 -188.526) scale(.87865)">
        <path style="opacity:.98;fill:#fff;fill-opacity:.999722;stroke-width:0;stroke-miterlimit:4;stroke-dasharray:none" d="M341.824 1286.094c-77.705.059-140.666 62.468-140.666 139.433 0 77.008 63.028 139.434 140.776 139.434 77.748 0 140.775-62.426 140.775-139.434 0-77.007-63.027-139.434-140.775-139.433zm-40.482 36.846 40.482 42.476h10.326l38.123-37.53 10.547 12.858-26.619 24.672s5.816-.521 22.21 1.404c16.392 1.926 24.425 4.211 24.425 4.211s10.931 18.076 10.096 60.686c-.836 42.61-10.096 57.894-10.096 57.894s-38.082 6.395-80.667 5.776c-42.584-.62-78.92-5.776-78.92-5.776s-7.5-20.012-6.606-61.603c.893-41.591 9.181-58.307 9.181-58.307s11.304-1.846 26.598-3.23c15.294-1.385 28.35-1.055 28.35-1.055l-30.338-31.678zm40.228 63.904c-25.965-.196-59.318 1.506-59.318 1.506s-6.405 10.275-6.525 40.584c-.121 30.308 6.224 40.783 6.224 40.783s22.553 4.82 58.313 4.82c35.759 0 61.879-4.82 61.879-4.82s5.35-7.235 6.328-37.365c.977-30.13-6.328-44.002-6.328-44.002s-34.608-1.31-60.573-1.506z" transform="scale(.26458)"/>
        <path style="fill:#fff;fill-opacity:.999722;stroke:none;stroke-width:.264583px;stroke-linecap:butt;stroke-linejoin:miter;stroke-opacity:1" d="M173.043 358.651h-24.345v37.936h9.07v-14.054h12.997v-7.035H157.8v-9.61h15.207z"/>
        <path style="fill:#fff;fill-opacity:.999722;stroke:none;stroke-width:.999999px;stroke-linecap:butt;stroke-linejoin:miter;stroke-opacity:1" d="m699.436 1355.647-56.663 144.01h34.518l15.855-31.778h51.79l13.87 31.777h31.489l-55.399-144.01zm19.503 32.138 19.52 58.115h-42.035z" transform="scale(.26458)"/>
        <path style="fill:#fff;fill-opacity:.999722;stroke:none;stroke-width:.264583px;stroke-linecap:butt;stroke-linejoin:miter;stroke-opacity:1" d="M211.49 358.681v38.103h8.445v-23.542l18.814 23.542h6.407v-38.103h-8.068v23.88l-18.945-23.88z"/>
        <path style="fill:#fff;fill-opacity:.999722;stroke:none;stroke-width:.999999px;stroke-linecap:butt;stroke-linejoin:miter;stroke-opacity:1" d="m997.242 1355.647-57.02 144.01h21.313l16.785-40.39h60.453l16.606 40.39h20.016l-57.913-144.01zm9.041 26.068h4.266l25.367 64.185h-53.207zm136.561-27.335-49.664 1.267v144.01h21.72v-57.544h21.649l43.213 57.543h20.385l-46.657-62.31s33.627-3.89 35.698-41.477c2.07-37.587-46.344-41.488-46.344-41.488zm-27.944 15.366h29.87s25.531 5.178 25.142 27.572c-.39 22.394-25.143 29.914-25.143 29.914H1114.9z" transform="scale(.26458)"/>
        <path style="fill:#fff;fill-opacity:.999722;stroke:none;stroke-width:.264583px;stroke-linecap:butt;stroke-linejoin:miter;stroke-opacity:1" d="M316.951 358.681v3.73h12.523v34.373h5.26v-34.372h12.403v-3.73z"/>
        <circle style="opacity:.98;fill:#fff;fill-opacity:.999722;stroke:none;stroke-width:0;stroke-miterlimit:4;stroke-dasharray:none" cx="352.46" cy="394.887" r="1.897"/>
        <path style="fill:#fff;fill-opacity:.999722;stroke:none;stroke-width:.264583px;stroke-linecap:butt;stroke-linejoin:miter;stroke-opacity:1" d="M353.065 359.776h30.757l14.383 33.617 14.27-33.617h2.098l-16.368 37.537-15.79-36.034h-14.371v35.505h-1.574v-35.505h-13.43z"/>
    </g>
</svg>
