<svg width="1920" height="1080" version="1.1" viewBox="0 0 508 285.75" xmlns="http://www.w3.org/2000/svg" xmlns:xlink="http://www.w3.org/1999/xlink"><defs><radialGradient id="b" cx="125.26" cy="16.735" r="254" gradientTransform="matrix(0 1.0648 -1.7495 0 154.53 -61.444)" gradientUnits="userSpaceOnUse"><stop stop-color="#2f2f2f" offset="0"/><stop stop-color="#111" offset="1"/></radialGradient><style/></defs><path d="M0 0h508v285.75H0z" fill="url(#b)" opacity=".98" stroke-width="2.6458"/><g transform="translate(-37.992 -2.1485)"><text transform="matrix(1.2397 0 0 1.2397 -63.983 16.555)" x="208.09" y="124.734" font-family="'Noto Sans'" font-size="49.798px" font-stretch="extra-condensed" font-style="italic" font-weight="300" letter-spacing="0" stroke-width=".26458" word-spacing="0" style="line-height:0.95" xml:space="preserve"><tspan x="208.09" y="124.734" fill="#ffffff" font-family="'Noto Sans'" font-size="49.798px" font-stretch="normal" font-style="normal" font-weight="800" stroke-width=".26458">Webhook</tspan></text><path d="m134.57 178.96c-6.9443 9.8455-20.5 12.319-30.298 5.4697-9.7504-6.849-12.033-20.5-5.1844-30.44 4.138-5.9453 10.511-9.132 17.027-9.4174l0.23729 6.8015c-4.3282 0.33292-8.5136 2.5684-11.225 6.4685-4.7562 6.849-3.2818 16.076 3.2343 20.69 6.5638 4.566 15.743 2.8062 20.5-3.9953 1.4741-2.1403 2.3305-4.4709 2.6634-6.849v-4.8038l26.54-0.19019 0.33257-0.52311c2.5208-4.3758 7.9905-5.8978 12.271-3.4245 4.2807 2.4733 5.7552 7.9905 3.2343 12.366-2.5208 4.3282-8.0382 5.8502-12.319 3.377-1.9501-1.094-3.3294-2.8538-3.9478-4.8514l-19.358 0.0953c-0.52311 3.1867-1.7599 6.2783-3.7098 9.2272m34.626-33.96c12.033 1.4744 20.595 12.271 19.12 24.114-1.4741 11.891-12.414 20.309-24.447 18.835-7.0869-0.85604-12.937-4.899-16.314-10.511l5.8977-3.4245c2.3306 3.6623 6.2783 6.2783 11.034 6.8966 8.3236 0.99877 15.696-4.6612 16.695-12.604 0.99949-7.943-4.899-15.22-13.127-16.219-2.5683-0.28529-5.0417 0.0467-7.2771 0.85603l-4.0429 2.0928-12.271-22.687h-1.0462c-5.0417-0.19019-8.9419-4.3282-8.7991-9.2747 0.14382-4.9465 4.4233-8.7991 9.4175-8.6089 4.994 0.28546 8.9417 4.3282 8.7991 9.2747-0.0899 2.0928-0.90422 3.9953-2.1879 5.4697l9.037 16.695c2.9489-0.95131 6.183-1.2842 9.5124-0.90368m-45.137-12.937c-4.7564-11.177 0.28583-23.972 11.272-28.633 11.034-4.6612 23.781 0.61839 28.538 11.796 2.8061 6.5161 2.2354 13.651-0.95096 19.358l-5.8977-3.4245c1.9976-3.8526 2.3305-8.5613 0.42784-12.985-3.2343-7.61-11.843-11.272-19.215-8.1808-7.4198 3.1391-10.749 11.891-7.5149 19.501 1.3321 3.1391 3.5672 5.5648 6.2783 7.182l1.855 0.99877-14.602 23.734c0.14381 0.23783 0.33257 0.5233 0.47638 0.90368 2.3305 4.3282 0.71367 9.7979-3.6624 12.129-4.3282 2.3306-9.7979 0.6184-12.176-3.8526-2.3306-4.4233-0.71366-9.893 3.6622-12.224 1.855-0.99878 3.9002-1.2366 5.8503-0.80859l10.987-17.931c-2.2354-2.0452-4.138-4.6136-5.327-7.5625z" fill="#fff" stroke-width="4.7563"/></g></svg>
