<?xml version="1.0" encoding="UTF-8" standalone="no"?>
<svg
   xmlns:dc="http://purl.org/dc/elements/1.1/"
   xmlns:cc="http://creativecommons.org/ns#"
   xmlns:rdf="http://www.w3.org/1999/02/22-rdf-syntax-ns#"
   xmlns:svg="http://www.w3.org/2000/svg"
   xmlns="http://www.w3.org/2000/svg"
   xmlns:xlink="http://www.w3.org/1999/xlink"
   width="1920"
   height="1080"
   viewBox="0 0 507.99999 285.75001"
   version="1.1"
   id="svg8">
  <defs
     id="defs2">
    <rect
       x="50.759791"
       y="387.58649"
       width="2.7020626"
       height="357.88762"
       id="rect1018" />
    <linearGradient
       id="linearGradient851">
      <stop
         style="stop-color:#2f2f2f;stop-opacity:1"
         offset="0"
         id="stop847" />
      <stop
         style="stop-color:#111111;stop-opacity:1"
         offset="1"
         id="stop849" />
    </linearGradient>
    <radialGradient
       xlink:href="#linearGradient851"
       id="radialGradient853"
       cx="125.25463"
       cy="16.734682"
       fx="125.25463"
       fy="16.734682"
       r="254"
       gradientTransform="matrix(0,1.0647542,-1.7495183,0,154.53226,-61.444333)"
       gradientUnits="userSpaceOnUse" />
    <style
       id="style914">.cls-1{fill:url(#linear-gradient);}</style>
  </defs>
  <metadata
     id="metadata5">
    <rdf:RDF>
      <cc:Work
         rdf:about="">
        <dc:format>image/svg+xml</dc:format>
        <dc:type
           rdf:resource="http://purl.org/dc/dcmitype/StillImage" />
        <dc:title></dc:title>
      </cc:Work>
    </rdf:RDF>
  </metadata>
  <g
     id="layer1">
    <rect
       style="opacity:0.98;fill:url(#radialGradient853);stroke-width:2.64583;fill-opacity:1"
       id="rect845"
       width="508"
       height="285.75"
       x="0"
       y="2.1874998e-06" />
    <text
       xml:space="preserve"
       id="text1016"
       style="font-family:'Noto Sans';font-size:10.58333341px;line-height:1.25;letter-spacing:0px;word-spacing:0px;-inkscape-font-specification:'Noto Sans';white-space:pre;shape-inside:url(#rect1018);" />
    <g
       id="g982"
       transform="translate(5.6150011,6.9943546)">
      <path
         d="m 183.50317,87.197304 -19.84364,17.859316 v 43.65625 L 183.50317,130.8535 V 87.197304 m -49.60934,11.906202 c -7.73914,0 -16.07349,1.587504 -21.82826,5.953114 v 58.18188 c 0,0.99225 0.9915,1.98437 1.98436,1.98437 0.3975,0 0.5955,-0.2778 0.9915,-0.2778 5.35788,-2.57968 13.09703,-4.32594 18.85166,-4.32594 7.7391,0 16.0734,1.58749 21.82814,5.95313 5.35785,-3.37344 15.08129,-5.95313 21.82814,-5.95313 6.54841,0 13.29526,1.2303 18.85155,4.20687 0.3975,0.19845 0.5955,0.1185 0.9915,0.1185 0.99151,0 1.98435,-0.99225 1.98435,-1.98437 v -57.90351 c -2.38125,-1.78593 -4.96095,-2.97655 -7.93755,-3.96874 v 53.57811 c -4.3656,-1.389 -9.1281,-1.98438 -13.89059,-1.98438 -6.74685,0 -16.4703,2.5797 -21.82815,5.95313 v -53.57812 c -5.75475,-4.36561 -14.08904,-5.953114 -21.82814,-5.953114 z"
         id="path959"
         style="fill:#ffffff;fill-opacity:1;stroke-width:3.96875" />
      <text
         xml:space="preserve"
         style="font-size:70.5556px;line-height:1.25;font-family:'Noto Sans';-inkscape-font-specification:'Noto Sans';letter-spacing:0px;word-spacing:0px;stroke-width:0.264583"
         x="203.80014"
         y="160.71622"
         id="text972"><tspan
           id="tspan970"
           x="203.80014"
           y="160.71622"
           style="font-style:normal;font-variant:normal;font-weight:800;font-stretch:normal;font-size:70.5556px;font-family:'Noto Sans';-inkscape-font-specification:'Noto Sans Ultra-Bold';fill:#ffffff;fill-opacity:1;stroke-width:0.264583">EPUB</tspan></text>
    </g>
  </g>
</svg>
