<?xml version="1.0" encoding="UTF-8" standalone="no"?>
<svg
   xmlns:dc="http://purl.org/dc/elements/1.1/"
   xmlns:cc="http://creativecommons.org/ns#"
   xmlns:rdf="http://www.w3.org/1999/02/22-rdf-syntax-ns#"
   xmlns:svg="http://www.w3.org/2000/svg"
   xmlns="http://www.w3.org/2000/svg"
   xmlns:xlink="http://www.w3.org/1999/xlink"
   width="1920"
   height="1080"
   viewBox="0 0 507.99999 285.75001"
   version="1.1"
   id="svg8">
  <defs
     id="defs2">
    <rect
       x="50.759791"
       y="387.58649"
       width="2.7020626"
       height="357.88762"
       id="rect1018" />
    <linearGradient
       id="linearGradient851">
      <stop
         style="stop-color:#505050;stop-opacity:1"
         offset="0"
         id="stop847" />
      <stop
         style="stop-color:#3c3c3c;stop-opacity:1"
         offset="1"
         id="stop849" />
    </linearGradient>
    <radialGradient
       xlink:href="#linearGradient851"
       id="radialGradient853"
       cx="125.25463"
       cy="16.734682"
       fx="125.25463"
       fy="16.734682"
       r="254"
       gradientTransform="matrix(0,1.0647542,-1.7495183,0,154.53226,-61.444333)"
       gradientUnits="userSpaceOnUse" />
    <style
       id="style914">.cls-1{fill:url(#linear-gradient);}</style>
  </defs>
  <metadata
     id="metadata5">
    <rdf:RDF>
      <cc:Work
         rdf:about="">
        <dc:format>image/svg+xml</dc:format>
        <dc:type
           rdf:resource="http://purl.org/dc/dcmitype/StillImage" />
        <dc:title></dc:title>
      </cc:Work>
    </rdf:RDF>
  </metadata>
  <g
     id="layer1">
    <rect
       style="opacity:0.98;fill:url(#radialGradient853);stroke-width:2.64583;fill-opacity:1"
       id="rect845"
       width="508"
       height="285.75"
       x="0"
       y="2.1874998e-06" />
    <text
       xml:space="preserve"
       id="text1016"
       style="font-family:'Noto Sans';font-size:10.58333341px;line-height:1.25;letter-spacing:0px;word-spacing:0px;-inkscape-font-specification:'Noto Sans';white-space:pre;shape-inside:url(#rect1018);" />
  </g>
  <g
     id="g1597"
     transform="matrix(0.70040216,0,0,0.70040216,55.460854,43.605602)">
	<path
   d="m 113.5,85.04 c -31.18,0 -56.691,25.512 -56.691,56.691 0,31.182 25.512,56.693 56.691,56.693 31.182,0 56.693,-25.512 56.693,-56.693 0,-31.179 -25.511,-56.691 -56.693,-56.691 z m 43.99,73.189 c -0.613,7.221 -6.633,13.535 -12.809,13.887 -20.787,1.063 -41.574,1.063 -62.361,0 -6.176,-0.352 -12.195,-6.666 -12.809,-13.887 -0.875,-10.998 -0.875,-21.996 0,-32.996 0.613,-7.221 6.633,-13.535 12.809,-13.885 20.787,-1.064 41.574,-1.064 62.361,0 6.176,0.352 12.195,6.664 12.809,13.885 0.875,11 0.875,21.998 0,32.996 z"
   id="path1563"
   style="fill:#fefefe;fill-opacity:1;stroke-width:0;stroke-miterlimit:4;stroke-dasharray:none" />

	<path
   d="M 146.099,153.524 H 80.902 c -0.78,0 -1.418,0.639 -1.418,1.418 v 1.418 c 0,0.779 0.638,1.416 1.418,1.416 h 65.196 c 0.779,0 1.417,-0.637 1.417,-1.416 v -1.418 c 0.001,-0.779 -0.637,-1.418 -1.416,-1.418 z"
   id="path1565"
   style="fill:#ffffff;fill-opacity:1;stroke-width:0;stroke-miterlimit:4;stroke-dasharray:none" />

	<path
   d="M 134.762,162.028 H 92.241 c -0.78,0 -1.418,0.639 -1.418,1.418 v 1.418 c 0,0.779 0.638,1.416 1.418,1.416 h 42.521 c 0.779,0 1.417,-0.637 1.417,-1.416 v -1.418 c 0,-0.779 -0.638,-1.418 -1.417,-1.418 z"
   id="path1567"
   style="fill:#ffffff;fill-opacity:1;stroke-width:0;stroke-miterlimit:4;stroke-dasharray:none" />

	<path
   d="m 207.727,123.847 c -8.16,0 -13.825,6.289 -13.825,17.186 0,11.041 5.617,16.994 13.825,16.994 8.257,0 13.825,-6.145 13.825,-17.043 0,-11.137 -5.616,-17.137 -13.825,-17.137 z m 0,30.722 c -5.568,0 -9.408,-3.936 -9.408,-13.537 0,-9.697 3.744,-13.729 9.408,-13.729 5.809,0 9.409,4.031 9.409,13.68 0,9.651 -3.649,13.586 -9.409,13.586 z"
   id="path1569"
   style="fill:#ffffff;fill-opacity:1;stroke-width:0;stroke-miterlimit:4;stroke-dasharray:none" />

	<path
   d="m 240.318,131.624 c -2.977,0 -5.665,1.488 -7.489,4.08 l -0.336,-3.504 h -3.456 v 35.379 l 4.032,-0.48 V 155.05 c 1.584,1.967 3.889,2.977 6.721,2.977 6.48,0 9.841,-5.521 9.841,-13.25 0,-8.018 -2.689,-13.153 -9.313,-13.153 z m -1.44,23.09 c -2.448,0 -4.464,-1.201 -5.809,-3.217 v -12.625 c 1.393,-2.113 3.505,-4.033 6.289,-4.033 3.936,0 5.952,3.217 5.952,9.938 0.001,6.769 -2.255,9.937 -6.432,9.937 z"
   id="path1571"
   style="fill:#ffffff;fill-opacity:1;stroke-width:0;stroke-miterlimit:4;stroke-dasharray:none" />

	<path
   d="m 265.901,131.624 c -6.433,0 -10.369,5.52 -10.369,13.439 0,8.018 4.081,12.963 11.041,12.963 3.457,0 6.24,-1.201 8.689,-3.17 l -1.777,-2.398 c -2.207,1.535 -4.08,2.256 -6.624,2.256 -3.84,0 -6.624,-2.4 -7.057,-8.498 h 16.273 c 0.048,-0.527 0.097,-1.344 0.097,-2.207 0.001,-7.633 -3.504,-12.385 -10.273,-12.385 z m 6.289,11.617 h -12.386 c 0.336,-5.906 2.688,-8.402 6.192,-8.402 4.177,0 6.193,2.93 6.193,8.018 v 0.384 z"
   id="path1573"
   style="fill:#ffffff;fill-opacity:1;stroke-width:0;stroke-miterlimit:4;stroke-dasharray:none" />

	<path
   d="m 295.374,131.624 c -3.408,0 -6.049,1.775 -7.922,4.367 l -0.336,-3.791 h -3.455 v 25.25 h 4.031 v -18.002 c 1.729,-2.785 3.744,-4.656 6.721,-4.656 2.593,0 4.177,1.248 4.177,5.137 v 17.521 h 4.032 v -18.098 c 0,-4.8 -2.641,-7.728 -7.248,-7.728 z"
   id="path1575"
   style="fill:#ffffff;fill-opacity:1;stroke-width:0;stroke-miterlimit:4;stroke-dasharray:none" />

	<path
   d="m 334.204,138.345 c -5.953,-1.824 -7.345,-3.217 -7.345,-6.145 0,-3.217 2.641,-4.896 6.145,-4.896 2.784,0 5.089,0.863 7.489,2.975 l 2.352,-2.639 c -2.688,-2.449 -5.521,-3.793 -10.033,-3.793 -6,0 -10.225,3.553 -10.225,8.496 0,5.041 3.217,7.488 9.697,9.457 5.664,1.729 7.297,3.217 7.297,6.625 0,4.08 -3.265,6.145 -7.297,6.145 -3.648,0 -6.337,-1.297 -8.593,-3.457 l -2.448,2.689 c 2.736,2.639 6.385,4.225 11.089,4.225 7.249,0 11.569,-3.984 11.569,-9.746 0,-6.192 -4.273,-8.305 -9.697,-9.936 z"
   id="path1577"
   style="fill:#ffffff;fill-opacity:1;stroke-width:0;stroke-miterlimit:4;stroke-dasharray:none" />

	<path
   d="m 365.212,150.296 c -1.584,2.641 -3.695,4.514 -6.576,4.514 -2.881,0 -4.129,-1.344 -4.129,-4.945 V 132.2 h -4.031 v 18.096 c 0,4.945 2.592,7.73 7.057,7.73 3.648,0 6.048,-1.586 7.92,-4.658 l 0.336,4.082 h 3.457 V 132.2 h -4.033 v 18.096 z"
   id="path1579"
   style="fill:#ffffff;fill-opacity:1;stroke-width:0;stroke-miterlimit:4;stroke-dasharray:none" />

	<path
   d="m 389.884,131.624 c -3.12,0 -5.521,1.439 -7.248,3.791 v -13.873 l -4.033,0.48 v 35.428 h 3.504 l 0.433,-2.832 c 1.729,2.063 3.937,3.408 6.817,3.408 6.145,0 9.84,-5.281 9.84,-13.25 -10e-4,-8.4 -3.6,-13.152 -9.313,-13.152 z m -1.44,23.186 c -2.4,0 -4.465,-1.441 -5.809,-3.504 v -12.434 c 1.344,-2.113 3.264,-4.033 6.145,-4.033 3.695,0 6.096,2.689 6.096,9.938 0,7.007 -2.592,10.033 -6.432,10.033 z"
   id="path1581"
   style="fill:#ffffff;fill-opacity:1;stroke-width:0;stroke-miterlimit:4;stroke-dasharray:none" />

	<path
   d="m 414.362,154.665 c -2.256,0 -3.168,-1.248 -3.168,-3.889 v -15.457 h 5.664 l 0.433,-3.119 h -6.097 v -6.242 l -4.032,0.434 v 5.809 h -4.368 v 3.119 h 4.368 v 15.65 c 0,4.607 2.496,7.057 6.673,7.057 2.111,0 3.936,-0.576 5.568,-1.682 l -1.536,-2.783 c -1.249,0.767 -2.304,1.103 -3.505,1.103 z"
   id="path1583"
   style="fill:#ffffff;fill-opacity:1;stroke-width:0;stroke-miterlimit:4;stroke-dasharray:none" />

	<path
   d="m 426.025,120.294 c -1.68,0 -2.832,1.201 -2.832,2.785 0,1.584 1.152,2.783 2.832,2.783 1.729,0 2.881,-1.199 2.881,-2.783 0,-1.584 -1.152,-2.785 -2.881,-2.785 z"
   id="path1585"
   style="fill:#ffffff;fill-opacity:1;stroke-width:0;stroke-miterlimit:4;stroke-dasharray:none" />

	<rect
   x="424.05801"
   y="132.2"
   width="4.0320001"
   height="25.25"
   id="rect1587"
   style="fill:#ffffff;fill-opacity:1;stroke-width:0;stroke-miterlimit:4;stroke-dasharray:none" />

	<path
   d="m 444.842,154.665 c -2.256,0 -3.168,-1.248 -3.168,-3.889 v -15.457 h 5.665 l 0.432,-3.119 h -6.097 v -6.242 l -4.032,0.434 v 5.809 h -4.368 v 3.119 h 4.368 v 15.65 c 0,4.607 2.496,7.057 6.673,7.057 2.112,0 3.936,-0.576 5.568,-1.682 l -1.536,-2.783 c -1.248,0.767 -2.305,1.103 -3.505,1.103 z"
   id="path1589"
   style="fill:#ffffff;fill-opacity:1;stroke-width:0;stroke-miterlimit:4;stroke-dasharray:none" />

	<path
   d="m 460.009,154.665 c -1.248,0 -1.68,-0.721 -1.68,-2.111 v -31.012 l -4.032,0.48 V 152.6 c 0,3.602 1.775,5.426 4.848,5.426 1.248,0 2.448,-0.289 3.553,-0.816 l -1.057,-2.832 c -0.48,0.191 -1.008,0.287 -1.632,0.287 z"
   id="path1591"
   style="fill:#ffffff;fill-opacity:1;stroke-width:0;stroke-miterlimit:4;stroke-dasharray:none" />

	<path
   d="m 476.521,131.624 c -6.433,0 -10.369,5.52 -10.369,13.439 0,8.018 4.08,12.963 11.041,12.963 3.456,0 6.24,-1.201 8.688,-3.17 l -1.775,-2.398 c -2.209,1.535 -4.081,2.256 -6.625,2.256 -3.84,0 -6.624,-2.4 -7.057,-8.498 h 16.273 c 0.048,-0.527 0.096,-1.344 0.096,-2.207 0,-7.633 -3.504,-12.385 -10.272,-12.385 z m 6.288,11.617 h -12.385 c 0.336,-5.906 2.688,-8.402 6.192,-8.402 4.177,0 6.192,2.93 6.192,8.018 v 0.384 z"
   id="path1593"
   style="fill:#ffffff;fill-opacity:1;stroke-width:0;stroke-miterlimit:4;stroke-dasharray:none" />

	<path
   d="m 501.816,142.616 c -4.177,-1.104 -5.616,-2.064 -5.616,-4.225 0,-2.161 1.92,-3.553 4.896,-3.553 2.399,0 4.32,0.721 6.528,2.354 l 1.776,-2.689 c -2.4,-1.824 -4.993,-2.879 -8.449,-2.879 -5.137,0 -8.929,2.879 -8.929,6.816 0,3.6 2.16,5.855 7.585,7.297 4.992,1.344 6.288,2.303 6.288,5.088 0,2.352 -2.256,3.936 -5.616,3.936 -2.832,0 -5.137,-0.959 -7.104,-2.592 l -2.257,2.545 c 2.209,1.92 5.185,3.313 9.457,3.313 5.089,0 9.745,-2.449 9.745,-7.586 10e-4,-4.417 -2.975,-6.432 -8.304,-7.825 z"
   id="path1595"
   style="fill:#ffffff;fill-opacity:1;stroke-width:0;stroke-miterlimit:4;stroke-dasharray:none" />

</g>
</svg>
