<?xml version="1.0" encoding="UTF-8" standalone="no"?>
<svg
   width="1920"
   height="1080"
   viewBox="0 0 508 285.75"
   version="1.1"
   id="svg5"
   sodipodi:docname="jellyfin-plugin-subtitleextract.svg"
   inkscape:version="1.3 (0e150ed6c4, 2023-07-21)"
   xmlns:inkscape="http://www.inkscape.org/namespaces/inkscape"
   xmlns:sodipodi="http://sodipodi.sourceforge.net/DTD/sodipodi-0.dtd"
   xmlns:xlink="http://www.w3.org/1999/xlink"
   xmlns="http://www.w3.org/2000/svg"
   xmlns:svg="http://www.w3.org/2000/svg">
  <sodipodi:namedview
     id="namedview5"
     pagecolor="#505050"
     bordercolor="#eeeeee"
     borderopacity="1"
     inkscape:showpageshadow="0"
     inkscape:pageopacity="0"
     inkscape:pagecheckerboard="0"
     inkscape:deskcolor="#d1d1d1"
     inkscape:zoom="0.70710678"
     inkscape:cx="945.40177"
     inkscape:cy="452.54834"
     inkscape:window-width="2049"
     inkscape:window-height="1368"
     inkscape:window-x="0"
     inkscape:window-y="0"
     inkscape:window-maximized="0"
     inkscape:current-layer="svg5" />
  <defs
     id="defs2">
    <radialGradient
       xlink:href="#a"
       id="b"
       cx="125.255"
       cy="16.735"
       fx="125.255"
       fy="16.735"
       r="254"
       gradientTransform="matrix(0 1.06475 -1.74952 0 154.532 -61.444)"
       gradientUnits="userSpaceOnUse" />
    <linearGradient
       id="a">
      <stop
         style="stop-color:#2f2f2f;stop-opacity:1"
         offset="0"
         id="stop1" />
      <stop
         style="stop-color:#111;stop-opacity:1"
         offset="1"
         id="stop2" />
    </linearGradient>
    <style
       id="style2" />
  </defs>
  <path
     style="display:inline;opacity:0.98;fill:url(#b);fill-opacity:1;stroke-width:2.64583"
     d="M 0,0 H 508 V 285.75 H 0 Z"
     id="path2"
     sodipodi:insensitive="true" />
  <path
     id="path4"
     style="display:inline;fill:#ffffff;fill-opacity:1;stroke-width:2.78509"
     transform="matrix(1.86186,0,0,1.86186,-1104.365,11.717)"
     d="m 649.87992,46.660006 c -3.064,0 -5.56993,2.506949 -5.56993,5.569928 v 38.991162 c 0,3.063979 2.50593,5.569928 5.56993,5.569928 h 38.99116 c 3.064,0 5.56993,-2.505949 5.56993,-5.569928 V 74.511034 h -5.56993 v 16.710062 h -10e-4 -38.99005 V 52.231044 h 16.71006 v -5.571038 z m 18.75146,16.750307 c -0.003,0.0043 -0.004,0.006 -0.008,0.01304 -0.004,0.0069 -0.007,0.01367 -0.0105,0.02054 0.007,-0.01102 0.0122,-0.02258 0.0189,-0.03358 z m 9.67327,12.793515 c -0.007,-0.02093 0.0126,0.04255 0.0205,0.06328 0.004,0.0098 0.006,0.01109 0.009,0.01943 -0.009,-0.02799 -0.02,-0.05595 -0.0294,-0.08271 z" />
  <text
     xml:space="preserve"
     style="font-style:normal;font-variant:normal;font-weight:800;font-stretch:normal;font-size:35.2778px;line-height:0.95;font-family:'Noto Sans';-inkscape-font-specification:'Noto Sans Ultra-Bold';letter-spacing:0;word-spacing:0;display:inline;stroke-width:0.264583;fill:#ffffff;fill-opacity:1"
     x="208.09"
     y="124.734"
     transform="matrix(1.23972,0,0,1.23972,-63.241,-14.456)"
     id="text5"
     inkscape:label="text5"><tspan
       sodipodi:role="line"
       id="tspan5"
       x="208.09"
       y="124.734"
       style="fill:#ffffff;fill-opacity:1">Subtitle</tspan><tspan
       sodipodi:role="line"
       id="tspan6"
       x="208.09"
       y="158.24791"
       style="fill:#ffffff;fill-opacity:1">Extract</tspan></text>
  <path
     id="path3"
     style="display:inline;fill:#ffffff;fill-opacity:1;stroke-width:2.95944"
     d="M 185.30497 101.33542 L 147.6375 109.70441 L 158.60737 120.67377 L 151.27655 128.00459 L 158.57275 135.3013 L 165.90357 127.97048 L 176.93442 139.00133 L 185.30497 101.33542 z "
     inkscape:label="path1" />
  <path
     id="rect9"
     style="fill:#ffffff;stroke-width:0.394344;paint-order:stroke fill markers"
     d="M -119.22993 116.29471 L -129.54868 116.29471 L -129.54868 143.14992 L -119.22993 143.14992 L -119.22993 116.29471 z M -140.0328 116.12935 L -150.35155 116.12935 L -150.35155 155.61324 L -140.0328 155.61324 L -140.0328 116.12935 z M -160.73644 116.29471 L -171.05519 116.29471 L -171.05519 167.59287 L -160.73644 167.59287 L -160.73644 116.29471 z "
     transform="rotate(-90)"
     inkscape:label="path3" />
</svg>
