<svg xmlns="http://www.w3.org/2000/svg" xmlns:xlink="http://www.w3.org/1999/xlink" width="1920" height="1080" viewBox="0 0 508 285.75">
    <defs>
        <radialGradient xlink:href="#a" id="b" cx="125.255" cy="16.735" fx="125.255" fy="16.735" r="254" gradientTransform="matrix(0 1.06475 -1.74952 0 154.532 -61.444)" gradientUnits="userSpaceOnUse"/>
        <linearGradient id="a">
            <stop style="stop-color:#2f2f2f;stop-opacity:1" offset="0"/>
            <stop style="stop-color:#111;stop-opacity:1" offset="1"/>
        </linearGradient>
        <style/>
    </defs>
    <path style="opacity:.98;fill:url(#b);stroke-width:2.64583;fill-opacity:1" d="M0 0h508v285.75H0z"/>
    <g fill-rule="evenodd" clip-rule="evenodd">
        <path d="M502.527 236.387c.955.061 1.912.119 2.867.186 7.334.506 14.344 2.226 20.895 5.629 4.678 2.433 8.826 5.58 12.529 9.334 4.018 4.076 7.342 8.645 9.846 13.8 1.836 3.784 3.111 7.754 3.994 11.86 1.082 5.034 1.438 10.131 1.225 15.258-.346 8.226-2.166 16.091-6.045 23.411-2.707 5.106-6.234 9.588-10.432 13.55-6.729 6.355-14.615 10.499-23.676 12.42-3.354.709-6.736 1.154-10.162 1.262-.156.006-.309.05-.465.076h-4.031c-.877-.063-1.754-.123-2.627-.187-10.494-.76-20.072-4.003-28.371-10.606-6.551-5.211-11.68-11.571-15.18-19.203-1.779-3.879-2.969-7.946-3.762-12.134-.898-4.737-1.182-9.52-.943-14.324.506-10.118 3.17-19.563 9.041-27.935 6.869-9.793 15.852-16.758 27.447-20.125 3.535-1.026 7.137-1.71 10.809-1.992 1.164-.091 2.332-.136 3.496-.207.191-.011.379-.047.568-.073zm-1.594 93.058c3.73-.031 7.34-.336 10.881-1.211 7.711-1.904 14.125-5.905 19.221-12.005 5.205-6.225 7.912-13.459 8.646-21.479a54.59 54.59 0 0 0 .117-8.248c-.178-2.987-.57-5.945-1.363-8.835-2.477-9.025-7.545-16.226-15.332-21.436-5.826-3.893-12.342-5.676-19.293-6.021-3.799-.186-7.576-.015-11.32.665-6.545 1.189-12.369 3.891-17.387 8.287-4.865 4.265-8.383 9.443-10.559 15.534-1.65 4.608-2.309 9.379-2.377 14.251-.057 3.785.209 7.544 1.033 11.241 1.492 6.673 4.492 12.564 9.176 17.585 4.135 4.429 9.053 7.616 14.781 9.567 4.499 1.534 9.145 2.055 13.776 2.105m191.352 11.329c-.395.953-.697 1.147-1.775 1.147-3.52 0-7.041.002-10.564 0-1.24 0-1.697-.46-1.697-1.708v-100.83c0-1.293.455-1.745 1.768-1.746 3.521 0 7.043-.012 10.561.019.436.003.91.175 1.281.405.225.14.291.537.428.821v101.892z" style="fill:#fff;fill-opacity:1" transform="translate(26.901 -13.665) scale(.54047)"/>
        <path d="M405.102 279.938c1.776 2.358 3.536 4.696 5.294 7.034l11.191 14.873c4.798 6.378 9.593 12.752 14.392 19.127 4.701 6.248 9.4 12.498 14.107 18.74.35.46.5.929.25 1.462-.254.539-.746.713-1.301.745-.254.015-.51.002-.768.002-4.338 0-8.674-.003-13.012.006-.742.001-1.285-.248-1.75-.866-8.18-10.933-16.378-21.854-24.574-32.779-4.654-6.201-9.311-12.402-13.968-18.604-.037-.052-.082-.097-.148-.175l-1.685 1.569c-3.775 3.528-7.548 7.06-11.322 10.591-2.081 1.943-4.162 3.888-6.254 5.819-.27.248-.381.495-.381.863.01 10.562.008 21.127.008 31.688 0 .127.004.256 0 .385-.027.967-.52 1.494-1.487 1.498-3.698.014-7.394.011-11.091.001-.938-.004-1.432-.532-1.451-1.473-.002-.11 0-.224 0-.336V239.379c0-1.274.46-1.739 1.724-1.739l10.131-.001c.223 0 .448-.007.672.001.978.045 1.458.527 1.501 1.5.007.145.001.289.001.432v49.459c.838-.782 1.595-1.484 2.347-2.19 4.458-4.182 8.912-8.367 13.372-12.547 5.848-5.48 11.7-10.958 17.549-16.44 4.902-4.597 9.801-9.197 14.7-13.795 2.066-1.939 4.138-3.87 6.197-5.814.43-.406.92-.605 1.509-.605l15.509.001c.881 0 1.377.32 1.563.979.154.544-.055.967-.436 1.331-1.498 1.423-2.992 2.845-4.492 4.261-2.654 2.502-5.316 5.001-7.969 7.503a10912.78 10912.78 0 0 0-11.035 10.405c-3.771 3.557-7.535 7.12-11.305 10.675-2.513 2.372-5.032 4.736-7.588 7.143" style="fill:#fff;fill-opacity:1" transform="translate(26.901 -13.665) scale(.54047)"/>
        <path d="M569.923 289.792v-50.223c0-.146 0-.289.002-.434.02-.948.498-1.442 1.438-1.496.064-.004.129-.001.191-.001 14.359.001 28.715-.034 43.072.021 6.604.023 12.922 1.508 18.949 4.203 5.244 2.345 9.852 5.615 13.852 9.729 6.521 6.696 10.852 14.596 12.98 23.708 1.227 5.247 1.732 10.559 1.621 15.934-.15 7.22-1.404 14.23-4.141 20.938-2.285 5.601-5.557 10.574-9.68 14.988-6.328 6.778-14.016 11.233-23.023 13.416-3.887.941-7.824 1.36-11.824 1.356-13.908-.021-27.816-.008-41.727-.01-.238 0-.479-.017-.713-.052-.514-.083-.832-.391-.924-.902a4.474 4.474 0 0 1-.07-.807c-.003-16.79-.003-33.578-.003-50.368m14.047 38.707h.619c9.348 0 18.693.008 28.041-.011a65.922 65.922 0 0 0 5.029-.203c3.473-.273 6.783-1.194 9.949-2.643 4.139-1.896 7.615-4.656 10.609-8.066a38.313 38.313 0 0 0 6.621-10.612c1.73-4.151 2.66-8.482 3.004-12.96a53.483 53.483 0 0 0-.426-12.2 38.726 38.726 0 0 0-4.689-13.496c-2.672-4.673-6.121-8.674-10.549-11.765-5.301-3.702-11.254-5.423-17.68-5.454-10.004-.048-20.008-.015-30.01-.017h-.52v77.427z" style="fill-opacity:1;fill:#fff" transform="translate(26.901 -13.665) scale(.54047)"/>
        <path d="M196.099 143.711c-.325 1.056-1.038 1.829-1.801 2.59-5.116 5.097-10.215 10.212-15.32 15.32-1.84 1.841-3.805 1.836-5.652-.012-5.268-5.272-10.537-10.545-15.803-15.818-1.794-1.796-1.793-3.758.005-5.558a40096.11 40096.11 0 0 1 15.892-15.907c1.724-1.726 3.75-1.727 5.473-.003 5.136 5.138 10.265 10.282 15.41 15.41.764.76 1.475 1.536 1.796 2.593v1.385zm-50.78 49.394c-1.051-.333-1.812-1.06-2.57-1.822-5.093-5.12-10.202-10.224-15.307-15.334-1.826-1.829-1.827-3.78-.005-5.604 5.282-5.286 10.564-10.573 15.848-15.859 1.757-1.757 3.77-1.764 5.516-.016a54814.59 54814.59 0 0 1 15.847 15.862c1.815 1.817 1.82 3.807.013 5.614-5.148 5.155-10.304 10.303-15.44 15.467-.736.738-1.492 1.403-2.517 1.693h-1.385zM126.78 130.35c0-5.878.052-11.757-.035-17.634-.024-1.7.382-3.029 1.681-4.152 1.044-.903 1.971-1.945 2.95-2.926l11.618-11.628c1.822-1.821 3.787-1.82 5.607.001 5.27 5.27 10.537 10.542 15.805 15.814 1.81 1.812 1.809 3.803 0 5.615-6.23 6.238-12.463 12.475-18.695 18.711-5.503 5.51-11.005 11.018-16.509 16.526-1.02 1.02-1.923.782-2.294-.632-.114-.438-.123-.91-.123-1.368-.008-6.108-.006-12.218-.006-18.326m-12.599 12.737c0 5.393.007 10.79-.011 16.183a4.384 4.384 0 0 1-.267 1.531c-.36.936-1.036 1.052-1.743.346-2.481-2.476-4.956-4.96-7.431-7.44-2.863-2.867-5.726-5.735-8.587-8.603-1.184-1.188-1.189-2.835-.01-4.029a79275.28 79275.28 0 0 1 15.81-15.983c.349-.352.677-.83 1.27-.606.566.214.79.724.87 1.29.05.351.09.708.09 1.062.006 5.416.003 10.832.003 16.249z" fill="#31afe1"/>
    </g>
    <path d="M408.356 115.668h-1.373v3.507h-.446v-3.507h-1.373v-.428h3.192zm4.394-.428v3.935h-.446v-3.257l-1.456 1.872-1.48-1.872v3.257h-.446v-3.935h.517l1.409 1.867 1.385-1.867z"/>
</svg>
