<?xml version="1.0" encoding="UTF-8" standalone="no"?>
<svg
   xmlns:dc="http://purl.org/dc/elements/1.1/"
   xmlns:cc="http://creativecommons.org/ns#"
   xmlns:rdf="http://www.w3.org/1999/02/22-rdf-syntax-ns#"
   xmlns:svg="http://www.w3.org/2000/svg"
   xmlns="http://www.w3.org/2000/svg"
   xmlns:xlink="http://www.w3.org/1999/xlink"
   width="1920"
   height="1080"
   viewBox="0 0 507.99999 285.75001"
   version="1.1"
   id="svg8">
  <defs
     id="defs2">
    <linearGradient
       id="linearGradient851">
      <stop
         style="stop-color:#2c3345;stop-opacity:1"
         offset="0"
         id="stop847" />
      <stop
         style="stop-color:#21252e;stop-opacity:1"
         offset="1"
         id="stop849" />
    </linearGradient>
    <radialGradient
       xlink:href="#linearGradient851"
       id="radialGradient853"
       cx="125.25463"
       cy="16.734682"
       fx="125.25463"
       fy="16.734682"
       r="254"
       gradientTransform="matrix(0,1.0647542,-1.7495183,0,154.53226,-61.444333)"
       gradientUnits="userSpaceOnUse" />
    <style
       id="style914">.cls-1{fill:url(#linear-gradient);}</style>
    <linearGradient
       id="linear-gradient"
       y1="40.76"
       x2="190.24"
       y2="40.76"
       gradientUnits="userSpaceOnUse"
       gradientTransform="matrix(1.6689444,0,0,1.6689444,95.249998,74.882274)">
      <stop
         offset="0"
         stop-color="#90cea1"
         id="stop916" />
      <stop
         offset="0.56"
         stop-color="#3cbec9"
         id="stop918" />
      <stop
         offset="1"
         stop-color="#00b3e5"
         id="stop920" />
    </linearGradient>
  </defs>
  <metadata
     id="metadata5">
    <rdf:RDF>
      <cc:Work
         rdf:about="">
        <dc:format>image/svg+xml</dc:format>
        <dc:type
           rdf:resource="http://purl.org/dc/dcmitype/StillImage" />
        <dc:title></dc:title>
      </cc:Work>
    </rdf:RDF>
  </metadata>
  <g
     id="layer1">
    <rect
       style="opacity:0.98;fill:url(#radialGradient853);stroke-width:2.64583;fill-opacity:1"
       id="rect845"
       width="508"
       height="285.75"
       x="0"
       y="2.1874998e-06" />
    <g
       id="g1173"
       transform="matrix(0.5172265,0,0,0.5172265,95.250001,58.68863)">
      <path
         d="m 613.85,57.23 -0.3,-0.34 0.3,0.34 c 0.07,-7 -3.57,-14.41 -7.29,-18.78 -12.55,-14.65 -35.11,-24 -66.81,-25.72 -7.16,-0.39 -26.22,-1.48 -26.22,-1.47 q -15,-0.4 -30,-0.52 c -10.1,-0.08 -22,0.2 -35.27,1 0.06,0 -15.19,1 -15.18,1 0.01,0 -4.68,0.34 -8.43,0.65 C 426,9.76 429.63,0 429.63,0 368.63,2.27 360.26,8.85 358.84,9.52 351.46,13 345,19.33 336.73,26.39 A 158.82,158.82 0 0 0 323.58,39.1 C 321.29,32.8 313.1,10.31 313.09,10.28 q -10,2.72 -19.9,5.63 c -17,4.8 -36.78,11 -53.6,16.61 0,0 -25.42,-4.73 -46.41,-1.38 -20.99,3.35 -39.37,13.68 -54.44,31.2 l -0.26,0.33 C 124.05,51.35 103.83,47.84 78.61,53.67 57.94,58.51 40.07,70.76 25.78,90.57 A 112.31,112.31 0 0 0 8.22,127.24 107.76,107.76 0 0 0 0,166.57 c 0,0 0.43,12.11 0.43,12.11 0,0 0,0.24 0,0.36 0,0.12 0,0.17 0,0.25 1.8,20.09 8.24,35.09 19,44.34 12.6,10.73 28.55,11.94 47.78,4.49 21.82,-8.45 39.68,-23 53.3,-43 0,0 1.75,-2.59 3.14,-4.61 a 37.91,37.91 0 0 0 3.92,4 c 12.31,10.44 28.34,12.2 48,6.19 a 112.78,112.78 0 0 0 10.75,-3.89 C 204.06,228.43 183,325.49 183,325.53 193.5,318.79 354.69,243.18 544,215 c 1.46,-2.77 60,-95.9 68.32,-109.06 0,-0.1 -26.74,0.62 -44.37,1.46 15.07,-7.8 22.53,-17.6 22.54,-17.56 0.01,0.04 -20.58,-10.73 -33.35,-17.52 19.68,-5.65 56.63,-15.59 56.71,-15.09 z m -0.56,-0.64 z m 0.19,0.22 -0.13,-0.15 z"
         style="fill:#231f20"
         id="path1135" />
      <path
         d="m 89.89,153 c -5,7.07 -10.78,11.65 -17.75,14 -6.22,2.06 -11.33,1.31 -15.67,-2.38 -4.34,-3.69 -6.48,-8.67 -7,-15.64 0,-1.56 0,-3.12 0.07,-4.68 0,-0.29 0,-0.58 0,-0.88 0.66,-9.82 3.59,-18.49 8.75,-25.69 a 38.17,38.17 0 0 1 21.61,-15 c 8.41,-2.3 14.43,-0.35 18.32,5.78 l 1.44,2.26 q 17,-13.11 34.31,-25.41 L 132.14,83 C 121.37,69.77 103.62,65.44 79.76,71.31 c -15.83,3.93 -29.63,13.57 -40.83,29 v 0 c -10.89,15 -16.53,31.47 -17,48.35 0,0 0.15,5 0.25,8.14 0,1.44 0.08,2.5 0.08,2.5 1.27,15.24 6,26.56 14,33.51 8.86,7.62 20.39,8.68 34.47,3.65 a 84.14,84.14 0 0 0 41.68,-32.35 l 2,-3 Q 103,155.88 91.51,150.54 Z"
         style="fill:#29cc82"
         id="path1137" />
      <path
         d="m 243.43,79.93 a 24.43,24.43 0 0 0 -0.58,-4.43 44.5,44.5 0 0 0 -2.35,-7.58 c 1.86,-1.41 7,-5.29 7,-5.27 L 246,60.76 C 235.63,48.1 217.94,43.18 193.73,47.35 177.66,50.13 163.44,58.29 151.63,71.9 v 0 c -10.14,11.75 -16.21,24.72 -18.22,38.29 -0.27,1.79 -0.48,3.59 -0.6,5.4 0,0 -0.05,9.82 -0.05,9.82 0.73,14.09 5.11,24.73 12.93,31.48 8.64,7.4 20.23,8.89 34.58,4.89 A 83.52,83.52 0 0 0 222.94,134.51 88.58,88.58 0 0 0 242.21,92 68.6,68.6 0 0 0 243.43,79.93 Z m -32.18,19.68 a 49,49 0 0 1 -9.11,21.74 c -5.24,7 -11.59,11.37 -19.45,13.36 -6.33,1.6 -11.45,0.68 -15.69,-2.92 -4.08,-3.45 -6.21,-8.28 -6.49,-14.7 q 0.13,-2.56 0.28,-5.11 A 45.6,45.6 0 0 1 164,99.27 39.81,39.81 0 0 1 170.46,88.79 38,38 0 0 1 192.73,76.08 c 7.48,-1.48 12.89,0.13 16.63,4.42 -0.9,0.62 -5.49,3.88 -5.49,3.88 l 2.25,1.3 1,0.58 c 2.94,1.69 4.43,4.67 4.56,9.11 z"
         style="fill:#2cc982;fill-opacity:1"
         id="path1139" />
      <path
         d="M 384.85,75.67 Q 387,69 389.09,62.44 396.9,39 404.93,16.17 l -4.24,0.53 c 0,0 -7.61,1 -7.63,1 -0.02,0 -11.91,2.49 -11.91,2.51 a 103,103 0 0 1 -10.93,2 l -0.68,0.06 -0.61,0.29 A 92.35,92.35 0 0 0 349.38,35.65 160,160 0 0 0 324.3,62.28 c -3.26,4.35 -6.34,8.84 -9.18,13.5 a 108,108 0 0 0 -2.89,-12.84 c -0.65,-2.28 -1.35,-4.6 -2.18,-7 l -9.73,-26.7 -2.79,0.84 q -15.69,4.57 -31.28,9.61 l 3.93,9 c 1.61,3.4 1.86,4.94 1.87,5.57 0,0 -0.19,0.75 -0.24,1 -3.33,5.77 -6.15,11 -8.46,15.49 -1,2 -1.95,3.87 -2.76,5.59 a 294.31,294.31 0 0 0 -13.74,33 c -3.95,11.86 -7.47,23.72 -10.46,35.22 q -0.6,2.29 -1.2,4.6 17.29,-8 34.75,-15.46 l 0.17,-1.85 c 0.73,-8 3.25,-16.95 7.54,-26.58 0,0 3.6,-8.13 6.45,-14.4 0.1,0.49 0.18,0.82 0.28,1.39 2.75,14.41 4.14,26.16 4.2,35.1 l -0.46,7.1 3.82,-1.23 q 14.89,-6 29.9,-11.64 c 0.16,-0.47 0.33,-0.95 0.5,-1.43 4.53,-13.19 9.3,-23.46 14.13,-30.61 8,-11.87 14.09,-19.22 18.63,-23.89 0.78,-0.8 1.52,-1.53 2.21,-2.19 l -1.11,2.56 c -1.26,3 -2.34,5.62 -3.19,7.87 0,0 -7.94,20.82 -7.92,20.87 -5.27,13.39 -9.17,24.22 -11.66,32 -0.46,1.43 -0.92,2.86 -1.37,4.31 8.54,-3.42 17.11,-6.68 25.7,-9.88 5.16,-1.92 10.32,-3.84 15.49,-5.67 0.12,-0.5 0.25,-1 0.37,-1.5 1.63,-6.77 3.55,-13.73 5.69,-20.66 q 2.77,-8.93 5.54,-17.7 z"
         style="fill:#29cc82"
         id="path1141" />
      <path
         d="m 478,41.59 q 4.67,-9.19 9.38,-18.21 h -4.26 c -9.78,0 -21.24,0.45 -34,1.33 v 0 q -16.39,1.22 -32.74,2.83 c -0.2,0.5 -0.4,1 -0.61,1.5 q -4.4,10.35 -8.77,20.87 c 0,0 17.55,-3 24.45,-4 -2.44,3.58 -5.57,8.24 -5.57,8.25 a 243.51,243.51 0 0 0 -15.46,27.39 c 0,0 -4.14,9.54 -4.13,9.56 0.01,0.02 -1.34,3.21 -2.16,5.22 -2.36,0.38 -6.52,1.09 -6.52,1.09 l -9.73,1.87 Q 383.43,111 379,122.88 l 4.54,-1.13 c 20.28,-5 33.52,-7.63 39.19,-8.57 3.48,-0.55 11.14,-1.51 22.78,-2.67 l 2.18,-0.21 q 4.89,-10.61 9.84,-21 -8,0.76 -16,1.61 l -4.26,0.52 c 1.54,-3.73 4.6,-11 4.6,-11 5.51,-12.1 9.92,-20.75 13,-25.92 a 96.5,96.5 0 0 1 6.13,-9.4 l 1.2,-1.56 c 6.36,-0.24 15.07,-0.47 15.07,-0.47 z"
         style="fill:#29cc82"
         id="path1143" />
      <path
         d="M 539.6,81 A 37.74,37.74 0 0 1 520,87 c -6.55,0.23 -11.65,-1.22 -15.6,-4.52 a 13.46,13.46 0 0 1 -5.25,-11.84 c 0.24,-1.24 0.49,-2.49 0.74,-3.73 a 26.53,26.53 0 0 1 11.88,-15.58 c 6.49,-4.06 14.22,-5.93 23.6,-5.77 8.76,0.16 14.61,2.67 17.84,7.52 l 1.18,1.78 q 18.7,-5.27 37.53,-9.69 l -1.6,-1.86 C 581,32.39 563.59,25.72 538.86,24.68 c -16.42,-0.67 -31.47,3 -44.61,11.17 v 0 c -12.79,8 -20.47,18.09 -23,29.47 0,0 -0.95,7.3 -0.95,7.3 -0.54,10.59 2.91,19.15 10.23,25.29 8.08,6.75 19.68,9.49 34.57,8.65 18.2,-1 33.65,-5.75 46,-13.85 l 2.4,-1.56 q -10.95,-5.63 -22,-11.39 z"
         style="fill:#29cc82"
         id="path1145" />
      <path
         d="m 305,154.85 q 2.24,-2.75 4.49,-5.48 -13.14,3.62 -26.22,7.5 l -2.94,0.94 -1,0.33 -0.74,0.81 c -5.63,6.33 -13.14,17.23 -22.76,33.84 -4.7,8.09 -9,16 -13,23.9 1.85,-22.39 2.76,-38 2.59,-46.59 -0.09,-4.42 -0.4,-5.81 -0.67,-6.53 l -0.81,-2.17 -2.66,1.21 q -14.9,6.78 -29.69,14 l 0.72,2.43 c 0.13,0.44 0.45,2.27 0.67,9.78 0.49,16.17 0.71,34 0.68,53 -0.07,28.34 -0.64,33.65 -0.88,34.59 l -1.29,5 4.66,-2.68 q 13.66,-8.29 27.44,-16.15 l 0.58,-0.81 c 4.68,-6.68 10.56,-16.81 17.53,-29.91 0,-0.18 15.45,-29.75 15.49,-29.63 0,-0.12 13,-24.64 13.05,-24.56 A 155.79,155.79 0 0 1 305,154.85 Z"
         style="fill:#f9e150"
         id="path1147" />
      <path
         d="m 375.42,157.71 q 4.23,-10.78 8.52,-21.39 l -4.11,0.7 c -9.41,1.61 -20.43,3.88 -32.72,6.86 v 0 l -4.43,1.12 q -13.5,3.41 -26.93,7.08 l -0.54,1.73 q -3.9,11.94 -7.73,24 c 0,0 16.21,-5.76 23,-8 l 0.34,-0.12 -0.5,1 c -2.15,4.11 -4.61,8.88 -4.61,8.88 a 324.05,324.05 0 0 0 -14,32.18 c 0,0 -3.67,11 -3.67,11 0,0 -1.18,3.7 -1.91,6 -2.25,0.78 -6.2,2.17 -6.2,2.18 0,0.01 -9.26,3.49 -9.26,3.51 q -4,13.38 -7.84,27 l 4.3,-1.91 c 19.25,-8.47 31.86,-13.38 37.26,-15.25 3.32,-1.14 10.64,-3.35 21.77,-6.4 l 2.09,-0.57 q 4.39,-12.32 8.83,-24.43 -7.68,2.07 -15.35,4.23 l -4.08,1.22 c 1.36,-4.28 4.08,-12.7 4.08,-12.69 q 4.44,-12.63 7.81,-21 c 1.49,-3.72 2.82,-6.84 4,-9.29 2.27,-5 4.16,-8.74 5.62,-11.21 l 1.11,-1.89 c 6.11,-1.26 14.49,-2.89 14.49,-2.89 0.19,-0.5 0.42,-1.07 0.66,-1.65 z"
         style="fill:#f9e150"
         id="path1149" />
      <path
         d="m 494.9,122.73 q -12.66,1.79 -25.29,3.82 l -3,0.53 -1.54,0.28 -0.81,1.05 c -11.87,15.58 -19.51,27 -22.92,33.17 l -2.34,4.16 a 267.16,267.16 0 0 0 -8.82,-36.7 l -0.63,-2 -2.85,0.83 q -15.44,4.54 -30.79,9.53 l 3.49,8 c 1.45,3 1.63,4.35 1.62,4.91 l -0.27,0.87 c -5,7.6 -8.9,14.12 -11.68,19.25 -1.8,3.26 -3.46,6.4 -5,9.42 -4,7.78 -7.21,14.75 -9.55,20.67 -4.28,10.79 -8.13,21.59 -11.47,32 l -1.33,4.19 q 17.11,-8 34.38,-15.35 l 0.23,-1.67 c 1,-7.15 3.79,-15.3 8.32,-24.08 0,0 3.8,-7.4 6.8,-13.11 0.08,0.43 0.14,0.73 0.22,1.24 2.14,12.77 3.07,23.21 2.79,31.18 q -0.35,3.17 -0.7,6.35 l 3.77,-1.26 q 14.74,-6 29.57,-11.57 4.71,-11.48 9.49,-22.75 c 4.43,-10.32 8,-17.93 10.73,-22.95 0.73,-1.35 1.4,-2.56 2,-3.53 A 333.7,333.7 0 0 1 492,126.35 Z"
         style="fill:#f9e150"
         id="path1151" />
      <path
         d="m 582,118.11 q -21.22,1.08 -42.38,2.78 v 0 q -19.92,2 -39.77,4.59 l -0.63,1.42 q -4.51,9.68 -9,19.54 c 0,0 9.55,-1.81 13.93,-2.58 -2.2,3 -4.78,6.59 -4.78,6.59 -1.66,2.53 -3.26,5.05 -4.83,7.59 -3.86,6.24 -7.43,12.48 -10.64,18.62 -2.72,5.27 -5.85,12.07 -9.3,20.28 -4.6,11.06 -4.6,11.67 -4.6,12.13 0,0.84 -0.09,1.66 -0.13,2.49 l 3.38,-0.87 C 494,204.4 510,200.76 520.6,199.15 q 9,-1.36 18.06,-2.61 5.21,-9.87 10.49,-19.53 c 0,-0.1 -32.31,4.94 -38.88,6.21 2.45,-5.56 4.74,-10.4 6.8,-14.35 3.63,-0.62 31.61,-4.26 31.62,-4.18 1.43,-2.49 2.87,-4.91 4.3,-7.39 2,-3.4 3.94,-6.83 5.93,-10.19 0,-0.06 -25.21,2.62 -32.05,3.53 l 1,-1.44 c 0,0 6.59,-9.71 6.95,-10.2 8.1,-0.92 18.12,-1.79 30,-2.48 q 5.47,-0.32 11,-0.61 5.24,-9.11 10.52,-18 z"
         style="fill:#f9e150"
         id="path1153" />
    </g>
  </g>
</svg>
