<?xml version="1.0" encoding="UTF-8"?>
<!-- ***** BEGIN LICENSE BLOCK *****
  - Part of the Jellyfin project (https://jellyfin.media)
  - 
  - All copyright belongs to the Jellyfin contributors; a full list can
  - be found in the file CONTRIBUTORS.md
  - 
  - This work is licensed under the Creative Commons Attribution-ShareAlike 4.0 International License.
  - To view a copy of this license, visit http://creativecommons.org/licenses/by-sa/4.0/.
- ***** END LICENSE BLOCK ***** -->
<svg version="1.1" viewBox="0 0 1920 1080" xmlns="http://www.w3.org/2000/svg" xmlns:xlink="http://www.w3.org/1999/xlink">
    <defs>
        <linearGradient id="linear-gradient" x1="110.25" x2="496.14" y1="213.3" y2="436.09" gradientUnits="userSpaceOnUse">
            <stop stop-color="#aa5cc3" offset="0"/>
            <stop stop-color="#00a4dc" offset="1"/>
        </linearGradient>
        <linearGradient id="linearGradient1901" x1="110.25" x2="496.14" y1="213.3" y2="436.09" gradientUnits="userSpaceOnUse" xlink:href="#linear-gradient"/>
    </defs>
    <title>banner-dark</title>
    <rect id="solid-background" width="1920" height="1080" fill="#000b25"/>
    <g id="banner-dark" transform="translate(191.03 284)">
        <g id="banner-dark-icon" fill="url(#linearGradient1901)">
            <path id="inner-shape" d="m261.42 201.62c-20.44 0-86.24 119.29-76.2 139.43s142.48 19.92 152.4 0-55.76-139.42-76.2-139.43z"/>
            <path id="outer-shape" d="m261.42 23.3c-61.59 0-259.85 359.43-229.62 420.13s429.34 60 459.24 0-168.04-420.13-229.62-420.13zm150.48 367.46c-19.59 39.33-281.08 39.77-300.9 0s110.1-275.28 150.45-275.28 170.04 235.94 150.45 275.28z"/>
        </g>
        <g id="jellyfin-light-outlines" transform="translate(43.8)" fill="#fff" style="isolation:isolate">
            <path d="m556.64 350.75a67 67 0 0 1-22.87-27.47 8.91 8.91 0 0 1-1.49-4.75 7.42 7.42 0 0 1 2.83-5.94 9.25 9.25 0 0 1 6.09-2.38c3.16 0 5.94 1.69 8.31 5.05a48.09 48.09 0 0 0 16.34 20.34 40.59 40.59 0 0 0 24 7.58q20.51 0 33.27-12.62t12.77-33.12v-138.44a8.44 8.44 0 0 1 2.67-6.39 9.56 9.56 0 0 1 6.83-2.52 9 9 0 0 1 6.68 2.52 8.7 8.7 0 0 1 2.53 6.39v138.4a64.7 64.7 0 0 1-8.32 32.67 59 59 0 0 1-23 22.72q-14.66 8.21-33.38 8.21a57.21 57.21 0 0 1-33.26-10.25z"/>
            <path d="m831.66 279.47a8.77 8.77 0 0 1-6.24 2.53h-112.26q0 17.82 7.27 31.92a54.91 54.91 0 0 0 20.79 22.28q13.51 8.18 31.93 8.17a54 54 0 0 0 25.54-5.94 52.7 52.7 0 0 0 18.12-15.15 10 10 0 0 1 6.24-2.67 8.14 8.14 0 0 1 7.72 7.72 8.81 8.81 0 0 1-3 6.24 74.7 74.7 0 0 1-23.91 19 65.56 65.56 0 0 1-30.41 7.43q-22.87 0-40.4-9.8a69.51 69.51 0 0 1-27.32-27.48q-9.79-17.66-9.8-40.83 0-24.36 9.65-42.62t25.69-27.92a65.2 65.2 0 0 1 34.16-9.65 70 70 0 0 1 33.41 8.3 65.78 65.78 0 0 1 25.39 24.36q9.81 16 10.1 38a8.07 8.07 0 0 1-2.67 6.11zm-98.16-47.67q-14.7 11.88-18.86 34.2h101.28v-2.38a46.91 46.91 0 0 0-8.92-23.35 48.47 48.47 0 0 0-18.56-15.15 54 54 0 0 0-23-5.2q-17.24 0-31.94 11.88z"/>
            <path d="m888.24 355.5a8.92 8.92 0 0 1-15.3-6.38v-202a8.91 8.91 0 1 1 17.82 0v202a8.65 8.65 0 0 1-2.52 6.38z"/>
            <path d="m956.55 355.5a8.92 8.92 0 0 1-15.3-6.38v-202a8.91 8.91 0 1 1 17.82 0v202a8.65 8.65 0 0 1-2.52 6.38z"/>
            <path d="m1122.9 206.11a8.7 8.7 0 0 1 2.53 6.39v131q0 23.44-9.21 40.09a61.58 61.58 0 0 1-25.54 25.25q-16.34 8.61-36.83 8.61a96.73 96.73 0 0 1-23.31-2.68 61.72 61.72 0 0 1-18-7.12q-6.24-3.87-6.24-8.62a17.94 17.94 0 0 1 0.6-3 8.06 8.06 0 0 1 3-4.45 7.49 7.49 0 0 1 4.45-1.49 7.91 7.91 0 0 1 3.56 0.89q19 10.39 36.24 10.4 24.65 0 39.06-15.44t14.4-42.18v-10.38a54.37 54.37 0 0 1-21.38 20 62.55 62.55 0 0 1-30.3 7.58q-25.83 0-39.2-15.45t-13.37-41.87v-91.14a8.91 8.91 0 1 1 17.82 0v88.5q0 21.39 9.36 32.38t29.25 11a48 48 0 0 0 23.32-6.09 49.88 49.88 0 0 0 17.82-16 37.44 37.44 0 0 0 6.68-21.24v-88.55a9 9 0 0 1 15.29-6.39z"/>
            <path d="m1210.2 161.41q-5.21 6.24-5.2 17.23v30.59h33.27a8.19 8.19 0 0 1 5.79 2.38 8.26 8.26 0 0 1 0 11.88 8.22 8.22 0 0 1-5.79 2.37h-33.25v123.26a8.91 8.91 0 1 1-17.82 0v-123.26h-21.68a7.83 7.83 0 0 1-5.94-2.52 8.21 8.21 0 0 1-2.37-5.79 8 8 0 0 1 2.37-6.09 8.33 8.33 0 0 1 5.94-2.23h21.68v-30.59q0-18.7 10.84-29t29-10.24a46.1 46.1 0 0 1 15.45 2.52q7.13 2.53 7.12 8.17a8.07 8.07 0 0 1-2.37 5.94 7.37 7.37 0 0 1-5.35 2.37 18.81 18.81 0 0 1-6.53-1.48 42 42 0 0 0-10.4-1.78q-9.57 0.04-14.76 6.27zm65.82 19.46c-2.19-1.88-3.27-4.61-3.27-8.17v-3q0-5.34 3.41-8.17t9.36-2.82q11.88 0 11.88 11v3c0 3.56-1 6.29-3.12 8.17s-5.1 2.82-9.06 2.82-7.06-0.95-9.2-2.83zm15.59 174.63a8.92 8.92 0 0 1-15.3-6.38v-136.62a8.91 8.91 0 1 1 17.82 0v136.62a8.65 8.65 0 0 1-2.55 6.38z"/>
            <path d="m1452.5 218.88q12.92 16.2 12.92 42.92v87.32a8.4 8.4 0 0 1-2.67 6.38 8.8 8.8 0 0 1-6.24 2.53 8.64 8.64 0 0 1-8.91-8.91v-86.43q0-19.31-9.65-31.33t-29.85-12a53.28 53.28 0 0 0-42.77 21.83 36.24 36.24 0 0 0-7.13 21.53v86.43a8.91 8.91 0 1 1-17.82 0v-133.09a8.91 8.91 0 1 1 17.82 0v16.34q8-12.77 23-21.24a61.84 61.84 0 0 1 30.77-8.46q27.61 0 40.53 16.18z"/>
        </g>
    </g>
</svg>
