<svg xmlns="http://www.w3.org/2000/svg" width="150" height="57" fill="none" viewBox="0 0 150 57">
	<path fill="#000b25" d="M0 0h150v57H0z" />
	<g clip-path="url(#a)">
		<path fill="url(#b)"
			d="M24.356 35.079c-.776-1.558 4.313-10.785 5.894-10.785 1.583 0 6.661 9.244 5.894 10.785-.767 1.54-11.012 1.558-11.788 0" />
		<path fill="url(#c)" fill-rule="evenodd"
			d="M12.49 42.998c-2.337-4.695 12.998-32.497 17.76-32.497 4.766 0 20.077 27.856 17.764 32.497s-33.185 4.695-35.523 0m6.128-4.074c1.532 3.076 21.759 3.042 23.274 0 1.515-3.043-8.516-21.293-11.637-21.293s-13.17 18.217-11.637 21.293"
			clip-rule="evenodd" />
		<path fill="#fff"
			d="M124.86 38.5c-.14 0-.21 0-.264-.027a.25.25 0 0 1-.109-.11c-.027-.053-.027-.123-.027-.263V23.9c0-.14 0-.21.027-.263a.25.25 0 0 1 .109-.11c.054-.027.124-.027.264-.027h2.591c.14 0 .21 0 .264.027a.25.25 0 0 1 .109.11c.027.053.027.123.027.263v1.448a3.95 3.95 0 0 1 1.71-1.627q1.13-.552 2.537-.552 1.654 0 2.922.717a5.05 5.05 0 0 1 2.013 2.013q.717 1.269.717 2.95V38.1c0 .14 0 .21-.027.264a.25.25 0 0 1-.109.109c-.054.027-.124.027-.264.027h-2.812c-.14 0-.21 0-.264-.027a.25.25 0 0 1-.109-.11c-.027-.053-.027-.123-.027-.263v-8.396q0-1.488-.855-2.344-.826-.882-2.178-.882t-2.206.882q-.827.883-.827 2.344V38.1c0 .14 0 .21-.027.264a.25.25 0 0 1-.11.109c-.053.027-.123.027-.263.027zM119.09 21.818c-.14 0-.21 0-.264-.027a.25.25 0 0 1-.109-.11c-.027-.053-.027-.123-.027-.263v-3.06c0-.14 0-.21.027-.264a.25.25 0 0 1 .109-.109c.054-.027.124-.027.264-.027h2.812c.14 0 .21 0 .263.027a.25.25 0 0 1 .11.11c.027.053.027.123.027.263v3.06c0 .14 0 .21-.027.264a.25.25 0 0 1-.11.109c-.053.027-.123.027-.263.027zM119.09 38.5c-.14 0-.21 0-.264-.027a.25.25 0 0 1-.109-.11c-.027-.053-.027-.123-.027-.263V23.9c0-.14 0-.21.027-.263a.25.25 0 0 1 .109-.11c.054-.027.124-.027.264-.027h2.812c.14 0 .21 0 .263.027a.25.25 0 0 1 .11.11c.027.053.027.123.027.263v14.2c0 .14 0 .21-.027.264a.25.25 0 0 1-.11.109c-.053.027-.123.027-.263.027zM110.734 38.473c.054.027.124.027.264.027h2.812c.14 0 .21 0 .263-.027a.25.25 0 0 0 .11-.11c.027-.053.027-.123.027-.263V26.726h2.936c.14 0 .21 0 .264-.027a.25.25 0 0 0 .109-.11c.027-.053.027-.123.027-.263V23.9c0-.14 0-.21-.027-.264a.25.25 0 0 0-.109-.109c-.054-.027-.124-.027-.264-.027h-2.936v-.497q0-1.13.662-1.654.688-.55 1.875-.551.227 0 .469.022c.173.015.259.023.317-.002a.24.24 0 0 0 .121-.11c.03-.056.03-.137.03-.3v-2.214c0-.152 0-.228-.03-.294a.35.35 0 0 0-.124-.142c-.061-.04-.131-.049-.269-.068a7 7 0 0 0-.983-.063q-2.592 0-4.136 1.406-1.544 1.407-1.544 3.97v.497h-5.083c-.15 0-.225 0-.29.024a.4.4 0 0 0-.148.103c-.045.052-.071.122-.124.263l-3.715 9.95-3.741-9.951c-.053-.14-.08-.21-.125-.262a.4.4 0 0 0-.148-.103c-.064-.024-.14-.024-.289-.024h-2.884c-.197 0-.296 0-.359.041a.25.25 0 0 0-.106.157c-.016.074.02.165.093.349L99.39 38.5l-.33.8q-.442.937-1.021 1.516-.552.58-1.792.58-.442 0-.938-.084a7 7 0 0 1-.365-.05c-.194-.033-.292-.05-.354-.026a.24.24 0 0 0-.13.11c-.033.058-.033.149-.033.331v2.165c0 .121 0 .182.022.24.019.047.056.1.095.133.047.04.097.058.196.093q.342.12.735.175.578.11 1.185.11 2.124 0 3.53-1.213 1.433-1.185 2.288-3.364l5.259-13.29h2.86V38.1c0 .14 0 .21.027.263a.25.25 0 0 0 .109.11M89.431 38.5c-.14 0-.21 0-.263-.027a.25.25 0 0 1-.11-.11c-.027-.053-.027-.123-.027-.263V18.027c0-.14 0-.21.027-.264a.25.25 0 0 1 .11-.109c.053-.027.123-.027.263-.027h2.812c.14 0 .21 0 .264.027a.25.25 0 0 1 .109.11c.027.053.027.123.027.263V38.1c0 .14 0 .21-.027.263a.25.25 0 0 1-.11.11c-.053.027-.123.027-.263.027zM83.621 38.5c-.14 0-.21 0-.263-.027a.25.25 0 0 1-.11-.11c-.027-.053-.027-.123-.027-.263V18.027c0-.14 0-.21.027-.264a.25.25 0 0 1 .11-.109c.053-.027.123-.027.263-.027h2.812c.14 0 .21 0 .264.027a.25.25 0 0 1 .11.11c.026.053.026.123.026.263V38.1c0 .14 0 .21-.027.263a.25.25 0 0 1-.11.11c-.053.027-.123.027-.263.027zM74.555 38.831q-2.316 0-4.054-1.048a7.3 7.3 0 0 1-2.702-2.84q-.965-1.792-.965-3.97 0-2.261.965-3.999a7.5 7.5 0 0 1 2.675-2.785q1.71-1.02 3.805-1.02 2.344 0 3.971 1.02a6.6 6.6 0 0 1 2.481 2.648q.855 1.653.855 3.667 0 .413-.055.827-.015.225-.06.42c-.019.083-.028.124-.058.166a.3.3 0 0 1-.103.083c-.048.02-.097.02-.197.02H70.585q.165 1.655 1.268 2.647 1.103.993 2.73.993 1.24 0 2.095-.524.66-.412 1.103-.993c.12-.158.181-.237.242-.27a.3.3 0 0 1 .176-.042c.07.003.148.041.304.118l2.135 1.047c.119.059.179.088.215.137.03.041.049.098.049.15 0 .06-.029.115-.086.224q-.716 1.371-2.263 2.304-1.71 1.02-3.998 1.02m-.276-12.684q-1.35 0-2.343.827-.966.8-1.269 2.289h7.059q-.11-1.38-1.076-2.234-.937-.882-2.371-.882M57.65 38.5c-.14 0-.21 0-.263-.027a.25.25 0 0 1-.11-.11c-.026-.053-.026-.123-.026-.263v-2.647c0-.14 0-.21.027-.263a.25.25 0 0 1 .109-.11c.053-.027.123-.027.264-.027h.785q1.324 0 2.096-.744.8-.773.8-2.04V18.358c0-.14 0-.21.027-.264a.25.25 0 0 1 .109-.109c.053-.027.123-.027.263-.027h2.978c.14 0 .21 0 .264.027a.25.25 0 0 1 .109.11c.027.053.027.123.027.263V32.13q0 1.902-.827 3.336-.8 1.434-2.316 2.233-1.49.8-3.53.8z" />
	</g>
	<defs>
		<linearGradient id="b" x1="18.25" x2="48.249" y1="25.5" y2="42.001"
			gradientUnits="userSpaceOnUse">
			<stop stop-color="#aa5cc3" />
			<stop offset="1" stop-color="#00a4dc" />
		</linearGradient>
		<linearGradient id="c" x1="18.25" x2="48.249" y1="25.5" y2="42.001"
			gradientUnits="userSpaceOnUse">
			<stop stop-color="#aa5cc3" />
			<stop offset="1" stop-color="#00a4dc" />
		</linearGradient>
		<clipPath id="a">
			<path fill="#fff" d="M12.25 10.5h125.5v36H12.25z" />
		</clipPath>
	</defs>
</svg>