<svg width="1666" height="512" viewBox="0 0 1666 512" fill="none" xmlns="http://www.w3.org/2000/svg">
<g clip-path="url(#clip0_2156_1083)">
<path d="M180.03 340.797C170.03 320.718 235.621 201.789 255.999 201.789C276.407 201.799 341.858 320.937 331.968 340.797C322.079 360.657 190.029 360.876 180.03 340.797Z" fill="url(#paint0_linear_2156_1083)"/>
<path fill-rule="evenodd" clip-rule="evenodd" d="M27.1053 442.857C-3.03309 382.341 194.626 24 256 24C317.434 24 514.764 383.039 484.954 442.857C455.145 502.676 57.2438 503.374 27.1053 442.857ZM106.075 390.347C125.825 429.997 386.523 429.558 406.054 390.347C425.585 351.126 296.287 115.901 256.06 115.901C215.832 115.901 86.3254 350.697 106.075 390.347Z" fill="url(#paint1_linear_2156_1083)"/>
<path d="M1475.42 384.887C1473.61 384.887 1472.71 384.887 1472.02 384.536C1471.42 384.227 1470.92 383.734 1470.61 383.128C1470.26 382.438 1470.26 381.536 1470.26 379.732V196.71C1470.26 194.905 1470.26 194.003 1470.61 193.313C1470.92 192.707 1471.42 192.214 1472.02 191.905C1472.71 191.554 1473.61 191.554 1475.42 191.554H1508.82C1510.62 191.554 1511.53 191.554 1512.22 191.905C1512.82 192.214 1513.31 192.707 1513.62 193.313C1513.97 194.003 1513.97 194.905 1513.97 196.71V215.365C1519.19 206.125 1526.53 199.136 1536.01 194.397C1545.72 189.659 1556.62 187.289 1568.71 187.289C1582.92 187.289 1595.48 190.37 1606.37 196.53C1617.51 202.689 1626.16 211.337 1632.32 222.473C1638.48 233.372 1641.56 246.048 1641.56 260.5V379.732C1641.56 381.536 1641.56 382.438 1641.21 383.128C1640.9 383.734 1640.41 384.227 1639.8 384.536C1639.11 384.887 1638.21 384.887 1636.41 384.887H1600.16C1598.35 384.887 1597.45 384.887 1596.76 384.536C1596.15 384.227 1595.66 383.734 1595.35 383.128C1595 382.438 1595 381.536 1595 379.732V271.517C1595 258.723 1591.33 248.654 1583.99 241.309C1576.88 233.727 1567.52 229.936 1555.91 229.936C1544.3 229.936 1534.82 233.727 1527.48 241.309C1520.37 248.891 1516.82 258.96 1516.82 271.517V379.732C1516.82 381.536 1516.82 382.438 1516.47 383.128C1516.16 383.734 1515.66 384.227 1515.06 384.536C1514.37 384.887 1513.47 384.887 1511.66 384.887H1475.42Z" fill="#000B25"/>
<path d="M1401.05 169.88C1399.24 169.88 1398.34 169.88 1397.65 169.529C1397.05 169.22 1396.56 168.727 1396.25 168.121C1395.89 167.432 1395.89 166.53 1395.89 164.724V125.281C1395.89 123.476 1395.89 122.574 1396.25 121.884C1396.56 121.279 1397.05 120.786 1397.65 120.476C1398.34 120.125 1399.24 120.125 1401.05 120.125H1437.29C1439.1 120.125 1440 120.125 1440.69 120.476C1441.29 120.786 1441.79 121.279 1442.1 121.884C1442.45 122.574 1442.45 123.476 1442.45 125.281V164.724C1442.45 166.53 1442.45 167.432 1442.1 168.121C1441.79 168.727 1441.29 169.22 1440.69 169.529C1440 169.88 1439.1 169.88 1437.29 169.88H1401.05Z" fill="#000B25"/>
<path d="M1401.05 384.889C1399.24 384.889 1398.34 384.889 1397.65 384.538C1397.05 384.228 1396.56 383.735 1396.25 383.13C1395.89 382.44 1395.89 381.538 1395.89 379.733V196.711C1395.89 194.906 1395.89 194.004 1396.25 193.315C1396.56 192.709 1397.05 192.216 1397.65 191.907C1398.34 191.556 1399.24 191.556 1401.05 191.556H1437.29C1439.1 191.556 1440 191.556 1440.69 191.907C1441.29 192.216 1441.79 192.709 1442.1 193.315C1442.45 194.004 1442.45 194.906 1442.45 196.711V379.733C1442.45 381.538 1442.45 382.44 1442.1 383.13C1441.79 383.735 1441.29 384.228 1440.69 384.538C1440 384.889 1439.1 384.889 1437.29 384.889H1401.05Z" fill="#000B25"/>
<path d="M1293.35 384.539C1294.04 384.89 1294.94 384.89 1296.75 384.89H1333C1334.8 384.89 1335.7 384.89 1336.39 384.539C1337 384.23 1337.49 383.737 1337.8 383.131C1338.15 382.441 1338.15 381.539 1338.15 379.735V233.138H1375.99C1377.8 233.138 1378.7 233.138 1379.39 232.786C1380 232.478 1380.49 231.985 1380.8 231.378C1381.15 230.689 1381.15 229.786 1381.15 227.982V196.712C1381.15 194.908 1381.15 194.005 1380.8 193.316C1380.49 192.71 1380 192.217 1379.39 191.908C1378.7 191.557 1377.8 191.557 1375.99 191.557H1338.15V185.159C1338.15 175.446 1340.99 168.337 1346.68 163.836C1352.6 159.097 1360.66 156.728 1370.84 156.728C1372.8 156.728 1374.81 156.823 1376.9 157.011C1379.12 157.213 1380.23 157.314 1380.98 156.989C1381.68 156.69 1382.17 156.233 1382.53 155.572C1382.93 154.851 1382.93 153.804 1382.93 151.708V123.175C1382.93 121.213 1382.93 120.232 1382.53 119.378C1382.21 118.668 1381.6 117.966 1380.94 117.546C1380.15 117.042 1379.25 116.92 1377.48 116.674C1373.52 116.13 1369.3 115.858 1364.81 115.858C1342.53 115.858 1324.76 121.9 1311.49 133.983C1298.23 146.067 1291.59 163.125 1291.59 185.159V191.557H1249.74C1249.63 191.557 1249.52 191.557 1249.41 191.557H1226.08C1224.15 191.557 1223.18 191.557 1222.35 191.874C1221.61 192.154 1220.96 192.608 1220.44 193.198C1219.85 193.866 1219.52 194.773 1218.84 196.585L1170.96 324.829L1122.73 196.569C1122.06 194.762 1121.72 193.858 1121.13 193.192C1120.61 192.604 1119.96 192.151 1119.22 191.873C1118.39 191.557 1117.42 191.557 1115.5 191.557H1078.32C1075.78 191.557 1074.51 191.557 1073.7 192.091C1073 192.558 1072.5 193.285 1072.33 194.115C1072.13 195.063 1072.59 196.244 1073.52 198.607L1147.15 384.89L1142.89 395.197C1139.09 403.252 1134.71 409.768 1129.73 414.743C1125 419.718 1117.29 422.206 1106.64 422.206C1102.84 422.206 1098.81 421.851 1094.55 421.14C1092.91 420.958 1091.34 420.741 1089.85 420.489C1087.34 420.068 1086.08 419.857 1085.28 420.155C1084.52 420.434 1084 420.876 1083.6 421.573C1083.18 422.318 1083.18 423.493 1083.18 425.843V453.739C1083.18 455.307 1083.18 456.092 1083.47 456.842C1083.71 457.449 1084.19 458.132 1084.69 458.555C1085.3 459.077 1085.94 459.3 1087.21 459.747C1090.15 460.774 1093.31 461.528 1096.69 462.01C1101.66 462.958 1106.75 463.432 1111.96 463.432C1130.21 463.432 1145.37 458.22 1157.46 447.794C1169.77 437.606 1179.61 423.154 1186.95 404.437L1254.73 233.138H1291.59V379.735C1291.59 381.539 1291.59 382.441 1291.95 383.131C1292.25 383.737 1292.74 384.23 1293.35 384.539Z" fill="#000B25"/>
<path d="M1018.79 384.89C1016.98 384.89 1016.08 384.89 1015.39 384.539C1014.78 384.23 1014.29 383.737 1013.98 383.131C1013.63 382.441 1013.63 381.539 1013.63 379.735V121.014C1013.63 119.21 1013.63 118.307 1013.98 117.618C1014.29 117.011 1014.78 116.518 1015.39 116.21C1016.08 115.858 1016.98 115.858 1018.79 115.858H1055.03C1056.83 115.858 1057.74 115.858 1058.43 116.21C1059.03 116.518 1059.52 117.011 1059.83 117.618C1060.19 118.307 1060.19 119.21 1060.19 121.014V379.735C1060.19 381.539 1060.19 382.441 1059.83 383.131C1059.52 383.737 1059.03 384.23 1058.43 384.539C1057.74 384.89 1056.83 384.89 1055.03 384.89H1018.79Z" fill="#000B25"/>
<path d="M943.895 384.89C942.09 384.89 941.188 384.89 940.499 384.539C939.893 384.23 939.397 383.737 939.087 383.131C938.739 382.441 938.739 381.539 938.739 379.735V121.014C938.739 119.21 938.739 118.307 939.087 117.618C939.397 117.011 939.893 116.518 940.499 116.21C941.188 115.858 942.09 115.858 943.895 115.858H980.138C981.943 115.858 982.845 115.858 983.535 116.21C984.14 116.518 984.637 117.011 984.946 117.618C985.294 118.307 985.294 119.21 985.294 121.014V379.735C985.294 381.539 985.294 382.441 984.946 383.131C984.637 383.737 984.14 384.23 983.535 384.539C982.845 384.89 981.943 384.89 980.138 384.89H943.895Z" fill="#000B25"/>
<path d="M827.042 389.152C807.141 389.152 789.722 384.65 774.797 375.647C759.871 366.644 748.265 354.442 739.971 339.042C731.677 323.641 727.533 306.583 727.533 287.865C727.533 268.437 731.677 251.26 739.971 236.333C748.497 221.17 759.994 209.205 774.442 200.439C789.136 191.673 805.479 187.289 823.485 187.289C843.623 187.289 860.688 191.673 874.666 200.439C888.644 208.968 899.303 220.341 906.65 234.556C913.997 248.772 917.664 264.528 917.664 281.823C917.664 285.377 917.432 288.931 916.955 292.486C916.819 294.411 916.562 296.218 916.181 297.904C915.943 298.966 915.827 299.497 915.44 300.034C915.131 300.462 914.583 300.901 914.1 301.109C913.488 301.37 912.85 301.37 911.567 301.37H775.867C777.284 315.586 782.736 326.958 792.216 335.488C801.689 344.017 813.418 348.282 827.396 348.282C838.055 348.282 847.065 346.031 854.405 341.53C860.07 337.99 864.806 333.724 868.621 328.731C870.175 326.694 870.954 325.675 871.741 325.239C872.495 324.819 873.145 324.667 874.009 324.705C874.905 324.744 875.917 325.238 877.927 326.227L905.438 339.723C906.979 340.479 907.752 340.856 908.216 341.489C908.609 342.02 908.848 342.752 908.848 343.412C908.848 344.198 908.474 344.904 907.739 346.316C901.585 358.09 891.867 367.985 878.572 376.002C863.885 384.769 846.704 389.152 827.042 389.152ZM823.485 225.672C811.878 225.672 801.805 229.226 793.279 236.333C784.985 243.204 779.54 253.037 776.93 265.831H867.913C866.965 253.985 862.345 244.389 854.051 237.044C845.995 229.462 835.806 225.672 823.485 225.672Z" fill="#000B25"/>
<path d="M609.161 384.892C607.357 384.892 606.455 384.892 605.765 384.541C605.159 384.233 604.666 383.74 604.357 383.133C604.006 382.444 604.006 381.541 604.006 379.737V345.624C604.006 343.819 604.006 342.917 604.357 342.228C604.666 341.621 605.159 341.128 605.765 340.82C606.455 340.468 607.357 340.468 609.161 340.468H619.288C630.661 340.468 639.664 337.27 646.298 330.873C653.169 324.239 656.604 315.472 656.604 304.574V125.281C656.604 123.476 656.604 122.574 656.955 121.884C657.264 121.279 657.757 120.786 658.363 120.476C659.053 120.125 659.955 120.125 661.76 120.125H700.142C701.947 120.125 702.849 120.125 703.538 120.476C704.144 120.786 704.634 121.279 704.943 121.884C705.298 122.574 705.298 123.476 705.298 125.281V302.797C705.298 319.145 701.74 333.479 694.632 345.799C687.762 358.12 677.812 367.715 664.778 374.586C651.984 381.457 636.82 384.892 619.288 384.892H609.161Z" fill="#000B25"/>
</g>
<defs>
<linearGradient id="paint0_linear_2156_1083" x1="101.333" y1="217.338" x2="487.993" y2="430.016" gradientUnits="userSpaceOnUse">
<stop stop-color="#AA5CC3"/>
<stop offset="1" stop-color="#00A4DC"/>
</linearGradient>
<linearGradient id="paint1_linear_2156_1083" x1="101.333" y1="217.328" x2="487.994" y2="430.006" gradientUnits="userSpaceOnUse">
<stop stop-color="#AA5CC3"/>
<stop offset="1" stop-color="#00A4DC"/>
</linearGradient>
<clipPath id="clip0_2156_1083">
<rect width="1617.56" height="464" fill="white" transform="translate(24 24)"/>
</clipPath>
</defs>
</svg>
