<?xml version="1.0" encoding="utf-8"?>
<!-- Generator: Adobe Illustrator 23.0.3, SVG Export Plug-In . SVG Version: 6.00 Build 0)  -->
<svg version="1.1" id="banner-dark" xmlns="http://www.w3.org/2000/svg" xmlns:xlink="http://www.w3.org/1999/xlink" x="0px"
	 y="0px" viewBox="0 0 3840 2160" style="enable-background:new 0 0 3840 2160;" xml:space="preserve">
<style type="text/css">
	.st0{fill:#000B25;}
	.st1{fill:url(#inner-shape_1_);}
	.st2{fill:url(#outer-shape_1_);}
	.st3{fill:#FFFFFF;}
</style>
<rect class="st0" width="3840" height="2160"/>
<title>splash</title>
<g>
	<g id="banner-dark-icon">
		
			<linearGradient id="inner-shape_1_" gradientUnits="userSpaceOnUse" x1="1264.3142" y1="798.0493" x2="1650.2042" y2="1020.8393" gradientTransform="matrix(1 0 0 1 0 114)">
			<stop  offset="0" style="stop-color:#AA5CC3"/>
			<stop  offset="1" style="stop-color:#00A4DC"/>
		</linearGradient>
		<path id="inner-shape" class="st1" d="M1412.5,905.6c-20.4,0-86.2,119.3-76.2,139.4s142.5,19.9,152.4,0
			C1498.6,1025.1,1432.9,905.6,1412.5,905.6z"/>
		
			<linearGradient id="outer-shape_1_" gradientUnits="userSpaceOnUse" x1="1261.3478" y1="803.2946" x2="1647.2378" y2="1026.0846" gradientTransform="matrix(1 0 0 1 0 114)">
			<stop  offset="0" style="stop-color:#AA5CC3"/>
			<stop  offset="1" style="stop-color:#00A4DC"/>
		</linearGradient>
		<path id="outer-shape" class="st2" d="M1412.5,727.3c-61.6,0-259.8,359.4-229.6,420.1c30.2,60.7,429.3,60,459.2,0
			C1672,1087.4,1474,727.3,1412.5,727.3z M1562.9,1094.8c-19.6,39.3-281.1,39.8-300.9,0s110.1-275.3,150.5-275.3
			S1582.5,1055.4,1562.9,1094.8z"/>
	</g>
	<g id="jellyfin-light-outlines" transform="translate(43.8)">
		<path class="st3" d="M1707.7,1054.8c-10-6.9-17.9-16.4-22.9-27.5c-0.9-1.4-1.5-3.1-1.5-4.8c0-2.3,1-4.5,2.8-5.9
			c1.7-1.5,3.8-2.4,6.1-2.4c3.2,0,5.9,1.7,8.3,5c3.5,8.2,9.1,15.2,16.3,20.3c7,5,15.4,7.7,24,7.6c13.7,0,24.8-4.2,33.3-12.6
			s12.8-19.5,12.8-33.1V863c-0.1-2.4,0.9-4.7,2.7-6.4c1.9-1.7,4.3-2.6,6.8-2.5c2.5-0.1,4.9,0.8,6.7,2.5c1.7,1.7,2.6,4,2.5,6.4v138.4
			c0.2,11.4-2.7,22.7-8.3,32.7c-5.4,9.6-13.4,17.4-23,22.7c-9.8,5.5-20.9,8.2-33.4,8.2C1729,1065.1,1717.4,1061.5,1707.7,1054.8z"/>
		<path class="st3" d="M1982.7,983.5c-1.7,1.6-3.9,2.6-6.2,2.5h-112.3c0,11.9,2.4,22.5,7.3,31.9c4.7,9.2,11.9,17,20.8,22.3
			c9,5.5,19.7,8.2,31.9,8.2c8.9,0.1,17.6-1.9,25.5-5.9c7.1-3.6,13.3-8.8,18.1-15.2c1.7-1.6,3.9-2.5,6.2-2.7c4.2,0.2,7.5,3.5,7.7,7.7
			c-0.1,2.4-1.2,4.7-3,6.2c-6.6,7.9-14.7,14.4-23.9,19c-9.4,4.9-19.8,7.4-30.4,7.4c-15.2,0-28.7-3.3-40.4-9.8
			c-11.5-6.4-21-15.9-27.3-27.5c-6.5-11.8-9.8-25.4-9.8-40.8c0-16.2,3.2-30.4,9.7-42.6s15-21.5,25.7-27.9
			c10.3-6.3,22.1-9.7,34.2-9.6c11.7-0.1,23.1,2.8,33.4,8.3c10.5,5.7,19.3,14.1,25.4,24.4c6.5,10.7,9.9,23.3,10.1,38
			C1985.4,979.7,1984.4,981.9,1982.7,983.5z M1884.5,935.8c-9.8,7.9-16.1,19.3-18.9,34.2H1967v-2.4c-0.8-8.4-3.9-16.5-8.9-23.3
			c-4.8-6.5-11.2-11.7-18.6-15.1c-7.2-3.4-15-5.2-23-5.2C1905,923.9,1894.3,927.9,1884.5,935.8z"/>
		<path class="st3" d="M2039.3,1059.5c-3.4,3.5-9.1,3.6-12.6,0.1c-1.8-1.7-2.7-4.1-2.7-6.5v-202c0-4.9,4-8.9,8.9-8.9s8.9,4,8.9,8.9
			v202C2041.9,1055.5,2041,1057.8,2039.3,1059.5z"/>
		<path class="st3" d="M2107.6,1059.5c-3.4,3.5-9.1,3.6-12.6,0.1c-1.8-1.7-2.7-4.1-2.7-6.5v-202c0-4.9,4-8.9,8.9-8.9s8.9,4,8.9,8.9
			v202C2110.2,1055.5,2109.3,1057.8,2107.6,1059.5z"/>
		<path class="st3" d="M2273.9,910.1c1.7,1.7,2.6,4,2.5,6.4v131c0,15.6-3.1,29-9.2,40.1c-5.8,10.8-14.7,19.6-25.5,25.3
			c-10.9,5.7-23.2,8.6-36.8,8.6c-7.9,0.1-15.7-0.8-23.3-2.7c-6.3-1.4-12.4-3.8-18-7.1c-4.2-2.6-6.2-5.5-6.2-8.6c0.1-1,0.3-2,0.6-3
			c0.5-1.8,1.5-3.4,3-4.5c1.3-1,2.8-1.5,4.4-1.5c1.2,0,2.5,0.3,3.6,0.9c12.7,6.9,24.7,10.4,36.2,10.4c16.4,0,29.5-5.1,39.1-15.4
			s14.4-24.4,14.4-42.2v-10.4c-5.2,8.5-12.6,15.4-21.4,20c-9.3,5-19.7,7.7-30.3,7.6c-17.2,0-30.3-5.2-39.2-15.4
			c-8.9-10.3-13.4-24.3-13.4-41.9v-91.1c0-4.9,4-8.9,8.9-8.9s8.9,4,8.9,8.9v88.5c0,14.3,3.1,25.1,9.4,32.4s16,11,29.3,11
			c8.2,0,16.2-2.1,23.3-6.1c7.2-3.8,13.3-9.3,17.8-16c4.3-6.2,6.7-13.6,6.7-21.2v-88.6c0-5,4.1-9,9-9
			C2270,907.6,2272.2,908.5,2273.9,910.1z"/>
		<path class="st3" d="M2361.2,865.4c-3.5,4.2-5.2,9.9-5.2,17.2v30.6h33.3c2.2,0,4.3,0.9,5.8,2.4c3.3,3.2,3.4,8.4,0.2,11.7
			c-0.1,0.1-0.1,0.1-0.2,0.2c-1.5,1.5-3.6,2.4-5.8,2.4H2356v123.3c0,4.9-4,8.9-8.9,8.9s-8.9-4-8.9-8.9l0,0V929.9h-21.7
			c-2.3,0.1-4.4-0.9-5.9-2.5c-1.5-1.5-2.4-3.6-2.4-5.8c-0.1-2.3,0.7-4.5,2.4-6.1c1.6-1.5,3.7-2.3,5.9-2.2h21.7v-30.6
			c0-12.5,3.6-22.1,10.8-29s16.9-10.3,29-10.2c5.3,0,10.5,0.8,15.4,2.5c4.8,1.7,7.1,4.4,7.1,8.2c0.1,2.2-0.8,4.4-2.4,5.9
			c-1.4,1.5-3.3,2.4-5.4,2.4c-2.2-0.1-4.5-0.6-6.5-1.5c-3.4-1-6.9-1.6-10.4-1.8C2369.6,859.2,2364.7,861.3,2361.2,865.4z
			 M2427,884.9c-2.2-1.9-3.3-4.6-3.3-8.2v-3c0-3.6,1.1-6.3,3.4-8.2c2.3-1.9,5.4-2.8,9.4-2.8c7.9,0,11.9,3.7,11.9,11v3
			c0,3.6-1,6.3-3.1,8.2s-5.1,2.8-9.1,2.8C2432.3,887.7,2429.2,886.8,2427,884.9z M2442.6,1059.5c-3.4,3.5-9.1,3.6-12.6,0.1
			c-1.8-1.7-2.7-4.1-2.7-6.5V916.5c0-4.9,4-8.9,8.9-8.9s8.9,4,8.9,8.9l0,0v136.6C2445.2,1055.5,2444.3,1057.8,2442.6,1059.5
			L2442.6,1059.5z"/>
		<path class="st3" d="M2603.6,922.9c8.6,10.8,12.9,25.1,12.9,42.9v87.3c0.1,2.4-0.9,4.7-2.7,6.4c-1.7,1.6-3.9,2.5-6.2,2.5
			c-4.8,0.2-8.8-3.6-8.9-8.4c0-0.2,0-0.4,0-0.5v-86.4c0-12.9-3.2-23.3-9.6-31.3c-6.4-8-16.4-12-29.9-12
			c-16.9,0.1-32.8,8.2-42.8,21.8c-4.6,6.2-7.1,13.8-7.1,21.5v86.4c0,4.9-4,8.9-8.9,8.9s-8.9-4-8.9-8.9l0,0v-133c0-4.9,4-8.9,8.9-8.9
			s8.9,4,8.9,8.9l0,0v16.3c5.3-8.5,13-15.6,23-21.2c9.3-5.5,19.9-8.4,30.8-8.5C2581.4,906.7,2594.9,912.1,2603.6,922.9z"/>
	</g>
</g>
</svg>
