<svg xmlns="http://www.w3.org/2000/svg" width="164" height="314" fill="none" viewBox="0 0 164 314">
	<path fill="#000b25" d="M0 0h164v314H0z" />
	<g clip-path="url(#a)">
		<path fill="url(#b)"
			d="M31.356 44.579c-.776-1.558 4.313-10.785 5.894-10.785 1.583 0 6.661 9.244 5.894 10.785-.767 1.54-11.012 1.557-11.788 0" />
		<path fill="url(#c)" fill-rule="evenodd"
			d="M19.49 52.498C17.154 47.803 32.489 20 37.25 20c4.766 0 20.077 27.857 17.764 32.498s-33.185 4.695-35.523 0m6.128-4.074c1.532 3.076 21.759 3.042 23.274 0 1.515-3.043-8.516-21.293-11.637-21.293s-13.17 18.217-11.637 21.293"
			clip-rule="evenodd" />
		<path fill="#fff"
			d="M131.86 48c-.14 0-.21 0-.263-.027a.25.25 0 0 1-.11-.11c-.027-.053-.027-.123-.027-.263V33.4c0-.14 0-.21.027-.264a.25.25 0 0 1 .11-.109c.053-.027.123-.027.263-.027h2.592c.14 0 .21 0 .263.027a.25.25 0 0 1 .109.11c.028.053.028.123.028.263v1.447a3.95 3.95 0 0 1 1.709-1.627q1.131-.55 2.537-.551 1.654 0 2.923.717a5.05 5.05 0 0 1 2.013 2.013q.717 1.268.717 2.95v9.25c0 .14 0 .21-.028.264a.25.25 0 0 1-.109.11c-.053.027-.123.027-.263.027h-2.813c-.14 0-.21 0-.263-.027a.25.25 0 0 1-.109-.11c-.028-.053-.028-.123-.028-.263v-8.396q0-1.49-.854-2.344-.828-.882-2.179-.882t-2.206.882q-.827.882-.827 2.344V47.6c0 .14 0 .21-.027.263a.25.25 0 0 1-.109.11c-.054.027-.124.027-.264.027zM126.09 31.318c-.14 0-.21 0-.263-.027a.25.25 0 0 1-.109-.11c-.028-.053-.028-.123-.028-.263v-3.06c0-.14 0-.21.028-.264a.25.25 0 0 1 .109-.11c.053-.027.123-.027.263-.027h2.812c.14 0 .21 0 .264.028a.25.25 0 0 1 .109.109c.027.053.027.123.027.264v3.06c0 .14 0 .21-.027.263a.25.25 0 0 1-.109.11c-.054.027-.124.027-.264.027zM126.09 48c-.14 0-.21 0-.263-.028a.25.25 0 0 1-.109-.109c-.028-.053-.028-.123-.028-.263V33.4c0-.14 0-.21.028-.264a.25.25 0 0 1 .109-.109c.053-.027.123-.027.263-.027h2.812c.14 0 .21 0 .264.027a.25.25 0 0 1 .109.11c.027.053.027.123.027.263v14.2c0 .14 0 .21-.027.263a.25.25 0 0 1-.109.11c-.054.027-.124.027-.264.027zM117.734 47.973c.054.027.124.027.264.027h2.812c.14 0 .21 0 .263-.027a.25.25 0 0 0 .11-.11c.027-.053.027-.123.027-.263V36.226h2.936c.14 0 .21 0 .264-.027a.25.25 0 0 0 .109-.11c.027-.053.027-.123.027-.263V33.4c0-.14 0-.21-.027-.264a.25.25 0 0 0-.109-.109c-.054-.027-.124-.027-.264-.027h-2.936v-.496q0-1.131.662-1.655.688-.55 1.875-.551.227 0 .469.022c.173.015.259.023.317-.002a.24.24 0 0 0 .121-.11c.03-.056.03-.137.03-.3v-2.214c0-.152 0-.228-.03-.294a.35.35 0 0 0-.124-.142c-.061-.04-.131-.049-.269-.068a7 7 0 0 0-.983-.063q-2.592 0-4.136 1.406-1.544 1.407-1.544 3.97V33h-5.083c-.15 0-.225 0-.29.025a.4.4 0 0 0-.148.102c-.045.052-.071.122-.124.263l-3.715 9.95-3.741-9.951c-.053-.14-.079-.21-.125-.262a.4.4 0 0 0-.148-.103c-.064-.024-.139-.024-.289-.024h-2.884c-.197 0-.296 0-.359.041a.25.25 0 0 0-.106.157c-.016.074.02.166.093.349L106.391 48l-.331.8q-.441.937-1.02 1.516-.552.58-1.792.58-.442 0-.938-.084a7 7 0 0 1-.365-.05c-.194-.033-.292-.05-.354-.026a.23.23 0 0 0-.13.11c-.033.058-.033.149-.033.331v2.165c0 .121 0 .182.022.24.019.047.056.1.095.133.047.04.097.058.196.093q.342.12.735.175.579.11 1.185.11 2.124 0 3.53-1.213 1.433-1.185 2.288-3.364l5.259-13.29h2.86V47.6c0 .14 0 .21.027.263a.25.25 0 0 0 .109.11M96.431 48c-.14 0-.21 0-.263-.027a.25.25 0 0 1-.11-.11c-.027-.053-.027-.123-.027-.263V27.527c0-.14 0-.21.027-.264a.25.25 0 0 1 .11-.109c.053-.027.123-.027.263-.027h2.812c.14 0 .21 0 .264.027a.25.25 0 0 1 .109.11c.027.053.027.123.027.263V47.6c0 .14 0 .21-.027.263a.25.25 0 0 1-.11.11c-.053.027-.123.027-.263.027zM90.621 48c-.14 0-.21 0-.263-.027a.25.25 0 0 1-.11-.11c-.027-.053-.027-.123-.027-.263V27.527c0-.14 0-.21.027-.264a.25.25 0 0 1 .11-.109c.053-.027.123-.027.263-.027h2.812c.14 0 .21 0 .264.027a.25.25 0 0 1 .11.11c.026.053.026.123.026.263V47.6c0 .14 0 .21-.027.263a.25.25 0 0 1-.11.11c-.053.027-.123.027-.263.027zM81.555 48.33q-2.316 0-4.054-1.047a7.3 7.3 0 0 1-2.702-2.84q-.965-1.792-.965-3.97 0-2.261.965-3.999a7.5 7.5 0 0 1 2.675-2.785q1.71-1.02 3.805-1.02 2.344 0 3.971 1.02a6.6 6.6 0 0 1 2.481 2.647q.855 1.655.855 3.668 0 .413-.055.827-.015.225-.06.42c-.019.083-.028.124-.058.165a.3.3 0 0 1-.103.084c-.048.02-.097.02-.197.02H77.585q.165 1.654 1.268 2.647t2.73.993q1.24 0 2.095-.524.66-.413 1.103-.993c.12-.158.181-.237.242-.271a.3.3 0 0 1 .176-.041c.07.002.148.04.304.118l2.135 1.047c.119.058.179.088.215.137.03.04.049.098.049.149 0 .06-.029.116-.086.225q-.716 1.37-2.263 2.303-1.71 1.02-3.998 1.02m-.276-12.683q-1.35 0-2.343.827-.966.8-1.269 2.289h7.059q-.11-1.38-1.076-2.234-.937-.882-2.371-.882M64.651 48c-.14 0-.21 0-.263-.027a.25.25 0 0 1-.11-.11c-.027-.053-.027-.123-.027-.263v-2.647c0-.14 0-.21.027-.263a.25.25 0 0 1 .11-.11c.053-.027.123-.027.263-.027h.786q1.323 0 2.095-.744.8-.772.8-2.04V27.857c0-.14 0-.21.027-.264a.25.25 0 0 1 .11-.11c.053-.027.123-.027.263-.027h2.978c.14 0 .21 0 .263.028a.25.25 0 0 1 .11.109c.027.053.027.123.027.264V41.63q0 1.903-.828 3.337-.8 1.434-2.316 2.233-1.49.8-3.53.8z" />
	</g>
	<defs>
		<linearGradient id="b" x1="25.25" x2="55.249" y1="35" y2="51.501"
			gradientUnits="userSpaceOnUse">
			<stop stop-color="#aa5cc3" />
			<stop offset="1" stop-color="#00a4dc" />
		</linearGradient>
		<linearGradient id="c" x1="25.25" x2="55.249" y1="35" y2="51.501"
			gradientUnits="userSpaceOnUse">
			<stop stop-color="#aa5cc3" />
			<stop offset="1" stop-color="#00a4dc" />
		</linearGradient>
		<clipPath id="a">
			<path fill="#fff" d="M19.25 20h125.5v36H19.25z" />
		</clipPath>
	</defs>
</svg>