<svg width="302" height="144" viewBox="0 0 302 144" fill="none" xmlns="http://www.w3.org/2000/svg">
<path d="M63.0228 45.7801C66.6507 45.5898 68.6883 45.6179 72.2684 45.78C72.7682 45.7842 73.172 46.1907 73.172 46.6915V80.0654C73.172 82.7619 72.6792 85.2089 71.6876 87.4009L71.6864 87.4035C70.6959 89.5408 69.2877 91.3665 67.4641 92.8779C65.6934 94.3878 63.5883 95.5558 61.1536 96.3846L61.1498 96.3859C58.7634 97.164 56.1491 97.5513 53.3095 97.5513C50.6703 97.5513 48.3043 97.1372 46.2168 96.3023L46.208 96.2987C44.186 95.4173 42.4432 94.2999 40.9836 92.9444L40.9794 92.9406C39.5782 91.5912 38.4585 90.1342 37.6238 88.5692C36.8911 87.1953 36.3578 85.8565 36.0272 84.5531C35.9154 84.1125 36.1568 83.6737 36.5631 83.5086C39.1658 82.1323 40.9589 81.5004 44.4418 80.52C44.9156 80.349 45.43 80.5959 45.6127 81.054C46.3874 82.9972 47.3647 84.5019 48.536 85.5838C49.8521 86.7527 51.4872 87.3429 53.4629 87.3429C54.9454 87.3429 56.3528 86.9975 57.689 86.3047C59.0034 85.6231 60.0592 84.5245 60.8519 82.9888L60.8555 82.9818C61.6912 81.4577 62.1204 79.4699 62.1204 76.9988V46.6915C62.1204 46.1911 62.5236 45.7849 63.0228 45.7801Z" fill="black"/>
<path fill-rule="evenodd" clip-rule="evenodd" d="M96.594 56.5996C92.6616 56.5996 89.1569 57.4797 86.0887 59.2476C83.0752 60.9623 80.6847 63.3536 78.9199 66.4161L78.9179 66.4196C77.2017 69.4879 76.3481 73.0173 76.3481 76.9988C76.3481 80.9786 77.1755 84.5068 78.8393 87.5744L78.8412 87.578C80.5541 90.6404 82.8926 93.0574 85.8539 94.8238L85.8574 94.8259C88.824 96.5434 92.227 97.3979 96.0573 97.3979C99.1007 97.3979 101.82 96.9853 104.21 96.1539C106.597 95.3236 108.654 94.1272 110.375 92.563C111.979 91.0998 113.306 89.4005 114.352 87.4668C114.61 86.9906 114.384 86.4124 113.899 86.2123C110.968 84.7103 109.217 84.0316 105.941 83.1101C105.502 82.9482 105.027 83.1464 104.805 83.5351C104.133 84.708 103.231 85.6878 102.093 86.4761C100.829 87.3012 99.1827 87.7263 97.1306 87.7263C95.4395 87.7263 93.8511 87.3789 92.3619 86.685C90.9293 85.9429 89.744 84.906 88.8033 83.571C88.1245 82.5131 87.7049 81.3226 87.5474 79.9946H114.702C115.204 79.9946 115.616 79.5859 115.609 79.078C115.539 74.4477 114.665 70.4839 112.973 67.1981C111.265 63.7303 108.953 61.1024 106.036 59.33C103.174 57.51 100.025 56.5996 96.594 56.5996ZM92.6428 66.5571C93.9433 66.0569 95.1573 65.8113 96.2873 65.8113C97.4166 65.8113 98.5769 66.0566 99.7704 66.5539L99.7746 66.5556C100.999 67.0453 102.027 67.8281 102.863 68.9099L102.868 68.9154C103.482 69.6743 103.873 70.6492 104.027 71.8563H88.0919C88.2546 70.6535 88.6676 69.6811 89.3175 68.9227C90.2564 67.8356 91.3642 67.0489 92.6428 66.5571Z" fill="black"/>
<path d="M119 43.3842C122.521 43.213 124.486 43.2055 127.939 43.3842C128.438 43.389 128.841 43.7953 128.841 44.2957V95.5665C128.841 96.0678 128.437 96.4745 127.936 96.4779C124.479 96.6057 122.519 96.6091 119.002 96.4779C118.501 96.4745 118.096 96.0678 118.096 95.5665V44.2957C118.096 43.7951 118.5 43.3887 119 43.3842Z" fill="black"/>
<path d="M134.71 43.3842C138.198 43.2152 140.162 43.2211 143.649 43.3842C144.148 43.3885 144.552 43.7949 144.552 44.2956V95.5665C144.552 96.0679 144.147 96.4747 143.647 96.4779C140.215 96.596 138.258 96.6022 134.713 96.4779C134.212 96.4746 133.807 96.0678 133.807 95.5665V44.2956C133.807 43.795 134.211 43.3887 134.71 43.3842Z" fill="black"/>
<path d="M178.604 57.5196C182.379 57.3603 184.549 57.3288 188.428 57.5196C189.074 57.5253 189.51 58.1847 189.26 58.7826L172.204 99.5831C171.126 102.149 169.995 104.412 168.81 106.369C167.613 108.399 166.123 109.971 164.338 111.074C162.586 112.188 160.299 112.731 157.502 112.731C156.081 112.731 154.515 112.442 152.806 111.873C151.36 111.421 150.049 110.889 148.873 110.275C148.448 110.053 148.284 109.541 148.473 109.114C149.519 106.345 150.23 104.775 151.745 101.969C151.968 101.498 152.534 101.314 152.992 101.542C153.634 101.861 154.227 102.117 154.771 102.311L154.782 102.315C155.527 102.613 156.15 102.753 156.659 102.753C157.668 102.753 158.547 102.466 159.308 101.895L159.318 101.888C160.078 101.365 160.71 100.573 161.203 99.4897L162.792 95.7446L145.877 58.8106C145.601 58.2089 146.038 57.5241 146.699 57.5196C150.475 57.3756 152.626 57.3799 156.494 57.5196C156.861 57.5221 157.191 57.7446 157.33 58.0843L167.8 83.5369L177.762 58.0987C177.898 57.7517 178.231 57.5226 178.604 57.5196Z" fill="black"/>
<path fill-rule="evenodd" clip-rule="evenodd" d="M203.668 41.9275C199.322 41.9275 196.029 43.0923 193.855 45.4782C191.69 47.8018 190.629 51.0562 190.629 55.1967V95.5665C190.629 96.0692 191.036 96.4769 191.538 96.4779C195.089 96.5207 197.041 96.5119 200.464 96.4779C200.967 96.4769 201.374 96.0692 201.374 95.5665V66.2712H209.892C210.393 66.2712 210.799 65.8675 210.804 65.3678C210.923 62.8105 210.915 61.2681 210.804 58.4243C210.8 57.924 210.393 57.5196 209.892 57.5196H201.374V56.8833C201.374 54.8053 201.706 53.3808 202.311 52.543L202.316 52.5365C202.911 51.6661 203.827 51.2158 205.124 51.2158C205.649 51.2158 206.231 51.3113 206.873 51.5087C207.373 51.6628 207.923 51.8782 208.524 52.1565C208.964 52.3608 209.498 52.1958 209.731 51.7579C211.19 49.3459 211.924 47.971 212.954 45.5088C213.174 45.0661 213.002 44.5188 212.547 44.2975C211.292 43.6878 209.922 43.1582 208.436 42.708C206.776 42.1891 205.186 41.9275 203.668 41.9275ZM200.462 96.1654L200.465 96.4779L200.464 96.4779H200.462V96.1654ZM191.54 96.1654V96.4779H191.538L191.536 96.4779L191.54 96.1654ZM194.084 45.69L193.856 45.477L193.855 45.4782L193.853 45.4795L194.084 45.69Z" fill="black"/>
<path d="M215.253 57.5196C218.888 57.4313 220.846 57.4369 224.184 57.5196C224.685 57.5219 225.091 57.9291 225.091 58.4311V95.5665C225.091 96.0688 224.684 96.4763 224.182 96.4779C220.808 96.5361 218.852 96.5398 215.254 96.4779C214.752 96.4763 214.346 96.0689 214.346 95.5665V58.4311C214.346 57.9291 214.752 57.5219 215.253 57.5196Z" fill="black"/>
<path d="M219.718 40.8542C218.096 40.8542 216.665 41.4796 215.437 42.7067C214.203 43.8878 213.579 45.3223 213.579 46.9934C213.579 48.6652 214.203 50.1234 215.434 51.3544L215.439 51.3592C216.669 52.5356 218.099 53.1326 219.718 53.1326C221.386 53.1326 222.82 52.5372 224.003 51.3544C225.234 50.1234 225.858 48.6652 225.858 46.9934C225.858 45.3234 225.235 43.8898 224.003 42.7091C222.822 41.477 221.388 40.8542 219.718 40.8542Z" fill="black"/>
<path d="M251.424 56.5996C248.453 56.5996 245.834 57.3825 243.579 58.9554C242.367 59.7923 241.301 60.8421 240.379 62.1017L240.053 58.3521C240.012 57.8823 239.62 57.5214 239.149 57.5196C235.958 57.4544 234.129 57.4503 230.783 57.5196C230.281 57.5215 229.875 57.9289 229.875 58.4311V95.5665C229.875 96.0685 230.281 96.4757 230.782 96.4779C234.268 96.5615 236.226 96.5656 239.713 96.4779C240.214 96.4756 240.62 96.0684 240.62 95.5665V76.0788C240.62 72.8981 241.302 70.5559 242.615 68.9991C243.973 67.4483 245.894 66.6816 248.428 66.7313H248.434C249.815 66.7313 251.009 67.0514 252.026 67.6813L252.036 67.6868C253.033 68.2568 253.81 69.215 254.353 70.5964L254.357 70.6052C254.946 71.9798 255.252 73.9497 255.252 76.5388V95.5665C255.252 96.0687 255.658 96.476 256.16 96.4779C259.678 96.5518 261.633 96.5762 265.09 96.4779C265.591 96.4753 265.997 96.0682 265.997 95.5665V74.4708C266.048 70.3578 265.509 66.9877 264.361 64.3774C263.214 61.7186 261.536 59.7457 259.323 58.4808C257.119 57.2218 254.482 56.5996 251.424 56.5996Z" fill="black"/>
</svg>
