<svg width="389" height="144" viewBox="0 0 389 144" fill="none" xmlns="http://www.w3.org/2000/svg">
<path fill-rule="evenodd" clip-rule="evenodd" d="M36.4819 100.995C31.8052 91.6047 62.4765 36 72 36C81.5328 36 112.153 91.713 107.527 100.995C102.902 110.277 41.1585 110.386 36.4819 100.995ZM48.7359 92.8469C51.8005 98.9994 92.2536 98.9314 95.2843 92.8469C98.3149 86.7609 78.2515 50.2605 72.0093 50.2605C65.767 50.2605 45.6712 86.6944 48.7359 92.8469Z" fill="white"/>
<path d="M72 64C68.8238 64 58.6005 82.5368 60.159 85.6664C61.7176 88.7961 82.2994 88.7619 83.8409 85.6664C85.3824 82.571 75.1809 64.0016 72 64Z" fill="white"/>
<path d="M133.02 96.6821C135.065 97.4999 137.39 97.9088 139.997 97.9088C142.808 97.9088 145.389 97.5254 147.74 96.7588C150.143 95.941 152.213 94.791 153.95 93.3088C155.739 91.8265 157.119 90.0376 158.09 87.9421C159.061 85.7954 159.547 83.3932 159.547 80.7354V47.3615C159.547 47.0307 159.279 46.7625 158.948 46.7625C155.369 46.6004 153.341 46.5724 149.719 46.7625C149.388 46.7625 149.12 47.0307 149.12 47.3615V77.6687C149.12 80.1732 148.686 82.2176 147.817 83.8021C146.999 85.3865 145.9 86.5365 144.52 87.2521C143.14 87.9676 141.684 88.3254 140.15 88.3254C138.106 88.3254 136.394 87.7121 135.014 86.4854C133.799 85.364 132.798 83.8155 132.01 81.8398C131.886 81.5295 131.538 81.369 131.226 81.4874C127.74 82.4685 125.968 83.0937 123.381 84.4629C123.105 84.5679 122.945 84.8594 123.018 85.1463C123.341 86.4216 123.864 87.7369 124.587 89.0921C125.405 90.6254 126.504 92.0565 127.884 93.3854C129.315 94.7143 131.027 95.8132 133.02 96.6821Z" fill="white"/>
<path fill-rule="evenodd" clip-rule="evenodd" d="M172.792 95.2254C175.705 96.9121 179.053 97.7554 182.835 97.7554C185.851 97.7554 188.534 97.3465 190.885 96.5288C193.236 95.711 195.255 94.5354 196.942 93.0021C198.52 91.5627 199.825 89.8913 200.855 87.988C201.023 87.678 200.875 87.2949 200.547 87.1669C197.624 85.6683 195.892 84.9965 192.621 84.0772C192.332 83.9648 192.008 84.0917 191.854 84.3603C191.158 85.5757 190.222 86.5908 189.045 87.4054C187.716 88.2743 186.004 88.7088 183.908 88.7088C182.171 88.7088 180.535 88.351 179.002 87.6354C177.52 86.8688 176.293 85.7954 175.322 84.4154C174.554 83.2212 174.107 81.8667 173.98 80.3521H201.479C201.81 80.3521 202.079 80.0834 202.074 79.7527C202.005 75.157 201.138 71.2424 199.472 68.0088C197.785 64.5843 195.511 62.0032 192.648 60.2654C189.837 58.4765 186.745 57.5821 183.372 57.5821C179.487 57.5821 176.037 58.451 173.022 60.1888C170.057 61.8754 167.706 64.2265 165.968 67.2421C164.282 70.2576 163.438 73.7332 163.438 77.6688C163.438 81.6043 164.256 85.0799 165.892 88.0954C167.578 91.111 169.878 93.4876 172.792 95.2254ZM174.52 72.8388H191.153C191.029 71.4265 190.607 70.2765 189.888 69.3888C189.02 68.2643 187.946 67.4465 186.668 66.9354C185.442 66.4243 184.241 66.1688 183.065 66.1688C181.89 66.1688 180.637 66.4243 179.308 66.9354C177.98 67.4465 176.83 68.2643 175.858 69.3888C175.097 70.2765 174.651 71.4265 174.52 72.8388Z" fill="white"/>
<path d="M205.276 44.9656C205.276 44.6348 205.544 44.3666 205.875 44.3666C209.394 44.1954 211.349 44.188 214.797 44.3666C215.128 44.3666 215.396 44.6348 215.396 44.9656V96.2364C215.396 96.5672 215.128 96.8354 214.797 96.8354C211.342 96.9631 209.389 96.9666 205.875 96.8354C205.544 96.8354 205.276 96.5672 205.276 96.2364V44.9656Z" fill="white"/>
<path d="M221.676 44.3667C221.345 44.3667 221.077 44.6348 221.077 44.9656V96.2365C221.077 96.5673 221.345 96.8354 221.676 96.8354C225.218 96.9596 227.169 96.9534 230.598 96.8354C230.929 96.8354 231.197 96.5673 231.197 96.2365V44.9656C231.197 44.6348 230.929 44.3667 230.598 44.3667C227.114 44.2035 225.16 44.1977 221.676 44.3667Z" fill="white"/>
<path d="M244.544 113.089C243.164 113.089 241.631 112.808 239.944 112.245C238.512 111.798 237.217 111.272 236.06 110.668C235.783 110.524 235.674 110.187 235.804 109.903C236.848 107.139 237.554 105.581 239.066 102.779C239.21 102.466 239.587 102.339 239.895 102.492C240.546 102.815 241.15 103.076 241.707 103.275C242.474 103.582 243.138 103.735 243.701 103.735C244.774 103.735 245.72 103.429 246.537 102.815C247.355 102.253 248.019 101.41 248.531 100.285L250.176 96.4098L233.202 59.3504C233.021 58.9537 233.311 58.5021 233.747 58.5021C237.521 58.3581 239.664 58.3624 243.529 58.5021C243.772 58.5021 243.991 58.6487 244.083 58.8732L254.849 85.0457L265.095 58.8826C265.185 58.6531 265.406 58.5021 265.653 58.5021C269.427 58.3428 271.588 58.3113 275.461 58.5021C275.889 58.5021 276.179 58.9374 276.014 59.3321L258.957 100.132C257.884 102.688 256.759 104.937 255.584 106.879C254.408 108.872 252.952 110.405 251.214 111.479C249.527 112.552 247.304 113.089 244.544 113.089Z" fill="white"/>
<path d="M288.191 96.2365C288.191 96.5673 287.922 96.8354 287.592 96.8354C284.169 96.8694 282.219 96.8782 278.67 96.8354C278.339 96.8354 278.071 96.5673 278.071 96.2365V55.8667C278.071 51.7778 279.118 48.6089 281.214 46.36C283.309 44.06 286.504 42.91 290.797 42.91C292.279 42.91 293.838 43.1656 295.474 43.6767C296.946 44.1228 298.301 44.6467 299.54 45.2485C299.837 45.3929 299.951 45.7543 299.8 46.0478C298.773 48.502 298.047 49.8639 296.588 52.2743C296.438 52.5657 296.082 52.681 295.784 52.543C295.174 52.2601 294.611 52.0391 294.094 51.88C293.429 51.6756 292.816 51.5733 292.254 51.5733C290.874 51.5733 289.852 52.0589 289.187 53.03C288.523 53.95 288.191 55.4578 288.191 57.5533V58.5021H297.022C297.352 58.5021 297.621 58.7703 297.621 59.101C297.732 61.944 297.74 63.4778 297.621 66.0298C297.621 66.3606 297.352 66.6288 297.022 66.6288H288.191V96.2365Z" fill="white"/>
<path d="M301.882 59.1011C301.882 58.7703 302.15 58.5021 302.481 58.5021C306.114 58.4138 308.067 58.4193 311.403 58.5021C311.733 58.5021 312.002 58.7703 312.002 59.1011V96.2365C312.002 96.5673 311.733 96.8354 311.403 96.8354C308.029 96.8936 306.077 96.8973 302.481 96.8354C302.15 96.8354 301.882 96.5673 301.882 96.2365V59.1011Z" fill="white"/>
<path d="M302.878 51.8033C304.054 52.9278 305.408 53.49 306.942 53.49C308.526 53.49 309.88 52.9278 311.005 51.8033C312.18 50.6278 312.768 49.2478 312.768 47.6633C312.768 46.0789 312.18 44.7244 311.005 43.6C309.88 42.4244 308.526 41.8367 306.942 41.8367C305.408 41.8367 304.054 42.4244 302.878 43.6C301.703 44.7244 301.115 46.0789 301.115 47.6633C301.115 49.2478 301.703 50.6278 302.878 51.8033Z" fill="white"/>
<path d="M317.5 59.1011C317.5 58.7703 317.768 58.5021 318.099 58.5021C321.444 58.4328 323.268 58.4369 326.458 58.5021C326.768 58.5021 327.027 58.7396 327.054 59.0492L327.456 63.6646C328.465 62.11 329.669 60.8492 331.07 59.8821C333.268 58.3488 335.823 57.5821 338.737 57.5821C341.752 57.5821 344.333 58.1954 346.48 59.4221C348.627 60.6488 350.262 62.5654 351.387 65.1721C352.511 67.7276 353.048 71.0499 352.997 75.1388V96.2365C352.997 96.5673 352.729 96.8354 352.398 96.8354C348.945 96.9337 346.995 96.9093 343.476 96.8354C343.145 96.8354 342.877 96.5673 342.877 96.2365V77.2088C342.877 74.6021 342.57 72.5832 341.957 71.1521C341.394 69.721 340.577 68.6988 339.503 68.0854C338.43 67.421 337.178 67.0888 335.747 67.0888C333.14 67.0376 331.121 67.8299 329.69 69.4654C328.31 71.101 327.62 73.5288 327.62 76.7488V96.2365C327.62 96.5673 327.352 96.8354 327.021 96.8354C323.536 96.9231 321.583 96.919 318.099 96.8354C317.768 96.8354 317.5 96.5673 317.5 96.2365V59.1011Z" fill="white"/>
</svg>
