<svg width="392" height="144" viewBox="0 0 392 144" fill="none" xmlns="http://www.w3.org/2000/svg">
<path d="M71.9997 63.5C75.5189 63.5 86.0294 82.3777 84.2907 85.8691C82.5512 89.3603 61.4495 89.3635 59.7087 85.8691C57.9684 82.3747 68.4801 63.5012 71.9997 63.5Z" fill="url(#paint0_linear_2035_3557)"/>
<path fill-rule="evenodd" clip-rule="evenodd" d="M71.9997 36C81.5324 36 112.153 91.713 107.527 100.995C102.901 110.277 41.1591 110.385 36.4821 100.995C31.8055 91.6048 62.4758 36.0013 71.9997 36ZM72.0095 51.0098C66.2297 51.0098 46.5943 86.8769 49.4079 92.5254C52.2215 98.1738 91.8816 98.0112 94.613 92.5273C97.3438 87.0434 77.7894 51.0104 72.0095 51.0098Z" fill="url(#paint1_linear_2035_3557)"/>
<path d="M153.023 45.7801C156.651 45.5898 158.688 45.6179 162.268 45.78C162.768 45.7842 163.172 46.1907 163.172 46.6915V80.0654C163.172 82.7619 162.679 85.2089 161.688 87.4009L161.686 87.4035C160.696 89.5408 159.288 91.3665 157.464 92.8779C155.693 94.3878 153.588 95.5558 151.154 96.3846L151.15 96.3859C148.763 97.164 146.149 97.5513 143.31 97.5513C140.67 97.5513 138.304 97.1372 136.217 96.3023L136.208 96.2987C134.186 95.4173 132.443 94.2999 130.984 92.9444L130.979 92.9406C129.578 91.5912 128.459 90.1342 127.624 88.5692C126.891 87.1953 126.358 85.8565 126.027 84.5531C125.915 84.1125 126.157 83.6737 126.563 83.5086C129.166 82.1323 130.959 81.5004 134.442 80.52C134.916 80.349 135.43 80.5959 135.613 81.054C136.387 82.9972 137.365 84.5019 138.536 85.5838C139.852 86.7527 141.487 87.3429 143.463 87.3429C144.945 87.3429 146.353 86.9975 147.689 86.3047C149.003 85.6231 150.059 84.5245 150.852 82.9888L150.855 82.9818C151.691 81.4577 152.12 79.4699 152.12 76.9988V46.6915C152.12 46.1911 152.524 45.7849 153.023 45.7801Z" fill="#060112"/>
<path fill-rule="evenodd" clip-rule="evenodd" d="M186.594 56.5996C182.662 56.5996 179.157 57.4797 176.089 59.2476C173.075 60.9623 170.685 63.3536 168.92 66.4161L168.918 66.4196C167.202 69.4879 166.348 73.0173 166.348 76.9988C166.348 80.9786 167.175 84.5068 168.839 87.5744L168.841 87.578C170.554 90.6404 172.893 93.0574 175.854 94.8238L175.857 94.8259C178.824 96.5434 182.227 97.3979 186.057 97.3979C189.101 97.3979 191.82 96.9853 194.21 96.1539C196.597 95.3236 198.654 94.1272 200.375 92.563C201.979 91.0998 203.306 89.4005 204.352 87.4668C204.61 86.9906 204.384 86.4124 203.899 86.2123C200.968 84.7103 199.217 84.0316 195.941 83.1101C195.502 82.9482 195.027 83.1464 194.805 83.5351C194.133 84.708 193.231 85.6878 192.093 86.4761C190.829 87.3012 189.183 87.7263 187.131 87.7263C185.439 87.7263 183.851 87.3789 182.362 86.685C180.929 85.9429 179.744 84.906 178.803 83.571C178.124 82.5131 177.705 81.3226 177.547 79.9946H204.702C205.204 79.9946 205.616 79.5859 205.609 79.078C205.539 74.4477 204.665 70.4839 202.973 67.1981C201.265 63.7303 198.953 61.1024 196.036 59.33C193.174 57.51 190.025 56.5996 186.594 56.5996ZM182.643 66.5571C183.943 66.0569 185.157 65.8113 186.287 65.8113C187.417 65.8113 188.577 66.0566 189.77 66.5539L189.775 66.5556C190.999 67.0453 192.027 67.8281 192.863 68.9099L192.868 68.9154C193.482 69.6743 193.873 70.6492 194.027 71.8563H178.092C178.255 70.6535 178.668 69.6811 179.317 68.9227C180.256 67.8356 181.364 67.0489 182.643 66.5571Z" fill="#060112"/>
<path d="M209 43.3842C212.521 43.2129 214.486 43.2055 217.939 43.3842C218.438 43.389 218.841 43.7952 218.841 44.2956V95.5664C218.841 96.0677 218.437 96.4745 217.936 96.4779C214.479 96.6056 212.519 96.6091 209.002 96.4779C208.501 96.4745 208.096 96.0677 208.096 95.5664V44.2956C208.096 43.795 208.5 43.3887 209 43.3842Z" fill="#060112"/>
<path d="M224.71 43.3842C228.198 43.2152 230.162 43.2211 233.649 43.3842C234.148 43.3885 234.552 43.7949 234.552 44.2956V95.5665C234.552 96.0679 234.147 96.4747 233.647 96.4779C230.215 96.596 228.258 96.6022 224.713 96.4779C224.212 96.4746 223.807 96.0678 223.807 95.5665V44.2956C223.807 43.795 224.211 43.3887 224.71 43.3842Z" fill="#060112"/>
<path d="M268.604 57.5196C272.379 57.3603 274.549 57.3288 278.428 57.5196C279.074 57.5253 279.51 58.1847 279.26 58.7826L262.204 99.5831C261.126 102.149 259.995 104.412 258.81 106.369C257.613 108.399 256.123 109.971 254.338 111.074C252.586 112.188 250.299 112.731 247.502 112.731C246.081 112.731 244.515 112.442 242.806 111.873C241.36 111.421 240.049 110.889 238.873 110.275C238.448 110.053 238.284 109.541 238.473 109.114C239.519 106.345 240.23 104.775 241.745 101.969C241.968 101.498 242.534 101.314 242.992 101.542C243.634 101.861 244.227 102.117 244.771 102.311L244.782 102.315C245.527 102.613 246.15 102.753 246.659 102.753C247.668 102.753 248.547 102.466 249.308 101.895L249.318 101.888C250.078 101.365 250.71 100.573 251.203 99.4897L252.792 95.7446L235.877 58.8106C235.601 58.2089 236.038 57.5241 236.699 57.5196C240.475 57.3756 242.626 57.3799 246.494 57.5196C246.861 57.5221 247.191 57.7446 247.33 58.0843L257.8 83.5369L267.762 58.0987C267.898 57.7517 268.231 57.5226 268.604 57.5196Z" fill="#060112"/>
<path fill-rule="evenodd" clip-rule="evenodd" d="M293.668 41.9275C289.322 41.9275 286.029 43.0923 283.855 45.4782C281.69 47.8018 280.629 51.0562 280.629 55.1967V95.5665C280.629 96.0692 281.036 96.4769 281.538 96.4779C285.089 96.5207 287.041 96.5119 290.464 96.4779C290.967 96.4769 291.374 96.0692 291.374 95.5665V66.2712H299.892C300.393 66.2712 300.799 65.8675 300.804 65.3678C300.923 62.8105 300.915 61.2681 300.804 58.4243C300.8 57.924 300.393 57.5196 299.892 57.5196H291.374V56.8833C291.374 54.8053 291.706 53.3808 292.311 52.543L292.316 52.5365C292.911 51.6661 293.827 51.2158 295.124 51.2158C295.649 51.2158 296.231 51.3113 296.873 51.5087C297.373 51.6628 297.923 51.8782 298.524 52.1565C298.964 52.3608 299.498 52.1958 299.731 51.7579C301.19 49.3459 301.924 47.971 302.954 45.5088C303.174 45.0661 303.002 44.5188 302.547 44.2975C301.292 43.6878 299.922 43.1582 298.436 42.708C296.776 42.1891 295.186 41.9275 293.668 41.9275ZM290.462 96.1654L290.465 96.4779L290.464 96.4779H290.462V96.1654ZM281.54 96.1654V96.4779H281.538L281.536 96.4779L281.54 96.1654ZM284.084 45.69L283.856 45.477L283.855 45.4782L283.853 45.4795L284.084 45.69Z" fill="#060112"/>
<path d="M305.253 57.5196C308.888 57.4313 310.846 57.4369 314.184 57.5196C314.685 57.5219 315.091 57.9291 315.091 58.4311V95.5665C315.091 96.0688 314.684 96.4763 314.182 96.4779C310.808 96.5361 308.852 96.5398 305.254 96.4779C304.752 96.4763 304.346 96.0689 304.346 95.5665V58.4311C304.346 57.9291 304.752 57.5219 305.253 57.5196Z" fill="#060112"/>
<path d="M309.718 40.8542C308.096 40.8542 306.665 41.4796 305.437 42.7067C304.203 43.8878 303.579 45.3223 303.579 46.9934C303.579 48.6652 304.203 50.1234 305.434 51.3544L305.439 51.3592C306.669 52.5356 308.099 53.1326 309.718 53.1326C311.386 53.1326 312.82 52.5372 314.003 51.3544C315.234 50.1234 315.858 48.6652 315.858 46.9934C315.858 45.3234 315.235 43.8898 314.003 42.7091C312.822 41.477 311.388 40.8542 309.718 40.8542Z" fill="#060112"/>
<path d="M341.424 56.5996C338.453 56.5996 335.834 57.3825 333.579 58.9554C332.367 59.7923 331.301 60.8421 330.379 62.1017L330.053 58.3521C330.012 57.8823 329.62 57.5214 329.149 57.5196C325.958 57.4544 324.129 57.4503 320.783 57.5196C320.281 57.5215 319.875 57.9289 319.875 58.4311V95.5665C319.875 96.0685 320.281 96.4757 320.782 96.4779C324.268 96.5615 326.226 96.5656 329.713 96.4779C330.214 96.4756 330.62 96.0684 330.62 95.5665V76.0788C330.62 72.8981 331.302 70.5559 332.615 68.9991C333.973 67.4483 335.894 66.6816 338.428 66.7313H338.434C339.815 66.7313 341.009 67.0514 342.026 67.6813L342.036 67.6868C343.033 68.2568 343.81 69.215 344.353 70.5964L344.357 70.6052C344.946 71.9798 345.252 73.9497 345.252 76.5388V95.5665C345.252 96.0687 345.658 96.476 346.16 96.4779C349.678 96.5518 351.633 96.5762 355.09 96.4779C355.591 96.4753 355.997 96.0682 355.997 95.5665V74.4708C356.048 70.3578 355.509 66.9877 354.361 64.3774C353.214 61.7186 351.536 59.7457 349.323 58.4808C347.119 57.2218 344.482 56.5996 341.424 56.5996Z" fill="#060112"/>
<defs>
<linearGradient id="paint0_linear_2035_3557" x1="48.0001" y1="65.9991" x2="107.999" y2="99.0006" gradientUnits="userSpaceOnUse">
<stop stop-color="#AA5CC3"/>
<stop offset="1" stop-color="#00A4DC"/>
</linearGradient>
<linearGradient id="paint1_linear_2035_3557" x1="48.0001" y1="65.9991" x2="107.999" y2="99.0006" gradientUnits="userSpaceOnUse">
<stop stop-color="#AA5CC3"/>
<stop offset="1" stop-color="#00A4DC"/>
</linearGradient>
</defs>
</svg>
