<svg width="256" height="221" viewBox="0 0 256 221" fill="none" xmlns="http://www.w3.org/2000/svg">
<path fill-rule="evenodd" clip-rule="evenodd" d="M92.4819 100.995C87.8052 91.6047 118.477 36 128 36C137.533 36 168.153 91.713 163.527 100.995C158.902 110.277 97.1585 110.386 92.4819 100.995ZM104.736 92.8469C107.801 98.9994 148.254 98.9314 151.284 92.8469C154.315 86.7609 134.252 50.2605 128.009 50.2605C121.767 50.2605 101.671 86.6944 104.736 92.8469Z" fill="white"/>
<path d="M128 64C124.824 64 114.6 82.5368 116.159 85.6664C117.718 88.7961 138.299 88.7619 139.841 85.6664C141.382 82.571 131.181 64.0016 128 64Z" fill="white"/>
<path d="M44.0162 180.83C45.6518 181.484 47.5122 181.811 49.5976 181.811C51.8465 181.811 53.9114 181.504 55.7922 180.891C57.714 180.237 59.37 179.317 60.7602 178.131C62.1914 176.945 63.2954 175.514 64.0722 173.838C64.8491 172.12 65.2376 170.199 65.2376 168.072V141.373C65.2376 141.109 65.0231 140.894 64.7584 140.894C61.8952 140.764 60.2731 140.742 57.3754 140.894C57.1108 140.894 56.8962 141.109 56.8962 141.373V165.619C56.8962 167.623 56.5487 169.258 55.8536 170.526C55.1994 171.793 54.3202 172.713 53.2162 173.286C52.1122 173.858 50.9469 174.144 49.7202 174.144C48.0847 174.144 46.7149 173.654 45.6109 172.672C44.639 171.775 43.838 170.536 43.2079 168.956C43.1089 168.708 42.8305 168.579 42.5807 168.674C39.7917 169.459 38.3747 169.959 36.3051 171.054C36.0837 171.138 35.9558 171.372 36.014 171.601C36.2728 172.621 36.6914 173.674 37.2696 174.758C37.9238 175.984 38.8029 177.129 39.9069 178.192C41.0518 179.255 42.4216 180.135 44.0162 180.83Z" fill="white"/>
<path fill-rule="evenodd" clip-rule="evenodd" d="M75.8334 179.664C78.1641 181.014 80.8423 181.688 83.8681 181.688C86.2805 181.688 88.4272 181.361 90.3081 180.707C92.1889 180.053 93.8041 179.112 95.1534 177.886C96.4163 176.734 97.4599 175.397 98.2842 173.874C98.4184 173.626 98.3 173.32 98.0372 173.218C95.6993 172.019 94.3133 171.481 91.6966 170.746C91.4659 170.656 91.2061 170.757 91.0831 170.972C90.5264 171.945 89.7774 172.757 88.8361 173.408C87.7729 174.103 86.4032 174.451 84.7267 174.451C83.3365 174.451 82.0281 174.165 80.8014 173.592C79.6156 172.979 78.6343 172.12 77.8574 171.016C77.2432 170.061 76.8853 168.977 76.7836 167.766H98.7836C99.0482 167.766 99.2631 167.551 99.2592 167.286C99.204 163.61 98.51 160.478 97.1774 157.891C95.8281 155.151 94.0085 153.087 91.7187 151.696C89.4698 150.265 86.9961 149.55 84.2974 149.55C81.1898 149.55 78.4298 150.245 76.0174 151.635C73.6458 152.984 71.7649 154.865 70.3747 157.278C69.0254 159.69 68.3507 162.471 68.3507 165.619C68.3507 168.767 69.0049 171.548 70.3134 173.96C71.6627 176.373 73.5027 178.274 75.8334 179.664ZM77.2157 161.755H90.5222C90.4228 160.625 90.0857 159.705 89.5107 158.995C88.8156 158.095 87.9569 157.441 86.9347 157.032C85.9534 156.623 84.9925 156.419 84.0521 156.419C83.1116 156.419 82.1098 156.623 81.0467 157.032C79.9836 157.441 79.0636 158.095 78.2867 158.995C77.678 159.705 77.321 160.625 77.2157 161.755Z" fill="white"/>
<path d="M101.821 139.456C101.821 139.192 102.036 138.977 102.3 138.977C105.116 138.84 106.679 138.834 109.438 138.977C109.702 138.977 109.917 139.192 109.917 139.456V180.473C109.917 180.738 109.702 180.952 109.438 180.952C106.674 181.054 105.111 181.057 102.3 180.952C102.036 180.952 101.821 180.738 101.821 180.473V139.456Z" fill="white"/>
<path d="M114.941 138.977C114.676 138.977 114.461 139.192 114.461 139.456V180.473C114.461 180.738 114.676 180.952 114.941 180.952C117.774 181.052 119.335 181.047 122.078 180.952C122.343 180.952 122.557 180.738 122.557 180.473V139.456C122.557 139.192 122.343 138.977 122.078 138.977C119.291 138.847 117.728 138.842 114.941 138.977Z" fill="white"/>
<path d="M133.235 193.955C132.131 193.955 130.904 193.73 129.555 193.28C128.41 192.922 127.374 192.502 126.448 192.018C126.227 191.903 126.139 191.634 126.243 191.407C127.078 189.196 127.643 187.949 128.853 185.707C128.968 185.457 129.269 185.355 129.516 185.477C130.036 185.736 130.52 185.945 130.966 186.104C131.579 186.35 132.111 186.472 132.56 186.472C133.419 186.472 134.176 186.227 134.83 185.736C135.484 185.287 136.016 184.612 136.424 183.712L137.741 180.612L124.162 150.964C124.017 150.647 124.249 150.286 124.598 150.286C127.616 150.17 129.331 150.174 132.423 150.286C132.618 150.286 132.793 150.403 132.867 150.583L141.479 171.521L149.676 150.59C149.748 150.406 149.925 150.286 150.122 150.286C153.141 150.158 154.871 150.133 157.969 150.286C158.311 150.286 158.543 150.634 158.411 150.95L144.766 183.59C143.907 185.634 143.008 187.433 142.067 188.987C141.127 190.582 139.961 191.808 138.571 192.667C137.222 193.526 135.443 193.955 133.235 193.955Z" fill="white"/>
<path d="M168.152 180.473C168.152 180.738 167.938 180.952 167.673 180.952C164.935 180.98 163.375 180.987 160.536 180.952C160.271 180.952 160.056 180.738 160.056 180.473V148.177C160.056 144.906 160.895 142.371 162.571 140.572C164.248 138.732 166.803 137.812 170.238 137.812C171.424 137.812 172.671 138.016 173.979 138.425C175.157 138.782 176.241 139.201 177.232 139.683C177.469 139.798 177.561 140.087 177.44 140.322C176.618 142.286 176.037 143.375 174.871 145.303C174.75 145.537 174.465 145.629 174.228 145.518C173.74 145.292 173.289 145.115 172.875 144.988C172.344 144.824 171.853 144.743 171.403 144.743C170.299 144.743 169.481 145.131 168.95 145.908C168.418 146.644 168.152 147.85 168.152 149.527V150.286H175.217C175.482 150.286 175.696 150.5 175.696 150.765C175.785 153.039 175.792 154.266 175.696 156.308C175.696 156.572 175.482 156.787 175.217 156.787H168.152V180.473Z" fill="white"/>
<path d="M179.105 150.765C179.105 150.5 179.32 150.286 179.584 150.286C182.491 150.215 184.053 150.22 186.722 150.286C186.987 150.286 187.201 150.5 187.201 150.765V180.473C187.201 180.738 186.987 180.952 186.722 180.952C184.023 180.999 182.461 181.002 179.584 180.952C179.32 180.952 179.105 180.738 179.105 180.473V150.765Z" fill="white"/>
<path d="M179.903 144.927C180.843 145.826 181.927 146.276 183.153 146.276C184.421 146.276 185.504 145.826 186.404 144.927C187.344 143.986 187.815 142.882 187.815 141.615C187.815 140.347 187.344 139.264 186.404 138.364C185.504 137.424 184.421 136.953 183.153 136.953C181.927 136.953 180.843 137.424 179.903 138.364C178.962 139.264 178.492 140.347 178.492 141.615C178.492 142.882 178.962 143.986 179.903 144.927Z" fill="white"/>
<path d="M191.6 150.765C191.6 150.5 191.815 150.286 192.079 150.286C194.755 150.23 196.215 150.234 198.766 150.286C199.015 150.286 199.222 150.476 199.243 150.723L199.564 154.416C200.372 153.172 201.335 152.163 202.456 151.39C204.214 150.163 206.259 149.55 208.589 149.55C211.002 149.55 213.067 150.04 214.784 151.022C216.501 152.003 217.81 153.536 218.709 155.622C219.609 157.666 220.038 160.324 219.997 163.595V180.473C219.997 180.738 219.783 180.952 219.518 180.952C216.756 181.031 215.196 181.011 212.381 180.952C212.116 180.952 211.901 180.738 211.901 180.473V165.251C211.901 163.166 211.656 161.551 211.165 160.406C210.716 159.261 210.061 158.443 209.203 157.952C208.344 157.421 207.342 157.155 206.197 157.155C204.112 157.114 202.497 157.748 201.352 159.056C200.248 160.365 199.696 162.307 199.696 164.883V180.473C199.696 180.738 199.481 180.952 199.217 180.952C196.429 181.022 194.867 181.019 192.079 180.952C191.815 180.952 191.6 180.738 191.6 180.473V150.765Z" fill="white"/>
</svg>
