<svg width="236" height="216" viewBox="0 0 236 216" fill="none" xmlns="http://www.w3.org/2000/svg">
<path fill-rule="evenodd" clip-rule="evenodd" d="M82.4819 100.995C77.8052 91.6047 108.477 36 118 36C127.533 36 158.153 91.713 153.527 100.995C148.902 110.277 87.1585 110.386 82.4819 100.995ZM95.408 92.5253C98.2216 98.1738 137.882 98.0113 140.613 92.5273C143.344 87.0434 123.789 51.01 118.009 51.01C112.23 51.01 92.5944 86.8768 95.408 92.5253Z" fill="black"/>
<path d="M118 63.5C114.481 63.5 103.968 82.3745 105.708 85.8691C107.449 89.3637 128.553 89.3605 130.291 85.8691C132.03 82.3777 121.519 63.5 118 63.5Z" fill="black"/>
<path d="M55.4384 143.855C58.0182 143.719 59.4671 143.739 62.013 143.855C62.3684 143.858 62.6556 144.147 62.6556 144.503V168.235C62.6556 170.153 62.3051 171.893 61.6 173.452L61.5991 173.454C60.8948 174.973 59.8934 176.272 58.5966 177.346C57.3374 178.42 55.8405 179.251 54.1091 179.84L54.1064 179.841C52.4095 180.394 50.5504 180.67 48.5311 180.67C46.6543 180.67 44.9719 180.375 43.4874 179.782L43.4811 179.779C42.0433 179.152 40.804 178.358 39.766 177.394L39.7631 177.391C38.7666 176.432 37.9704 175.395 37.3768 174.282C36.8558 173.306 36.4766 172.354 36.2415 171.427C36.162 171.113 36.3337 170.801 36.6226 170.684C38.4734 169.705 39.7485 169.256 42.2252 168.559C42.5621 168.437 42.9279 168.613 43.0578 168.938C43.6087 170.32 44.3037 171.39 45.1366 172.16C46.0725 172.991 47.2353 173.411 48.6402 173.411C49.6944 173.411 50.6953 173.165 51.6454 172.672C52.5801 172.188 53.3309 171.406 53.8946 170.314L53.8971 170.309C54.4914 169.225 54.7966 167.812 54.7966 166.055V144.503C54.7966 144.147 55.0833 143.858 55.4384 143.855Z" fill="black"/>
<path fill-rule="evenodd" clip-rule="evenodd" d="M79.3112 151.549C76.5149 151.549 74.0226 152.174 71.8408 153.432C69.6979 154.651 67.9979 156.351 66.743 158.529L66.7416 158.532C65.5212 160.714 64.9142 163.223 64.9142 166.055C64.9142 168.885 65.5025 171.394 66.6856 173.575L66.6871 173.578C67.9051 175.755 69.568 177.474 71.6738 178.73L71.6763 178.732C73.7859 179.953 76.2058 180.561 78.9296 180.561C81.0938 180.561 83.0273 180.267 84.727 179.676C86.4246 179.086 87.8872 178.235 89.1107 177.123C90.252 176.082 91.195 174.874 91.9394 173.499C92.1226 173.16 91.9622 172.749 91.6167 172.606C89.533 171.538 88.2879 171.056 85.9578 170.4C85.6461 170.285 85.3083 170.426 85.1501 170.703C84.6726 171.537 84.0306 172.234 83.2215 172.794C82.3229 173.381 81.1521 173.683 79.6929 173.683C78.4902 173.683 77.3607 173.436 76.3018 172.943C75.283 172.415 74.4401 171.678 73.7712 170.728C73.2885 169.976 72.9901 169.129 72.8781 168.185H92.1878C92.5451 168.185 92.8382 167.894 92.8328 167.533C92.7833 164.241 92.1618 161.422 90.9585 159.085C89.7436 156.619 88.1002 154.751 86.0253 153.49C83.9907 152.196 81.7509 151.549 79.3112 151.549ZM76.5015 158.629C77.4263 158.274 78.2896 158.099 79.0931 158.099C79.8962 158.099 80.7213 158.274 81.57 158.627L81.573 158.628C82.4436 158.977 83.175 159.533 83.7694 160.303L83.7726 160.306C84.2094 160.846 84.4877 161.539 84.5971 162.398H73.2653C73.381 161.542 73.6747 160.851 74.1368 160.312C74.8045 159.539 75.5923 158.979 76.5015 158.629Z" fill="black"/>
<path d="M95.244 142.151C97.7485 142.029 99.1457 142.024 101.601 142.151C101.956 142.154 102.243 142.443 102.243 142.799V179.258C102.243 179.615 101.955 179.904 101.599 179.907C99.1403 179.997 97.7464 180 95.2454 179.907C94.8896 179.904 94.6018 179.615 94.6018 179.258V142.799C94.6018 142.443 94.8888 142.154 95.244 142.151Z" fill="black"/>
<path d="M106.416 142.151C108.897 142.031 110.293 142.035 112.772 142.151C113.128 142.154 113.415 142.443 113.415 142.799V179.258C113.415 179.615 113.127 179.904 112.771 179.906C110.331 179.99 108.939 179.995 106.418 179.906C106.062 179.904 105.774 179.615 105.774 179.258V142.799C105.774 142.443 106.061 142.154 106.416 142.151Z" fill="black"/>
<path d="M137.629 152.203C140.314 152.09 141.857 152.067 144.615 152.203C145.075 152.207 145.385 152.676 145.207 153.101L133.078 182.115C132.312 183.939 131.508 185.548 130.665 186.94C129.814 188.384 128.754 189.501 127.485 190.286C126.239 191.078 124.612 191.464 122.624 191.464C121.613 191.464 120.499 191.259 119.284 190.854C118.256 190.533 117.324 190.154 116.488 189.718C116.185 189.56 116.069 189.196 116.203 188.892C116.947 186.923 117.453 185.806 118.53 183.811C118.688 183.476 119.091 183.346 119.417 183.508C119.873 183.734 120.295 183.916 120.681 184.055L120.689 184.058C121.219 184.27 121.662 184.369 122.024 184.369C122.742 184.369 123.367 184.165 123.908 183.759L123.915 183.754C124.456 183.382 124.905 182.819 125.255 182.048L126.386 179.385L114.357 153.121C114.161 152.693 114.472 152.206 114.941 152.203C117.627 152.1 119.156 152.103 121.907 152.203C122.168 152.205 122.402 152.363 122.502 152.604L129.947 170.704L137.031 152.615C137.127 152.368 137.364 152.205 137.629 152.203Z" fill="black"/>
<path fill-rule="evenodd" clip-rule="evenodd" d="M155.453 141.115C152.362 141.115 150.021 141.943 148.474 143.64C146.935 145.292 146.18 147.607 146.18 150.551V179.258C146.18 179.616 146.47 179.906 146.827 179.907C149.352 179.937 150.74 179.931 153.174 179.907C153.532 179.906 153.821 179.616 153.821 179.258V158.426H159.879C160.235 158.426 160.524 158.139 160.527 157.784C160.612 155.965 160.606 154.868 160.527 152.846C160.524 152.49 160.235 152.203 159.879 152.203H153.821V151.75C153.821 150.273 154.058 149.26 154.488 148.664L154.491 148.659C154.915 148.04 155.566 147.72 156.488 147.72C156.862 147.72 157.275 147.788 157.732 147.928C158.088 148.038 158.479 148.191 158.906 148.389C159.219 148.534 159.599 148.417 159.764 148.106C160.802 146.39 161.323 145.413 162.056 143.662C162.213 143.347 162.091 142.958 161.767 142.8C160.875 142.367 159.9 141.99 158.844 141.67C157.663 141.301 156.532 141.115 155.453 141.115ZM153.173 179.684L153.175 179.907L153.174 179.907H153.173V179.684ZM146.828 179.684V179.907H146.827L146.826 179.907L146.828 179.684ZM148.638 143.791L148.475 143.639L148.474 143.64L148.474 143.641L148.638 143.791Z" fill="black"/>
<path d="M163.691 152.203C166.276 152.14 167.668 152.144 170.042 152.203C170.398 152.204 170.687 152.494 170.687 152.851V179.258C170.687 179.616 170.398 179.905 170.041 179.907C167.641 179.948 166.25 179.951 163.692 179.907C163.335 179.905 163.046 179.616 163.046 179.258V152.851C163.046 152.494 163.334 152.204 163.691 152.203Z" fill="black"/>
<path d="M166.866 140.352C165.713 140.352 164.695 140.797 163.821 141.669C162.944 142.509 162.501 143.529 162.501 144.717C162.501 145.906 162.944 146.943 163.82 147.819L163.823 147.822C164.698 148.659 165.715 149.083 166.866 149.083C168.052 149.083 169.072 148.66 169.913 147.819C170.788 146.943 171.232 145.906 171.232 144.717C171.232 143.53 170.789 142.51 169.913 141.671C169.073 140.795 168.054 140.352 166.866 140.352Z" fill="black"/>
<path d="M189.413 151.549C187.3 151.549 185.437 152.105 183.834 153.224C182.972 153.819 182.214 154.565 181.558 155.461L181.327 152.795C181.298 152.461 181.018 152.204 180.683 152.203C178.415 152.156 177.114 152.153 174.734 152.203C174.378 152.204 174.089 152.494 174.089 152.851V179.258C174.089 179.615 174.377 179.905 174.734 179.907C177.213 179.966 178.605 179.969 181.085 179.907C181.441 179.905 181.73 179.615 181.73 179.258V165.4C181.73 163.139 182.215 161.473 183.148 160.366C184.114 159.263 185.481 158.718 187.282 158.753H187.286C188.269 158.753 189.117 158.981 189.841 159.429L189.848 159.433C190.557 159.838 191.11 160.52 191.496 161.502L191.498 161.508C191.917 162.486 192.134 163.886 192.134 165.728V179.258C192.134 179.615 192.423 179.905 192.78 179.907C195.282 179.959 196.672 179.976 199.131 179.907C199.487 179.905 199.775 179.615 199.775 179.258V164.257C199.812 161.332 199.429 158.936 198.612 157.079C197.796 155.189 196.604 153.786 195.029 152.886C193.463 151.991 191.587 151.549 189.413 151.549Z" fill="black"/>
</svg>
