<svg width="236" height="216" viewBox="0 0 236 216" fill="none" xmlns="http://www.w3.org/2000/svg">
<path fill-rule="evenodd" clip-rule="evenodd" d="M82.4819 100.995C77.8052 91.6047 108.477 36 118 36C127.533 36 158.153 91.713 153.527 100.995C148.902 110.277 87.1585 110.386 82.4819 100.995ZM94.7359 92.8469C97.8005 98.9994 138.254 98.9314 141.284 92.8469C144.315 86.7609 124.252 50.2605 118.009 50.2605C111.767 50.2605 91.6712 86.6944 94.7359 92.8469Z" fill="white"/>
<path d="M118 64C114.824 64 104.6 82.5368 106.159 85.6664C107.718 88.7961 128.299 88.7619 129.841 85.6664C131.382 82.571 121.181 64.0016 118 64Z" fill="white"/>
<path d="M43.3478 179.575C44.8016 180.157 46.4553 180.448 48.309 180.448C50.308 180.448 52.1434 180.175 53.8153 179.63C55.5236 179.048 56.9956 178.23 58.2313 177.176C59.5034 176.122 60.4848 174.85 61.1753 173.36C61.8659 171.834 62.2112 170.125 62.2112 168.235V144.503C62.2112 144.268 62.0205 144.077 61.7853 144.077C59.2402 143.962 57.7983 143.942 55.2226 144.077C54.9874 144.077 54.7967 144.268 54.7967 144.503V166.055C54.7967 167.836 54.4877 169.289 53.8699 170.416C53.2883 171.543 52.5069 172.361 51.5256 172.869C50.5442 173.378 49.5084 173.633 48.418 173.633C46.9642 173.633 45.7466 173.197 44.7653 172.324C43.9014 171.527 43.1894 170.426 42.6292 169.021C42.5412 168.8 42.2938 168.686 42.0717 168.77C39.5927 169.468 38.3331 169.912 36.4934 170.886C36.2967 170.961 36.183 171.168 36.2347 171.372C36.4648 172.279 36.8368 173.214 37.3507 174.178C37.9323 175.268 38.7137 176.286 39.695 177.231C40.7127 178.176 41.9303 178.957 43.3478 179.575Z" fill="white"/>
<path fill-rule="evenodd" clip-rule="evenodd" d="M71.6297 178.539C73.7014 179.739 76.082 180.339 78.7716 180.339C80.916 180.339 82.8242 180.048 84.4961 179.466C86.168 178.885 87.6036 178.049 88.803 176.958C89.9256 175.935 90.8533 174.746 91.586 173.393C91.7053 173.172 91.6 172.9 91.3664 172.809C89.2883 171.743 88.0563 171.266 85.7303 170.612C85.5252 170.532 85.2943 170.622 85.185 170.813C84.6902 171.677 84.0244 172.399 83.1876 172.979C82.2426 173.596 81.025 173.905 79.5349 173.905C78.2991 173.905 77.1361 173.651 76.0457 173.142C74.9917 172.597 74.1194 171.834 73.4288 170.852C72.8828 170.003 72.5647 169.04 72.4743 167.963H92.0298C92.2651 167.963 92.4561 167.772 92.4526 167.537C92.4035 164.269 91.7867 161.485 90.6021 159.185C89.4027 156.75 87.7853 154.915 85.75 153.679C83.751 152.407 81.5521 151.771 79.1532 151.771C76.391 151.771 73.9376 152.389 71.7932 153.624C69.6852 154.824 68.0133 156.496 66.7775 158.64C65.5781 160.785 64.9784 163.256 64.9784 166.055C64.9784 168.853 65.56 171.325 66.723 173.469C67.9224 175.614 69.558 177.304 71.6297 178.539ZM72.8584 162.62H84.6864C84.5981 161.616 84.2984 160.798 83.7873 160.167C83.1694 159.367 82.4062 158.786 81.4975 158.422C80.6252 158.059 79.7711 157.877 78.9352 157.877C78.0992 157.877 77.2087 158.059 76.2638 158.422C75.3188 158.786 74.501 159.367 73.8104 160.167C73.2693 160.798 72.952 161.616 72.8584 162.62Z" fill="white"/>
<path d="M94.7298 142.799C94.7298 142.564 94.9205 142.373 95.1557 142.373C97.6582 142.251 99.0484 142.246 101.5 142.373C101.736 142.373 101.926 142.564 101.926 142.799V179.258C101.926 179.494 101.736 179.684 101.5 179.684C99.0434 179.775 97.6546 179.778 95.1557 179.684C94.9205 179.684 94.7298 179.494 94.7298 179.258V142.799Z" fill="white"/>
<path d="M106.392 142.373C106.156 142.373 105.966 142.564 105.966 142.799V179.258C105.966 179.494 106.156 179.684 106.392 179.684C108.911 179.773 110.298 179.768 112.736 179.684C112.971 179.684 113.162 179.494 113.162 179.258V142.799C113.162 142.564 112.971 142.373 112.736 142.373C110.259 142.257 108.869 142.253 106.392 142.373Z" fill="white"/>
<path d="M122.653 191.242C121.672 191.242 120.582 191.042 119.382 190.643C118.364 190.324 117.443 189.95 116.62 189.521C116.424 189.418 116.346 189.179 116.438 188.977C117.181 187.012 117.683 185.903 118.758 183.911C118.86 183.688 119.128 183.598 119.348 183.707C119.81 183.937 120.24 184.122 120.636 184.264C121.181 184.482 121.654 184.591 122.054 184.591C122.817 184.591 123.489 184.373 124.071 183.937C124.652 183.537 125.125 182.937 125.488 182.138L126.658 179.382L114.588 153.028C114.459 152.746 114.665 152.425 114.976 152.425C117.659 152.323 119.183 152.326 121.932 152.425C122.105 152.425 122.26 152.529 122.326 152.689L129.981 171.3L137.268 152.696C137.331 152.532 137.489 152.425 137.664 152.425C140.348 152.312 141.885 152.289 144.639 152.425C144.943 152.425 145.149 152.735 145.032 153.015L132.903 182.029C132.14 183.846 131.34 185.445 130.504 186.826C129.668 188.244 128.632 189.334 127.397 190.097C126.197 190.861 124.616 191.242 122.653 191.242Z" fill="white"/>
<path d="M153.691 179.258C153.691 179.494 153.5 179.684 153.265 179.684C150.831 179.708 149.445 179.715 146.921 179.684C146.685 179.684 146.495 179.494 146.495 179.258V150.551C146.495 147.643 147.24 145.39 148.73 143.791C150.22 142.155 152.492 141.337 155.545 141.337C156.599 141.337 157.707 141.519 158.87 141.883C159.917 142.2 160.881 142.572 161.762 143C161.973 143.103 162.054 143.36 161.947 143.569C161.216 145.314 160.7 146.282 159.663 147.996C159.556 148.204 159.303 148.286 159.091 148.188C158.657 147.986 158.257 147.829 157.889 147.716C157.417 147.571 156.98 147.498 156.581 147.498C155.599 147.498 154.872 147.843 154.4 148.534C153.927 149.188 153.691 150.26 153.691 151.75V152.425H159.971C160.206 152.425 160.397 152.616 160.397 152.851C160.476 154.873 160.482 155.963 160.397 157.778C160.397 158.013 160.206 158.204 159.971 158.204H153.691V179.258Z" fill="white"/>
<path d="M163.427 152.851C163.427 152.616 163.618 152.425 163.853 152.425C166.437 152.362 167.825 152.366 170.197 152.425C170.433 152.425 170.623 152.616 170.623 152.851V179.258C170.623 179.494 170.433 179.684 170.197 179.684C167.798 179.726 166.41 179.728 163.853 179.684C163.618 179.684 163.427 179.494 163.427 179.258V152.851Z" fill="white"/>
<path d="M164.136 147.662C164.972 148.461 165.935 148.861 167.025 148.861C168.152 148.861 169.115 148.461 169.915 147.662C170.751 146.826 171.169 145.844 171.169 144.718C171.169 143.591 170.751 142.628 169.915 141.828C169.115 140.992 168.152 140.574 167.025 140.574C165.935 140.574 164.972 140.992 164.136 141.828C163.3 142.628 162.882 143.591 162.882 144.718C162.882 145.844 163.3 146.826 164.136 147.662Z" fill="white"/>
<path d="M174.533 152.851C174.533 152.616 174.724 152.425 174.959 152.425C177.338 152.376 178.635 152.379 180.903 152.425C181.124 152.425 181.308 152.594 181.327 152.814L181.613 156.096C182.33 154.991 183.187 154.094 184.183 153.406C185.746 152.316 187.563 151.771 189.635 151.771C191.779 151.771 193.615 152.207 195.141 153.079C196.668 153.952 197.831 155.315 198.631 157.168C199.43 158.985 199.812 161.348 199.775 164.256V179.258C199.775 179.494 199.585 179.684 199.349 179.684C196.894 179.754 195.507 179.737 193.005 179.684C192.77 179.684 192.579 179.494 192.579 179.258V165.728C192.579 163.874 192.361 162.438 191.925 161.421C191.525 160.403 190.943 159.676 190.18 159.24C189.417 158.767 188.526 158.531 187.509 158.531C185.655 158.495 184.219 159.058 183.202 160.221C182.22 161.384 181.73 163.111 181.73 165.4V179.258C181.73 179.494 181.539 179.684 181.304 179.684C178.826 179.747 177.437 179.744 174.959 179.684C174.724 179.684 174.533 179.494 174.533 179.258V152.851Z" fill="white"/>
</svg>
