<svg width="392" height="144" viewBox="0 0 392 144" fill="none" xmlns="http://www.w3.org/2000/svg">
<path d="M71.9997 64C75.1805 64.0016 85.3815 82.5701 83.8405 85.666C82.299 88.7614 61.7174 88.7956 60.1589 85.666C58.6014 82.5353 68.8232 64.0012 71.9997 64Z" fill="url(#paint0_linear_2035_3514)"/>
<path fill-rule="evenodd" clip-rule="evenodd" d="M71.9997 36C81.5324 36 112.153 91.713 107.527 100.995C102.901 110.277 41.1591 110.385 36.4821 100.995C31.8055 91.6048 62.4758 36.0013 71.9997 36ZM72.0094 50.2607C65.7672 50.2607 45.6717 86.6937 48.736 92.8467C51.8007 98.9992 92.2532 98.9311 95.2839 92.8467C98.3143 86.7606 78.2518 50.2614 72.0094 50.2607Z" fill="url(#paint1_linear_2035_3514)"/>
<path d="M136.02 96.682C138.065 97.4998 140.39 97.9087 142.997 97.9087C145.808 97.9087 148.389 97.5254 150.74 96.7587C153.143 95.9409 155.213 94.7909 156.95 93.3087C158.739 91.8265 160.119 90.0376 161.09 87.942C162.061 85.7954 162.547 83.3931 162.547 80.7353V47.3614C162.547 47.0306 162.279 46.7624 161.948 46.7624C158.369 46.6003 156.341 46.5723 152.719 46.7624C152.388 46.7624 152.12 47.0306 152.12 47.3614V77.6687C152.12 80.1731 151.686 82.2176 150.817 83.802C149.999 85.3865 148.9 86.5365 147.52 87.252C146.14 87.9676 144.684 88.3254 143.15 88.3254C141.106 88.3254 139.394 87.712 138.014 86.4853C136.799 85.3639 135.798 83.8154 135.01 81.8397C134.886 81.5294 134.538 81.3689 134.226 81.4874C130.74 82.4684 128.968 83.0936 126.381 84.4629C126.105 84.5678 125.945 84.8594 126.018 85.1462C126.341 86.4215 126.864 87.7368 127.587 89.092C128.405 90.6254 129.504 92.0565 130.884 93.3854C132.315 94.7142 134.027 95.8131 136.02 96.682Z" fill="#FCFAFF"/>
<path fill-rule="evenodd" clip-rule="evenodd" d="M175.792 95.2254C178.705 96.912 182.053 97.7554 185.835 97.7554C188.851 97.7554 191.534 97.3465 193.885 96.5287C196.236 95.7109 198.255 94.5354 199.942 93.002C201.52 91.5627 202.825 89.8913 203.855 87.9879C204.023 87.6779 203.875 87.2949 203.547 87.1668C200.624 85.6682 198.892 84.9965 195.621 84.0771C195.332 83.9647 195.008 84.0917 194.854 84.3603C194.158 85.5757 193.222 86.5907 192.045 87.4054C190.716 88.2743 189.004 88.7087 186.908 88.7087C185.171 88.7087 183.535 88.3509 182.002 87.6354C180.52 86.8687 179.293 85.7954 178.322 84.4154C177.554 83.2211 177.107 81.8666 176.98 80.352H204.479C204.81 80.352 205.079 80.0834 205.074 79.7526C205.005 75.157 204.138 71.2423 202.472 68.0087C200.785 64.5843 198.511 62.0031 195.648 60.2654C192.837 58.4765 189.745 57.582 186.372 57.582C182.487 57.582 179.037 58.4509 176.022 60.1887C173.057 61.8754 170.706 64.2265 168.968 67.242C167.282 70.2576 166.438 73.7331 166.438 77.6687C166.438 81.6043 167.256 85.0798 168.892 88.0954C170.578 91.1109 172.878 93.4876 175.792 95.2254ZM177.52 72.8387H194.153C194.029 71.4265 193.607 70.2765 192.888 69.3887C192.02 68.2643 190.946 67.4465 189.668 66.9354C188.442 66.4243 187.241 66.1687 186.065 66.1687C184.89 66.1687 183.637 66.4243 182.308 66.9354C180.98 67.4465 179.83 68.2643 178.858 69.3887C178.097 70.2765 177.651 71.4265 177.52 72.8387Z" fill="#FCFAFF"/>
<path d="M208.276 44.9655C208.276 44.6347 208.544 44.3666 208.875 44.3666C212.394 44.1953 214.349 44.1879 217.797 44.3666C218.128 44.3666 218.396 44.6347 218.396 44.9655V96.2364C218.396 96.5672 218.128 96.8353 217.797 96.8353C214.342 96.963 212.389 96.9665 208.875 96.8353C208.544 96.8353 208.276 96.5672 208.276 96.2364V44.9655Z" fill="#FCFAFF"/>
<path d="M224.676 44.3666C224.345 44.3666 224.077 44.6348 224.077 44.9656V96.2364C224.077 96.5672 224.345 96.8353 224.676 96.8353C228.218 96.9596 230.169 96.9534 233.598 96.8353C233.929 96.8353 234.197 96.5672 234.197 96.2364V44.9656C234.197 44.6348 233.929 44.3666 233.598 44.3666C230.114 44.2035 228.16 44.1977 224.676 44.3666Z" fill="#FCFAFF"/>
<path d="M247.544 113.089C246.164 113.089 244.631 112.808 242.944 112.245C241.512 111.798 240.217 111.272 239.06 110.668C238.783 110.524 238.674 110.187 238.804 109.903C239.848 107.139 240.554 105.581 242.066 102.779C242.21 102.466 242.587 102.339 242.895 102.492C243.546 102.815 244.15 103.076 244.707 103.275C245.474 103.582 246.138 103.735 246.701 103.735C247.774 103.735 248.72 103.429 249.537 102.815C250.355 102.253 251.019 101.41 251.531 100.285L253.176 96.4097L236.202 59.3504C236.021 58.9537 236.311 58.502 236.747 58.502C240.521 58.358 242.664 58.3624 246.529 58.502C246.772 58.502 246.991 58.6486 247.083 58.8731L257.849 85.0456L268.095 58.8826C268.185 58.653 268.406 58.502 268.653 58.502C272.427 58.3427 274.588 58.3113 278.461 58.502C278.889 58.502 279.179 58.9374 279.014 59.332L261.957 100.132C260.884 102.688 259.759 104.936 258.584 106.879C257.408 108.872 255.952 110.405 254.214 111.479C252.527 112.552 250.304 113.089 247.544 113.089Z" fill="#FCFAFF"/>
<path d="M291.191 96.2364C291.191 96.5672 290.922 96.8353 290.592 96.8353C287.169 96.8693 285.219 96.8781 281.67 96.8353C281.339 96.8353 281.071 96.5672 281.071 96.2364V55.8666C281.071 51.7777 282.118 48.6088 284.214 46.3599C286.309 44.0599 289.504 42.9099 293.797 42.9099C295.279 42.9099 296.838 43.1655 298.474 43.6766C299.946 44.1227 301.301 44.6466 302.54 45.2485C302.837 45.3928 302.951 45.7542 302.8 46.0478C301.773 48.5019 301.047 49.8638 299.588 52.2742C299.438 52.5656 299.082 52.6809 298.784 52.543C298.174 52.26 297.611 52.039 297.094 51.8799C296.429 51.6755 295.816 51.5732 295.254 51.5732C293.874 51.5732 292.852 52.0588 292.187 53.0299C291.523 53.9499 291.191 55.4577 291.191 57.5532V58.502H300.022C300.352 58.502 300.621 58.7702 300.621 59.101C300.732 61.9439 300.74 63.4777 300.621 66.0297C300.621 66.3605 300.352 66.6287 300.022 66.6287H291.191V96.2364Z" fill="#FCFAFF"/>
<path d="M304.882 59.101C304.882 58.7702 305.15 58.502 305.481 58.502C309.114 58.4137 311.067 58.4193 314.403 58.502C314.733 58.502 315.002 58.7702 315.002 59.101V96.2364C315.002 96.5672 314.733 96.8354 314.403 96.8354C311.029 96.8935 309.077 96.8972 305.481 96.8354C305.15 96.8354 304.882 96.5672 304.882 96.2364V59.101Z" fill="#FCFAFF"/>
<path d="M305.878 51.8032C307.054 52.9277 308.408 53.4899 309.942 53.4899C311.526 53.4899 312.88 52.9277 314.005 51.8032C315.18 50.6277 315.768 49.2477 315.768 47.6632C315.768 46.0788 315.18 44.7243 314.005 43.5999C312.88 42.4243 311.526 41.8365 309.942 41.8365C308.408 41.8365 307.054 42.4243 305.878 43.5999C304.703 44.7243 304.115 46.0788 304.115 47.6632C304.115 49.2477 304.703 50.6277 305.878 51.8032Z" fill="#FCFAFF"/>
<path d="M320.5 59.101C320.5 58.7702 320.768 58.502 321.099 58.502C324.443 58.4327 326.268 58.4368 329.458 58.502C329.768 58.502 330.027 58.7396 330.054 59.0491L330.456 63.6646C331.465 62.11 332.669 60.8491 334.07 59.882C336.268 58.3487 338.823 57.582 341.737 57.582C344.752 57.582 347.333 58.1954 349.48 59.422C351.627 60.6487 353.262 62.5654 354.387 65.172C355.511 67.7276 356.048 71.0498 355.997 75.1387V96.2364C355.997 96.5672 355.729 96.8354 355.398 96.8354C351.945 96.9336 349.995 96.9092 346.476 96.8354C346.145 96.8354 345.877 96.5672 345.877 96.2364V77.2087C345.877 74.602 345.57 72.5831 344.957 71.152C344.394 69.7209 343.577 68.6987 342.503 68.0854C341.43 67.4209 340.178 67.0887 338.747 67.0887C336.14 67.0376 334.121 67.8298 332.69 69.4654C331.31 71.1009 330.62 73.5287 330.62 76.7487V96.2364C330.62 96.5672 330.352 96.8354 330.021 96.8354C326.536 96.923 324.583 96.919 321.099 96.8354C320.768 96.8354 320.5 96.5672 320.5 96.2364V59.101Z" fill="#FCFAFF"/>
<defs>
<linearGradient id="paint0_linear_2035_3514" x1="48.0001" y1="65.9991" x2="107.999" y2="99.0006" gradientUnits="userSpaceOnUse">
<stop stop-color="#AA5CC3"/>
<stop offset="1" stop-color="#00A4DC"/>
</linearGradient>
<linearGradient id="paint1_linear_2035_3514" x1="48.0001" y1="65.9991" x2="107.999" y2="99.0006" gradientUnits="userSpaceOnUse">
<stop stop-color="#AA5CC3"/>
<stop offset="1" stop-color="#00A4DC"/>
</linearGradient>
</defs>
</svg>
