<svg width="379" height="144" viewBox="0 0 379 144" fill="none" xmlns="http://www.w3.org/2000/svg">
<path fill-rule="evenodd" clip-rule="evenodd" d="M36.4819 100.995C31.8052 91.6047 62.4765 36 72 36C81.5327 36 112.153 91.713 107.527 100.995C102.902 110.277 41.1585 110.386 36.4819 100.995ZM49.408 92.5253C52.2216 98.1738 91.8824 98.0113 94.6133 92.5273C97.3441 87.0434 77.789 51.01 72.0093 51.01C66.2295 51.01 46.5944 86.8768 49.408 92.5253Z" fill="black"/>
<path d="M72.0001 63.5C68.4809 63.5 57.9681 82.3745 59.7084 85.8691C61.4488 89.3637 82.5525 89.3605 84.2912 85.8691C86.0299 82.3777 75.5193 63.5 72.0001 63.5Z" fill="black"/>
<path d="M151.495 48.5686C154.918 48.3891 156.841 48.4156 160.218 48.5686C160.69 48.5725 161.071 48.956 161.071 49.4285V80.9161C161.071 83.4602 160.606 85.7688 159.67 87.8369L159.669 87.8394C158.735 89.8559 157.406 91.5784 155.686 93.0044C154.015 94.4289 152.029 95.5309 149.732 96.3128L149.728 96.3141C147.477 97.0482 145.01 97.4136 142.331 97.4136C139.841 97.4136 137.609 97.023 135.639 96.2352L135.631 96.2318C133.723 95.4002 132.079 94.3459 130.702 93.0671L130.698 93.0635C129.376 91.7904 128.32 90.4158 127.532 88.9391C126.841 87.643 126.338 86.3799 126.026 85.1501C125.92 84.7344 126.148 84.3204 126.531 84.1646C128.987 82.8661 130.679 82.2699 133.965 81.345C134.412 81.1836 134.897 81.4166 135.069 81.8488C135.8 83.6821 136.722 85.1017 137.827 86.1225C139.069 87.2254 140.612 87.7822 142.476 87.7822C143.875 87.7822 145.202 87.4563 146.463 86.8027C147.703 86.1596 148.699 85.1231 149.447 83.6742L149.451 83.6676C150.239 82.2297 150.644 80.3542 150.644 78.0227V49.4285C150.644 48.9564 151.024 48.5731 151.495 48.5686Z" fill="black"/>
<path fill-rule="evenodd" clip-rule="evenodd" d="M183.169 58.7766C179.459 58.7766 176.152 59.6069 173.258 61.2749C170.414 62.8927 168.159 65.1488 166.494 68.0382L166.492 68.0415C164.873 70.9364 164.068 74.2664 164.068 78.0228C164.068 81.7777 164.848 85.1064 166.418 88.0007L166.42 88.004C168.036 90.8934 170.242 93.1737 173.036 94.8403L173.039 94.8422C175.838 96.4627 179.049 97.2689 182.663 97.2689C185.534 97.2689 188.099 96.8796 190.355 96.0952C192.607 95.3118 194.547 94.1831 196.171 92.7073C197.685 91.3267 198.936 89.7235 199.924 87.8991C200.167 87.4498 199.954 86.9043 199.496 86.7155C196.731 85.2984 195.079 84.658 191.988 83.7886C191.574 83.6359 191.126 83.8229 190.916 84.1896C190.282 85.2962 189.431 86.2206 188.357 86.9644C187.165 87.7429 185.612 88.1439 183.675 88.1439C182.08 88.1439 180.581 87.8161 179.176 87.1615C177.825 86.4613 176.706 85.4831 175.819 84.2235C175.178 83.2254 174.783 82.1022 174.634 80.8493H200.253C200.727 80.8493 201.116 80.4637 201.109 79.9845C201.043 75.6158 200.219 71.8761 198.622 68.776C197.01 65.5042 194.83 63.0248 192.077 61.3527C189.378 59.6355 186.406 58.7766 183.169 58.7766ZM179.441 68.1713C180.668 67.6994 181.814 67.4676 182.88 67.4676C183.945 67.4676 185.04 67.6991 186.166 68.1683L186.17 68.1698C187.325 68.6319 188.295 69.3704 189.084 70.3911L189.088 70.3963C189.668 71.1123 190.037 72.0321 190.182 73.1709H175.148C175.301 72.0362 175.691 71.1187 176.304 70.4031C177.19 69.3775 178.235 68.6353 179.441 68.1713Z" fill="black"/>
<path d="M204.308 46.3082C207.631 46.1466 209.485 46.1396 212.742 46.3082C213.213 46.3127 213.594 46.6959 213.594 47.1681V95.541C213.594 96.0139 213.212 96.3977 212.74 96.4009C209.478 96.5214 207.628 96.5247 204.31 96.4009C203.838 96.3977 203.456 96.0139 203.456 95.541V47.1681C203.456 46.6958 203.837 46.3124 204.308 46.3082Z" fill="black"/>
<path d="M219.131 46.3081C222.422 46.1487 224.274 46.1542 227.564 46.3081C228.036 46.3122 228.417 46.6956 228.417 47.168V95.5409C228.417 96.014 228.035 96.3979 227.562 96.4009C224.325 96.5122 222.478 96.5181 219.133 96.4009C218.661 96.3978 218.279 96.014 218.279 95.5409V47.168C218.279 46.6957 218.66 46.3123 219.131 46.3081Z" fill="black"/>
<path d="M260.543 59.6446C264.105 59.4943 266.153 59.4645 269.812 59.6446C270.422 59.65 270.834 60.2721 270.598 60.8362L254.505 99.3306C253.488 101.752 252.421 103.886 251.304 105.733C250.174 107.648 248.769 109.131 247.084 110.172C245.431 111.223 243.273 111.736 240.635 111.736C239.294 111.736 237.816 111.463 236.204 110.926C234.84 110.499 233.603 109.997 232.494 109.418C232.092 109.209 231.938 108.726 232.116 108.323C233.103 105.71 233.774 104.229 235.203 101.581C235.413 101.137 235.947 100.964 236.38 101.179C236.985 101.48 237.545 101.721 238.058 101.904L238.068 101.908C238.771 102.19 239.359 102.321 239.839 102.321C240.791 102.321 241.621 102.051 242.338 101.512L242.348 101.505C243.065 101.012 243.661 100.265 244.126 99.2424L245.626 95.709L229.666 60.8626C229.406 60.2949 229.819 59.6488 230.442 59.6446C234.005 59.5087 236.034 59.5128 239.683 59.6446C240.03 59.6469 240.341 59.8568 240.473 60.1774L250.35 84.1913L259.75 60.1909C259.878 59.8635 260.192 59.6474 260.543 59.6446Z" fill="black"/>
<path fill-rule="evenodd" clip-rule="evenodd" d="M284.191 44.9338C280.091 44.9338 276.984 46.0328 274.932 48.2839C272.89 50.4761 271.889 53.5465 271.889 57.453V95.541C271.889 96.0153 272.273 96.3999 272.747 96.4009C276.097 96.4413 277.939 96.433 281.168 96.4009C281.642 96.4 282.026 96.0154 282.026 95.541V67.9016H290.063C290.536 67.9016 290.919 67.5207 290.923 67.0493C291.036 64.6365 291.028 63.1813 290.923 60.4982C290.92 60.0262 290.536 59.6446 290.063 59.6446H282.026V59.0443C282.026 57.0838 282.34 55.7398 282.911 54.9493L282.915 54.9431C283.477 54.122 284.341 53.6971 285.565 53.6971C286.06 53.6971 286.609 53.7872 287.214 53.9734C287.687 54.1188 288.206 54.3221 288.772 54.5847C289.188 54.7774 289.692 54.6217 289.912 54.2086C291.288 51.9329 291.98 50.6357 292.953 48.3127C293.16 47.895 292.998 47.3786 292.568 47.1698C291.384 46.5946 290.091 46.095 288.69 45.6702C287.123 45.1807 285.623 44.9338 284.191 44.9338ZM281.166 96.1061L281.169 96.4009L281.168 96.4009H281.166V96.1061ZM272.749 96.1061V96.4009H272.747L272.745 96.4009L272.749 96.1061ZM275.149 48.4836L274.933 48.2826L274.932 48.2839L274.931 48.2851L275.149 48.4836Z" fill="black"/>
<path d="M295.121 59.6446C298.551 59.5613 300.398 59.5665 303.547 59.6446C304.02 59.6468 304.403 60.031 304.403 60.5046V95.541C304.403 96.015 304.02 96.3994 303.546 96.401C300.362 96.4558 298.517 96.4593 295.122 96.401C294.649 96.3994 294.265 96.015 294.265 95.541V60.5046C294.265 60.0309 294.648 59.6468 295.121 59.6446Z" fill="black"/>
<path d="M299.334 43.9212C297.803 43.9212 296.453 44.5111 295.294 45.6689C294.131 46.7833 293.542 48.1367 293.542 49.7133C293.542 51.2906 294.131 52.6665 295.292 53.8278L295.297 53.8324C296.457 54.9423 297.807 55.5055 299.334 55.5055C300.908 55.5055 302.26 54.9438 303.376 53.8278C304.538 52.6665 305.126 51.2906 305.126 49.7133C305.126 48.1377 304.539 46.7851 303.376 45.6711C302.262 44.5088 300.91 43.9212 299.334 43.9212Z" fill="black"/>
<path d="M329.248 58.7766C326.445 58.7766 323.974 59.5153 321.846 60.9992C320.703 61.7888 319.697 62.7792 318.827 63.9676L318.52 60.43C318.481 59.9868 318.111 59.6463 317.666 59.6446C314.656 59.5831 312.93 59.5792 309.773 59.6446C309.3 59.6464 308.917 60.0307 308.917 60.5045V95.541C308.917 96.0146 309.3 96.3988 309.773 96.4009C313.062 96.4798 314.909 96.4836 318.199 96.4009C318.672 96.3987 319.054 96.0145 319.054 95.541V77.1547C319.054 74.1539 319.698 71.944 320.936 70.4752C322.218 69.0121 324.031 68.2887 326.421 68.3356H326.427C327.73 68.3356 328.856 68.6376 329.816 69.2319L329.825 69.2371C330.766 69.7749 331.499 70.679 332.011 71.9823L332.015 71.9906C332.571 73.2874 332.859 75.146 332.859 77.5888V95.541C332.859 96.0148 333.242 96.3991 333.716 96.4009C337.035 96.4706 338.88 96.4937 342.141 96.4009C342.614 96.3984 342.997 96.0144 342.997 95.541V75.6376C343.045 71.7571 342.537 68.5775 341.453 66.1148C340.371 63.6063 338.788 61.7449 336.7 60.5514C334.621 59.3636 332.133 58.7766 329.248 58.7766Z" fill="black"/>
</svg>
