<svg width="302" height="144" viewBox="0 0 302 144" fill="none" xmlns="http://www.w3.org/2000/svg">
<path d="M46.0203 96.6821C48.0648 97.4999 50.3903 97.9088 52.997 97.9088C55.8081 97.9088 58.3892 97.5254 60.7403 96.7588C63.1425 95.941 65.2125 94.791 66.9503 93.3088C68.7392 91.8265 70.1192 90.0376 71.0903 87.9421C72.0614 85.7954 72.547 83.3932 72.547 80.7354V47.3615C72.547 47.0307 72.2788 46.7625 71.948 46.7625C68.369 46.6004 66.3414 46.5724 62.7193 46.7625C62.3885 46.7625 62.1203 47.0307 62.1203 47.3615V77.6687C62.1203 80.1732 61.6859 82.2176 60.817 83.8021C59.9992 85.3865 58.9003 86.5365 57.5203 87.2521C56.1403 87.9676 54.6837 88.3254 53.1503 88.3254C51.1059 88.3254 49.3937 87.7121 48.0137 86.4854C46.7988 85.364 45.7975 83.8155 45.0098 81.8398C44.8861 81.5295 44.5382 81.369 44.2259 81.4874C40.7397 82.4685 38.9684 83.0937 36.3814 84.4629C36.1047 84.5679 35.9448 84.8594 36.0176 85.1463C36.3411 86.4216 36.8642 87.7369 37.587 89.0921C38.4048 90.6254 39.5037 92.0565 40.8837 93.3854C42.3148 94.7143 44.027 95.8132 46.0203 96.6821Z" fill="white"/>
<path fill-rule="evenodd" clip-rule="evenodd" d="M85.7917 95.2254C88.7051 96.9121 92.0529 97.7554 95.8351 97.7554C98.8506 97.7554 101.534 97.3465 103.885 96.5288C106.236 95.711 108.255 94.5354 109.942 93.0021C111.52 91.5627 112.825 89.8913 113.855 87.988C114.023 87.678 113.875 87.2949 113.547 87.1669C110.624 85.6683 108.892 84.9965 105.621 84.0772C105.332 83.9648 105.008 84.0917 104.854 84.3603C104.158 85.5757 103.222 86.5908 102.045 87.4054C100.716 88.2743 99.004 88.7088 96.9084 88.7088C95.1706 88.7088 93.5351 88.351 92.0018 87.6354C90.5195 86.8688 89.2929 85.7954 88.3217 84.4154C87.554 83.2212 87.1066 81.8667 86.9795 80.3521H114.479C114.81 80.3521 115.079 80.0834 115.074 79.7527C115.005 75.157 114.138 71.2424 112.472 68.0088C110.785 64.5843 108.511 62.0032 105.648 60.2654C102.837 58.4765 99.7451 57.5821 96.3717 57.5821C92.4873 57.5821 89.0373 58.451 86.0218 60.1888C83.0573 61.8754 80.7062 64.2265 78.9684 67.2421C77.2817 70.2576 76.4384 73.7332 76.4384 77.6688C76.4384 81.6043 77.2562 85.0799 78.8917 88.0954C80.5784 91.111 82.8784 93.4876 85.7917 95.2254ZM87.5197 72.8388H104.153C104.029 71.4265 103.607 70.2765 102.888 69.3888C102.02 68.2643 100.946 67.4465 99.6684 66.9354C98.4418 66.4243 97.2406 66.1688 96.0651 66.1688C94.8895 66.1688 93.6373 66.4243 92.3084 66.9354C90.9795 67.4465 89.8295 68.2643 88.8584 69.3888C88.0975 70.2765 87.6512 71.4265 87.5197 72.8388Z" fill="white"/>
<path d="M118.276 44.9656C118.276 44.6349 118.544 44.3667 118.875 44.3667C122.394 44.1954 124.349 44.1881 127.797 44.3667C128.128 44.3667 128.396 44.6349 128.396 44.9656V96.2365C128.396 96.5673 128.128 96.8354 127.797 96.8354C124.342 96.9631 122.389 96.9666 118.875 96.8354C118.544 96.8354 118.276 96.5673 118.276 96.2365V44.9656Z" fill="white"/>
<path d="M134.676 44.3667C134.345 44.3667 134.077 44.6349 134.077 44.9657V96.2365C134.077 96.5673 134.345 96.8355 134.676 96.8355C138.218 96.9597 140.169 96.9535 143.598 96.8355C143.929 96.8355 144.197 96.5673 144.197 96.2365V44.9657C144.197 44.6349 143.929 44.3667 143.598 44.3667C140.114 44.2036 138.16 44.1978 134.676 44.3667Z" fill="white"/>
<path d="M157.544 113.089C156.164 113.089 154.631 112.808 152.944 112.245C151.512 111.798 150.217 111.272 149.06 110.668C148.783 110.524 148.674 110.187 148.804 109.903C149.848 107.139 150.554 105.581 152.066 102.779C152.21 102.466 152.587 102.339 152.895 102.492C153.546 102.815 154.15 103.076 154.707 103.275C155.474 103.582 156.138 103.735 156.701 103.735C157.774 103.735 158.72 103.429 159.537 102.815C160.355 102.253 161.02 101.41 161.531 100.285L163.176 96.4097L146.203 59.3504C146.021 58.9537 146.311 58.502 146.747 58.502C150.521 58.358 152.664 58.3624 156.529 58.502C156.772 58.502 156.991 58.6486 157.083 58.8731L167.849 85.0456L178.095 58.8826C178.185 58.653 178.406 58.502 178.653 58.502C182.427 58.3427 184.588 58.3113 188.461 58.502C188.889 58.502 189.179 58.9374 189.014 59.332L171.957 100.132C170.884 102.688 169.76 104.936 168.584 106.879C167.408 108.872 165.952 110.405 164.214 111.479C162.527 112.552 160.304 113.089 157.544 113.089Z" fill="white"/>
<path d="M201.191 96.2365C201.191 96.5673 200.922 96.8355 200.592 96.8355C197.169 96.8694 195.219 96.8782 191.67 96.8355C191.339 96.8355 191.071 96.5673 191.071 96.2365V55.8667C191.071 51.7778 192.118 48.6089 194.214 46.36C196.309 44.06 199.504 42.91 203.797 42.91C205.279 42.91 206.838 43.1656 208.474 43.6767C209.946 44.1228 211.301 44.6467 212.54 45.2486C212.837 45.3929 212.951 45.7543 212.8 46.0479C211.773 48.5021 211.047 49.8639 209.588 52.2744C209.438 52.5657 209.082 52.681 208.784 52.5431C208.174 52.2602 207.611 52.0391 207.094 51.88C206.429 51.6756 205.816 51.5734 205.254 51.5734C203.874 51.5734 202.852 52.0589 202.187 53.03C201.523 53.95 201.191 55.4578 201.191 57.5534V58.5021H210.022C210.352 58.5021 210.621 58.7703 210.621 59.1011C210.732 61.944 210.74 63.4778 210.621 66.0298C210.621 66.3606 210.352 66.6288 210.022 66.6288H201.191V96.2365Z" fill="white"/>
<path d="M214.882 59.101C214.882 58.7702 215.15 58.502 215.481 58.502C219.114 58.4137 221.067 58.4193 224.403 58.502C224.733 58.502 225.002 58.7702 225.002 59.101V96.2364C225.002 96.5672 224.733 96.8354 224.403 96.8354C221.029 96.8935 219.077 96.8972 215.481 96.8354C215.15 96.8354 214.882 96.5672 214.882 96.2364V59.101Z" fill="white"/>
<path d="M215.878 51.8033C217.054 52.9277 218.408 53.4899 219.942 53.4899C221.526 53.4899 222.88 52.9277 224.005 51.8033C225.18 50.6277 225.768 49.2477 225.768 47.6633C225.768 46.0788 225.18 44.7244 224.005 43.5999C222.88 42.4244 221.526 41.8366 219.942 41.8366C218.408 41.8366 217.054 42.4244 215.878 43.5999C214.703 44.7244 214.115 46.0788 214.115 47.6633C214.115 49.2477 214.703 50.6277 215.878 51.8033Z" fill="white"/>
<path d="M230.5 59.1011C230.5 58.7703 230.768 58.5021 231.099 58.5021C234.444 58.4328 236.268 58.4369 239.458 58.5021C239.768 58.5021 240.027 58.7396 240.054 59.0492L240.456 63.6646C241.465 62.11 242.669 60.8492 244.07 59.8821C246.268 58.3488 248.823 57.5821 251.737 57.5821C254.752 57.5821 257.333 58.1954 259.48 59.4221C261.627 60.6488 263.262 62.5654 264.387 65.1721C265.511 67.7276 266.048 71.0499 265.997 75.1388V96.2365C265.997 96.5673 265.729 96.8354 265.398 96.8354C261.945 96.9337 259.995 96.9093 256.476 96.8354C256.145 96.8354 255.877 96.5673 255.877 96.2365V77.2088C255.877 74.6021 255.57 72.5832 254.957 71.1521C254.394 69.721 253.577 68.6988 252.503 68.0854C251.43 67.421 250.178 67.0888 248.747 67.0888C246.14 67.0376 244.121 67.8299 242.69 69.4654C241.31 71.101 240.62 73.5288 240.62 76.7488V96.2365C240.62 96.5673 240.352 96.8354 240.021 96.8354C236.536 96.9231 234.583 96.919 231.099 96.8354C230.768 96.8354 230.5 96.5673 230.5 96.2365V59.1011Z" fill="white"/>
</svg>
