<svg width="289" height="144" viewBox="0 0 289 144" fill="none" xmlns="http://www.w3.org/2000/svg">
<path d="M45.4539 95.1114C47.3828 95.883 49.5769 96.2688 52.0363 96.2688C54.6885 96.2688 57.1237 95.9071 59.3419 95.1838C61.6084 94.4122 63.5614 93.3272 65.2009 91.9288C66.8887 90.5303 68.1907 88.8425 69.1069 86.8654C70.0232 84.8401 70.4813 82.5736 70.4813 80.0661V48.5785C70.4813 48.2664 70.2283 48.0134 69.9162 48.0134C66.5395 47.8604 64.6264 47.834 61.209 48.0134C60.8969 48.0134 60.6439 48.2664 60.6439 48.5785V77.1727C60.6439 79.5356 60.2341 81.4645 59.4143 82.9594C58.6427 84.4543 57.6059 85.5393 56.3039 86.2144C55.0019 86.8895 53.6276 87.2271 52.1809 87.2271C50.2521 87.2271 48.6366 86.6484 47.3346 85.4911C46.1884 84.4331 45.2437 82.972 44.5006 81.108C44.3839 80.8153 44.0556 80.6638 43.7609 80.7756C40.4718 81.7012 38.8006 82.2911 36.3598 83.5829C36.0988 83.6819 35.9479 83.957 36.0165 84.2276C36.3218 85.4309 36.8154 86.6718 37.4973 87.9504C38.2688 89.3971 39.3056 90.7473 40.6076 92.0011C41.9578 93.2549 43.5733 94.2916 45.4539 95.1114Z" fill="white"/>
<path fill-rule="evenodd" clip-rule="evenodd" d="M82.9774 93.7371C85.7261 95.3284 88.8846 96.1241 92.4531 96.1241C95.2982 96.1241 97.8299 95.7383 100.048 94.9668C102.266 94.1952 104.171 93.0861 105.762 91.6394C107.252 90.2814 108.483 88.7045 109.455 86.9087C109.613 86.6162 109.473 86.2549 109.163 86.1341C106.406 84.7201 104.772 84.0864 101.686 83.219C101.414 83.1129 101.107 83.2327 100.962 83.4861C100.306 84.6328 99.4223 85.5905 98.3121 86.3591C97.0583 87.1789 95.4429 87.5888 93.4658 87.5888C91.8262 87.5888 90.2831 87.2512 88.8364 86.5761C87.438 85.8528 86.2806 84.8401 85.3644 83.5381C84.6401 82.4113 84.218 81.1334 84.0981 79.7044H110.044C110.356 79.7044 110.609 79.451 110.605 79.1389C110.539 74.803 109.721 71.1096 108.149 68.0588C106.558 64.8279 104.412 62.3927 101.712 60.7531C99.0595 59.0653 96.1421 58.2214 92.9594 58.2214C89.2945 58.2214 86.0395 59.0412 83.1944 60.6808C80.3975 62.2721 78.1793 64.4903 76.5398 67.3354C74.9484 70.1805 74.1528 73.4597 74.1528 77.1728C74.1528 80.8859 74.9243 84.165 76.4674 87.0101C78.0588 89.8552 80.2288 92.0975 82.9774 93.7371ZM84.6077 72.6158H100.301C100.183 71.2833 99.7858 70.1983 99.1078 69.3608C98.288 68.2999 97.2753 67.5283 96.0698 67.0461C94.9124 66.5639 93.7792 66.3228 92.6701 66.3228C91.561 66.3228 90.3795 66.5639 89.1258 67.0461C87.872 67.5283 86.787 68.2999 85.8708 69.3608C85.1528 70.1983 84.7318 71.2833 84.6077 72.6158Z" fill="white"/>
<path d="M113.626 46.3181C113.626 46.006 113.879 45.7529 114.191 45.7529C117.511 45.5914 119.356 45.5844 122.609 45.7529C122.921 45.7529 123.174 46.006 123.174 46.3181V94.691C123.174 95.0031 122.921 95.2561 122.609 95.2561C119.349 95.3765 117.506 95.3798 114.191 95.2561C113.879 95.2561 113.626 95.0031 113.626 94.691V46.3181Z" fill="white"/>
<path d="M129.098 45.753C128.786 45.753 128.533 46.006 128.533 46.3181V94.691C128.533 95.0031 128.786 95.2561 129.098 95.2561C132.44 95.3733 134.281 95.3675 137.516 95.2561C137.828 95.2561 138.081 95.0031 138.081 94.691V46.3181C138.081 46.006 137.828 45.753 137.516 45.753C134.229 45.5991 132.386 45.5936 129.098 45.753Z" fill="white"/>
<path d="M150.674 110.591C149.372 110.591 147.925 110.325 146.334 109.795C144.983 109.373 143.762 108.877 142.669 108.307C142.408 108.171 142.305 107.853 142.428 107.585C143.413 104.978 144.079 103.507 145.506 100.864C145.641 100.568 145.997 100.448 146.288 100.593C146.902 100.898 147.472 101.144 147.998 101.332C148.721 101.621 149.348 101.766 149.878 101.766C150.891 101.766 151.783 101.477 152.555 100.898C153.326 100.368 153.953 99.5719 154.435 98.511L155.987 94.8545L139.974 59.8898C139.802 59.5155 140.076 59.0894 140.487 59.0894C144.048 58.9535 146.07 58.9576 149.717 59.0894C149.946 59.0894 150.152 59.2277 150.239 59.4395L160.396 84.1327L170.063 59.4484C170.148 59.2319 170.357 59.0894 170.59 59.0894C174.151 58.9391 176.19 58.9094 179.844 59.0894C180.247 59.0894 180.521 59.5001 180.365 59.8724L164.273 98.3664C163.26 100.777 162.199 102.899 161.09 104.732C159.981 106.612 158.607 108.059 156.967 109.072C155.376 110.084 153.278 110.591 150.674 110.591Z" fill="white"/>
<path d="M191.854 94.691C191.854 95.0031 191.601 95.2561 191.289 95.2561C188.059 95.2881 186.22 95.2964 182.871 95.2561C182.559 95.2561 182.306 95.0031 182.306 94.691V56.6029C182.306 52.7452 183.294 49.7554 185.271 47.6336C187.248 45.4636 190.262 44.3786 194.313 44.3786C195.711 44.3786 197.182 44.6197 198.725 45.1019C200.114 45.5228 201.393 46.0172 202.561 46.585C202.842 46.7212 202.95 47.0621 202.807 47.3391C201.838 49.6545 201.153 50.9394 199.777 53.2136C199.635 53.4886 199.299 53.5973 199.018 53.4672C198.443 53.2002 197.911 52.9917 197.423 52.8416C196.796 52.6487 196.218 52.5523 195.687 52.5523C194.385 52.5523 193.421 53.0104 192.794 53.9266C192.167 54.7946 191.854 56.2172 191.854 58.1943V59.0894H200.186C200.498 59.0894 200.751 59.3424 200.751 59.6545C200.855 62.3368 200.864 63.7838 200.751 66.1916C200.751 66.5037 200.498 66.7567 200.186 66.7567H191.854V94.691Z" fill="white"/>
<path d="M204.771 59.6545C204.771 59.3424 205.024 59.0894 205.336 59.0894C208.764 59.0061 210.606 59.0113 213.754 59.0894C214.066 59.0894 214.319 59.3424 214.319 59.6545V94.691C214.319 95.0031 214.066 95.2561 213.754 95.2561C210.571 95.311 208.729 95.3144 205.336 95.2561C205.024 95.2561 204.771 95.0031 204.771 94.691V59.6545Z" fill="white"/>
<path d="M205.711 52.7692C206.82 53.8301 208.098 54.3606 209.545 54.3606C211.04 54.3606 212.318 53.8301 213.379 52.7692C214.488 51.6601 215.042 50.3581 215.042 48.8632C215.042 47.3684 214.488 46.0905 213.379 45.0296C212.318 43.9205 211.04 43.3659 209.545 43.3659C208.098 43.3659 206.82 43.9205 205.711 45.0296C204.602 46.0905 204.048 47.3684 204.048 48.8632C204.048 50.3581 204.602 51.6601 205.711 52.7692Z" fill="white"/>
<path d="M219.507 59.6545C219.507 59.3424 219.76 59.0894 220.072 59.0894C223.227 59.024 224.949 59.0279 227.958 59.0894C228.251 59.0894 228.495 59.3136 228.521 59.6056L228.899 63.9602C229.851 62.4935 230.988 61.3039 232.31 60.3914C234.383 58.9448 236.794 58.2214 239.543 58.2214C242.388 58.2214 244.823 58.8001 246.849 59.9574C248.874 61.1148 250.417 62.9231 251.478 65.3824C252.539 67.7935 253.045 70.928 252.997 74.7858V94.691C252.997 95.0031 252.744 95.2561 252.432 95.2561C249.174 95.3488 247.334 95.3258 244.014 95.2561C243.702 95.2561 243.449 95.0031 243.449 94.691V76.7388C243.449 74.2794 243.16 72.3747 242.581 71.0244C242.05 69.6742 241.279 68.7098 240.266 68.1311C239.254 67.5042 238.072 67.1908 236.722 67.1908C234.263 67.1425 232.358 67.89 231.008 69.4331C229.706 70.9762 229.055 73.2668 229.055 76.3048V94.691C229.055 95.0031 228.802 95.2561 228.489 95.2561C225.202 95.3388 223.359 95.335 220.072 95.2561C219.76 95.2561 219.507 95.0031 219.507 94.691V59.6545Z" fill="white"/>
</svg>
