<svg width="289" height="144" viewBox="0 0 289 144" fill="none" xmlns="http://www.w3.org/2000/svg">
<path d="M61.4954 47.7186C64.9182 47.5391 66.8407 47.5656 70.2184 47.7185C70.69 47.7225 71.071 48.106 71.071 48.5785V80.0661C71.071 82.6101 70.606 84.9188 69.6705 86.9869L69.6693 86.9894C68.7349 89.0059 67.4062 90.7284 65.6856 92.1544C64.0151 93.5789 62.029 94.6808 59.7319 95.4628L59.7282 95.464C57.4768 96.1982 55.0103 96.5636 52.3312 96.5636C49.8411 96.5636 47.6088 96.1729 45.6393 95.3852L45.631 95.3818C43.7233 94.5502 42.0791 93.4959 40.7019 92.2171L40.698 92.2135C39.3759 90.9404 38.3196 89.5658 37.532 88.0891C36.8407 86.793 36.3376 85.5298 36.0257 84.3001C35.9202 83.8844 36.148 83.4704 36.5313 83.3146C38.9869 82.0161 40.6787 81.4199 43.9647 80.4949C44.4117 80.3336 44.897 80.5666 45.0693 80.9988C45.8003 82.8321 46.7224 84.2517 47.8274 85.2725C49.0692 86.3754 50.6118 86.9322 52.4758 86.9322C53.8746 86.9322 55.2025 86.6063 56.4631 85.9527C57.7032 85.3096 58.6993 84.2731 59.4472 82.8242L59.4506 82.8176C60.2391 81.3797 60.644 79.5042 60.644 77.1727V48.5785C60.644 48.1064 61.0244 47.7231 61.4954 47.7186Z" fill="black"/>
<path fill-rule="evenodd" clip-rule="evenodd" d="M93.1691 57.9266C89.459 57.9266 86.1524 58.7569 83.2576 60.4249C80.4145 62.0427 78.159 64.2988 76.494 67.1882L76.4921 67.1915C74.873 70.0864 74.0676 73.4163 74.0676 77.1727C74.0676 80.9277 74.8482 84.2564 76.4179 87.1507L76.4198 87.154C78.0359 90.0434 80.2422 92.3237 83.0361 93.9903L83.0394 93.9922C85.8383 95.6127 89.049 96.4189 92.6628 96.4189C95.5341 96.4189 98.0995 96.0296 100.355 95.2452C102.607 94.4618 104.547 93.3331 106.171 91.8573C107.685 90.4767 108.936 88.8735 109.924 87.0491C110.167 86.5998 109.954 86.0543 109.496 85.8655C106.731 84.4484 105.079 83.808 101.988 82.9386C101.574 82.7859 101.126 82.9729 100.916 83.3396C100.282 84.4462 99.4306 85.3706 98.3572 86.1144C97.1649 86.8929 95.6115 87.2939 93.6755 87.2939C92.0799 87.2939 90.5813 86.9661 89.1763 86.3115C87.8246 85.6113 86.7063 84.633 85.8188 83.3735C85.1783 82.3754 84.7825 81.2522 84.6339 79.9992H110.253C110.727 79.9992 111.116 79.6137 111.109 79.1345C111.043 74.7658 110.219 71.0261 108.622 67.926C107.01 64.6542 104.83 62.1748 102.077 60.5026C99.3777 58.7855 96.4061 57.9266 93.1691 57.9266ZM89.4413 67.3213C90.6682 66.8494 91.8136 66.6176 92.8798 66.6176C93.9452 66.6176 95.04 66.8491 96.1661 67.3183L96.17 67.3198C97.325 67.7818 98.2954 68.5204 99.0841 69.5411L99.0883 69.5463C99.6679 70.2623 100.037 71.1821 100.182 72.3209H85.1476C85.3011 71.1861 85.6907 70.2687 86.3039 69.5531C87.1898 68.5275 88.2349 67.7852 89.4413 67.3213Z" fill="black"/>
<path d="M114.308 45.4582C117.631 45.2966 119.485 45.2896 122.742 45.4582C123.213 45.4627 123.594 45.846 123.594 46.3181V94.691C123.594 95.164 123.212 95.5477 122.74 95.5509C119.478 95.6714 117.628 95.6747 114.31 95.5509C113.838 95.5477 113.456 95.1639 113.456 94.691V46.3181C113.456 45.8458 113.837 45.4624 114.308 45.4582Z" fill="black"/>
<path d="M129.131 45.4581C132.422 45.2986 134.274 45.3042 137.564 45.4581C138.036 45.4622 138.417 45.8456 138.417 46.318V94.6909C138.417 95.164 138.035 95.5479 137.562 95.5508C134.325 95.6622 132.478 95.6681 129.133 95.5508C128.661 95.5478 128.279 95.164 128.279 94.6909V46.318C128.279 45.8457 128.66 45.4623 129.131 45.4581Z" fill="black"/>
<path d="M170.543 58.7946C174.105 58.6443 176.153 58.6145 179.812 58.7946C180.422 58.8 180.834 59.4221 180.598 59.9862L164.505 98.4806C163.488 100.902 162.421 103.036 161.304 104.883C160.174 106.798 158.769 108.281 157.084 109.322C155.431 110.373 153.273 110.886 150.635 110.886C149.294 110.886 147.816 110.613 146.204 110.076C144.84 109.649 143.603 109.147 142.494 108.568C142.092 108.359 141.938 107.876 142.116 107.473C143.103 104.86 143.774 103.379 145.203 100.731C145.413 100.287 145.947 100.114 146.38 100.329C146.985 100.63 147.545 100.871 148.058 101.054L148.068 101.058C148.771 101.34 149.359 101.471 149.839 101.471C150.791 101.471 151.621 101.201 152.338 100.662L152.348 100.655C153.065 100.162 153.661 99.4147 154.126 98.3924L155.626 94.859L139.666 60.0126C139.406 59.4449 139.819 58.7988 140.442 58.7946C144.005 58.6587 146.034 58.6628 149.683 58.7946C150.03 58.7969 150.341 59.0068 150.473 59.3274L160.35 83.3413L169.75 59.3409C169.878 59.0135 170.192 58.7974 170.543 58.7946Z" fill="black"/>
<path fill-rule="evenodd" clip-rule="evenodd" d="M194.191 44.0838C190.091 44.0838 186.984 45.1828 184.932 47.4339C182.89 49.6261 181.889 52.6965 181.889 56.603V94.691C181.889 95.1653 182.273 95.5499 182.747 95.5509C186.097 95.5913 187.939 95.583 191.168 95.5509C191.642 95.55 192.026 95.1654 192.026 94.691V67.0516H200.063C200.536 67.0516 200.919 66.6707 200.923 66.1993C201.036 63.7865 201.028 62.3312 200.923 59.6482C200.92 59.1762 200.536 58.7946 200.063 58.7946H192.026V58.1943C192.026 56.2338 192.34 54.8898 192.911 54.0993L192.915 54.0931C193.477 53.272 194.341 52.8471 195.565 52.8471C196.06 52.8471 196.609 52.9372 197.214 53.1234C197.687 53.2688 198.206 53.4721 198.772 53.7347C199.188 53.9274 199.692 53.7717 199.912 53.3586C201.288 51.0829 201.98 49.7857 202.953 47.4627C203.16 47.045 202.998 46.5286 202.568 46.3198C201.384 45.7446 200.091 45.245 198.69 44.8202C197.123 44.3307 195.623 44.0838 194.191 44.0838ZM191.166 95.2561L191.169 95.5509L191.168 95.5509H191.166V95.2561ZM182.749 95.2561V95.5509H182.747L182.745 95.5509L182.749 95.2561ZM185.149 47.6336L184.933 47.4326L184.932 47.4339L184.931 47.4351L185.149 47.6336Z" fill="black"/>
<path d="M205.121 58.7946C208.551 58.7113 210.398 58.7165 213.547 58.7946C214.02 58.7968 214.403 59.181 214.403 59.6546V94.691C214.403 95.165 214.02 95.5494 213.546 95.5509C210.362 95.6058 208.517 95.6093 205.122 95.5509C204.649 95.5494 204.265 95.165 204.265 94.691V59.6546C204.265 59.1809 204.648 58.7967 205.121 58.7946Z" fill="black"/>
<path d="M209.334 43.0712C207.803 43.0712 206.453 43.6611 205.294 44.8189C204.131 45.9333 203.542 47.2867 203.542 48.8633C203.542 50.4406 204.131 51.8164 205.292 52.9778L205.297 52.9824C206.457 54.0922 207.807 54.6555 209.334 54.6555C210.908 54.6555 212.26 54.0938 213.376 52.9778C214.538 51.8164 215.126 50.4406 215.126 48.8633C215.126 47.2877 214.539 45.9351 213.376 44.8211C212.262 43.6588 210.91 43.0712 209.334 43.0712Z" fill="black"/>
<path d="M239.248 57.9266C236.445 57.9266 233.974 58.6652 231.846 60.1492C230.703 60.9388 229.697 61.9292 228.827 63.1176L228.52 59.58C228.481 59.1367 228.111 58.7963 227.666 58.7946C224.656 58.733 222.93 58.7291 219.773 58.7946C219.3 58.7964 218.917 59.1807 218.917 59.6545V94.691C218.917 95.1646 219.3 95.5488 219.773 95.5509C223.062 95.6298 224.909 95.6336 228.199 95.5509C228.672 95.5487 229.054 95.1645 229.054 94.691V76.3047C229.054 73.3039 229.698 71.094 230.936 69.6252C232.218 68.1621 234.031 67.4387 236.421 67.4856H236.427C237.73 67.4856 238.856 67.7876 239.816 68.3819L239.825 68.3871C240.766 68.9249 241.499 69.829 242.011 71.1323L242.015 71.1406C242.571 72.4374 242.859 74.296 242.859 76.7387V94.691C242.859 95.1648 243.242 95.5491 243.716 95.5509C247.035 95.6206 248.88 95.6437 252.141 95.5509C252.614 95.5484 252.997 95.1644 252.997 94.691V74.7876C253.045 70.9071 252.537 67.7275 251.453 65.2648C250.371 62.7563 248.788 60.8949 246.7 59.7014C244.621 58.5136 242.133 57.9266 239.248 57.9266Z" fill="black"/>
</svg>
