<svg width="144" height="144" viewBox="0 0 144 144" fill="none" xmlns="http://www.w3.org/2000/svg">
<g clip-path="url(#clip0_2143_3765)">
<path d="M60.2117 49.1571C58.66 46.0414 68.8379 27.5869 72 27.5869C75.1667 27.5885 85.3229 46.0754 83.7883 49.1571C82.2537 52.2388 61.7633 52.2728 60.2117 49.1571Z" fill="black"/>
<path fill-rule="evenodd" clip-rule="evenodd" d="M36.4819 64.9961C31.8052 55.6057 62.4765 0.000976562 72 0.000976562C81.5328 0.000976562 112.153 55.714 107.527 64.9961C102.902 74.2783 41.1585 74.3866 36.4819 64.9961ZM48.7358 56.848C51.8005 63.0005 92.2536 62.9324 95.2843 56.848C98.3149 50.762 78.2515 14.2615 72.0093 14.2615C65.767 14.2615 45.6712 50.6954 48.7358 56.848Z" fill="black"/>
<path d="M120.941 133.1C120.691 133.1 120.565 133.1 120.47 133.052C120.385 133.009 120.317 132.941 120.275 132.857C120.226 132.761 120.226 132.636 120.226 132.385V106.984C120.226 106.733 120.226 106.608 120.275 106.512C120.317 106.428 120.385 106.36 120.47 106.316C120.565 106.268 120.691 106.268 120.941 106.268H125.578C125.827 106.268 125.953 106.268 126.048 106.316C126.133 106.36 126.202 106.428 126.244 106.512C126.293 106.608 126.293 106.733 126.293 106.984V109.573C127.016 108.29 128.035 107.321 129.35 106.663C130.699 106.006 132.211 105.677 133.889 105.677C135.862 105.677 137.604 106.104 139.117 106.958C140.663 107.814 141.863 109.014 142.717 110.56C143.573 112.072 144 113.831 144 115.837V132.385C144 132.636 144 132.761 143.951 132.857C143.909 132.941 143.84 133.009 143.756 133.052C143.66 133.1 143.534 133.1 143.285 133.1H138.254C138.004 133.1 137.879 133.1 137.783 133.052C137.699 133.009 137.63 132.941 137.587 132.857C137.538 132.761 137.538 132.636 137.538 132.385V117.366C137.538 115.59 137.029 114.193 136.009 113.173C135.023 112.121 133.724 111.595 132.113 111.595C130.501 111.595 129.186 112.121 128.167 113.173C127.181 114.226 126.688 115.624 126.688 117.366V132.385C126.688 132.636 126.688 132.761 126.638 132.857C126.595 132.941 126.527 133.009 126.443 133.052C126.347 133.1 126.222 133.1 125.971 133.1H120.941Z" fill="black"/>
<path d="M110.62 103.258C110.37 103.258 110.244 103.258 110.149 103.209C110.065 103.166 109.996 103.098 109.953 103.014C109.905 102.918 109.905 102.793 109.905 102.542V97.0681C109.905 96.8177 109.905 96.6924 109.953 96.5967C109.996 96.5126 110.065 96.4441 110.149 96.4013C110.244 96.3525 110.37 96.3525 110.62 96.3525H115.651C115.901 96.3525 116.026 96.3525 116.122 96.4013C116.206 96.4441 116.274 96.5126 116.317 96.5967C116.366 96.6924 116.366 96.8177 116.366 97.0681V102.542C116.366 102.793 116.366 102.918 116.317 103.014C116.274 103.098 116.206 103.166 116.122 103.209C116.026 103.258 115.901 103.258 115.651 103.258H110.62Z" fill="black"/>
<path d="M110.62 133.1C110.37 133.1 110.244 133.1 110.149 133.05C110.065 133.008 109.996 132.94 109.953 132.856C109.905 132.76 109.905 132.635 109.905 132.384V106.983C109.905 106.732 109.905 106.607 109.953 106.511C109.996 106.427 110.065 106.359 110.149 106.316C110.244 106.268 110.37 106.268 110.62 106.268H115.651C115.901 106.268 116.026 106.268 116.122 106.316C116.206 106.359 116.274 106.427 116.317 106.511C116.366 106.607 116.366 106.732 116.366 106.983V132.384C116.366 132.635 116.366 132.76 116.317 132.856C116.274 132.94 116.206 133.008 116.122 133.05C116.026 133.1 115.901 133.1 115.651 133.1H110.62Z" fill="black"/>
<path d="M95.6728 133.051C95.7685 133.099 95.8937 133.099 96.1442 133.099H101.175C101.425 133.099 101.55 133.099 101.646 133.051C101.73 133.008 101.798 132.939 101.841 132.855C101.89 132.759 101.89 132.635 101.89 132.384V112.038H107.143C107.393 112.038 107.519 112.038 107.614 111.989C107.698 111.947 107.767 111.878 107.81 111.793C107.858 111.698 107.858 111.572 107.858 111.323V106.982C107.858 106.731 107.858 106.607 107.81 106.511C107.767 106.427 107.698 106.358 107.614 106.315C107.519 106.267 107.393 106.267 107.143 106.267H101.89V105.379C101.89 104.031 102.285 103.044 103.074 102.42C103.896 101.762 105.014 101.433 106.428 101.433C106.699 101.433 106.979 101.446 107.267 101.472C107.576 101.5 107.731 101.514 107.835 101.469C107.931 101.428 108.001 101.364 108.051 101.272C108.105 101.173 108.105 101.027 108.105 100.736V96.7763C108.105 96.504 108.105 96.3678 108.051 96.2494C108.005 96.1507 107.921 96.0534 107.829 95.9951C107.719 95.9251 107.595 95.9081 107.348 95.874C106.8 95.7985 106.213 95.7607 105.59 95.7607C102.498 95.7607 100.032 96.5993 98.1908 98.2763C96.3494 99.9533 95.4286 102.321 95.4286 105.379V106.267H89.6203C89.6045 106.267 89.5894 106.267 89.5747 106.267H86.3366C86.068 106.267 85.9337 106.267 85.8184 106.311C85.7164 106.35 85.6256 106.412 85.5535 106.495C85.472 106.587 85.4249 106.713 85.3311 106.964L78.6862 124.764L71.9931 106.963C71.8988 106.712 71.8516 106.586 71.7701 106.494C71.698 106.412 71.6073 106.35 71.5055 106.31C71.3903 106.267 71.2564 106.267 70.9885 106.267H65.8291C65.4764 106.267 65.3 106.267 65.1878 106.341C65.0897 106.406 65.0211 106.507 64.9969 106.622C64.9691 106.753 65.0339 106.917 65.1635 107.245L75.3815 133.099L74.7896 134.529C74.2635 135.648 73.6552 136.551 72.9646 137.243C72.307 137.933 71.2383 138.278 69.7586 138.278C69.2325 138.278 68.6734 138.229 68.0816 138.131C67.8542 138.105 67.6366 138.075 67.4287 138.039C67.0809 137.982 66.9069 137.952 66.7951 137.994C66.6905 138.032 66.6181 138.093 66.5625 138.191C66.5032 138.294 66.5032 138.457 66.5032 138.783V142.655C66.5032 142.872 66.5032 142.981 66.5437 143.085C66.5763 143.169 66.6436 143.264 66.7124 143.323C66.7973 143.395 66.886 143.426 67.0635 143.489C67.4713 143.631 67.9093 143.736 68.3775 143.803C69.068 143.934 69.775 144 70.4984 144C73.0304 144 75.1349 143.276 76.8119 141.829C78.5218 140.415 79.8865 138.41 80.9059 135.812L90.3123 112.038H95.4286V132.384C95.4286 132.635 95.4286 132.759 95.4775 132.855C95.5203 132.939 95.5887 133.008 95.6728 133.051Z" fill="black"/>
<path d="M57.5658 133.099C57.3153 133.099 57.1901 133.099 57.0944 133.051C57.0103 133.008 56.9419 132.939 56.8991 132.855C56.8502 132.759 56.8502 132.635 56.8502 132.384V96.4763C56.8502 96.2259 56.8502 96.1006 56.8991 96.0049C56.9419 95.9208 57.0103 95.8524 57.0944 95.8096C57.1901 95.7607 57.3153 95.7607 57.5658 95.7607H62.5962C62.8466 95.7607 62.9719 95.7607 63.0675 95.8096C63.1517 95.8524 63.2201 95.9208 63.263 96.0049C63.3117 96.1006 63.3117 96.2259 63.3117 96.4763V132.384C63.3117 132.635 63.3117 132.759 63.263 132.855C63.2201 132.939 63.1517 133.008 63.0675 133.051C62.9719 133.099 62.8466 133.099 62.5962 133.099H57.5658Z" fill="black"/>
<path d="M47.1731 133.099C46.9226 133.099 46.7974 133.099 46.7017 133.051C46.6176 133.008 46.5492 132.939 46.5062 132.855C46.4575 132.759 46.4575 132.635 46.4575 132.384V96.4763C46.4575 96.2259 46.4575 96.1006 46.5062 96.0049C46.5492 95.9208 46.6176 95.8524 46.7017 95.8096C46.7974 95.7607 46.9226 95.7607 47.1731 95.7607H52.2035C52.4539 95.7607 52.5792 95.7607 52.6748 95.8096C52.759 95.8524 52.8274 95.9208 52.8702 96.0049C52.919 96.1006 52.919 96.2259 52.919 96.4763V132.384C52.919 132.635 52.919 132.759 52.8702 132.855C52.8274 132.939 52.759 133.008 52.6748 133.051C52.5792 133.099 52.4539 133.099 52.2035 133.099H47.1731Z" fill="black"/>
<path d="M30.9547 133.692C28.1926 133.692 25.7758 133.068 23.7041 131.818C21.6325 130.568 20.0213 128.875 18.8704 126.738C17.7194 124.601 17.144 122.233 17.144 119.635C17.144 116.939 17.7194 114.554 18.8704 112.483C20.0542 110.378 21.649 108.718 23.6548 107.501C25.6936 106.285 27.9624 105.677 30.4615 105.677C33.2566 105.677 35.624 106.285 37.5642 107.501C39.5042 108.685 40.984 110.263 42.0034 112.236C43.0228 114.21 43.5324 116.396 43.5324 118.796C43.5324 119.29 43.4995 119.783 43.4338 120.276C43.4147 120.544 43.3789 120.794 43.3266 121.028C43.2936 121.176 43.2772 121.249 43.2233 121.324C43.1804 121.384 43.1044 121.445 43.037 121.474C42.9526 121.51 42.8638 121.51 42.6859 121.51H23.852C24.0493 123.482 24.8057 125.06 26.121 126.245C27.4363 127.428 29.064 128.02 31.004 128.02C32.4838 128.02 33.7333 127.708 34.7527 127.084C35.5386 126.592 36.1962 126 36.7253 125.306C36.9412 125.024 37.049 124.883 37.1581 124.822C37.2632 124.764 37.3531 124.742 37.4732 124.748C37.5979 124.753 37.7377 124.822 38.0174 124.96L41.8356 126.833C42.0494 126.937 42.1562 126.99 42.221 127.078C42.2754 127.151 42.3088 127.253 42.3085 127.344C42.3082 127.453 42.257 127.552 42.1546 127.747C41.3006 129.382 39.9514 130.754 38.1067 131.868C36.068 133.084 33.684 133.692 30.9547 133.692ZM30.4615 111.004C28.8503 111.004 27.4528 111.497 26.269 112.483C25.118 113.437 24.3618 114.802 24 116.576H36.627C36.4955 114.932 35.8543 113.602 34.7034 112.582C33.5854 111.529 32.1714 111.004 30.4615 111.004Z" fill="black"/>
<path d="M0.715529 133.099C0.46507 133.099 0.339841 133.099 0.244178 133.051C0.160031 133.008 0.0916176 132.939 0.0487424 132.855C0 132.759 0 132.634 0 132.384V127.65C0 127.399 0 127.273 0.0487424 127.178C0.0916176 127.094 0.160031 127.026 0.244178 126.982C0.339841 126.933 0.46507 126.933 0.715529 126.933H2.12094C3.69931 126.933 4.94885 126.489 5.86957 125.601C6.82316 124.681 7.29997 123.464 7.29997 121.952V97.0681C7.29997 96.8177 7.29997 96.6924 7.34872 96.5967C7.39159 96.5126 7.46 96.4441 7.54415 96.4013C7.63981 96.3525 7.76504 96.3525 8.0155 96.3525H13.3418C13.5923 96.3525 13.7176 96.3525 13.8132 96.4013C13.8973 96.4441 13.9657 96.5126 14.0087 96.5967C14.0574 96.6924 14.0574 96.8177 14.0574 97.0681V121.705C14.0574 123.974 13.5641 125.964 12.5777 127.674C11.6241 129.384 10.243 130.714 8.43443 131.668C6.65875 132.622 4.55426 133.099 2.12094 133.099H0.715529Z" fill="black"/>
</g>
<defs>
<clipPath id="clip0_2143_3765">
<rect width="144" height="144" fill="white"/>
</clipPath>
</defs>
</svg>
