<svg width="72" height="72" viewBox="0 0 72 72" fill="none" xmlns="http://www.w3.org/2000/svg">
<g clip-path="url(#clip0_2143_3811)">
<path d="M24.2116 49.1581C22.6599 46.0424 32.8378 27.5879 35.9999 27.5879C39.1666 27.5895 49.3228 46.0764 47.7882 49.1581C46.2536 52.2398 25.7632 52.2738 24.2116 49.1581Z" fill="white"/>
<path fill-rule="evenodd" clip-rule="evenodd" d="M0.481861 64.9951C-4.19479 55.6047 26.4765 0 36 0C45.5328 0 76.153 55.713 71.5274 64.9951C66.9018 74.2773 5.15852 74.3856 0.481861 64.9951ZM12.7358 56.847C15.8005 62.9995 56.2536 62.9314 59.2843 56.847C62.3149 50.761 42.2515 14.2605 36.0093 14.2605C29.767 14.2605 9.67118 50.6944 12.7358 56.847Z" fill="white"/>
</g>
<defs>
<clipPath id="clip0_2143_3811">
<rect width="72" height="72" fill="white"/>
</clipPath>
</defs>
</svg>
