<svg width="392" height="144" viewBox="0 0 392 144" fill="none" xmlns="http://www.w3.org/2000/svg">
<path fill-rule="evenodd" clip-rule="evenodd" d="M36.4819 100.995C31.8052 91.6047 62.4765 36 72 36C81.5328 36 112.153 91.713 107.527 100.995C102.902 110.277 41.1585 110.386 36.4819 100.995ZM48.7359 92.8469C51.8005 98.9994 92.2536 98.9314 95.2843 92.8469C98.3149 86.7609 78.2515 50.2605 72.0093 50.2605C65.767 50.2605 45.6712 86.6944 48.7359 92.8469Z" fill="white"/>
<path d="M72 64C68.8238 64 58.6005 82.5368 60.159 85.6664C61.7176 88.7961 82.2994 88.7619 83.8409 85.6664C85.3824 82.571 75.1809 64.0016 72 64Z" fill="white"/>
<path d="M136.02 96.6821C138.065 97.4999 140.39 97.9088 142.997 97.9088C145.808 97.9088 148.389 97.5254 150.74 96.7588C153.143 95.941 155.213 94.791 156.95 93.3088C158.739 91.8265 160.119 90.0376 161.09 87.9421C162.061 85.7954 162.547 83.3932 162.547 80.7354V47.3615C162.547 47.0307 162.279 46.7625 161.948 46.7625C158.369 46.6004 156.341 46.5724 152.719 46.7625C152.388 46.7625 152.12 47.0307 152.12 47.3615V77.6687C152.12 80.1732 151.686 82.2176 150.817 83.8021C149.999 85.3865 148.9 86.5365 147.52 87.2521C146.14 87.9676 144.684 88.3254 143.15 88.3254C141.106 88.3254 139.394 87.7121 138.014 86.4854C136.799 85.364 135.798 83.8155 135.01 81.8398C134.886 81.5295 134.538 81.369 134.226 81.4874C130.74 82.4685 128.968 83.0937 126.381 84.4629C126.105 84.5679 125.945 84.8594 126.018 85.1463C126.341 86.4216 126.864 87.7369 127.587 89.0921C128.405 90.6254 129.504 92.0565 130.884 93.3854C132.315 94.7143 134.027 95.8132 136.02 96.6821Z" fill="white"/>
<path fill-rule="evenodd" clip-rule="evenodd" d="M175.792 95.2254C178.705 96.9121 182.053 97.7554 185.835 97.7554C188.851 97.7554 191.534 97.3465 193.885 96.5288C196.236 95.711 198.255 94.5354 199.942 93.0021C201.52 91.5627 202.825 89.8913 203.855 87.988C204.023 87.678 203.875 87.2949 203.547 87.1669C200.624 85.6683 198.892 84.9965 195.621 84.0772C195.332 83.9648 195.008 84.0917 194.854 84.3603C194.158 85.5757 193.222 86.5908 192.045 87.4054C190.716 88.2743 189.004 88.7088 186.908 88.7088C185.171 88.7088 183.535 88.351 182.002 87.6354C180.52 86.8688 179.293 85.7954 178.322 84.4154C177.554 83.2212 177.107 81.8667 176.98 80.3521H204.479C204.81 80.3521 205.079 80.0834 205.074 79.7527C205.005 75.157 204.138 71.2424 202.472 68.0088C200.785 64.5843 198.511 62.0032 195.648 60.2654C192.837 58.4765 189.745 57.5821 186.372 57.5821C182.487 57.5821 179.037 58.451 176.022 60.1888C173.057 61.8754 170.706 64.2265 168.968 67.2421C167.282 70.2576 166.438 73.7332 166.438 77.6688C166.438 81.6043 167.256 85.0799 168.892 88.0954C170.578 91.111 172.878 93.4876 175.792 95.2254ZM177.52 72.8388H194.153C194.029 71.4265 193.607 70.2765 192.888 69.3888C192.02 68.2643 190.946 67.4465 189.668 66.9354C188.442 66.4243 187.241 66.1688 186.065 66.1688C184.89 66.1688 183.637 66.4243 182.308 66.9354C180.98 67.4465 179.83 68.2643 178.858 69.3888C178.097 70.2765 177.651 71.4265 177.52 72.8388Z" fill="white"/>
<path d="M208.276 44.9656C208.276 44.6348 208.544 44.3666 208.875 44.3666C212.394 44.1954 214.349 44.188 217.797 44.3666C218.128 44.3666 218.396 44.6348 218.396 44.9656V96.2364C218.396 96.5672 218.128 96.8354 217.797 96.8354C214.342 96.9631 212.389 96.9666 208.875 96.8354C208.544 96.8354 208.276 96.5672 208.276 96.2364V44.9656Z" fill="white"/>
<path d="M224.676 44.3667C224.345 44.3667 224.077 44.6348 224.077 44.9656V96.2365C224.077 96.5673 224.345 96.8354 224.676 96.8354C228.218 96.9596 230.169 96.9534 233.598 96.8354C233.929 96.8354 234.197 96.5673 234.197 96.2365V44.9656C234.197 44.6348 233.929 44.3667 233.598 44.3667C230.114 44.2035 228.16 44.1977 224.676 44.3667Z" fill="white"/>
<path d="M247.544 113.089C246.164 113.089 244.631 112.808 242.944 112.245C241.512 111.798 240.217 111.272 239.06 110.668C238.783 110.524 238.674 110.187 238.804 109.903C239.848 107.139 240.554 105.581 242.066 102.779C242.21 102.466 242.587 102.339 242.895 102.492C243.546 102.815 244.15 103.076 244.707 103.275C245.474 103.582 246.138 103.735 246.701 103.735C247.774 103.735 248.72 103.429 249.537 102.815C250.355 102.253 251.019 101.41 251.531 100.285L253.176 96.4098L236.202 59.3504C236.021 58.9537 236.311 58.5021 236.747 58.5021C240.521 58.3581 242.664 58.3624 246.529 58.5021C246.772 58.5021 246.991 58.6487 247.083 58.8732L257.849 85.0457L268.095 58.8826C268.185 58.6531 268.406 58.5021 268.653 58.5021C272.427 58.3428 274.588 58.3113 278.461 58.5021C278.889 58.5021 279.179 58.9374 279.014 59.3321L261.957 100.132C260.884 102.688 259.759 104.937 258.584 106.879C257.408 108.872 255.952 110.405 254.214 111.479C252.527 112.552 250.304 113.089 247.544 113.089Z" fill="white"/>
<path d="M291.191 96.2365C291.191 96.5673 290.922 96.8354 290.592 96.8354C287.169 96.8694 285.219 96.8782 281.67 96.8354C281.339 96.8354 281.071 96.5673 281.071 96.2365V55.8667C281.071 51.7778 282.118 48.6089 284.214 46.36C286.309 44.06 289.504 42.91 293.797 42.91C295.279 42.91 296.838 43.1656 298.474 43.6767C299.946 44.1228 301.301 44.6467 302.54 45.2485C302.837 45.3929 302.951 45.7543 302.8 46.0478C301.773 48.502 301.047 49.8639 299.588 52.2743C299.438 52.5657 299.082 52.681 298.784 52.543C298.174 52.2601 297.611 52.0391 297.094 51.88C296.429 51.6756 295.816 51.5733 295.254 51.5733C293.874 51.5733 292.852 52.0589 292.187 53.03C291.523 53.95 291.191 55.4578 291.191 57.5533V58.5021H300.022C300.352 58.5021 300.621 58.7703 300.621 59.101C300.732 61.944 300.74 63.4778 300.621 66.0298C300.621 66.3606 300.352 66.6288 300.022 66.6288H291.191V96.2365Z" fill="white"/>
<path d="M304.882 59.1011C304.882 58.7703 305.15 58.5021 305.481 58.5021C309.114 58.4138 311.067 58.4193 314.403 58.5021C314.733 58.5021 315.002 58.7703 315.002 59.1011V96.2365C315.002 96.5673 314.733 96.8354 314.403 96.8354C311.029 96.8936 309.077 96.8973 305.481 96.8354C305.15 96.8354 304.882 96.5673 304.882 96.2365V59.1011Z" fill="white"/>
<path d="M305.878 51.8033C307.054 52.9278 308.408 53.49 309.942 53.49C311.526 53.49 312.88 52.9278 314.005 51.8033C315.18 50.6278 315.768 49.2478 315.768 47.6633C315.768 46.0789 315.18 44.7244 314.005 43.6C312.88 42.4244 311.526 41.8367 309.942 41.8367C308.408 41.8367 307.054 42.4244 305.878 43.6C304.703 44.7244 304.115 46.0789 304.115 47.6633C304.115 49.2478 304.703 50.6278 305.878 51.8033Z" fill="white"/>
<path d="M320.5 59.1011C320.5 58.7703 320.768 58.5021 321.099 58.5021C324.443 58.4328 326.268 58.4369 329.458 58.5021C329.768 58.5021 330.027 58.7396 330.054 59.0492L330.456 63.6646C331.465 62.11 332.669 60.8492 334.07 59.8821C336.268 58.3488 338.823 57.5821 341.737 57.5821C344.752 57.5821 347.333 58.1954 349.48 59.4221C351.627 60.6488 353.262 62.5654 354.387 65.1721C355.511 67.7276 356.048 71.0499 355.997 75.1388V96.2365C355.997 96.5673 355.729 96.8354 355.398 96.8354C351.945 96.9337 349.995 96.9093 346.476 96.8354C346.145 96.8354 345.877 96.5673 345.877 96.2365V77.2088C345.877 74.6021 345.57 72.5832 344.957 71.1521C344.394 69.721 343.577 68.6988 342.503 68.0854C341.43 67.421 340.178 67.0888 338.747 67.0888C336.14 67.0376 334.121 67.8299 332.69 69.4654C331.31 71.101 330.62 73.5288 330.62 76.7488V96.2365C330.62 96.5673 330.352 96.8354 330.021 96.8354C326.536 96.9231 324.583 96.919 321.099 96.8354C320.768 96.8354 320.5 96.5673 320.5 96.2365V59.1011Z" fill="white"/>
</svg>
