<svg width="144" height="144" viewBox="0 0 144 144" fill="none" xmlns="http://www.w3.org/2000/svg">
<path fill-rule="evenodd" clip-rule="evenodd" d="M36.4819 100.995C31.8052 91.6047 62.4765 36 72 36C81.5328 36 112.153 91.713 107.527 100.995C102.902 110.277 41.1585 110.386 36.4819 100.995ZM48.7359 92.8469C51.8005 98.9994 92.2536 98.9314 95.2843 92.8469C98.3149 86.7609 78.2515 50.2605 72.0093 50.2605C65.767 50.2605 45.6712 86.6944 48.7359 92.8469Z" fill="white"/>
<path d="M72 64C68.8238 64 58.6005 82.5368 60.159 85.6664C61.7176 88.7961 82.2994 88.7619 83.8409 85.6664C85.3824 82.571 75.1809 64.0016 72 64Z" fill="white"/>
</svg>
