<svg width="256" height="221" viewBox="0 0 256 221" fill="none" xmlns="http://www.w3.org/2000/svg">
<path fill-rule="evenodd" clip-rule="evenodd" d="M92.4819 100.995C87.8052 91.6047 118.477 36 128 36C137.533 36 168.153 91.713 163.527 100.995C158.902 110.277 97.1585 110.386 92.4819 100.995ZM105.408 92.5253C108.222 98.1738 147.882 98.0113 150.613 92.5273C153.344 87.0434 133.789 51.01 128.009 51.01C122.23 51.01 102.594 86.8768 105.408 92.5253Z" fill="black"/>
<path d="M128 63.5C124.481 63.5 113.968 82.3745 115.708 85.8691C117.449 89.3637 138.553 89.3605 140.291 85.8691C142.03 82.3777 131.519 63.5 128 63.5Z" fill="black"/>
<path d="M57.6182 140.394C60.5205 140.242 62.1506 140.264 65.0147 140.394C65.4145 140.397 65.7376 140.723 65.7376 141.123V167.822C65.7376 169.98 65.3434 171.937 64.5501 173.691L64.5491 173.693C63.7567 175.403 62.6301 176.863 61.1712 178.072C59.7547 179.28 58.0706 180.215 56.1228 180.878L56.1198 180.879C54.2107 181.501 52.1193 181.811 49.8476 181.811C47.7362 181.811 45.8434 181.48 44.1734 180.812L44.1663 180.809C42.5488 180.104 41.1546 179.21 39.9868 178.126L39.9835 178.122C38.8625 177.043 37.9668 175.877 37.299 174.625C36.7129 173.526 36.2863 172.455 36.0217 171.412C35.9323 171.06 36.1255 170.709 36.4505 170.577C38.5327 169.476 39.9671 168.97 42.7534 168.186C43.1325 168.049 43.544 168.247 43.6901 168.613C44.3099 170.168 45.0918 171.371 46.0288 172.237C47.0817 173.172 48.3897 173.644 49.9703 173.644C51.1563 173.644 52.2822 173.368 53.3512 172.814C54.4027 172.268 55.2474 171.39 55.8815 170.161L55.8843 170.155C56.553 168.936 56.8963 167.346 56.8963 165.369V141.123C56.8963 140.723 57.2188 140.398 57.6182 140.394Z" fill="black"/>
<path fill-rule="evenodd" clip-rule="evenodd" d="M84.4752 149.05C81.3293 149.05 78.5255 149.754 76.071 151.168C73.6602 152.54 71.7478 154.453 70.3359 156.903L70.3344 156.906C68.9614 159.36 68.2786 162.184 68.2786 165.369C68.2786 168.553 68.9404 171.375 70.2715 173.83L70.273 173.832C71.6434 176.282 73.5141 178.216 75.8832 179.629L75.886 179.631C78.2592 181.005 80.9817 181.688 84.0459 181.688C86.4806 181.688 88.6558 181.358 90.568 180.693C92.4778 180.029 94.1232 179.072 95.4997 177.82C96.7836 176.65 97.8445 175.29 98.6819 173.743C98.8881 173.362 98.7076 172.9 98.3189 172.74C95.9748 171.538 94.574 170.995 91.9527 170.258C91.602 170.129 91.222 170.287 91.044 170.598C90.5068 171.536 89.7845 172.32 88.8743 172.951C87.8634 173.611 86.5462 173.951 84.9046 173.951C83.5516 173.951 82.2809 173.673 81.0896 173.118C79.9435 172.524 78.9953 171.695 78.2427 170.627C77.6996 169.78 77.364 168.828 77.238 167.766H98.9614C99.3634 167.766 99.6931 167.439 99.687 167.032C99.6314 163.328 98.9322 160.157 97.5785 157.528C96.2117 154.754 94.3628 152.652 92.0285 151.234C89.7396 149.778 87.2199 149.05 84.4752 149.05ZM81.3143 157.016C82.3547 156.616 83.3259 156.419 84.2299 156.419C85.1333 156.419 86.0616 156.615 87.0164 157.013L87.0197 157.014C87.9991 157.406 88.8219 158.032 89.4907 158.898L89.4943 158.902C89.9857 159.509 90.2987 160.289 90.4218 161.255H77.6736C77.8038 160.293 78.1341 159.515 78.654 158.908C79.4052 158.038 80.2914 157.409 81.3143 157.016Z" fill="black"/>
<path d="M102.4 138.477C105.217 138.34 106.789 138.334 109.551 138.477C109.951 138.481 110.273 138.806 110.273 139.207V180.223C110.273 180.624 109.949 180.95 109.549 180.952C106.783 181.055 105.215 181.057 102.401 180.952C102.001 180.95 101.677 180.624 101.677 180.223V139.207C101.677 138.806 102 138.481 102.4 138.477Z" fill="black"/>
<path d="M114.968 138.477C117.759 138.342 119.329 138.347 122.119 138.477C122.519 138.481 122.842 138.806 122.842 139.206V180.223C122.842 180.624 122.518 180.95 122.117 180.952C119.372 181.047 117.806 181.052 114.97 180.952C114.57 180.95 114.246 180.624 114.246 180.223V139.206C114.246 138.806 114.569 138.481 114.968 138.477Z" fill="black"/>
<path d="M150.083 149.786C153.103 149.658 154.839 149.633 157.942 149.786C158.459 149.79 158.808 150.318 158.608 150.796L144.963 183.436C144.101 185.489 143.196 187.299 142.248 188.865C141.29 190.489 140.099 191.746 138.671 192.629C137.269 193.52 135.439 193.955 133.202 193.955C132.065 193.955 130.812 193.724 129.445 193.268C128.288 192.907 127.239 192.481 126.299 191.99C125.958 191.812 125.827 191.403 125.979 191.061C126.816 188.846 127.384 187.59 128.596 185.345C128.774 184.968 129.227 184.821 129.594 185.004C130.107 185.259 130.582 185.464 131.017 185.619L131.025 185.622C131.622 185.861 132.12 185.972 132.527 185.972C133.335 185.972 134.038 185.743 134.646 185.286L134.655 185.28C135.263 184.862 135.768 184.228 136.162 183.362L137.434 180.366L123.901 150.818C123.681 150.337 124.031 149.789 124.559 149.786C127.58 149.67 129.301 149.674 132.395 149.786C132.689 149.788 132.953 149.966 133.064 150.237L141.44 170.6L149.41 150.249C149.518 149.971 149.785 149.788 150.083 149.786Z" fill="black"/>
<path fill-rule="evenodd" clip-rule="evenodd" d="M170.134 137.312C166.657 137.312 164.023 138.244 162.284 140.153C160.552 142.011 159.703 144.615 159.703 147.927V180.223C159.703 180.625 160.028 180.952 160.43 180.952C163.271 180.987 164.833 180.98 167.571 180.952C167.973 180.952 168.299 180.625 168.299 180.223V156.787H175.114C175.514 156.787 175.839 156.464 175.843 156.064C175.939 154.018 175.932 152.785 175.843 150.509C175.84 150.109 175.515 149.786 175.114 149.786H168.299V149.277C168.299 147.614 168.565 146.475 169.049 145.804L169.053 145.799C169.529 145.103 170.262 144.743 171.3 144.743C171.719 144.743 172.185 144.819 172.698 144.977C173.099 145.1 173.539 145.273 174.019 145.495C174.371 145.659 174.799 145.527 174.985 145.176C176.152 143.247 176.739 142.147 177.564 140.177C177.74 139.823 177.602 139.385 177.238 139.208C176.234 138.72 175.138 138.297 173.949 137.936C172.621 137.521 171.349 137.312 170.134 137.312ZM167.57 180.702L167.572 180.952L167.571 180.952H167.57V180.702ZM160.432 180.702V180.952H160.43L160.429 180.952L160.432 180.702ZM162.468 140.322L162.285 140.152L162.284 140.153L162.283 140.154L162.468 140.322Z" fill="black"/>
<path d="M179.402 149.786C182.311 149.715 183.877 149.72 186.547 149.786C186.948 149.788 187.273 150.113 187.273 150.515V180.223C187.273 180.625 186.948 180.951 186.546 180.952C183.846 180.999 182.281 181.002 179.403 180.952C179.002 180.951 178.677 180.625 178.677 180.223V150.515C178.677 150.113 179.001 149.788 179.402 149.786Z" fill="black"/>
<path d="M182.975 136.453C181.677 136.453 180.532 136.954 179.549 137.935C178.562 138.88 178.063 140.028 178.063 141.365C178.063 142.702 178.562 143.869 179.547 144.853L179.551 144.857C180.535 145.798 181.679 146.276 182.975 146.276C184.309 146.276 185.456 145.8 186.402 144.853C187.387 143.869 187.886 142.702 187.886 141.365C187.886 140.029 187.388 138.882 186.402 137.937C185.458 136.952 184.311 136.453 182.975 136.453Z" fill="black"/>
<path d="M208.339 149.05C205.962 149.05 203.867 149.676 202.063 150.934C201.094 151.604 200.241 152.444 199.503 153.451L199.242 150.452C199.21 150.076 198.896 149.787 198.519 149.786C195.966 149.734 194.503 149.73 191.826 149.786C191.425 149.787 191.1 150.113 191.1 150.515V180.223C191.1 180.625 191.425 180.951 191.826 180.952C194.615 181.019 196.181 181.022 198.97 180.952C199.371 180.95 199.696 180.625 199.696 180.223V164.633C199.696 162.088 200.242 160.215 201.292 158.969C202.378 157.729 203.916 157.115 205.942 157.155H205.947C207.052 157.155 208.007 157.411 208.821 157.915L208.829 157.919C209.627 158.375 210.248 159.142 210.683 160.247L210.686 160.254C211.157 161.354 211.401 162.93 211.401 165.001V180.223C211.401 180.625 211.726 180.951 212.128 180.952C214.942 181.011 216.506 181.031 219.272 180.952C219.673 180.95 219.997 180.625 219.997 180.223V163.347C220.038 160.056 219.607 157.36 218.689 155.272C217.771 153.145 216.429 151.567 214.658 150.555C212.895 149.547 210.786 149.05 208.339 149.05Z" fill="black"/>
</svg>
