<svg width="379" height="144" viewBox="0 0 379 144" fill="none" xmlns="http://www.w3.org/2000/svg">
<path d="M71.9997 64C75.1805 64.0016 85.3815 82.5701 83.8405 85.666C82.299 88.7614 61.7174 88.7956 60.1589 85.666C58.6014 82.5353 68.8232 64.0012 71.9997 64Z" fill="url(#paint0_linear_2035_3514)"/>
<path fill-rule="evenodd" clip-rule="evenodd" d="M71.9997 36C81.5324 36 112.153 91.713 107.527 100.995C102.901 110.277 41.1591 110.385 36.4821 100.995C31.8055 91.6048 62.4758 36.0013 71.9997 36ZM72.0094 50.2607C65.7672 50.2607 45.6717 86.6937 48.736 92.8467C51.8007 98.9992 92.2532 98.9311 95.2839 92.8467C98.3143 86.7606 78.2518 50.2614 72.0094 50.2607Z" fill="url(#paint1_linear_2035_3514)"/>
<path d="M135.454 95.9614C137.383 96.733 139.577 97.1187 142.036 97.1187C144.688 97.1187 147.124 96.7571 149.342 96.0337C151.608 95.2622 153.561 94.1772 155.201 92.7787C156.889 91.3803 158.191 89.6925 159.107 87.7154C160.023 85.6901 160.481 83.4236 160.481 80.9161V49.4285C160.481 49.1164 160.228 48.8634 159.916 48.8634C156.539 48.7104 154.626 48.684 151.209 48.8634C150.897 48.8634 150.644 49.1164 150.644 49.4285V78.0227C150.644 80.3856 150.234 82.3145 149.414 83.8094C148.643 85.3043 147.606 86.3893 146.304 87.0644C145.002 87.7395 143.628 88.0771 142.181 88.0771C140.252 88.0771 138.637 87.4984 137.335 86.3411C136.188 85.283 135.244 83.822 134.501 81.958C134.384 81.6653 134.056 81.5138 133.761 81.6256C130.472 82.5512 128.801 83.141 126.36 84.4329C126.099 84.5319 125.948 84.807 126.017 85.0776C126.322 86.2809 126.815 87.5218 127.497 88.8004C128.269 90.2471 129.306 91.5973 130.608 92.8511C131.958 94.1048 133.573 95.1416 135.454 95.9614Z" fill="#FCFAFF"/>
<path fill-rule="evenodd" clip-rule="evenodd" d="M172.977 94.5871C175.726 96.1784 178.885 96.9741 182.453 96.9741C185.298 96.9741 187.83 96.5883 190.048 95.8167C192.266 95.0452 194.171 93.9361 195.762 92.4894C197.252 91.1314 198.483 89.5545 199.455 87.7587C199.613 87.4662 199.473 87.1048 199.163 86.984C196.406 85.5701 194.772 84.9364 191.686 84.0689C191.414 83.9629 191.107 84.0827 190.962 84.3361C190.306 85.4828 189.422 86.4405 188.312 87.2091C187.058 88.0289 185.443 88.4387 183.466 88.4387C181.826 88.4387 180.283 88.1012 178.836 87.4261C177.438 86.7027 176.281 85.6901 175.364 84.3881C174.64 83.2613 174.218 81.9834 174.098 80.5544H200.044C200.356 80.5544 200.609 80.3009 200.605 79.9889C200.539 75.653 199.721 71.9596 198.149 68.9087C196.558 65.6779 194.412 63.2426 191.712 61.6031C189.06 59.9153 186.142 59.0714 182.959 59.0714C179.295 59.0714 176.04 59.8912 173.194 61.5307C170.398 63.1221 168.179 65.3403 166.54 68.1854C164.948 71.0305 164.153 74.3096 164.153 78.0227C164.153 81.7359 164.924 85.015 166.467 87.8601C168.059 90.7052 170.229 92.9475 172.977 94.5871ZM174.608 73.4657H190.301C190.183 72.1333 189.786 71.0483 189.108 70.2107C188.288 69.1499 187.275 68.3783 186.07 67.8961C184.912 67.4139 183.779 67.1727 182.67 67.1727C181.561 67.1727 180.38 67.4139 179.126 67.8961C177.872 68.3783 176.787 69.1499 175.871 70.2107C175.153 71.0483 174.732 72.1333 174.608 73.4657Z" fill="#FCFAFF"/>
<path d="M203.626 47.168C203.626 46.8559 203.879 46.6029 204.191 46.6029C207.511 46.4414 209.356 46.4344 212.609 46.6029C212.921 46.6029 213.174 46.8559 213.174 47.168V95.5409C213.174 95.853 212.921 96.1061 212.609 96.1061C209.349 96.2265 207.506 96.2298 204.191 96.1061C203.879 96.1061 203.626 95.853 203.626 95.5409V47.168Z" fill="#FCFAFF"/>
<path d="M219.098 46.603C218.786 46.603 218.533 46.856 218.533 47.1681V95.541C218.533 95.8531 218.786 96.1061 219.098 96.1061C222.44 96.2233 224.281 96.2175 227.516 96.1061C227.828 96.1061 228.081 95.8531 228.081 95.541V47.1681C228.081 46.856 227.828 46.603 227.516 46.603C224.229 46.4491 222.386 46.4436 219.098 46.603Z" fill="#FCFAFF"/>
<path d="M240.674 111.441C239.372 111.441 237.925 111.176 236.334 110.645C234.983 110.223 233.762 109.727 232.669 109.157C232.408 109.021 232.305 108.703 232.428 108.435C233.413 105.828 234.079 104.357 235.506 101.714C235.641 101.418 235.997 101.298 236.288 101.443C236.902 101.748 237.472 101.994 237.998 102.182C238.721 102.471 239.348 102.616 239.878 102.616C240.891 102.616 241.783 102.327 242.555 101.748C243.326 101.218 243.953 100.422 244.435 99.3611L245.987 95.7045L229.974 60.7398C229.802 60.3655 230.076 59.9394 230.487 59.9394C234.048 59.8036 236.07 59.8076 239.717 59.9394C239.946 59.9394 240.152 60.0777 240.239 60.2895L250.396 84.9827L260.063 60.2984C260.148 60.0819 260.357 59.9394 260.59 59.9394C264.151 59.7891 266.19 59.7595 269.844 59.9394C270.247 59.9394 270.521 60.3502 270.365 60.7225L254.273 99.2164C253.26 101.628 252.199 103.749 251.09 105.582C249.981 107.462 248.607 108.909 246.967 109.922C245.376 110.934 243.278 111.441 240.674 111.441Z" fill="#FCFAFF"/>
<path d="M281.854 95.541C281.854 95.8531 281.601 96.1061 281.289 96.1061C278.06 96.1382 276.22 96.1464 272.871 96.1061C272.559 96.1061 272.306 95.8531 272.306 95.541V57.453C272.306 53.5952 273.294 50.6054 275.271 48.4836C277.248 46.3136 280.262 45.2286 284.313 45.2286C285.712 45.2286 287.182 45.4697 288.725 45.952C290.114 46.3728 291.393 46.8672 292.561 47.435C292.842 47.5712 292.95 47.9122 292.807 48.1891C291.838 50.5046 291.153 51.7894 289.777 54.0637C289.635 54.3386 289.299 54.4474 289.018 54.3172C288.443 54.0503 287.911 53.8417 287.423 53.6916C286.796 53.4987 286.218 53.4023 285.687 53.4023C284.385 53.4023 283.421 53.8604 282.794 54.7766C282.167 55.6446 281.854 57.0672 281.854 59.0443V59.9394H290.186C290.498 59.9394 290.751 60.1924 290.751 60.5045C290.855 63.1868 290.864 64.6339 290.751 67.0417C290.751 67.3538 290.498 67.6068 290.186 67.6068H281.854V95.541Z" fill="#FCFAFF"/>
<path d="M294.771 60.5046C294.771 60.1925 295.024 59.9394 295.336 59.9394C298.764 59.8561 300.606 59.8614 303.754 59.9394C304.066 59.9394 304.319 60.1925 304.319 60.5046V95.541C304.319 95.8531 304.066 96.1061 303.754 96.1061C300.571 96.161 298.729 96.1645 295.336 96.1061C295.024 96.1061 294.771 95.8531 294.771 95.541V60.5046Z" fill="#FCFAFF"/>
<path d="M295.711 53.6193C296.82 54.6802 298.098 55.2106 299.545 55.2106C301.04 55.2106 302.318 54.6802 303.379 53.6193C304.488 52.5102 305.042 51.2082 305.042 49.7133C305.042 48.2184 304.488 46.9405 303.379 45.8796C302.318 44.7705 301.04 44.2159 299.545 44.2159C298.098 44.2159 296.82 44.7705 295.711 45.8796C294.602 46.9405 294.048 48.2184 294.048 49.7133C294.048 51.2082 294.602 52.5102 295.711 53.6193Z" fill="#FCFAFF"/>
<path d="M309.507 60.5045C309.507 60.1924 309.76 59.9394 310.072 59.9394C313.227 59.874 314.949 59.8779 317.958 59.9394C318.251 59.9394 318.495 60.1635 318.521 60.4556L318.899 64.8102C319.851 63.3434 320.988 62.1539 322.31 61.2414C324.383 59.7947 326.794 59.0714 329.543 59.0714C332.388 59.0714 334.823 59.6501 336.849 60.8074C338.874 61.9647 340.417 63.7731 341.478 66.2324C342.539 68.6435 343.045 71.778 342.997 75.6357V95.541C342.997 95.8531 342.744 96.1061 342.432 96.1061C339.174 96.1988 337.334 96.1758 334.014 96.1061C333.702 96.1061 333.449 95.8531 333.449 95.541V77.5887C333.449 75.1294 333.16 73.2246 332.581 71.8744C332.05 70.5242 331.279 69.5597 330.266 68.9811C329.254 68.3542 328.072 68.0407 326.722 68.0407C324.263 67.9925 322.358 68.74 321.008 70.2831C319.706 71.8262 319.055 74.1167 319.055 77.1547V95.541C319.055 95.8531 318.802 96.1061 318.489 96.1061C315.202 96.1888 313.359 96.185 310.072 96.1061C309.76 96.1061 309.507 95.8531 309.507 95.541V60.5045Z" fill="#FCFAFF"/>
<defs>
<linearGradient id="paint0_linear_2035_3514" x1="48.0001" y1="65.9991" x2="107.999" y2="99.0006" gradientUnits="userSpaceOnUse">
<stop stop-color="#AA5CC3"/>
<stop offset="1" stop-color="#00A4DC"/>
</linearGradient>
<linearGradient id="paint1_linear_2035_3514" x1="48.0001" y1="65.9991" x2="107.999" y2="99.0006" gradientUnits="userSpaceOnUse">
<stop stop-color="#AA5CC3"/>
<stop offset="1" stop-color="#00A4DC"/>
</linearGradient>
</defs>
</svg>
