<svg width="144" height="144" viewBox="0 0 144 144" fill="none" xmlns="http://www.w3.org/2000/svg">
<path fill-rule="evenodd" clip-rule="evenodd" d="M36.4819 100.995C31.8052 91.6047 62.4765 36 72 36C81.5327 36 112.153 91.713 107.527 100.995C102.902 110.277 41.1585 110.386 36.4819 100.995ZM49.408 92.5253C52.2216 98.1738 91.8824 98.0113 94.6133 92.5273C97.3441 87.0434 77.789 51.01 72.0093 51.01C66.2295 51.01 46.5944 86.8768 49.408 92.5253Z" fill="black"/>
<path d="M72.0001 63.5C68.4809 63.5 57.9681 82.3745 59.7084 85.8691C61.4488 89.3637 82.5525 89.3605 84.2912 85.8691C86.0299 82.3777 75.5193 63.5 72.0001 63.5Z" fill="black"/>
</svg>
