<svg width="144" height="144" viewBox="0 0 144 144" fill="none" xmlns="http://www.w3.org/2000/svg">
<path d="M71.9997 64C75.1805 64.0016 85.3815 82.5701 83.8405 85.666C82.299 88.7614 61.7174 88.7956 60.1589 85.666C58.6014 82.5353 68.8232 64.0012 71.9997 64Z" fill="url(#paint0_linear_2035_3513)"/>
<path fill-rule="evenodd" clip-rule="evenodd" d="M71.9997 36C81.5324 36 112.153 91.713 107.527 100.995C102.901 110.277 41.1591 110.385 36.4821 100.995C31.8055 91.6048 62.4758 36.0013 71.9997 36ZM72.0094 50.2607C65.7672 50.2607 45.6717 86.6937 48.736 92.8467C51.8007 98.9992 92.2532 98.9311 95.2839 92.8467C98.3143 86.7606 78.2518 50.2614 72.0094 50.2607Z" fill="url(#paint1_linear_2035_3513)"/>
<defs>
<linearGradient id="paint0_linear_2035_3513" x1="48.0001" y1="65.9991" x2="107.999" y2="99.0006" gradientUnits="userSpaceOnUse">
<stop stop-color="#AA5CC3"/>
<stop offset="1" stop-color="#00A4DC"/>
</linearGradient>
<linearGradient id="paint1_linear_2035_3513" x1="48.0001" y1="65.9991" x2="107.999" y2="99.0006" gradientUnits="userSpaceOnUse">
<stop stop-color="#AA5CC3"/>
<stop offset="1" stop-color="#00A4DC"/>
</linearGradient>
</defs>
</svg>
